<svg xmlns="http://www.w3.org/2000/svg" width="201.036" height="53.795" viewBox="0 0 201.036 53.795">
    <defs>
        <style>
            .cls-1{fill:#fbbc04}.cls-2{fill:#0f9d58}.cls-3{fill:#ea4335}.cls-4{fill:#4285f4}.cls-5{fill:#4b4b4b}
        </style>
    </defs>
    <g id="White" transform="translate(3.578 3.573)">
        <rect id="Rectangle_728" width="48.87" height="15.815" class="cls-1" data-name="Rectangle 728" rx="7.907" transform="rotate(-29.3 96.004 -82.83)"/>
        <rect id="Rectangle_729" width="48.87" height="15.815" class="cls-2" data-name="Rectangle 729" rx="7.907" transform="rotate(29.3 37.084 114.05)"/>
        <path id="Path_4641" d="M44 4.005a7.907 7.907 0 0 0-10.756-2.988L4.4 17.224A7.867 7.867 0 0 0 2 19.4c.288.224 10.615 6.193 14.421 9.245L40.991 14.8A7.907 7.907 0 0 0 44 4.005z" class="cls-3" data-name="Path 4641" transform="translate(-1.109 -.71)"/>
        <rect id="Rectangle_730" width="48.87" height="15.815" class="cls-4" data-name="Rectangle 730" rx="7.907" transform="rotate(-150.7 26.076 20)"/>
        <path id="Path_4642" d="M144.05 19.727V2.518h5.263a8.572 8.572 0 0 1 6.329 2.4 8.4 8.4 0 0 1 2.4 6.225 8.364 8.364 0 0 1-2.4 6.233 8.572 8.572 0 0 1-6.329 2.4zm2.211-15.093v12.978h3.052a6.409 6.409 0 0 0 4.735-1.722 6.409 6.409 0 0 0 1.73-4.807 6.409 6.409 0 0 0-1.73-4.759 6.409 6.409 0 0 0-4.735-1.73z" class="cls-5" data-name="Path 4642" transform="translate(-29.357 -1.21)"/>
        <path id="Path_4643" d="M168.969 21.364a5.608 5.608 0 0 1-4.278-1.779 6.281 6.281 0 0 1-1.682-4.494 6.337 6.337 0 0 1 1.6-4.478 5.416 5.416 0 0 1 4.182-1.795 5.344 5.344 0 0 1 4.166 1.7 6.769 6.769 0 0 1 1.554 4.743v.24h-9.245a3.773 3.773 0 0 0 1.154 2.788 3.725 3.725 0 0 0 5.96-1.058l1.971.961a5.88 5.88 0 0 1-2.2 2.331 6.065 6.065 0 0 1-3.182.841zm-3.569-7.691h6.754a2.924 2.924 0 0 0-1-2.027 3.485 3.485 0 0 0-2.4-.8 3.2 3.2 0 0 0-2.155.8 3.669 3.669 0 0 0-1.199 2.027z" class="cls-5" data-name="Path 4643" transform="translate(-33.126 -2.463)"/>
        <path id="Path_4644" d="M185.04 21.077h-2.219L178.07 9.3h2.4l3.461 9.133h.048l3.512-9.133h2.355z" class="cls-5" data-name="Path 4644" transform="translate(-36.122 -2.56)"/>
        <path id="Path_4645" d="M197.253 12.35v7.379h-2.2V2.52H205.1v2.115h-7.843v5.648h7.074v2.067z" class="cls-5" data-name="Path 4645" transform="translate(-39.499 -1.212)"/>
        <path id="Path_4646" d="M214.439 21.357a5.608 5.608 0 0 1-4.278-1.779 6.281 6.281 0 0 1-1.682-4.494 6.409 6.409 0 0 1 1.6-4.478 5.872 5.872 0 0 1 8.428-.1 6.77 6.77 0 0 1 1.554 4.743v.24h-9.325a3.837 3.837 0 0 0 1.154 2.788 3.725 3.725 0 0 0 5.96-1.058l1.971.961a5.864 5.864 0 0 1-2.2 2.331 6.1 6.1 0 0 1-3.182.846zm-3.533-7.691h6.754a2.916 2.916 0 0 0-.993-2.027 3.5 3.5 0 0 0-2.4-.8 3.2 3.2 0 0 0-2.147.8 3.677 3.677 0 0 0-1.21 2.027z" class="cls-5" data-name="Path 4646" transform="translate(-42.169 -2.455)"/>
        <path id="Path_4647" d="M234.372 17.7a3.2 3.2 0 0 1-1.346 2.6 5.32 5.32 0 0 1-3.389 1.058 5.44 5.44 0 0 1-3.124-.921 5.111 5.111 0 0 1-1.923-2.4l1.971-.841a3.717 3.717 0 0 0 1.266 1.65 3.052 3.052 0 0 0 1.811.585 3.2 3.2 0 0 0 1.771-.457 1.29 1.29 0 0 0 .721-1.122q0-1.13-1.73-1.658l-2.019-.5q-3.461-.865-3.461-3.317a3.06 3.06 0 0 1 1.322-2.612 5.993 5.993 0 0 1 6.177-.232 4.006 4.006 0 0 1 1.763 1.995l-1.971.8a2.467 2.467 0 0 0-1.09-1.162 3.445 3.445 0 0 0-1.7-.425 2.828 2.828 0 0 0-1.546.433 1.25 1.25 0 0 0-.689 1.058q0 1.009 1.9 1.442l1.779.457q3.507.906 3.507 3.569z" class="cls-5" data-name="Path 4647" transform="translate(-45.373 -2.456)"/>
        <path id="Path_4648" d="M243.522 20.374a3.349 3.349 0 0 1-2.4-.889 3.3 3.3 0 0 1-.961-2.508v-6.553h-2.071V8.405h2.067V4.8h2.211v3.605h2.86v2.019h-2.884v5.864a2.131 2.131 0 0 0 .457 1.6 1.458 1.458 0 0 0 1.033.425 1.89 1.89 0 0 0 .521-.064 2.106 2.106 0 0 0 .465-.152l.7 1.971a5.936 5.936 0 0 1-1.998.306z" class="cls-5" data-name="Path 4648" transform="translate(-48.058 -1.665)"/>
        <path id="Path_4649" d="M154.387 48.026a4.5 4.5 0 0 1-1.658 3.637 6.337 6.337 0 0 1-4.086 1.346 6.041 6.041 0 0 1-3.773-1.25 6.409 6.409 0 0 1-2.259-3.413l2.115-.865a5.472 5.472 0 0 0 .6 1.394 4.342 4.342 0 0 0 .9 1.066 3.925 3.925 0 0 0 1.146.7 3.469 3.469 0 0 0 1.322.256 3.8 3.8 0 0 0 2.476-.8 2.548 2.548 0 0 0 .961-2.083 2.484 2.484 0 0 0-.8-1.851 7.547 7.547 0 0 0-2.788-1.442q-2.067-.745-2.572-1.009a4.422 4.422 0 0 1-2.74-4.11 4.19 4.19 0 0 1 1.514-3.245A5.528 5.528 0 0 1 148.53 35a5.8 5.8 0 0 1 3.413 1.009 4.727 4.727 0 0 1 1.923 2.476l-2.067.865a3.052 3.052 0 0 0-1.146-1.6 3.677 3.677 0 0 0-4.262.08 2.075 2.075 0 0 0-.889 1.746 2.027 2.027 0 0 0 .7 1.53 12.017 12.017 0 0 0 3.341 1.53 8.5 8.5 0 0 1 3.733 2.179 4.67 4.67 0 0 1 1.111 3.211z" class="cls-5" data-name="Path 4649" transform="translate(-29.071 -7.67)"/>
        <path id="Path_4650" d="M162.931 36.832a1.538 1.538 0 0 1-.457 1.106 1.6 1.6 0 1 1 0-2.211 1.538 1.538 0 0 1 .457 1.105zm-.457 4.062v11.777h-2.211V40.894z" class="cls-5" data-name="Path 4650" transform="translate(-32.472 -7.716)"/>
        <path id="Path_4651" d="M172.985 53.113a5.1 5.1 0 0 1-2.4-.553 4.158 4.158 0 0 1-1.618-1.434h-.1v1.6h-2.107V35.52h2.2v5.432l-.1 1.6h.1a4.158 4.158 0 0 1 1.65-1.466 5.231 5.231 0 0 1 6.313 1.274 6.818 6.818 0 0 1 0 8.893 5.079 5.079 0 0 1-3.942 1.859zm-.369-1.987a3.461 3.461 0 0 0 2.676-1.2 4.374 4.374 0 0 0 1.082-3.052 4.43 4.43 0 0 0-1.082-3.052 3.589 3.589 0 0 0-5.36 0 4.943 4.943 0 0 0 0 6.129 3.477 3.477 0 0 0 2.684 1.175z" class="cls-5" data-name="Path 4651" transform="translate(-33.873 -7.774)"/>
        <path id="Path_4652" d="M189.149 54.366a5.608 5.608 0 0 1-4.278-1.779 6.281 6.281 0 0 1-1.682-4.494 6.409 6.409 0 0 1 1.6-4.478 5.872 5.872 0 0 1 8.356-.1 6.762 6.762 0 0 1 1.546 4.743v.24h-9.251a3.838 3.838 0 0 0 1.154 2.788 3.725 3.725 0 0 0 5.96-1.058l1.971.961a5.864 5.864 0 0 1-2.2 2.331 6.1 6.1 0 0 1-3.176.846zm-3.533-7.691h6.754a2.916 2.916 0 0 0-.993-2.027 3.5 3.5 0 0 0-2.4-.8 3.2 3.2 0 0 0-2.147.8 3.677 3.677 0 0 0-1.21 2.027z" class="cls-5" data-name="Path 4652" transform="translate(-37.14 -9.027)"/>
        <path id="Path_4653" d="M202.321 53.991h-2.211V42.214h2.115v1.923h.1a3.2 3.2 0 0 1 1.386-1.6 3.83 3.83 0 0 1 2.051-.665 4.142 4.142 0 0 1 1.6.288l-.673 2.139a3.661 3.661 0 0 0-1.3-.168 2.852 2.852 0 0 0-2.163 1.049 3.381 3.381 0 0 0-.929 2.355z" class="cls-5" data-name="Path 4653" transform="translate(-40.505 -9.037)"/>
        <path id="Path_4654" d="M213.794 36.842a1.562 1.562 0 1 1-.457-1.106 1.506 1.506 0 0 1 .457 1.106zm-.457 4.062V52.68h-2.211V40.9z" class="cls-5" data-name="Path 4654" transform="translate(-42.605 -7.726)"/>
        <path id="Path_4655" d="M221.729 41.818a5.48 5.48 0 0 1 3.87 1.314 4.639 4.639 0 0 1 1.418 3.589v7.258h-2.083v-1.6h-.1a4.222 4.222 0 0 1-3.653 2.019 4.735 4.735 0 0 1-3.261-1.218 3.685 3.685 0 0 1-1.314-2.884 3.5 3.5 0 0 1 1.394-2.91 5.808 5.808 0 0 1 3.685-1.082 6.529 6.529 0 0 1 3.245.721v-.5a2.508 2.508 0 0 0-.913-1.955 3.132 3.132 0 0 0-2.139-.8 3.389 3.389 0 0 0-2.932 1.562l-1.952-1.232a5.432 5.432 0 0 1 4.735-2.282zm-2.836 8.556a1.771 1.771 0 0 0 .737 1.442 2.684 2.684 0 0 0 1.714.577 3.533 3.533 0 0 0 2.492-1.033 3.2 3.2 0 0 0 1.09-2.4 4.542 4.542 0 0 0-2.884-.8 3.733 3.733 0 0 0-2.243.649 1.931 1.931 0 0 0-.905 1.57z" class="cls-5" data-name="Path 4655" transform="translate(-43.786 -9.025)"/>
    </g>
</svg>
