<svg xmlns="http://www.w3.org/2000/svg"
	xmlns:xlink="http://www.w3.org/1999/xlink" style="" version="1.1" xml:space="preserve" width="28.16326530612246" height="28.163265306122454">
	<rect id="backgroundrect" width="2.452311536859641" height="2.452311536859641" x="0" y="-0.08163265138864517" fill="none" stroke="none" class="" style=""/>
	<style type="text/css">
	.st0{fill:currentColor}
	</style>
	<g class="currentLayer" style="">
		<g id="Layer_1"/>
		<g id="icons" class="">
			<path class="st0" d="M14.12244900316,0.12244892865419393 L14.12244900316,0.12244892865419393 c-3.9,0 -7.4,1.6 -9.9,4.1 C1.7224490031600002,6.7224489286541935 0.12244900315999986,10.222448928654194 0.12244900315999986,14.122448928654194 c0,7.7 6.3,14 14,14 h0 c3.9,0 7.4,-1.6 9.9,-4.1 c2.5,-2.5 4.1,-6 4.1,-9.9 C28.12244900316,6.422448928654195 21.82244900316,0.12244892865419393 14.12244900316,0.12244892865419393 zM22.82244900316,19.522448928654192 c-0.4,0.1 -2.6,0 -2.7,0 c-0.6000000000000004,0 -1.1,-0.2 -1.5,-0.6000000000000004 c-0.5,-0.4 -0.9,-0.9 -1.3,-1.4 c-0.1,-0.1 -0.3000000000000002,-0.3000000000000002 -0.4,-0.4 c-0.4,-0.3000000000000002 -0.7000000000000004,-0.2 -0.9,0.2 c-0.1,0.4 -0.3000000000000002,1.3 -0.3000000000000002,1.4 c0,0.4 -0.3000000000000002,0.7000000000000004 -0.8,0.7000000000000004 c-1.4,0.1 -2.7,-0.1 -3.9,-0.7000000000000004 c-1,-0.6000000000000004 -1.9,-1.3 -2.6,-2.3 c-1.1,-1.5 -2,-3.1 -2.9,-4.7 c0,-0.1 -0.9,-1.9 -0.9,-2 c-0.1,-0.3000000000000002 0,-0.5 0.2,-0.6000000000000004 C5.12244900316,9.122448928654194 7.822449003159999,9.122448928654194 7.9224490031600014,9.122448928654194 c0.4,0 0.7000000000000004,0.2 0.9,0.7000000000000004 c0.5,1.3 1.2,2.5 2.1,3.6 c0.1,0.1 0.3000000000000002,0.3000000000000002 0.4,0.4 c0.2,0.1 0.4,0.1 0.5,-0.2 c0.1,-0.3000000000000002 0.2,-0.8 0.2,-1.1 c0,-0.7000000000000004 0,-1.2 0,-2 c0,-0.5 -0.2,-0.9 -0.9,-1 c-0.2,0 -0.2,-0.2 -0.1,-0.4 c0.3000000000000002,-0.4 0.7000000000000004,-0.4 1.1,-0.4 c0.7000000000000004,0 1.4,0 2.1,0 c0.3000000000000002,0 0.6000000000000004,0 0.9,0.1 c0.4,0.1 0.6000000000000004,0.3000000000000002 0.6000000000000004,0.7000000000000004 c0,0.2 0,0.4 0,0.6000000000000004 c0,0.8 -0.1,1.6 -0.1,2.4 c0,0.3000000000000002 0,0.6000000000000004 0.1,1 c0.1,0.4 0.4,0.5 0.7000000000000004,0.2 c0.4,-0.4 0.7000000000000004,-0.8 1,-1.3 c0.6000000000000004,-0.8 1,-1.7000000000000002 1.4,-2.7 c0.2,-0.5 0.3000000000000002,-0.6000000000000004 0.9,-0.6000000000000004 c1,0 1.9,0 2.9,0 c0.2,0 0.3000000000000002,0 0.5,0.1 c0.3000000000000002,0.1 0.4,0.3000000000000002 0.3000000000000002,0.6000000000000004 c-0.1,0.6000000000000004 -0.5,1.2 -0.9,1.7000000000000002 c-0.6000000000000004,0.8 -1.2,1.7000000000000002 -1.8,2.5 c-0.1,0.1 -0.1,0.2 -0.2,0.3000000000000002 c-0.2,0.4 -0.2,0.6000000000000004 0.1,1 c0.5,0.5 1.1,1.1 1.6,1.6 c0.4,0.4 0.7000000000000004,0.8 1,1.3 C23.72244900316,18.822448928654193 23.52244900316,19.422448928654195 22.82244900316,19.522448928654192 z" id="vk"/>
		</g>
	</g>
</svg>
