<svg xmlns="http://www.w3.org/2000/svg" viewBox="0 0 2000 2000">
	<defs/>
		<path class="cls-1" d="M1985.21,1034.24c-14.06-98.33-73.3-153.42-166.93-163.34-86-9.11-189.13-24-222-120.11-28.74-84.2,47.49-160.27,28.63-245.63a233.44,233.44,0,0,0-26.4-67.31c-101.06-172.16-294.78-6.54-388.61,76-48.83,43-104.29,75.9-170.51,58C967.18,552.3,915.84,492.33,889,423.91,843,306.48,847.87,176.52,715,116.48c-92.4-41.74-207.75-.87-277,68C381.08,241,360.86,326,380.72,403.27c23.79,92.59,60.47,160,50.21,259.23-6.46,62.62-25.24,134.74-70,181.75-78.55,82.52-269.65,52.28-273.67,195.2-1,35.55,12.12,68.58,32.51,97.19,46.85,65.72,125.05,65.09,182.83,114.63,75.61,64.82,86.85,174.4,58.31,265.35-17.51,55.79-89.53,103.86-68.79,165.39,16.43,48.76,64.4,71.13,111.06,54.22,42.82-15.52,93.17-98.73,145.23-81,56.61,19.32,40.63,111.38,52.76,155.17,31.69,114.36,154.63,150.82,254.6,100,63-32,87.58-104.76,147.3-140.13,36.17-21.42,79.27-31.41,122.81-32.25,80.57-1.54,119.11,43.55,188.12,75.81,126.88,59.31,305.38-19.29,267.2-176.36-23.89-98.27-65.26-188.34,48.74-233.08,114.47-44.92,204.94-62.8,286.57-160.2C1966.52,1184.62,1996.71,1114.42,1985.21,1034.24Z"/>
		<path class="cls-1" d="M258.61,1789.08c-29.17-141.54-230.23,31.23-98.5,80.23C206.57,1886.59,268.85,1839,258.61,1789.08Z"/>
	</g>
	<g id="White_back_paper" data-name="White back paper">
		<path class="cls-2" d="M637,375.33c-7.07-21.73-29.76-19.89-44.24-19.05-57.27,3.89-114.59,3.44-172,2.38-27.64-.5-111.32-16.85-133.68-6.27C257.75,366.26,267,472,265.87,497.4c-2.75,62.58-1.63,125.14-1,187.75.58,60.7-8.61,128,2.86,187.79,9,46.81,48.38,29.41,91.36,27.24,47.57-2.4,95-3.78,142.62-4.22,31.6-.28,63.21,1.78,94.72,1.5,50.33-.45,36.54-30.79,36-76.62-.83-74.74-4.18-149.5-3.29-224.42.48-40.71,2.72-81.41,4-122.11C634,446.88,645.52,401.6,637,375.33Z"/>
	</g>
	<g id="Stroke_paper" data-name="Stroke paper">
		<path class="cls-3" d="M617.61,383.52c-8.75-5.12-47.68,3-57.35,3.16-47.43.94-95.54,2.48-142.95.67-23.48-.9-46.92-2.93-70.39-4.08-12.85-.63-35.2-6.6-47.58-1.17-20.14,8.84-11.58,20.74-14.84,45.52,0-.12,0-.23.05-.34-7.47,55.94-3.54,114.94-4.18,171.4-.78,69.12,1.87,138.24,0,207.33-.44,16.26-5.66,63,5.94,72.85,5.94,5.07,56.9-5.57,67.37-6.17,55.75-3.24,109.73,1.8,165.37,3.88,19.84.74,91.88,10.43,97.71-6.12,7-20,0-57-.16-78.65-.18-29.39.34-58.8,0-88.2-.81-62.24-.53-124.5,0-186.76.25-29.37.84-58.72.84-88.09C617.39,424.79,622.18,386.2,617.61,383.52ZM601.25,867.41c-104-2.48-207-10.45-310.69,1.2C289,710,293,551.36,295.39,392.79c48.66-9.64,105.62,5.25,155.43,4.7,52.36-.58,106.35,2.89,158.34-3.92C597.37,472.79,606,562,605.93,642.07c0,75-1,150.56,1.13,225.56Q604.15,867.63,601.25,867.41Z"/>
	</g>
	<g id="White_cat_back" data-name="White cat back">
		<path class="cls-2" d="M505.3,874.8s0,0,0-.06l-.15-.15Z"/>
		<path class="cls-2" d="M1715.12,684.09c-9-43.46-14.87-89.68-30.92-131.23-18.53-47.95-65-88.64-107.42-115.79-82.82-53-195.45-27.48-257,45.81-74.73,89-27.88,251.67,105.83,217.09,21.33-5.51,41-14.1,54.25-32.59,50.41,42.85,50.7,161.79,44.16,219.41-5.54,48.82-26.93,103.35-53,144.93-15.94,25.38-75.9,129.31-117.91,94-26.23-22.08-17-81.88-11.92-112.39,7.14-43.16,18.36-83.19,13.15-127.57-6.19-52.78-24.12-103.13-57.84-144.41-25.6-31.34-58.59-52.62-90.4-77,23.35-73.58-13.39-145.6-55.94-203.1-15.75-21.27-31.48-42-45.31-64.69-8.26-13.54-29.45-72.1-46.33-72.1-22.06,0-29.2,74.52-39.1,85.53-6.2,6.89-22.89,10-31.56,13.66-23,9.67-47.09,16.53-70,26.28-13.94,5.93-45.72,27.11-59.64,23.24-2.51-.69-4-4.58-6.33-5.59-19.61-8.45-33.34-26.3-55.49-33.46-10.53-3.4-51.58-19.25-60.72-11-11.63,10.47,8.83,46,12.12,58.62,9.33,35.69,8.35,73.62,10.48,110.17,4,67.52,2.07,190.71,86.11,207.69-12.21,17.38-16.37,38.6-31.45,54.82-22.56,24.28-53.64,27.32-85.79,25.15-21.82-1.48-36.43.55-44.06-19.22-13-33.67-16.23-62.88-62.21-65.47-7.6-21.24-37.15-18.44-23.13,8.67-5.39,5.47-8.34,11.86-10.29,19.26-8.13-3.11-16.58-2-23.42-5.16-5.13-2.4-11-12.83-17.81-12.15-17.59,1.78-4,19.18,1.76,27.06-6.8,11.07-7.9,27.53-2.81,39.41-3.38-.17-10,1.73-12.93,3.11-6.78-9.54-33.6-19-26.93-.28a148.38,148.38,0,0,0,14.53,12.81c-26.33,54.91,58.79,82.25,93.75,100,45.88,23.3,94,31.1,144.38,25.68,24-2.58,76.85-22.28,93.72-5.55,10.65,10.56,6.66,59.92,6.86,75.78.61,48.85,1.74,97.69,6.06,146.38,6.86,77.21-48,154.11-85.24,218.43-6.84,11.81-15.64,38.44-26.87,46.22-6.26,4.33-17.45,2.52-24.45,4.86-20.65,6.92-42,26.29-49.31,46.84-21,59.21,37.84,97.21,88.26,103.11,73.38,8.61,123-39.6,158.7-97.67,31.5-51.2,68.82-101.81,114.35-141.68,7.56,4.73,34.8-18.81,41.7-21.68,26-10.85,59.36-17,84.23-.26,22.84,15.42,36.4,51.77,45.82,76.75,12.28,32.61,14.58,62.63,13.61,96.94-.92,32.83,12.68,61,42,77.43,57,31.95,132.7,1.25,143.56-64.1,15-90.25-55.44-175.3-7.44-261.23,37.93-67.89,114.76-116.29,164.5-175.23,46.11-54.64,96.17-119.6,124.33-186,13.91-32.8,21.34-75.53,23.52-110.66C1719.12,789.93,1725.79,735.69,1715.12,684.09Z"/>
	</g>
	<g id="Stamp_back" data-name="Stamp back">
		<path class="cls-2" d="M536.76,1026.54C531.87,987,520.65,945,512.68,905.86c37.32-36.43,19.72-122.32-40.54-119.8-51.6,2.13-94.21,65.37-52,108.08-9.7,47.13-14.15,97.48-20.33,145.32-2,15.1-13.38,61.13,2.61,72.09,20.06,13.75,28.41-18.54,33.9-31.4,5.35,15.63,22.82,60.47,44.46,37.54,13.69-14.5,5.55-60.74,6.78-79.31C510.16,1064.5,541.73,1066.79,536.76,1026.54Z"/>
	</g>
	<g id="stamp_blue" data-name="stamp blue">
		<path class="cls-3" d="M524.56,1026.55c-5.48-24.23-11.86-47.91-15.62-72.54-1.31-8.55-2.55-61.62-7.36-63.78-3.07-1.38-22.5,6-24.44,8.09-28-11.45-38.81-10.68-44.71,15.63-12.19,54.39-21.6,113.76-23,169.46,0-.19,0-.38,0-.56-1.17,44.54,23.68-17.56,29.3-27.1,5.5,7.06,22.88,56.71,31.63,54.48,12.05-3.06,1.81-49,1.75-57.59,6.15-2.83,14.31-33.34,17.22-42C490.65,1011.92,529.46,1048.05,524.56,1026.55Zm-60.9-50.11c-.87,34.76-3.1,70-.2,104.71-17-34.43-24.78-50.1-44-9.23,2.21-56,13.21-114.51,24.49-169.36,8.14,4,16.87,3.82,25.68,4.58C464.18,929.33,464.2,953.82,463.66,976.44Zm47.93,41c-25-21.66-26.9-25.36-39.38,9.58q.36-11.89.63-23.77a2.26,2.26,0,0,1,0,.26c.76-31.56-1.34-66.23,7.09-97a32.51,32.51,0,0,0,14.41-5.24c2,39.31,7.59,78.56,17.74,116.63Z"/>
	</g>
	<g id="pink_stamp" data-name="pink stamp">
		<path class="cls-4" d="M518.21,844.28c-.51-31.06-26.15-52.46-56.53-46.94-27.78,5-41.94,30.67-42.42,57.3-.52,28.1,26.17,50.61,53.53,49.34C505.15,902.47,518.68,873.56,518.21,844.28Zm-9.74,6c-1.42,24.88-16.06,48.22-44,43.38-2.57-4.38-13.23-5.14-17.28-8-5.44-3.79-9.06-9.25-11.78-15.18-7.41-16.19-7.56-35.65,4.4-49.92,10.52-12.54,29.23-18.17,44.79-12.43C502.53,814.8,508.76,832.3,508.47,850.29Z"/>
		<path class="cls-3" d="M498.28,842.75a14.18,14.18,0,0,0-2.11-6.23c-.59-1-1.2-2-1.83-2.93a32,32,0,0,0-2.81-3.84,23.4,23.4,0,0,0-3.1-2.78,20,20,0,0,0-2.66-1.7c-1.49-.84-3.09-1.54-4.65-2.25-3.21-1.45-6.83-1.88-10.31-2.24a17.94,17.94,0,0,0-2.07-.11c-.9,0-1.8.06-2.7.15a13.23,13.23,0,0,0-2.42.74l-.87.3a28.66,28.66,0,0,0-3.65,1.57,32.23,32.23,0,0,0-3.76,2.39c-.47.32-1,.64-1.42,1-1.07.78-2.13,1.58-3.17,2.42a15.8,15.8,0,0,0-3.9,4.33,19.89,19.89,0,0,0-2,5.38c-.65,2.58-1.11,5.24-1.52,7.86a24.18,24.18,0,0,0-.25,3.8,13.28,13.28,0,0,0,.65,4,13.69,13.69,0,0,0,1.86,6.26,78,78,0,0,0,4.51,6.77,18.73,18.73,0,0,0,5.68,5.14q.4.24.81.45l.6.56a12.5,12.5,0,0,0,4.37,2.62,19.81,19.81,0,0,0,4.27.76,28.22,28.22,0,0,0,4.5.15,21.93,21.93,0,0,0,10.32-3c.64-.38,1.26-.78,1.87-1.21s1.47-.93,2.19-1.41a26,26,0,0,0,5-4c.93-1,1.86-2,2.75-3.1.48-.58,1-1.16,1.44-1.76a20,20,0,0,0,2.07-3.56,27.44,27.44,0,0,0,2.15-8.62c.11-.9.21-1.8.28-2.71A38.06,38.06,0,0,0,498.28,842.75Zm-29.66-7a15.75,15.75,0,0,1,1.88-.4c0,2.41,0,4.82,0,7.23q-3.54-2.37-7.16-4.6A34.11,34.11,0,0,1,468.62,835.76ZM456.35,846c.26-.48.54-.94.83-1.4,1,.63,2.07,1.28,3.1,1.92l-4.3.4C456.09,846.65,456.21,846.34,456.35,846Zm1.59,12.21a6,6,0,0,0-1.29,1.71,38.76,38.76,0,0,1-2.11-4l6.71-.6c-.72.6-1.44,1.18-2.14,1.78C458.7,857.51,458.32,857.88,457.94,858.25ZM470.59,867c-.39,0-.79,0-1.17-.09-1.42-.13-2.81-.32-4.21-.55a21.37,21.37,0,0,1-3.38-1.15,20.84,20.84,0,0,1-2-1.29l.17-.13a4.25,4.25,0,0,0,1-1.57c.9-.92,2-1.72,2.93-2.54s1.71-1.41,2.58-2.11l3.78-3.05h.06c0,1.13,0,2.25,0,3.38s0,2.31,0,3.46.18,2.43.27,3.65c0,.49,0,1,0,1.48C470.62,866.68,470.6,866.85,470.59,867Zm14.35-23.89,1.62-1.2c.17.22.35.42.52.65.32.53.6,1.07.87,1.62-.72-.05-1.44-.09-2.17-.09s-1.48,0-2.22.07Zm-7.62-7.07.12,0a18.51,18.51,0,0,1,2.69,1.1c.82.42,1.65.86,2.44,1.33-1.75,1.32-3.52,2.64-5.27,4C477.32,840.35,477.32,838.21,477.32,836.06Zm3.61,27.82a39.46,39.46,0,0,1-3.83,2.2c0-1.13-.14-2.26-.22-3.39,0-.8,0-1.61,0-2.41s.05-1.6.07-2.39c.87.72,1.75,1.42,2.65,2.1.7.53,1.4,1,2.09,1.59.32.26.62.53.93.8l.09.06C482.17,863,481.56,863.42,480.93,863.88Zm7.63-9.72c-.14.47-.3.94-.47,1.39s-.29.67-.44,1-.18.35-.28.52-.26.36-.39.55a16.78,16.78,0,0,0-1.28-1.7c-.78-.92-1.57-1.82-2.37-2.71a48.53,48.53,0,0,0,5.47-1C488.73,852.89,488.66,853.53,488.56,854.16Z"/>
	</g>
	<g id="Cat_blue_shadow" data-name="Cat blue shadow">
		<g id="Cat_blue_shadow-2" data-name="Cat blue shadow">
			<path class="cls-3" d="M772.73,469.28c3.19,1.68,6.4,3.34,9.54,5.13s6.39,3.69,9.54,5.62c5.1,3.11,10.13,6.31,15.06,9.69,1.64,1.24,3.22,2.52,4.77,3.85,2.05,1.76,4,3.65,5.88,5.56,3.56,3.6,7.21,7.12,10.51,10.95,2,2.46,3.77,5,5.55,7.62.89,1.29,1.78,2.57,2.65,3.87.43.63.87,1.25,1.3,1.87l.63.94c.41.51.82,1,1.26,1.53a7.53,7.53,0,0,0,3,1.56,6.26,6.26,0,0,0,3.27-.11,6.14,6.14,0,0,0,2.65-1.68,6.35,6.35,0,0,0,1.7-3,15.61,15.61,0,0,0,.44-3.2c.07-.72.07-1.44.07-2.16a20.18,20.18,0,0,0-1.13-5.84,29.88,29.88,0,0,0-2-3.75,33.71,33.71,0,0,0-4.06-5.21c-1.21-1.28-2.6-2.43-3.92-3.58a70.8,70.8,0,0,0-7.47-5.66c-1-.69-2.09-1.37-3.14-2.05-.44-.29-.88-.54-1.34-.79a8.69,8.69,0,0,0-3.26-.91,4.74,4.74,0,0,0-1.5-.09c-1.4-1.26-2.83-2.51-4.31-3.67a101.15,101.15,0,0,0-12-7.83q-7.12-4.14-14.24-8.32c-5-2.92-10.09-5.59-15.2-8.28a4.49,4.49,0,0,0-4.25,7.9Z"/>
			<path class="cls-3" d="M1688,784.33a6.89,6.89,0,0,0-.09-1.51h0a4,4,0,0,0-1.18-2.22q.49-5.33.9-10.65c.63-8.23.5-16.53.52-24.77,0-4.18,0-8.36-.08-12.54,0-4-.26-8-.39-12.08-.14-4.28-.09-8.6-.15-12.89q-.09-7.21-.55-14.42a123,123,0,0,0-2.87-20.49c-1.58-6.71-3.07-13.42-4.37-20.18s-2.92-13.24-4.76-19.74q-1.52-5.39-3.37-10.67c-1-2.92-2.14-5.82-3.12-8.76-1.13-3.68-2.2-7.38-3.29-11.06-1.19-4-2.52-8-3.82-12-1.07-3.25-2.21-6.48-3.55-9.64-1.5-3.54-2.94-7.11-4.56-10.6s-3.43-7-5.34-10.4-3.8-6.66-5.5-10.09-3.09-7-4.7-10.43-3.38-7-5.16-10.47c-1.45-2.82-3-5.54-4.75-8.21a2.06,2.06,0,0,0-1.77-.84,2.42,2.42,0,0,0-1,.21,2.36,2.36,0,0,0-1.14,3.12c2.47,5.24,4.35,10.73,6.49,16.1s3.91,11,6.32,16.29c2.31,5.07,4.83,10,7,15.2,1.06,2.55,2,5.13,3,7.73.86,2.38,1.76,4.75,2.57,7.15,1,3.33,1.64,6.7,2.3,10.11.75,3.93,1.55,7.85,2.34,11.77s1.33,7.8,2,11.7c.32,1.79.7,3.59.9,5.4.21,2,.39,3.92.58,5.88.76,8.17,1.22,16.37,2,24.55.69,7.69,1.3,15.37,2.16,23l.18,1.6c.3,7.32.44,14.64.2,22-.26,8.08-.62,16.16-.9,24.24-.3,8.49-.8,17-1.17,25.44-.34,8-1,16-2,23.88-1.26,9.83-2.75,19.61-4.32,29.4-1.43,8.92-2.93,17.81-4.72,26.66-1.83,8-4,15.85-6.28,23.71s-5.08,15.68-7.94,23.4c-3,8-5.91,16.05-9,24-3,7.72-5.91,15.51-9.1,23.16-2.54,6.11-5.15,12.17-7.77,18.23-2.52,5.81-5.33,11.5-8.06,17.21-1.21,2.35-2.42,4.7-3.73,7q-3.4,6-7,11.89-6.19,10.26-12.85,20.26c-9.22,13.86-18.63,27.62-28.51,41-10.34,14-20.54,28.15-31.12,42-4.75,6.22-9.7,12.28-14.7,18.3-5.46,6.59-10.89,13.22-16.57,19.63-7.25,8.17-14.35,16.46-21.51,24.71l-.22.21c-2.63,2.19-5.28,4.37-7.94,6.51q-14.25,11.46-28.67,22.7c-8.84,6.91-17.38,14.25-25.85,21.61a218.31,218.31,0,0,0-23.93,24.44c-3.77,4.49-7.43,9-10.94,13.75q-5.07,6.78-10.08,13.62c-3.18,4.32-6.6,8.45-9.72,12.81-3.24,4.52-6.38,9.1-9.51,13.69-3.26,4.78-6.38,9.6-9.32,14.57-3.32,5.62-6.45,11.38-9.33,17.24a160,160,0,0,0-11.76,30.22,101.69,101.69,0,0,0-2.19,11.23,68.65,68.65,0,0,0-.71,7.43,154.75,154.75,0,0,0,.82,20c.54,5.34,1.25,10.63,2.26,15.9.49,2.55,1,5.1,1.62,7.64s1,4.81,1.63,7.2c2.6,9.93,4.67,20,7,30,1.18,4.95,2.27,9.93,3.62,14.83.64,2.33,1.49,4.6,2.11,7s1.11,4.81,1.65,7.22c1.09,5,2.41,9.86,3.83,14.74s3.08,9.85,4.54,14.8,2.62,9.87,3.91,14.81q1.8,6.78,3.2,13.65c.84,4.1,1.65,8.21,2.47,12.31.94,4.69,1.93,9.39,2.52,14.14.46,3.71.93,7.42,1.25,11.14a122,122,0,0,1-.89,23.4,29.61,29.61,0,0,1-1.31,3.7c-1.4,2.71-2.82,5.43-4.42,8-1,1.65-2.24,3.15-3.37,4.71-.74,1-1.5,2-2.31,3-1.52,1.49-3.19,2.82-4.66,4.37a38.61,38.61,0,0,1-5,4.67,66.82,66.82,0,0,1-9.7,5l-1.21.31a5,5,0,0,0-4,4.48c-.17,2.49,1.88,5.27,4.56,5.23,1.4,0,2.8.1,4.2.12a43.25,43.25,0,0,0,4.54-.3c2.25-.2,4.47-.47,6.69-.87a34.45,34.45,0,0,0,8.37-2.78c1.2-.56,2.41-1.09,3.63-1.63a34.25,34.25,0,0,0,4.22-2.3,66.31,66.31,0,0,0,6.13-4.61,59,59,0,0,0,5.39-4.85c2.39-2.57,4.67-5.23,7-7.88a47.87,47.87,0,0,0,4.56-5.78,49.94,49.94,0,0,0,7-20.76,48.43,48.43,0,0,0,.42-7.52c-.1-3.7-.22-7.42-.64-11.1a121.11,121.11,0,0,0-2.41-14c-1.08-4.63-2.52-9.19-3.55-13.83-1.93-8.75-3.39-17.59-5.42-26.31-1.13-4.86-2.1-9.75-3.32-14.57s-2.53-9.91-3.63-14.92-1.8-10.1-2.63-15.18c-.4-2.46-.83-4.91-1.37-7.33s-1.28-4.58-1.86-6.88c-1.23-4.85-2.23-9.77-3.38-14.64-1.18-5.06-2.39-10.1-3.48-15.18s-2.39-9.82-3.6-14.73-2.26-10.14-3.29-15.22a171,171,0,0,1-2.79-20.4,94.16,94.16,0,0,1-.08-9.65,90.36,90.36,0,0,1,1.14-10,149.31,149.31,0,0,1,6.46-20c2.78-7.14,6.2-14,9.55-20.93q1.8-3.4,3.69-6.76a4,4,0,0,0,2.59,3.38,4,4,0,0,0,5-2.38c2-5,4.15-9.88,6.44-14.74l2-3.91c.78-1.52,1.73-3,2.6-4.43,1.83-3.09,3.8-6.08,5.77-9.09,1.82-2.78,3.78-5.46,5.84-8.06-.41.68-.82,1.36-1.24,2a3,3,0,1,0,4.87,3.38c4-4.81,8.11-9.49,12.26-14.15,1.67-1.77,3.36-3.5,5.12-5.19s3.68-3.27,5.5-4.91c3.82-3.46,8-6.58,11.83-10s7.25-7,11.13-10.2c2-1.69,4.21-3.21,6.29-4.83s4-3.22,6-4.85c3.63-3,7.42-5.78,11.16-8.65s7.66-5.82,11.65-8.52,7.9-5.32,11.74-8.15,7.78-5.55,11.74-8.23c3.87-2.39,7.78-4.74,11.45-7.43s7.22-6,10.83-8.93c3.86-3.19,7.7-6.37,11.3-9.83,4-3.89,7.85-8,11.64-12.16,7.24-8,14.16-16.21,21.27-24.31,6.78-7.74,13.51-15.56,19.92-23.62,3.26-4.1,6.73-8.14,9.63-12.52q4.55-6.84,9.06-13.71c2.9-4.42,5.77-8.86,8.57-13.34s5.18-8.83,7.93-13.16c4.47-7,9.15-14,13.28-21.24,2.42-4.27,4.39-8.78,6.58-13.16,1.51-3,3-6.11,4.53-9.15,2.45-4.74,4.71-9.54,6.81-14.46,2-4.76,4.2-9.44,6-14.28s3.7-9.51,5.42-14.3,3.09-9.56,4.6-14.35c3.12-9.92,5.93-20,8.77-30,1.33-4.65,2.35-9.39,3.57-14.06,1.36-5.2,2.24-10.49,3.33-15.75.51-2.49.74-5,1.11-7.53s.82-4.95,1.3-7.42c1.15-5.11,2.3-10.23,3-15.42.75-5.39,1.52-10.77,2.15-16.17s1-10.69,1.3-16,.54-10.6.56-15.9A117.62,117.62,0,0,0,1688,784.33Z"/>
			<path class="cls-3" d="M1305.89,637.17a68,68,0,0,0,5.35,7.22q1.38,2.24,2.84,4.44a104.92,104.92,0,0,0,6.61,9.24,55.26,55.26,0,0,0,13.25,11.26q1,.66,2.1,1.29a14.24,14.24,0,0,0,4.53,4.24,17.62,17.62,0,0,0,3.37,1.51c.73.28,1.47.52,2.22.74a57.12,57.12,0,0,0,5.82,1.18c2.62.48,5.26.83,7.89,1.22,2.39.35,4.79.66,7.19.91l2.93.4a110.8,110.8,0,0,0,12.48.82,157.07,157.07,0,0,0,25.25-2.08c3.68-.56,7.36-1.28,11-2.2a47.34,47.34,0,0,0,5.17-1.7,29.38,29.38,0,0,0,6.48-3.2,12.68,12.68,0,0,0,4.57-4.8l.78-1.84a7.71,7.71,0,0,0,0-4.1l-.06-.32c1.18-.71,2.35-1.44,3.5-2.18a73.11,73.11,0,0,0,10.39-8.17,60.48,60.48,0,0,0,7.42-8.78c.79-.57,1.56-1.17,2.32-1.78,3.42-2.8,5.68-6.54,7.67-10.42a60.83,60.83,0,0,0,4.42-11.44,34.18,34.18,0,0,0,1-5,19.37,19.37,0,0,0,1.73-3.77c1.29-3.9.76-8.15.1-12.11a26,26,0,0,0-2.27-6c-.68-1.5-1.46-3-2.27-4.4a69.17,69.17,0,0,0-6.29-8.94A32,32,0,0,0,1459,574c1,.42,2,.85,3.06,1.25,1.33.52,2.61,1.2,3.91,1.79,1.06.48,2.12,1,3.16,1.49,1.33.66,2.71,1.27,4,2l.63.35a6.7,6.7,0,0,0-.76.84,7.06,7.06,0,0,0-1.41,3.33,7.4,7.4,0,0,0,1.41,5.36c.85,1.28,1.76,2.52,2.7,3.72l.24.3-.09.8a59.86,59.86,0,0,0-.28,9.37,52.13,52.13,0,0,0,.79,7.48,31.57,31.57,0,0,0,1.31,5c.15.26.29.53.43.79a21.89,21.89,0,0,0,1.55,2.59A16.17,16.17,0,0,0,1481,622a40.49,40.49,0,0,0,3.81,3.94,45.77,45.77,0,0,0,5.86,4.31c2.36,1.5,4.68,3,7,4.6a88.93,88.93,0,0,1,7.9,6c1.18,1,2.32,2,3.46,3.08l1.84,1.69c.3.28.64.55,1,.82l1.27,1.87c2.67,3.94,5.46,7.8,8.13,11.73,1.38,2.24,2.73,4.51,4.06,6.79,1.14,2.15,2.29,4.29,3.35,6.48,1.2,2.51,2.4,5,3.58,7.53s2.23,4.77,3.26,7.19,2.15,4.91,3.06,7.43,2,5.26,2.82,7.93l2.73,8.47c1.6,5,3.23,9.92,4.8,14.9q2.89,9.21,5.65,18.46c1,3.94,2,7.88,2.89,11.85,1.06,4.56,2.21,9.1,3.38,13.63q.8,3.24,1.58,6.49c.58,2.34,1.22,4.67,1.72,7s1.08,4.67,1.44,7.05c.4,2.66.76,5.31,1.1,8,.6,4.66,1,9.33,1.32,14,.14,2.09.3,4.18.35,6.27l.18,8.24q-.17,8.22-.37,16.44c-.13,4.91-.22,9.84-.49,14.76q-.48,8.67-1.12,17.33c-.18,2.52-.43,5-.53,7.58l-.3,8.21c-.05,1.49-.1,3-.18,4.46s-.27,3.24-.34,4.85a2.42,2.42,0,0,0,1.41,2.5,2.37,2.37,0,0,0,2.78-.73,7.78,7.78,0,0,0,1.2-3.51,24.68,24.68,0,0,0,.3-2.71,40.9,40.9,0,0,1,.7-5.62c.39-1.94.94-3.85,1.39-5.77s.89-3.89,1.4-5.83c.69-2.38,1.49-4.73,2.15-7.13s1.08-4.76,1.52-7.16.73-4.56,1.1-6.84.72-4.67.91-7,.27-4.89.45-7.33.4-4.79.6-7.2c.4-4.82,1-9.62,1-14.48,0-3.41-.13-6.83-.13-10.24.08-3.08.19-6.16.23-9.25,0,.43,0,.84,0,1.27.11-5.34.48-10.68.41-16-.07-5-.66-9.9-1.16-14.85-1-10-1.88-20.12-2.85-30.17a150.19,150.19,0,0,0-2.47-16c-1.2-5.78-2.7-11.49-4.21-17.19-1.24-5-2.34-10.05-3.59-15.05-1.45-5.79-3.42-11.43-5.4-17-1.75-5-3.74-9.89-5.82-14.76s-4.14-9.67-6.57-14.32c-2.87-5.46-6-10.8-9.22-16-2.79-4.5-5.85-8.86-8.88-13.21-2.9-4.16-6.17-8.08-9.47-11.93s-6.76-7.75-10.26-11.53c-1.73-1.86-3.46-3.72-5.24-5.54-2-2.12-4.31-4-6.52-6a70.07,70.07,0,0,0-6.22-5.06,90.14,90.14,0,0,0-7.73-4.77,161,161,0,0,0-14.57-7.15c-5-2.12-10-4.19-15.19-5.89-2.69-.89-5.38-1.77-8.08-2.62a7.75,7.75,0,0,0-2.22-.39,4.94,4.94,0,0,0-1.87.37,5.13,5.13,0,0,0-3.27,4.45,41.16,41.16,0,0,0-7.12-2.16,25.23,25.23,0,0,0-5-.56h-.47a36,36,0,0,0-6.44.94c-1.45.31-2.9.61-4.34.95s-2.9.74-4.32,1.2a27.12,27.12,0,0,0-5.53,2.3,9.86,9.86,0,0,0-4.54,5.64,8.91,8.91,0,0,0,0,4.47,9,9,0,0,0,2.22,3.77,21.52,21.52,0,0,0,3.14,2.23l1.61.94c.8.47,1.57.95,2.33,1.46a25.1,25.1,0,0,1,1.84,1.74c.27.29.53.6.79.91a57.24,57.24,0,0,1,4,6.56,23.44,23.44,0,0,1,.76,2.76c.15,2,.11,4,.08,6a67,67,0,0,1-.47,6.94,54.15,54.15,0,0,1-3,11.12,49.65,49.65,0,0,1-4.85,8.46,56.85,56.85,0,0,1-8.46,8.17c-1.75,1.3-3.52,2.55-5.38,3.69a57.51,57.51,0,0,1-6.33,3.29,76.21,76.21,0,0,1-17,4.58,73,73,0,0,1-16.78-.2,61.58,61.58,0,0,1-24.74-8.53,20.08,20.08,0,0,0-3.27-2.23q-.6-.31-1.23-.6-2.13-1.42-4.18-3a53.91,53.91,0,0,1-8.3-7.67,19.17,19.17,0,0,1-1.34-2.43,5.25,5.25,0,0,1-.2-.78,5.53,5.53,0,0,0-4-4,7.24,7.24,0,0,0-3.71-1.09,6,6,0,0,0-4.34,1.8l-1,1.25a6,6,0,0,0-.84,3.09,11.27,11.27,0,0,0,1,5.68A41,41,0,0,0,1305.89,637.17Zm268,200.71.39-9.54,0-.86c0,.57,0,1.14,0,1.71-.22,6.27-.39,12.53-.47,18.8v.21c-.06,2.23-.12,4.47-.36,6.69-.19,1.83-.43,3.65-.66,5.47C1573.28,852.88,1573.54,845.37,1573.85,837.88Z"/>
			<path class="cls-3" d="M1313.57,1183.42c1.38.67,2.76,1.33,4.13,2,2.42,1.2,4.83,2.39,7.33,3.41a56.13,56.13,0,0,0,8.56,2.84,30.13,30.13,0,0,0,5.18.53c1.32.07,2.63.11,4,.17s2.57.14,3.85.15a31.13,31.13,0,0,0,3.85-.36c1.38-.16,2.76-.34,4.15-.48a32.58,32.58,0,0,0,4.7-.94,61.66,61.66,0,0,0,6.74-2.2c1.26-.47,2.51-1,3.77-1.46a15.5,15.5,0,0,0,4-2.07,2.84,2.84,0,0,0,1-3.21A2.77,2.77,0,0,0,1372,1180c-1.18.21-2.35.42-3.51.71-.83.2-1.66.43-2.48.65-1.63.42-3.27.84-4.92,1.21a32.09,32.09,0,0,1-5,.61c-1.75.06-3.51-.05-5.26-.11q-1.38-.09-2.76-.24c-1.43-.16-2.84-.55-4.25-.82l-.77-.13a5.34,5.34,0,0,0,.76-1.15,5.5,5.5,0,0,0-2.6-7.25,59.86,59.86,0,0,1-6.25-3.41c-.1-.15-.21-.29-.32-.44a12.67,12.67,0,0,0-2.95-2.76c-1.36-1-2.75-1.86-4.16-2.74-.5-.5-1-1-1.48-1.53a147.67,147.67,0,0,1-10.24-12.89,131.71,131.71,0,0,1-8.78-14l-.75-1.85a9.54,9.54,0,0,0,0-1.31,7.46,7.46,0,0,0-.1-1.16c-.12-.8-.25-1.6-.4-2.39-.34-1.87-.75-3.73-1.16-5.58-.6-2.78-1.22-5.55-1.83-8.32q-1.65-7.47-3.27-15c-.88-4.58-1.85-9.16-2.58-13.77L1295.3,1076c-.26-1.61-.45-3.22-.63-4.84a68.44,68.44,0,0,0-1.39-8.81c.18-.56.35-1.12.51-1.69a7.47,7.47,0,0,0-2.35-7c0-1.48.09-3,.15-4.44q.59-9.43,1.16-18.89l1.26-6.15q1-4.62,1.93-9.24c.44-2.09.79-4.22,1-6.35.17-1.37.19-2.75.26-4.13a16.46,16.46,0,0,0,0-2.22,10.34,10.34,0,0,0-2-5.18c.64-1.54,1.28-3.09,1.87-4.65,1.06-2.77,2-5.55,3-8.35,1.61-4.73,3.09-9.52,4.5-14.32,1.54-5.24,3.22-10.48,4.38-15.82.67-3.07,1.4-6.12,1.86-9.22.4-2.72.81-5.43,1.1-8.16.6-5.66,1.21-11.32,1.78-17,.54-5.32,1.18-10.64,1.66-16,.38-4.19.71-8.38,1-12.58a94.93,94.93,0,0,0,.49-9.54,5.07,5.07,0,0,0-4.66-5.24c.08-1.63.19-3.26.15-4.9l-.39-16c-.06-2.62-.43-5.29-.65-7.9s-.45-5.29-.67-7.93c-.19-2.3-.57-4.59-.85-6.88-.27-2.14-.57-4.27-.89-6.41s-.69-4.4-1-6.6c-.17-1-.39-2-.59-3a11,11,0,0,0-1.3-4.28c-1.24-1.91-2.9-3.91-5.28-4.45a13.3,13.3,0,0,0-3.19-.53,13.55,13.55,0,0,0-1.83.15c-.4-1.75-.8-3.49-1.22-5.24-.75-3.15-1.47-6.31-2.25-9.46l-1.47-5.84c-.21-.86-.42-1.71-.62-2.56a66.27,66.27,0,0,0-2.83-8.69,10.74,10.74,0,0,0-4.86-4.68,58.47,58.47,0,0,0-3.63-5.3c-.05-.16-.1-.31-.14-.47-.26-.86-.51-1.72-.77-2.57a53.18,53.18,0,0,0-1.79-5.25,13.32,13.32,0,0,0-1.36-2.38,11.53,11.53,0,0,0-9.3-6.14q-2.79-3.35-5.68-6.64c-2.32-2.65-4.61-5.33-7.05-7.88a224.33,224.33,0,0,0-18.74-17.34c-5.53-4.63-11.4-8.84-17.17-13.16-2.94-2.2-6.09-4.16-9.14-6.21l-5.06-3.41c-1.55-1-3.15-2-4.72-3a70.32,70.32,0,0,0-7.17-3.92,37.91,37.91,0,0,0-6.08-2.7,16.07,16.07,0,0,0-3.87-.62h-.47a12.22,12.22,0,0,0-2.89.35,10,10,0,0,0-1.1.32q.61-2.71,1.19-5.43c.17-.57.35-1.15.52-1.73.94-3.19,1.79-6.42,2.66-9.63,1.41-5.15,2.54-10.37,3.72-15.57a103.17,103.17,0,0,0,2.44-22.71,124.74,124.74,0,0,0-1.24-16.5c-.19-1.43-.38-2.85-.59-4.27,0-.16,0-.32,0-.48a6.25,6.25,0,0,0,2.63-4,30.47,30.47,0,0,0,.48-5.47,39.7,39.7,0,0,0-.58-5.32,82.77,82.77,0,0,0-3-12.49,126.54,126.54,0,0,0-5-12.6,137.45,137.45,0,0,0-7.24-14.4,108.86,108.86,0,0,0-11.67-16.15,163.72,163.72,0,0,0-11.27-12.14c-1.87-1.75-3.91-3.32-5.8-5-.76-.68-1.51-1.37-2.26-2.06-2.51-4.1-5.08-8.15-7.62-12.23-2.7-4.37-5.37-8.75-8.25-13s-5.83-8.68-8.86-12.94c-3.26-4.59-6.44-9.23-9.7-13.82s-6.53-9.18-9.66-13.86A272.25,272.25,0,0,1,1080.74,424q-1.12-2.46-2.26-4.94c-1-2.14-1.71-4.43-2.54-6.63s-1.4-4.36-2.08-6.54a105.81,105.81,0,0,1-3-12.44c-.6-3.81-1.06-7.62-1.41-11.45a6.32,6.32,0,0,0-1.94-4.26,6.14,6.14,0,0,0-4.18-1.65h-.21c-3.19.11-6.19,3-5.9,6.33a152.49,152.49,0,0,0,11.56,47.27,313.45,313.45,0,0,0,15.09,31c2.8,4.86,5.71,9.65,8.6,14.47s5.74,9.71,8.58,14.59c2.63,4.51,5,9.15,7.63,13.69s5.08,9.19,7.51,13.84c3.6,6.87,7.16,13.75,10.47,20.76a275.35,275.35,0,0,1,11.45,29.31c1.58,4.91,3.2,9.85,4.48,14.85,1.4,5.51,2.64,11,3.68,16.62q2.25,14.36,3.5,28.83c.44,5.09.58,10.2.69,15.31v.66c-.08,1.06-.18,2.13-.28,3.18-.5,3.87-1,7.73-1.62,11.58s-1.48,7.87-2.4,11.76-2,7.45-3,11.16-2.21,7.45-3.56,11.1-2.83,7.09-4.48,10.52a94.25,94.25,0,0,1-6.1,10.7,162,162,0,0,1-22.3,24.66c-.8.66-1.61,1.32-2.43,2a15.81,15.81,0,0,0-4.18,4,4,4,0,0,0,2.59,5.79,4.17,4.17,0,0,0,3.07-.5,3.88,3.88,0,0,0,.78-.67l.43-.32a12.82,12.82,0,0,0,5.35-2c1.35-.78,2.69-1.55,4-2.37.7-.43,1.4-.87,2.09-1.33a9.89,9.89,0,0,0,5,3.06l.57.11,4.09-2.59a12.87,12.87,0,0,1,2.34-2.2,30,30,0,0,1,3.06-1.77l3-1.73,1.8-1c3-2.13,5.78-4.48,8.58-6.82,2.94-2.64,5.88-5.31,8.65-8.12,1.3-1.33,2.6-2.66,3.87-4a11.49,11.49,0,0,0,2.06,1.08c2.71,1.12,5.38,2.25,8,3.47a129.67,129.67,0,0,1,25.68,16,159.23,159.23,0,0,1,19.61,21c4.75,5.89,9.27,11.95,13.7,18.08,2.73,4,5.43,8,8,12.12,3,4.85,5.88,9.71,8.6,14.7,2.5,4.56,4.81,9.25,7,14,2.36,5.17,4.46,10.41,6.43,15.74,3.38,9.85,6.62,19.8,9.25,29.88,2.78,10.68,5.56,21.39,7.63,32.23,1.25,6.53,2,13.1,2.61,19.71.34,5.24.59,10.47.83,15.71a143.39,143.39,0,0,1,.15,14.95c-.33,5.5-.55,11-.7,16.5,0,1.58-.12,3.16-.18,4.75-.28,2-.52,4-.78,5.92-.63,4.22-1.33,8.43-2.17,12.62q-.65,3.16-1.48,6.3c0,.08,0,.16-.07.25-1.63,3.47-3.33,6.92-5,10.36s-3.36,6.73-5.12,10.07c-.74,1.4-1.54,2.77-2.33,4.16a78,78,0,0,1-5.23,8.13c-2.8,3.55-5.77,7-8.69,10.44-2.33,2.74-4.81,5.36-7.22,8-.67.74-1.38,1.44-2.08,2.14-.32.27-.63.55-.94.83-1.46,1.32-3,2.55-4.49,3.82-3,2.54-6.15,5-9.27,7.38l-5.45,3.8c-1.4,1-2.77,2-4.21,2.92L1207,1069l-1.94.9-4.94,2.36-4.8,2c-1.45.59-2.89,1.22-4.36,1.74l-3.55,1.24c-1.72,0-3.45,0-5.17-.06-2.53,0-5.06-.13-7.6-.15a69.23,69.23,0,0,0-7.47.5c-5.69.59-11.49,1.14-16.95,2.93a43.5,43.5,0,0,0-8,3.26,16.54,16.54,0,0,0-2.54,2c-.31.26-.62.51-.91.8-.64.62-1.27,1.25-1.89,1.88a23.38,23.38,0,0,0-3.88,4.83c-1.48,2.66-1.23,5.92-.4,8.74a63.12,63.12,0,0,0,3,7.24,6.79,6.79,0,0,0,4.25,3.28,7.15,7.15,0,0,0,5.5-.72,7,7,0,0,0,2.28-2.13c.46.35.94.66,1.38,1a16.35,16.35,0,0,0,7.61,2.15,31.57,31.57,0,0,0,4.46-.15c2-.18,3.91-.46,5.84-.74a62.43,62.43,0,0,0,8.14-1.65c2.54-.72,5-1.51,7.53-2.43,1.7-.63,3.37-1.3,5-2a46.83,46.83,0,0,0,5.74-2.8c1.57-1,3-2.12,4.52-3.21l1.42-1.07c5.83,8.85,11.71,17.67,17.74,26.38,2.62,3.8,5.27,7.57,7.92,11.35,2.43,3.47,4.84,7,7.59,10.23a23.52,23.52,0,0,0,2.72,2.92,3.89,3.89,0,0,0,5.48-.44,3.72,3.72,0,0,0,.92-2.78,8.27,8.27,0,0,0-.65-2.36c-.26-.53-.54-1.05-.81-1.57l.6-.12,1.56-.78a6.49,6.49,0,0,0,2.22-2.57,7.42,7.42,0,0,0,.9-3.89,18.68,18.68,0,0,0-.78-5,6.24,6.24,0,0,0,1.22-2.9,10.6,10.6,0,0,0,.07-2.81,24.09,24.09,0,0,0-.55-2.58,18.08,18.08,0,0,0-.62-1.93c-.45-1.22-.91-2.43-1.41-3.63-1-2.48-2-5-3.19-7.39q-2.2-4.65-4.49-9.26c-.84-1.7-1.69-3.38-2.59-5a32.76,32.76,0,0,0-3.06-4.74c-.63-.81-1.34-1.55-2-2.3a8.55,8.55,0,0,0-4.13-2,6.79,6.79,0,0,0-5.25,1.08,7.11,7.11,0,0,0-2.48,3l-1.39-2a6.64,6.64,0,0,0-2.7-2.25c2.91-1.16,5.81-2.38,8.66-3.7a147.83,147.83,0,0,0,14.15-7.45,109.23,109.23,0,0,0,13.69-9.93c1.76-1.47,3.39-3.11,5-4.72q.62,3,1.24,5.94v.07a6.42,6.42,0,0,0,.39,1.77c.13.64.27,1.28.4,1.91v0a6.83,6.83,0,0,0,.38,1.75,1.74,1.74,0,0,0,0,.22,7.05,7.05,0,0,0,.28,1.44,6.86,6.86,0,0,0,.36,1.6c0,.12,0,.23.07.35a8,8,0,0,0,.25,1.18c.28,1.28.55,2.57.82,3.86.59,2.73,1.22,5.46,1.84,8.18.53,2.32,1,4.66,1.61,7,1.37,5.22,2.72,10.44,4.39,15.57s3.37,10.31,5.18,15.43,3.67,9.87,5.9,14.66c1.16,2.48,2.3,5,3.52,7.42.86,1.73,1.76,3.43,2.7,5.12.68,1.22,1.45,2.4,2.2,3.59a96.93,96.93,0,0,0,9.16,12.37,48.34,48.34,0,0,0,6.08,6.06,82.54,82.54,0,0,0,9,6.38C1310.71,1182,1312.16,1182.74,1313.57,1183.42ZM1188,692.15l.14.2h0Zm74.59,359.09a6.51,6.51,0,0,0-1.06-.33c.51-.61,1-1.23,1.5-1.85C1262.91,1049.79,1262.76,1050.51,1262.62,1051.24Z"/>
			<path class="cls-3" d="M1153.27,1332.92h-.22c-2.8.13-5.6.16-8.39.33-2.52.15-5,.4-7.55.6-5,.42-10.06.3-15.08.75-2.57.23-5.12.63-7.68,1a73.05,73.05,0,0,1-7.38.55,145.93,145.93,0,0,0-15.08.85c-5.63.81-11.13,2.17-16.69,3.37-5.06,1.09-10.15,2.08-15.25,3s-10.18,1.9-15.27,2.87a111.05,111.05,0,0,0-15.19,3.6,167.12,167.12,0,0,0-18.47,7.36,128.64,128.64,0,0,0-13.11,7.72c-2,1.28-4,2.62-5.91,4a108.31,108.31,0,0,0-8.86,7.44c-3.78,3.38-7.59,6.73-11.3,10.19s-7.19,7.25-10.64,11c-3.2,3.47-6.26,7.07-9.33,10.65-2.86,3.34-5.63,6.8-8.3,10.3-2.08,2.74-4.08,5.54-6,8.37-1.41,2-2.7,4.17-4.08,6.22-2.79,4.14-5.56,8.3-8.43,12.38s-5.34,8.23-7.81,12.47c-2.65,4.53-5.19,9.1-7.66,13.72s-4.75,9.18-7.38,13.64c-2.78,4.71-5.77,9.31-8.73,13.91-1.4,2.17-2.8,4.34-4.17,6.53-1.25,2-2.31,4.15-3.41,6.26-2.21,4.24-4.85,8.27-7.3,12.37-1.33,2.22-2.64,4.45-4,6.66s-2.75,4.27-4.15,6.39l-.83,1.23c-3.52,4.66-7.32,9.16-11.18,13.53a138.3,138.3,0,0,1-13.79,13.49q-3.81,3.06-7.65,6.08a76.34,76.34,0,0,1-10.25.33c-4.72-.19-9.41-.72-14.1-1.23s-9.57-1.39-14.34-2.31a101.22,101.22,0,0,0-17.69-2c-2.68,0-5.38.1-8.06.19-2.3.08-4.59.16-6.87.44a42.14,42.14,0,0,0-6.89,1.33,36.12,36.12,0,0,0-4.16,1.61,162.71,162.71,0,0,0-15.68,7.42,43.36,43.36,0,0,0-9.14,7.08,31.15,31.15,0,0,0-3.88,5,16.16,16.16,0,0,0-1.53,3.64,25.8,25.8,0,0,0-.78,4.73c0,.26,0,.53-.07.79-.23,2.37,1.3,5.09,3,6.64a9.37,9.37,0,0,0,9.94,1.84,8.14,8.14,0,0,0,2.34,3,19.05,19.05,0,0,0,3.62,2.42,29.09,29.09,0,0,0,4.08,1.48,31.79,31.79,0,0,0,5.6.72c.72.07,1.43.14,2.14.19,2.52.22,5,.39,7.58.59l3.8.27.67,0a69.33,69.33,0,0,0,13.19.43,92.92,92.92,0,0,0,10.35-1.54c2.93-.58,5.88-1.12,8.8-1.8a70.43,70.43,0,0,0,10-3.35c1-.11,2-.24,3.07-.37a173.44,173.44,0,0,0,19.1-3.23,69.17,69.17,0,0,0,9.91-3.53c3.06-1.28,6.1-2.61,9.1-4a125.13,125.13,0,0,0,12.27-6.52c1.93-1.18,3.83-2.41,5.69-3.71.74-.52,1.48-1.06,2.21-1.6l.74-.44a16.11,16.11,0,0,0,1.45-1c1.7-1.36,3.74-2.65,4.64-4.76h-.07a9.76,9.76,0,0,0,.9-8.09v0a12.88,12.88,0,0,0-.45-1.23c.32-.33.65-.66,1-1,3-3.1,5.9-6.25,8.73-9.49,3.47-4,6.44-8.25,9.51-12.53l-2.07,2.88c2.13-3,4.15-5.92,6.08-9,1.37-2.18,2.71-4.38,4.12-6.53,2.55-3.91,5.15-7.79,7.48-11.83,2.56-4.41,5.5-8.55,8.37-12.77,3.07-4.53,6.17-9,9.07-13.67,3.73-6,7-12.22,10.58-18.26,3.16-5.31,6.55-10.51,10.09-15.59,1.43-2,2.86-3.92,4.27-5.9,2.19-3,4.38-6.11,6.52-9.2,1.58-2.29,3.09-4.64,4.66-6.94,5.05-6.73,10.57-13.11,16.19-19.36,3.27-3.64,6.7-7.16,10.13-10.65s7.39-6.91,11.14-10.28c2.39-2.15,4.67-4.41,7.08-6.53,2.92-2.26,5.89-4.44,8.85-6.64a111.85,111.85,0,0,1,11.19-7.49c4.11-2.35,8.41-4.31,12.64-6.44,3.81-1.92,7.6-3.88,11.45-5.7q10.69-4.72,21.55-9.07c3.87-1.55,7.77-3,11.67-4.46,1.88-.69,3.77-1.34,5.69-1.92a38.7,38.7,0,0,1,5.14-1.05c3.59-.54,7.2-.94,10.81-1.32,4.47-.47,8.84-1.45,13.26-2.25,4.87-.66,9.8-.93,14.67-1.65,6-.89,11.64-2.83,17.57-3.86,2.16-.37,3.63-2.88,3.58-4.91A5.07,5.07,0,0,0,1153.27,1332.92Z"/>
			<path class="cls-3" d="M729.62,991.41c2.91.2,5.82.43,8.73.48a7.57,7.57,0,0,0,3.69-1,6.78,6.78,0,0,0,.74-.49c3.57-.19,7.14-.38,10.7-.68l11.16-.92c1.85-.16,3.71-.27,5.55-.51l11.73-1.51c3.65-.47,7.28-1.1,10.92-1.71,7.14-1.18,14.31-2.4,20.94-5.44a6.36,6.36,0,0,0,1.6-1.06c1.37-.16,2.75-.34,4.12-.49l9.85-1.11.89-.11c1.9-.17,3.8-.39,5.7-.64h0l2.66-.35-.15,0,.35,0a12.78,12.78,0,0,0,1.32-.45c1.92-.29,3.83-.58,5.74-.89s4-.64,6-1c.12.14.25.29.39.43a8.42,8.42,0,0,0,14.39-6,27.69,27.69,0,0,0-1-7.74,32.07,32.07,0,0,0-7-11.56,43.35,43.35,0,0,0-3.73-3.57c-1.14-1-2.3-1.93-3.53-2.8a24.17,24.17,0,0,0-7.08-3,29.06,29.06,0,0,0-4.44-.88c-1.73-.22-3.52-.47-5.27-.58l-5-.31c-2.55-.16-5.13-.15-7.69-.17-5.4,0-10.84-.23-16.23.17s-10.86,1.18-16.27,1.77c-5,.54-9.94.85-14.9,1.28-5.76.5-11.52,1.35-17.21,2.33-8.73,1.51-17.52,2.73-26.29,4-5.22.7-10.42,1.41-15.68,1.85s-10.39.54-15.58.61c-5.36.06-10.71.07-16.06.21a145.08,145.08,0,0,1-15.46-.6c-5.9-.49-11.79-1-17.67-1.67-4.9-.72-9.68-2-14.55-2.91-5-1-10.12-1.7-15.2-2.36-2.52-.33-5-.65-7.54-1s-4.75-.94-7.1-1.46-4.85-1-7.24-1.79-4.64-1.63-6.93-2.5q-7.86-3.23-15.6-6.74c-1.65-.75-3.31-1.48-5-2.24l-2.29-2.88c-.08-.1-.15-.2-.23-.29-1.07-1.81-2.12-3.62-3.19-5.43-.07-.11-.13-.23-.19-.34a3.24,3.24,0,0,0,1.09.21,5.22,5.22,0,0,0,3.57-1.07,4.88,4.88,0,0,0,.7-6.84,4.7,4.7,0,0,0-3.28-1.76,5.17,5.17,0,0,0-3.56,1.06,4.91,4.91,0,0,0-1.58,2.33c-.32-.8-.63-1.6-.9-2.41a14,14,0,0,1-.43-2.2,22.72,22.72,0,0,1,.58-3.46c.19-.86.39-1.73.59-2.6.32-1.25.63-2.49,1-3.74l.27-1.12a4.24,4.24,0,0,0-.36-2.22,4.3,4.3,0,0,0-2.36-2.23,4.35,4.35,0,0,0-3.34.09,4.14,4.14,0,0,0-2.23,2.36c-1,3.57-1.87,7.15-2.58,10.77a13,13,0,0,0,.29,5.71c.47,1.85,2.07,13.47,3.29,14.47,2,1.64,3.87,3.45,5.89,5.08s4.36,3.46,6.64,5.06c4.41,3.09,8.83,6.14,13.25,9.21A142.14,142.14,0,0,0,594.75,952a118.56,118.56,0,0,0,13.39,6.07c1.9.82,3.8,1.65,5.67,2.53,2.27,1.06,4.5,2.18,6.81,3.13,2.15.89,9.93,6.86,12.27,7.93a45.08,45.08,0,0,0,5,2c2.23.74,4.47,1.47,6.74,2.12,4.86,1.37,9.74,2.69,14.68,3.76,2.34.5,4.68,1.09,7,1.48l2.83.48c3.14,1.18,6.34,2.17,9.59,3.08A181.74,181.74,0,0,0,724.34,991Z"/>
			<path class="cls-3" d="M602.81,911.05a8.14,8.14,0,0,0,2.71,2.8,5.12,5.12,0,0,0,2.33,2.4c.74.33,1.49.64,2.24.93a19.54,19.54,0,0,0,3.24.42q1.17-.11,2.34-.3a14.35,14.35,0,0,0,2.79-1.14,15,15,0,0,0,1.76-1.42,8.33,8.33,0,0,0,2-3.31c.53-.38,1-.79,1.51-1.21a18.35,18.35,0,0,0,3.29-4.28,21.57,21.57,0,0,0,1.47-3.5,16.15,16.15,0,0,0,.72-4.33,16.48,16.48,0,0,0-.88-7A13.89,13.89,0,0,0,626,887a12.5,12.5,0,0,0-2.16-2.14l-1.61-1.23a7.56,7.56,0,0,0-3.77-1h0a7.53,7.53,0,0,0-6.14,3.27,15.08,15.08,0,0,0-3.31,1.18,16.81,16.81,0,0,0-3.5,2.42,13.73,13.73,0,0,0-2.32,2.87,16.6,16.6,0,0,0-1.78,4.36,16.14,16.14,0,0,0-.35,3.53,16,16,0,0,0,.56,3.62,3.52,3.52,0,0,0,.13.43c-.06.44-.1.88-.12,1.33A10.72,10.72,0,0,0,602.81,911.05Z"/>
			<path class="cls-3" d="M569.21,875a14.33,14.33,0,0,0,3.95,9,27.24,27.24,0,0,0,2.67,2.37c.49.35,1,.65,1.49,1a3.46,3.46,0,0,1,.22.31,3.79,3.79,0,0,0,1.37,1.2,3.54,3.54,0,0,0,3.6.37,3.51,3.51,0,0,0,1.41-1.15,3.6,3.6,0,0,0,.66-2.26c0,.09,0,.19,0,.29a8.78,8.78,0,0,0,0-2.94,7.65,7.65,0,0,0-1.71-3.41c-.9-1.08-1.94-2-2.79-3.14a12.65,12.65,0,0,1-.57-1.31,28.66,28.66,0,0,1-.64-4.43c-.19-2.14-.39-4.28-.51-6.43,0-1.49,0-3,.11-4.47a28.2,28.2,0,0,1,.81-4.46c.15-.6.31-1.19.47-1.79.1-.43.21-.86.31-1.29a4.91,4.91,0,0,0-.42-2.56,5,5,0,0,0-2.71-2.57,5.07,5.07,0,0,0-1.8-.33,5,5,0,0,0-2.05.44,4.77,4.77,0,0,0-2.57,2.72,57.91,57.91,0,0,0-1.92,8.83,52,52,0,0,0,0,9.08C568.84,870.39,569,872.71,569.21,875Z"/>
			<path class="cls-3" d="M600.61,853a15.78,15.78,0,0,0,1.85,3.4,3.44,3.44,0,0,0,1.43,1,3.49,3.49,0,0,0,2.69-.07,3.52,3.52,0,0,0,2-3.73,4,4,0,0,1-.06-.47c0-1.09,0-2.17,0-3.25A22.73,22.73,0,0,1,609,845c.14-.53.29-1.06.47-1.58a14.2,14.2,0,0,1,.72-1.65,36.18,36.18,0,0,1,3.76-5.26,37.36,37.36,0,0,1,4.7-3.68,3.88,3.88,0,0,0,1.45-2.69,4,4,0,0,0-3.56-4.37,2.88,2.88,0,0,0-.41,0,4.34,4.34,0,0,0-2.52.89c-1.07.74-2.13,1.47-3.15,2.26a24.57,24.57,0,0,0-3,2.86,37.86,37.86,0,0,0-2.59,3.21c-.59.82-1.23,1.63-1.74,2.51s-.9,1.56-1.31,2.37a14.3,14.3,0,0,0-.93,2.46,22.44,22.44,0,0,0-.8,3.45,18.52,18.52,0,0,0-.11,3.87A12.59,12.59,0,0,0,600.61,853Z"/>
			<path class="cls-3" d="M623.76,856.21a6.26,6.26,0,0,0,5-.27,9.17,9.17,0,0,0,1.81-1.23,3.68,3.68,0,0,0,1-4.34,3.73,3.73,0,0,0-1.17-1.44l-.28-.19a3.52,3.52,0,0,0-.85-3.1,3.33,3.33,0,0,0-1.4-1,4.13,4.13,0,0,0-1.43-.26,3.91,3.91,0,0,0-.51,0,5.66,5.66,0,0,0-2.26,1,6.49,6.49,0,0,0-2,2.18,8.71,8.71,0,0,0-.8,1.69,6.36,6.36,0,0,0-.29,2.67A5.16,5.16,0,0,0,623.76,856.21Z"/>
			<path class="cls-3" d="M588.84,877.23a5.58,5.58,0,0,0,3.84-1.15,5.25,5.25,0,0,0,1.9-3.52,5.31,5.31,0,0,0-1.15-3.85,5,5,0,0,0-3.52-1.9,5.62,5.62,0,0,0-3.85,1.15,5.25,5.25,0,0,0-1.9,3.52,5.31,5.31,0,0,0,1.15,3.85A5,5,0,0,0,588.84,877.23Z"/>
			<path class="cls-3" d="M1037.44,587.72a15.32,15.32,0,0,0,1.85,3.82,14.46,14.46,0,0,0,2.93,3.36,12.58,12.58,0,0,0,1.17.86c.52.35.88.61,1.39.89a12,12,0,0,0,1.86.64,4.07,4.07,0,0,0,3.87-1.29,4.23,4.23,0,0,0,.39-5,10.33,10.33,0,0,0-2.14-2.61c-.47-.42-.93-.84-1.36-1.29a16.33,16.33,0,0,1-1.29-2,12.82,12.82,0,0,1-.46-1.45c0-.4,0-.79,0-1.18a13.85,13.85,0,0,1,.39-2,24.68,24.68,0,0,1,1.84-3.44c1-1.38,2.07-2.71,3.18-4a4.15,4.15,0,0,0-3.12-6.94,4,4,0,0,0-3.06,1.36c-.8.93-1.62,1.86-2.36,2.83-1,1.3-1.89,2.61-2.79,4a17.08,17.08,0,0,0-2.79,7.24,16,16,0,0,0-.11,3A17.8,17.8,0,0,0,1037.44,587.72Z"/>
			<path class="cls-3" d="M1069.33,582.09a2.79,2.79,0,0,0,1.48,3,2.82,2.82,0,0,0,3.74-1.24,25.49,25.49,0,0,0,2-5.82,16.71,16.71,0,0,0,.43-3.46,8.41,8.41,0,0,0-.06-1.33,7.63,7.63,0,0,0-.75-2.43,15.79,15.79,0,0,0-1.83-2.72,3.55,3.55,0,0,0-2.14-1.45,3.36,3.36,0,0,0-.63-.06,3.29,3.29,0,0,0-1.82.54,3.33,3.33,0,0,0-1.45,2.13,3.24,3.24,0,0,0,.48,2.46,18,18,0,0,1,1.53,2.16s0,0,0,.06a7.8,7.8,0,0,1,0,1.08c-.12,1.26-.35,2.51-.54,3.76S1069.55,581,1069.33,582.09Z"/>
			<path class="cls-3" d="M853,638.48a16.9,16.9,0,0,0,2.67,3.67,11.36,11.36,0,0,0,3.35,2.44,3.67,3.67,0,0,0,4.33-.82,3.61,3.61,0,0,0,.92-2.66,3.88,3.88,0,0,0-1.19-2.47l-.06-.06a30.46,30.46,0,0,1-3-4.06c0-.33,0-.65,0-1a24,24,0,0,1,1-3.95,23.13,23.13,0,0,1,1.36-3,4,4,0,0,0-1.75-5.26,3.8,3.8,0,0,0-1.71-.41,4.1,4.1,0,0,0-3.55,2.16,41.62,41.62,0,0,0-2.73,7,13.62,13.62,0,0,0-.65,3.69,11.1,11.1,0,0,0,.08,1.91A8.07,8.07,0,0,0,853,638.48Z"/>
			<path class="cls-3" d="M877.47,629.46a34.16,34.16,0,0,1,.3,6.55c0,.1,0,.21,0,.31a3.91,3.91,0,0,0,.52,2.69,3.63,3.63,0,0,0,5,1.06,3.81,3.81,0,0,0,1.59-2.34,21.34,21.34,0,0,0-.56-13.65,4.34,4.34,0,0,0-2.05-2.37,4.18,4.18,0,0,0-1.84-.43,4,4,0,0,0-1.28.21,4.1,4.1,0,0,0-2.37,2,4,4,0,0,0-.22,3.12A18.67,18.67,0,0,1,877.47,629.46Z"/>
			<path class="cls-3" d="M853.73,758.43c-2.09-1.06-4.16-2.17-6.24-3.28-1.75-.94-3.48-1.94-5.15-3-.83-.55-1.7-1.06-2.49-1.66l-1.71-1.28-3.28-2.8c-1.2-1-2.31-2.18-3.45-3.26s-2.11-2.25-3.15-3.37c-.79-.84-1.51-1.78-2.24-2.7-.92-1.27-1.85-2.54-2.69-3.86-1.14-1.79-2.25-3.56-3.29-5.4l-1.46-2.56c-.59-1.06-1.06-2.22-1.59-3.32-.8-1.64-1.51-3.32-2.23-5-1.55-3.94-3-7.89-4.34-11.92a92.74,92.74,0,0,1-3-12.62c-1.51-8.51-3.09-17-4.28-25.57-1.13-10.48-1.93-21-2.66-31.54-.2-2.84-.4-5.67-.66-8.5-.28-3.07-.68-6.1-1.11-9.14-.2-1.37-.39-2.73-.58-4.09-.15-1-.42-2.08-.63-3.12-.67-3.29-1.28-6.6-2.05-9.86-.26-1.09-.53-2.16-.79-3.24a5.05,5.05,0,0,0-3.07-3.44q.35,8.32.62,16.67a11.12,11.12,0,0,1-3.59,8.42c.23,1.58.43,3.16.64,4.74q.51,5.56.92,11.15a2.65,2.65,0,0,0-1.12,1.71,92.79,92.79,0,0,0-1,13.11c-.13,3.82-.43,7.6-.88,11.38-.44,2.81-.85,5.6-1.13,8.43-.13,1.26-.14,2.56-.18,3.84s-.11,2.53,0,3.78c.28,5.47,1,10.93,1.63,16.37a102.74,102.74,0,0,0,2.93,15.86,104.49,104.49,0,0,0,5.79,15.8A103,103,0,0,0,803.89,739c1.69,2.49,3.4,4.94,5.2,7.35.81,1.09,1.58,2.21,2.46,3.24l3.37,3.95c1.5,1.76,3.07,3.48,4.68,5.14,2,2.05,4,4.1,6.09,6.05a92.88,92.88,0,0,0,13.55,10.65,96.38,96.38,0,0,0,14,6.94c2.91,1.23,5.85,2.39,8.78,3.57,2.23.89,4.47,1.83,6.74,2.61,2.45.84,4.88,1.79,7.38,2.46,2.8.76,5.57,1.52,8.4,2.14l4.06.89c1.7.38,3.43.67,5.15,1a54.71,54.71,0,0,0,6.86.75,13.51,13.51,0,0,0,5.06-.64,9.07,9.07,0,0,0,3.48-2.06,8,8,0,0,0,1.89-3.22,7.57,7.57,0,0,0,.37-2.64,9.22,9.22,0,0,0-1-3.82,15,15,0,0,0-3.12-4.47,28.57,28.57,0,0,0-6.81-5.38,38.11,38.11,0,0,0-8-3.57c-2.69-.77-5.45-1.29-8.18-1.86-3-.6-5.91-1.19-8.85-1.9s-6.1-1.62-9.11-2.54c-2.43-.74-4.79-1.62-7.15-2.53C857.39,760.21,855.55,759.35,853.73,758.43Z"/>
			<path class="cls-3" d="M933.19,729.25a25.07,25.07,0,0,0,6,2.44l.36.16a32.28,32.28,0,0,0,5.33,1.84,23,23,0,0,0,5.79.57,23,23,0,0,0,10.61-2.82,2.82,2.82,0,0,0,2.3-.88c.25-.28.48-.57.71-.87.6-.38,1.2-.78,1.78-1.17.87-.59,1.7-1.18,2.53-1.82a19.38,19.38,0,0,0,3.86-4.37c.88-1.24,1.77-2.51,2.54-3.82a28,28,0,0,0,2.3-5.27,30,30,0,0,0,.86-3.22c.13-.59.3-1.18.39-1.77.05-.35.1-.7.16-1a21.09,21.09,0,0,0,3.28,3.73,61,61,0,0,0,4.78,3.85,37.16,37.16,0,0,0,12.92,6.09,22.13,22.13,0,0,0,6.23.6,19.21,19.21,0,0,0,3.84-.61,9.49,9.49,0,0,0,2.75-1.18l1.08-.23a37,37,0,0,0,7.2-2.63,11.4,11.4,0,0,0,3.39-2.45,14.68,14.68,0,0,0,2-2.81,7.19,7.19,0,0,0,1-3.52,6.12,6.12,0,0,0-.73-2.61,5.77,5.77,0,0,0-2-2,7.77,7.77,0,0,0-1.79-.68,10.58,10.58,0,0,0-2-.19,2.35,2.35,0,0,0-.32-.23,2.19,2.19,0,0,0-2.91.75c-1.4.38-2.77.82-4.2,1.1-1.49.12-3,.14-4.49.12-1.07,0-2.14,0-3.2-.07-.58,0-1.16-.08-1.73-.15a28,28,0,0,1-5-1.25c-.43-.21-.84-.44-1.25-.69a26.79,26.79,0,0,1-3.06-3.41c-.77-1.06-1.52-2.12-2.23-3.23-.87-1.36-1.64-2.75-2.41-4.16a101.73,101.73,0,0,1-4.42-9.54,5.31,5.31,0,0,0-3.38-2.59,5.78,5.78,0,0,0-1.37-.17,6.84,6.84,0,0,0-.9.08c1.12-1.58,2-3.36,3-5,1.31-2.28,2.63-4.55,4-6.82a6.52,6.52,0,0,0,1-4.76,6.3,6.3,0,0,0-11-2.88,8.43,8.43,0,0,0-1.38-.33,16.06,16.06,0,0,0-6.76.3c-2.4.65-4.74,1.49-7.08,2.32-1,.37-2,.71-3,1.08a8,8,0,0,0-5.45,7.07c-.14,4.15,3,7.29,6.12,9.61a15.3,15.3,0,0,0,2,1.26c1.2.64,2.4,1.3,3.65,1.84a17.23,17.23,0,0,0,4.68,1.09,7.72,7.72,0,0,0,1.52,0,11.06,11.06,0,0,0,3.07-.45l1.3-.42s0,.09-.05.14c-.06.46-.12.93-.17,1.39a5.42,5.42,0,0,0,.51,2.28,1.86,1.86,0,0,0-.67-.13,2,2,0,0,0-1.39.57,1.94,1.94,0,0,0-.55,1.14,3.28,3.28,0,0,0-2.92-1.84h0a3.24,3.24,0,0,0-3.22,3.22c0,1.24.12,2.47,0,3.7s-.21,2.31-.34,3.46q-.4,3.65-.77,7.29A47.17,47.17,0,0,1,964,710c-.27.64-.55,1.28-.84,1.9a41.65,41.65,0,0,1-2.71,4.11,28,28,0,0,1-2.6,3,37.6,37.6,0,0,1-3,2.53c-1.17.87-2.38,1.69-3.63,2.44a34.77,34.77,0,0,1-4.1,2,17.81,17.81,0,0,1-3.43.95,14,14,0,0,1-1.83,0,24,24,0,0,1-4.33-1.14,17.41,17.41,0,0,1-2.57-1.34,12.48,12.48,0,0,1-1.68-1.65l-.06-.09a2.7,2.7,0,0,0-1.54-1.19,2.5,2.5,0,0,0-3.05,1.79,2.4,2.4,0,0,0,.25,1.87A14.77,14.77,0,0,0,933.19,729.25Z"/>
			<path class="cls-3" d="M1205,943.66c-.28,1.57-.55,3.13-.83,4.7-.39,2.16-.71,4.34-1.06,6.51s-.72,4.39-1.09,6.58-.74,4.62-1.17,6.92c-.88,4.79-1.78,9.57-2.75,14.35-.07.34-.12.68-.19,1a2.42,2.42,0,0,0,1.91,2.8,2.36,2.36,0,0,0,1.79-.37,2.48,2.48,0,0,0,1-1.53c.18-.63.35-1.26.5-1.9.47-1.77,1-3.53,1.47-5.3l.93-3.39c.26-1,.57-2,.82-3,.15-.61.29-1.22.45-1.84a2.19,2.19,0,0,0,.78-1.23c.58-2.7,1.22-5.38,1.8-8.07.24-1.09.4-2.19.58-3.29s.31-2,.43-3c.16-1.33.3-2.67.45-4l0-.15a3.88,3.88,0,0,0,2.27-2.94,164.44,164.44,0,0,0,1.6-21.37,4.45,4.45,0,0,0,1.37-2.43c.11-.54.17-1.08.25-1.62.2-1.41.28-2.84.36-4.26.14-2.43,0-4.86,0-7.29s-.3-4.9-.59-7.3c-.34-2.78-.69-5.55-1.1-8.31s-.87-5.59-1.34-8.38-1.11-5.48-1.69-8.22c-.52-2.47-1.22-4.93-1.85-7.38-.73-2.84-1.45-5.67-2.18-8.5-1.26-4.93-2.56-9.84-4-14.73-1.49-5.14-2.87-10.32-4.63-15.37s-3.69-9.79-5.75-14.59c-.53-1.24-1.06-2.47-1.58-3.7-.76-1.78-1.76-3.49-2.63-5.21a52.33,52.33,0,0,0-3.33-5.7,50.76,50.76,0,0,0-5.35-6.19c-.77-.81-1.58-1.57-2.39-2.33-.57-.55-1.14-1.1-1.72-1.63a24.6,24.6,0,0,0-4.68-3.28,9.84,9.84,0,0,0-4.83-1.18,14,14,0,0,0-4.9.93,15.85,15.85,0,0,0-2.84,1.52l-.63.53a13.22,13.22,0,0,0-3.5,4.22,17.53,17.53,0,0,0-1.43,3.73,10.76,10.76,0,0,0-.25,1.88c-.08.88-.13,1.76-.17,2.64a18.86,18.86,0,0,0,.13,3.36,36.32,36.32,0,0,0,.84,4.4,29.19,29.19,0,0,0,1,3.44,47.24,47.24,0,0,0,4,7.94c1.3,2.18,2.63,4.33,4.1,6.4,3.12,4.4,6.2,8.82,9.15,13.34,3.71,5.68,7.16,11.55,10.57,17.41,1.59,2.74,3.2,5.48,4.78,8.23,1.74,3,3.38,6.06,5,9.14,2.2,4.53,4.36,9.07,6.2,13.77l.21.54,1.69,6c1,3.64,2,7.3,3,11,.46,1.75,1,3.49,1.42,5.24,0,.1,0,.21,0,.31a95.88,95.88,0,0,1,.75,18.55C1205.86,935.94,1205.45,939.8,1205,943.66Z"/>
			<path class="cls-3" d="M1131.21,971.83a6,6,0,0,0-4,6,10.78,10.78,0,0,0,2,4.8c.53.87,1,1.74,1.59,2.6q1.85,2.94,3.72,5.86,3.33,5.22,6.65,10.44c5.64,8.88,11.17,17.82,16.7,26.76a5.89,5.89,0,0,0,8.13,1.57l.14-.1a7.69,7.69,0,0,0,8.23-4.27,7.39,7.39,0,0,0,.35-5.79c-.17-.39-.35-.78-.54-1.16a6.84,6.84,0,0,0,6.23-2.34,6.72,6.72,0,0,0,1.64-4.94,9.86,9.86,0,0,0-.88-3.06c-.23-.47-.46-.95-.68-1.42a38.93,38.93,0,0,0-2.32-4.55c-.65-1.05-1.34-2.09-2-3.11a214.27,214.27,0,0,1-9.14-20.92c-.78-2.16-1.56-4.31-2.25-6.51s-1.4-4.55-2-6.86c-1.11-4-2-8.06-2.85-12.14-.32-1.63-.64-3.26-1-4.87a10.37,10.37,0,0,0-.82-2.11,11.4,11.4,0,0,0-2.7-3.95,8.8,8.8,0,0,0-3.73-1.94,5.67,5.67,0,0,0-1.6-.22,7.28,7.28,0,0,0-5.45,2.5,16.36,16.36,0,0,0-2.36,4.27c-.53,1.29-1.1,2.57-1.59,3.87-1.29,3.4-2.45,6.84-3.56,10.31a22.56,22.56,0,0,0-.86,4.14,14.28,14.28,0,0,0-.1,3,8,8,0,0,0,1.21,3.73,7.25,7.25,0,0,0-1.63.73A5.78,5.78,0,0,0,1131.21,971.83ZM1144.4,950h0l0-.2A1.77,1.77,0,0,0,1144.4,950Z"/>
			<path class="cls-3" d="M1121.19,962.16a7.44,7.44,0,0,0-3.42-.62,6.76,6.76,0,0,0-3.33,1.15c-.57.45-1.11.93-1.64,1.44a12,12,0,0,0-1.62,3c-.53.23-1,.5-1.6.77a14.66,14.66,0,0,0-3.86,3,5.67,5.67,0,0,0-.84.15l-1.22-.72a5.2,5.2,0,0,0-4-.24,5.41,5.41,0,0,0-3.12,2.76,5.49,5.49,0,0,0-.24,4A5.73,5.73,0,0,0,1099,980c.37.21.74.44,1.12.65a7.77,7.77,0,0,0,.08.83,7.4,7.4,0,0,0,1.26,3.63,7.31,7.31,0,0,0,2.91,2.52l2.35.77a9.52,9.52,0,0,0,4.43-.36l.13,0a10.45,10.45,0,0,0,2.31-.59,13.6,13.6,0,0,0,4.38-3,17.38,17.38,0,0,0,2.69-3.11c.26-.29.52-.58.76-.88a16.3,16.3,0,0,0,3.77-8.27,11.45,11.45,0,0,0-.72-6.29l0,.15A6.35,6.35,0,0,0,1121.19,962.16Z"/>
			<path class="cls-3" d="M905.32,1285.75c-1.7-3.38-3.21-6.85-4.6-10.37a4.16,4.16,0,0,0-3.82-2.66,4,4,0,0,0-1.34.23,3.9,3.9,0,0,0-1.2.7,5,5,0,0,0-2.82,2.58c-.13.41-.27.81-.4,1.22a5.09,5.09,0,0,0,.22,2.62,31,31,0,0,0,1.11,3.33c.27.79.53,1.58.83,2.35.69,1.75,1.39,3.51,2.21,5.2,1.75,3.63,3.56,7.35,6.24,10.4,1.44,1.65,2.92,3.29,4.52,4.79,1.36,1.28,2.77,2.49,4.22,3.67A92.58,92.58,0,0,0,919,1316a6.12,6.12,0,0,0,1,.6l.13.08v0a5.31,5.31,0,0,0,5.67-8.88l-.58-.45-.46-.45a58.92,58.92,0,0,1-4-4.56c-1.6-2.16-3.22-4.29-4.89-6.39a4.91,4.91,0,0,0-3-1.93,4.8,4.8,0,0,0-2.35.16A88.06,88.06,0,0,1,905.32,1285.75Z"/>
		</g>
	</g>
	<g id="bow_tie" data-name="bow tie">
		<path class="cls-3" d="M1095.59,803.17a13.6,13.6,0,0,0-4.9-4.95l-3.37-1.42a13.58,13.58,0,0,0-7.13,0,72.73,72.73,0,0,0-11.43,2.88l-.35.11a14.88,14.88,0,0,0,1.4-6,11.51,11.51,0,0,0-14.56-11.07,10.79,10.79,0,0,0-5.78,3.57c-.39.46-.78.92-1.21,1.35-1,1-2.13,1.88-3.21,2.79-2.32,2-4.59,4-6.84,6-2.45,2.2-4.84,4.46-7.27,6.66s-4.87,4.2-7.37,6.22a42.56,42.56,0,0,1-6,3.76q-.93.31-1.89.54h-1a11,11,0,0,0-7.95-3.23,34.92,34.92,0,0,0-3.52.45,22.35,22.35,0,0,0-4.3,1.91h0c-1.29,0-2.58-.07-3.87-.13a12.14,12.14,0,0,0-5-2.69,12.32,12.32,0,0,0-9.28,1.2l-.93.54-1.51-.07c-3.07-.12-6.1-.15-9.17-.11-5.1,0-10.22.38-15.29.86a56.86,56.86,0,0,1-7,.53c-6.12-.19-11.2,5.34-11.18,11.29a11.33,11.33,0,0,0,3.24,7.83,11.71,11.71,0,0,0,8.06,3.35c.75,0,1.5.1,2.25.17l-.91,1.1c-3.2,3.87-6.3,7.81-9.38,11.76-1,1.31-2,2.64-3,4l-1.6,2.16a26.85,26.85,0,0,0-3.72,7.29c-1.27,3.69.21,8.17,2.85,10.86a11.31,11.31,0,0,0,11,3c3.89-.58,6.32-4,8.57-6.82l.42-.52c.34.25.69.48,1.06.7a13.18,13.18,0,0,0,4.28,1.58,11.13,11.13,0,0,0,.29,2.29,8,8,0,0,0,1.52,2.89l0,.06a5.32,5.32,0,0,0,6.54,3.75,5.74,5.74,0,0,0,1.35-.57,8,8,0,0,0,2.55-.94,7.83,7.83,0,0,0,2.9-2.87c.68-1.56,1.27-3.14,1.89-4.72,1.15-2.59,2.34-5.16,3.6-7.7,1.52-2.47,3.17-4.86,4.89-7.17a107.14,107.14,0,0,1,17.26-16.32l5.58-4.08,4.68-.05a43.57,43.57,0,0,0,9.31-.87,12,12,0,0,0,2.36,3.37,9.68,9.68,0,0,0,2.85,2.17c2.7,1.4,3.87,1.53,6.89,1.81a12.89,12.89,0,0,0,4.58-.81l1.54-.64a8.65,8.65,0,0,0,.51,1.7,16.51,16.51,0,0,0,1.77,4.06c.89,1.19,1.79,2.36,2.69,3.54a8,8,0,0,0,.83.82,35.4,35.4,0,0,0,3.82,3c3.84,2.75,9.58,4,14,2.43l3.43-1.43a14.55,14.55,0,0,0,6.78-16.4,17.26,17.26,0,0,0-1.59-3.92,5.09,5.09,0,0,0-.3-.5,46.51,46.51,0,0,1,3.82-3.47,61.84,61.84,0,0,1,7.89-4.45c1.14-.55,2.27-1.12,3.42-1.64l2.16-1,1-.46a15.19,15.19,0,0,0,5.82-5.57,13.64,13.64,0,0,0,.08-13.72Z"/>
		<path class="cls-1" d="M1110.36,810.81a15.19,15.19,0,0,0-4.36-5.08,52.9,52.9,0,0,0-12.93-8.14c-3.48-1.53-7-2.76-10.63-4-2.13-.74-4.3-1.36-6.44-2.09.29-1,.58-2,.82-3a66.28,66.28,0,0,0,1.88-12,23.09,23.09,0,0,0-.54-5.49,15.63,15.63,0,0,0-1.37-3.44l-.37-.52a9.27,9.27,0,0,0-3.32-3.35,10.36,10.36,0,0,0-5.65-1.73,8.12,8.12,0,0,0-.86,0c-1.23.13-2.45.31-3.66.5a27.28,27.28,0,0,0-10.07,4.26,161.1,161.1,0,0,0-13.94,10.16,102.54,102.54,0,0,0-12.6,12.23,154.24,154.24,0,0,0-12,15.64,6.54,6.54,0,0,0-1.43-.37,50.1,50.1,0,0,0-6.25-.45c-.85,0-1.69,0-2.54.1a43.88,43.88,0,0,0-5.2.92,21.8,21.8,0,0,0-5.31,2l-.33.18-1.62-.52c-1.36-.43-2.8-.68-4.19-1-2.63-.62-5.33-1-8-1.55-3-.57-6-1.08-9-1.39a79.34,79.34,0,0,0-8.15-.59,140.55,140.55,0,0,0-16,.82c-3.4.38-6.78.79-10.15,1.32-1.16.19-2.32.4-3.47.65a25.71,25.71,0,0,0-5.16,1.88,16.08,16.08,0,0,0-4.41,3.11,14.63,14.63,0,0,0-3.44,5.81,11.77,11.77,0,0,0,.73,9.12c2,3.84,5.63,6.57,9.38,8.52a53,53,0,0,0,7.56,3.12l1.78.58a82.65,82.65,0,0,0-8.41,10.24,90.92,90.92,0,0,0-6.44,11.11c-.48.93-.93,1.88-1.38,2.83-.62,1.33-1.17,2.7-1.7,4.07a18.39,18.39,0,0,0-.83,4.66,12.23,12.23,0,0,0,.75,4.77,14.24,14.24,0,0,0,3.11,5.2,13.47,13.47,0,0,0,9.88,4.33,16.49,16.49,0,0,0,5.14-.94,29.42,29.42,0,0,0,4.89-2.21,27.65,27.65,0,0,0,3.32-2.25l.21-.16c-.12,1-.23,1.94-.33,2.9a27.2,27.2,0,0,0,.36,6.56A19.7,19.7,0,0,0,949,892.8c.48,1.14.92,2.22,1.46,3.32a19.73,19.73,0,0,0,2,2.91,10.67,10.67,0,0,0,5.48,3.9,11.09,11.09,0,0,0,6.86-.23,13,13,0,0,0,4.19-2.43,13.66,13.66,0,0,0,1.66-1.57,36.2,36.2,0,0,0,5.42-8.48c2.44-5,4.66-10.05,7.22-15,1.34-2.58,2.7-5.14,4.11-7.68,1.27-2.28,2.7-4.45,4.17-6.6.53-.78,1.07-1.54,1.63-2.3a112.51,112.51,0,0,0,1.36,18.8c.6,3.82,1.25,7.61,2,11.4.33,1.63.73,3.23,1.12,4.85a21.73,21.73,0,0,0,2.37,6.62l0,0a8,8,0,0,0,12.59,1.75,8.29,8.29,0,0,0,2.4-5.78,24.58,24.58,0,0,0-.77-5.36c-.27-1.46-.51-2.93-.77-4.39-.35-2-.64-4-.94-6-.3-2.46-.62-4.93-.8-7.4-.12-1.67-.24-3.34-.37-5s-.07-3.64-.1-5.45,0-3.6.06-5.4l.6.94c.82,1.69,1.67,3.36,2.52,5,2,3.92,4.2,7.75,6.24,11.65l1.54,2.93.36.81c.73,1.63,1.45,3.27,2.14,4.91.34.82.69,1.64,1,2.46a17.57,17.57,0,0,0,2.71,4.12,10.46,10.46,0,0,0,10.19,2.76,10.67,10.67,0,0,0,7.35-7.37c1.46-4.61-1.38-9.09-3.51-13-1-1.83-2-3.68-3-5.48-2.57-4.4-5.2-8.72-7.9-13-1.24-2-2.52-3.94-3.81-5.89,1.9.6,3.81,1.14,5.71,1.75,2.05.66,4.19,1.09,6.27,1.67,1.93.54,3.81,1.18,5.68,1.87,1.29.6,2.56,1.21,3.82,1.87,2,1,3.94,2.11,6,3,2.62,1.22,5.41,2.07,8.13,3a49.34,49.34,0,0,0,13.42,3,19.46,19.46,0,0,0,4.68-.51c1.94-.38,3.41-1.66,4.91-2.84s2.12-3.37,2.76-5a8.49,8.49,0,0,0,.36-1.72,32.38,32.38,0,0,0,.39-3.52,26.9,26.9,0,0,0-.65-6.21,14.87,14.87,0,0,0-.84-2.68c-.74-1.89-1.54-3.75-2.45-5.57a24.54,24.54,0,0,0-2.25-3.65l5.85-1a54.72,54.72,0,0,0,9.46-2.34,23.8,23.8,0,0,0,9.58-6.07,11.31,11.31,0,0,0,2.71-5A11.92,11.92,0,0,0,1110.36,810.81Zm-128,35.44a143.5,143.5,0,0,0-7.9,12.25c-1.14,2-2.13,4-3.17,6.07q-1.86,3.63-3.67,7.28c-1.08,2.17-2.11,4.4-3.18,6.61.1-1,.21-2,.32-3.05q.36-2.65.73-5.32c.4-2.85.86-5.71,1-8.59a10.16,10.16,0,0,0-2.78-7.32,8.54,8.54,0,0,0-8.59-2.18,20.29,20.29,0,0,0-6.28,4c-.94.77-1.87,1.57-2.79,2.36-2.14,1.86-4.25,3.78-6.44,5.59a74.47,74.47,0,0,1,6.79-11.12,91,91,0,0,1,8.66-8.79c.83-.76,1.73-1.45,2.58-2.19a18.68,18.68,0,0,0,4-4.58,9.59,9.59,0,0,0,0-9.53,10.26,10.26,0,0,0-3.42-3.51,24.38,24.38,0,0,0-3.3-1.47c-2.48-1-5-1.82-7.56-2.66,1.51-.26,3-.49,4.53-.71a89.31,89.31,0,0,1,10.94-.9c2.37,0,4.68,0,7,.19,1.37.09,2.74.25,4.1.42q3.95.65,7.87,1.34l-.27.76a18,18,0,0,0-.81,8.14,18.22,18.22,0,0,0,3.56,9.21c.65.81,1.31,1.59,2,2.33C984.94,842.69,983.62,844.46,982.32,846.25Zm25.28-19.87c-.32.23-.64.46-1,.67l-.86.28c-.4,0-.79,0-1.19,0a19.85,19.85,0,0,1-2.31-.53c-.46-.2-.9-.42-1.34-.66l-.23-.2h0c0-.24.1-.48.16-.72s.13-.26.2-.39c.26-.3.53-.58.81-.86s.66-.48,1-.7c.53-.19,1.07-.34,1.61-.49l.57-.06a14,14,0,0,0,.82,1.41,12.17,12.17,0,0,0,1.84,2.09Zm82-9.46c-5,.62-10.14,1.1-15.21,1.58-2.54.24-5.08.42-7.63.65-1.13.1-2.25.27-3.38.45-1.72.29-3,1.53-4.29,2.54l-1.46,1.87a9.23,9.23,0,0,0-1.27,4.69,8,8,0,0,0,.46,3.32,11.69,11.69,0,0,0,2.76,4.67c.89.77,1.83,1.49,2.77,2.2l.9.69a38.79,38.79,0,0,1,5.17,4.75l.29.43-2.1-1.06c-2.42-1.25-4.65-2.85-7-4.3a91.91,91.91,0,0,0-10.61-5.74c-3.22-1.48-6.32-3.13-9.5-4.72-2.43-1.22-4.9-2.37-7.43-3.37-.49-.2-1-.36-1.47-.51a17.4,17.4,0,0,0-1.73-8.56c2.15-3.2,4.36-6.32,6.69-9.39A113.27,113.27,0,0,1,1049,793c2-1.75,4.06-3.36,6.15-5q1.92-1.37,3.85-2.69c0,.1,0,.19,0,.29-.34,2.06-.61,4.11-.88,6.17a13.79,13.79,0,0,0,.36,4.91,11.37,11.37,0,0,0,2.45,4.4,13.82,13.82,0,0,0,3.15,2.64,17.07,17.07,0,0,0,3.43,1.54c.77.27,1.56.53,2.34.78,1.19.39,2.43.63,3.64.94l4.79,1.2a86.81,86.81,0,0,1,10.08,3.21,52.07,52.07,0,0,1,7.39,4.09A36.55,36.55,0,0,1,1089.56,816.92Z"/>
	</g>
	<g id="Cat">
		<g id="Cat-2" data-name="Cat">
			<path class="cls-4" d="M1074.51,593.22a27.46,27.46,0,0,0,5.25-3.91c.69-.65,1.36-1.3,2-2s1.21-1.36,1.81-2c1.19-1.34,2.31-2.74,3.43-4.13a35,35,0,0,0,3.37-4.91,13.48,13.48,0,0,0,1.27-3.24,13.79,13.79,0,0,0,.3-1.8,4.36,4.36,0,0,0,0-.72l-.18-1.52a11.44,11.44,0,0,0-.74-1.86l-.29-.4a9,9,0,0,0-1-1.23,11.12,11.12,0,0,0-1.69-1.35,6,6,0,0,0-.95-.54,20.78,20.78,0,0,0-2.86-1.14l-.77-.26-.4-.19c-1-.43-1.94-.83-2.93-1.19a18.93,18.93,0,0,0-5.29-.85c-.89-.06-1.78-.07-2.67-.07l-2.68-.34a41.32,41.32,0,0,0-4.83-.37h-.25a42.43,42.43,0,0,0-5.41.44c-3.47.45-6.9,1-10.31,1.7-1.68.35-3.32.82-5,1.28s-3.49,1-5.23,1.59a40.94,40.94,0,0,0-7,2.9,21.81,21.81,0,0,0-5.34,4.37l-.58.63a16,16,0,0,0-2.22,2c-1,1.06-1.85,2.2-2.7,3.34A24.42,24.42,0,0,0,1019,580a11.25,11.25,0,0,0-.79,1.82A6.23,6.23,0,0,0,1018,583l0,.1a7.47,7.47,0,0,0-.15,3.39,11.71,11.71,0,0,0,.34,1.56c0,.18.07.37.12.56a18.6,18.6,0,0,0,1.11,3,11.18,11.18,0,0,0,1.52,2.32,10.11,10.11,0,0,0,1.63,1.64,16.39,16.39,0,0,0,2.85,1.89,21.54,21.54,0,0,0,2,.86,32.93,32.93,0,0,0,6.87,1.65,81.08,81.08,0,0,0,11,.8,37,37,0,0,0,4.94-.1c2.07-.22,4.13-.48,6.2-.75.92-.11,1.85-.32,2.77-.47a32.27,32.27,0,0,0,5.56-1.46,66.48,66.48,0,0,0,6.41-3C1072.23,594.44,1073.38,593.86,1074.51,593.22Zm-18.9-8.82-.06-.06a20.55,20.55,0,0,1-1.7-3,6.21,6.21,0,0,1-.2-.74c0-.27,0-.53,0-.8a13.43,13.43,0,0,1,.4-1.45c.09-.18.19-.36.29-.53a16,16,0,0,1,1.37-1.23,36.39,36.39,0,0,1,4.65-2.78c.28-.09.56-.17.85-.24h.44c.28.08.55.16.83.26a11.88,11.88,0,0,1,1.11.6c.25.25.49.49.72.75a14.17,14.17,0,0,1,.81,1.48c.11.33.2.65.28,1a15,15,0,0,1-.07,2.12,13.39,13.39,0,0,1-.47,1.89,11.41,11.41,0,0,1-.8,1.35,12.44,12.44,0,0,1-1.16,1.25,16.73,16.73,0,0,1-2.48,1.3l-.5.16a4.59,4.59,0,0,0-2.44-.81h-.15A16.75,16.75,0,0,1,1055.61,584.4ZM1075,570.88l3.63.56a19,19,0,0,1,3.51.81c.4.2.78.42,1.15.65a25.76,25.76,0,0,1-1.86,2.77,62.52,62.52,0,0,1-8.22,8.83c.11-.25.2-.51.3-.76a14.23,14.23,0,0,0,.64-2.32,21.06,21.06,0,0,0,.41-4.11,12.29,12.29,0,0,0-.69-3.65,18,18,0,0,0-1.35-3C1073.35,570.69,1074.17,570.78,1075,570.88Zm-26.91,21.79c-1.41,0-2.83,0-4.25-.06-2.61-.07-5.22-.21-7.81-.51a33.76,33.76,0,0,1-6-1.37,16.06,16.06,0,0,1-2.11-1.16,11.23,11.23,0,0,1-.85-.84,10.78,10.78,0,0,1-.62-1.16,12,12,0,0,1-.49-2,10.28,10.28,0,0,1,0-1.11s0-.11,0-.17a17.55,17.55,0,0,1,1.49-2.35,22.38,22.38,0,0,1,3-3.18,46.33,46.33,0,0,1,9.2-4.95,47.85,47.85,0,0,1,6.11-1.86,12,12,0,0,0-2.84,6,13.25,13.25,0,0,0,.12,4.12,18,18,0,0,0,1.38,4.08,13.94,13.94,0,0,0,2,3.14,11.11,11.11,0,0,0,2.73,2.24,11.29,11.29,0,0,0,1.65.87C1049.88,592.57,1049,592.64,1048.09,592.67Z"/>
			<path class="cls-4" d="M899.59,621.77a18.81,18.81,0,0,0-1.92-2.54,15.31,15.31,0,0,0-3.06-2.55,8.51,8.51,0,0,0-1.57-.78,12.78,12.78,0,0,0-1.93-.73,46.17,46.17,0,0,0-10.28-1.24c-.7,0-1.41,0-2.11,0-1,0-2,0-2.92.08-1.73.09-3.44.28-5.15.49a84.37,84.37,0,0,0-10.59,1.85c-.8.2-1.63.36-2.42.62-1.14.37-2.27.75-3.38,1.21a36.57,36.57,0,0,0-7.57,3.82c-.92.67-1.83,1.38-2.7,2.11a19.29,19.29,0,0,0-2,2.08,24.64,24.64,0,0,0-2,2.66l-1.18.88a2.22,2.22,0,0,0-1,1.25,2.09,2.09,0,0,0,.19,1.53,1.87,1.87,0,0,0,.2.29l0,.06c0,.19,0,.38-.08.57a6.17,6.17,0,0,0-.12,1.35c0,.15,0,.29.05.43a3.17,3.17,0,0,0,.21,1.22,10.06,10.06,0,0,0,1.1,2.32,14.12,14.12,0,0,0,.92,1.27,2.34,2.34,0,0,0,1.74,2.26l.73.19c.5.39,1,.77,1.52,1.15a18.73,18.73,0,0,0,2.08,1.32,32.7,32.7,0,0,0,5.16,2.32,22.17,22.17,0,0,0,5.31.95c1.65.16,3.31.25,5,.32s3.2.18,4.78.13c1.94-.07,3.86-.31,5.79-.55L873,648a32.22,32.22,0,0,0,3.78-.57l.47-.08a19.67,19.67,0,0,0,2.79-.71c.6-.17,1.19-.34,1.78-.53,1-.34,2-.75,3-1.18a43.4,43.4,0,0,0,4.24-2,19.87,19.87,0,0,0,3.25-1.9,12.14,12.14,0,0,0,1.95-1.77c.38-.44.73-.9,1.09-1.36s.59-.8.87-1.21.5-.6.74-.91c.77-1,1.51-2,2.2-3a14.89,14.89,0,0,0,1.52-3,7.38,7.38,0,0,0,.36-1.38,9.78,9.78,0,0,0,.16-1.43,11.56,11.56,0,0,0-.15-1.43A9.51,9.51,0,0,0,899.59,621.77Zm-33.4,12.93a21.24,21.24,0,0,1-.74-3.13,11.54,11.54,0,0,1,0-1.44,8.41,8.41,0,0,1,.3-1q.21-.43.45-.84l0,0a11.38,11.38,0,0,1,1.24-.67c.79-.28,1.59-.53,2.4-.77a18.74,18.74,0,0,1,2.22-.5l.1,0c.3.17.58.34.85.53a13.3,13.3,0,0,1,1.28,1.32,15.83,15.83,0,0,1,1.17,2q.12.4.21.81t0,.66a9.25,9.25,0,0,1-.34,1.25,18,18,0,0,1-1.2,2.09,8.78,8.78,0,0,1-.92.91,21.81,21.81,0,0,1-3.16,1.7,11,11,0,0,1-1.49.41c-.32,0-.64,0-1,0l-.39-.11c-.22-.11-.43-.23-.65-.36A7.54,7.54,0,0,1,866,637,3.08,3.08,0,0,0,866.19,634.7Zm-14.92,3.69c-1-.19-2-.34-3-.44a19.31,19.31,0,0,1-2.35-2.26,8.75,8.75,0,0,1-.62-1.07l.12-.42a15.68,15.68,0,0,1,1.18-1.92,20.67,20.67,0,0,1,2.84-2.85c.73-.53,1.48-1,2.26-1.5a28.22,28.22,0,0,1,3.47-1.65c1-.39,1.93-.77,2.92-1.07l.21-.06-.24.51-.48,1.16a12.82,12.82,0,0,0-.49,2.31,8.38,8.38,0,0,0,.12,2.69,11.48,11.48,0,0,0,.81,2.42c.07.55.16,1.09.25,1.62A12.15,12.15,0,0,0,860,640c-.58-.07-1.17-.12-1.75-.2C855.89,639.44,853.6,638.84,851.27,638.39ZM891,630.31c-.69.84-1.38,1.67-2.13,2.46a24.37,24.37,0,0,1-2.19,2,24,24,0,0,1-3,1.77c-1.16.58-2.34,1.11-3.53,1.63l-.51.16c.25-.36.49-.73.72-1.1a13,13,0,0,0,1.68-4.32c.09-.52.15-1,.2-1.56a8.08,8.08,0,0,0-.14-1.7,13.61,13.61,0,0,0-1.27-3.8,13.87,13.87,0,0,0-1.37-2.32c1.43.22,2.85.45,4.28.71a32.76,32.76,0,0,1,5.41,1.55,15.41,15.41,0,0,1,2.47,1.32,10.7,10.7,0,0,1,.9.88A24.65,24.65,0,0,1,891,630.31Z"/>
			<path class="cls-4" d="M1029.2,696.83a14.31,14.31,0,0,0-2.45-1.92,6.55,6.55,0,0,0-1.14-.61c-1.88-.81-4-1.69-6.06-.95a4.61,4.61,0,0,0,1.12,9.07l.33,0,.9.24a10.83,10.83,0,0,1,1.05.59,10.06,10.06,0,0,1,.8.8l.15.27c.1.32.17.63.24,1s0,.71,0,1.07-.18.66-.29,1a21,21,0,0,1-2.11,3.41,25.29,25.29,0,0,1-1.86,2,23.4,23.4,0,0,1-1.78,1.52c-.61.43-1.24.84-1.88,1.23a12,12,0,0,1-1.69.83,44.38,44.38,0,0,1-8.18,2.07c-1.59.14-3.19.2-4.79.23l-2.87,0a19,19,0,0,1-2.24-.18l-1-.16a8.63,8.63,0,0,1-1.65-.47,25.1,25.1,0,0,1-3.77-2.32,30.12,30.12,0,0,1-2.81-2.49c-1-1-1.89-2.12-2.77-3.24a27.82,27.82,0,0,1-2.26-3.69c-.58-1.14-1.13-2.28-1.62-3.45a30.53,30.53,0,0,1-1.08-3.73c-.32-1.43-.73-2.82-1.14-4.23-.19-.67-.38-1.35-.58-2-.17-1.54-.31-3.08-.44-4.62a18.43,18.43,0,0,0,1.78-1.66c.68-.71,1.34-1.43,2-2.17a53.88,53.88,0,0,0,4.1-5.3,43.06,43.06,0,0,0,2.79-4.84c.43-.84.82-1.7,1.21-2.56a20.77,20.77,0,0,0,1.31-3.47,13.67,13.67,0,0,0,.44-3.37,11.16,11.16,0,0,0-1.09-4.2,8.52,8.52,0,0,0-1.26-1.87,7.28,7.28,0,0,0-1.13-1.09,9.06,9.06,0,0,0-1.9-1.23,10.33,10.33,0,0,0-3.31-.87,18.7,18.7,0,0,0-2-.1c-.93,0-1.87.06-2.81.12a86.24,86.24,0,0,0-11.4,1.75,84.42,84.42,0,0,0-9.88,2.59,27.54,27.54,0,0,0-6.1,3,8.67,8.67,0,0,0-2.93,2.75,6,6,0,0,0-.82,4.28,9.56,9.56,0,0,0,2.68,5,29,29,0,0,0,2.59,2.1c2.59,2,5.34,3.76,8.06,5.56,3.18,2.12,6.38,4.18,9.63,6.17.27,3.08.58,6.15,1,9.22.18,1.51.38,3,.58,4.53a23.31,23.31,0,0,1,0,4.42,40.59,40.59,0,0,1-2,8.51c-.52,1.16-1.07,2.32-1.66,3.46a34.84,34.84,0,0,1-2.72,4.25,38.15,38.15,0,0,1-2.55,3,30.39,30.39,0,0,1-3,2.69,34.78,34.78,0,0,1-5.69,3.24,25.65,25.65,0,0,1-3.67.94,29.72,29.72,0,0,1-5.5,0c-.38-.08-.75-.17-1.12-.28a22.64,22.64,0,0,1-3.26-2.06,34.35,34.35,0,0,1-4.92-4.8,16.85,16.85,0,0,1-1.17-2c0-.12-.08-.25-.11-.38v-.18c.08-.38.18-.74.29-1.11l.18-.33.31-.2L935,721l.35-.22a4.37,4.37,0,0,0,2.06-4.81,4.32,4.32,0,0,0-4.14-3.22l-.93.05a9.74,9.74,0,0,0-1.65.19,9.31,9.31,0,0,0-2,.86,7.46,7.46,0,0,0-2.21,2.16,12.18,12.18,0,0,0-1.63,3.41,8.81,8.81,0,0,0-.31,1.35,14.16,14.16,0,0,0-.27,2.68,12.48,12.48,0,0,0,1.89,5.63,29.18,29.18,0,0,0,2.49,3.28,36.23,36.23,0,0,0,4.35,4,24.64,24.64,0,0,0,7.31,4.46,15.37,15.37,0,0,0,4.37.66,31.48,31.48,0,0,0,6.28-.41,24,24,0,0,0,6.19-1.87,34,34,0,0,0,9.51-6.38,38.11,38.11,0,0,0,3.61-4,51.06,51.06,0,0,0,3.57-5c.78-1.32,1.42-2.73,2.09-4.11a25.68,25.68,0,0,0,2-5.52c.17-.74.33-1.49.47-2.23.34.54.69,1.07,1.07,1.59a39.21,39.21,0,0,0,4.14,4.86,29,29,0,0,0,4.87,3.74,17.75,17.75,0,0,0,2.28,1.21,22.24,22.24,0,0,0,2.23.85,11.54,11.54,0,0,0,2,.35,37.36,37.36,0,0,0,6.34.3c1.75,0,3.5-.1,5.24-.28a43.43,43.43,0,0,0,6.21-1.11,33,33,0,0,0,6.07-2.1,28.4,28.4,0,0,0,9.58-7.58c.69-.82,1.33-1.69,2-2.56a11.47,11.47,0,0,0,1.4-2.8,12.36,12.36,0,0,0,.6-3.37,10.29,10.29,0,0,0-.54-3.93A11.76,11.76,0,0,0,1029.2,696.83Zm-70.08-23.28a30.7,30.7,0,0,1-4.27-3.86c.8-.44,1.63-.83,2.47-1.2a39.33,39.33,0,0,1,5.22-1.38c1.58-.34,3.17-.65,4.77-1,2.6-.49,5.22-.9,7.84-1.28a38.25,38.25,0,0,1,6.59-.31l.27.06.13.23v0a2.44,2.44,0,0,1,0,.27,14.25,14.25,0,0,1-.45,1.58,47.92,47.92,0,0,1-5.05,8.39c-.85,1.07-1.73,2.11-2.62,3.13s-2.06,2.2-3,3.38c-1.83-1.13-3.65-2.29-5.42-3.51C963.44,676.62,961.26,675.11,959.12,673.55Z"/>
			<path class="cls-4" d="M572.93,908a7.88,7.88,0,0,0-2.78-1.15,4.89,4.89,0,0,0-1.08-.11,6.18,6.18,0,0,0-1.82.28,5.75,5.75,0,0,0-3.74,5.37,7.47,7.47,0,0,0,2.14,4.88,9.69,9.69,0,0,0,.75.83,6.49,6.49,0,0,0,3,1.7,4.07,4.07,0,0,0,1.93-.05,2.19,2.19,0,0,0,.58-.19l.59-.27c.27-.22.54-.43.8-.66l.28-.36.2-.13a5.86,5.86,0,0,0,1.43-1.38,6.31,6.31,0,0,0,1.26-3.34,4.53,4.53,0,0,0-.81-2.91A10.17,10.17,0,0,0,572.93,908Zm-.84,5.12a2.3,2.3,0,0,0-1.54,1.12l-1-.4a4,4,0,0,0-.45-.16,9,9,0,0,1-.71-1.1.14.14,0,0,1,0-.06v0a3.88,3.88,0,0,1,.11-.49c0-.09.09-.17.13-.25l.09-.09.15-.1.16,0,.36,0,.54.13a10.08,10.08,0,0,1,1.25.68,7.74,7.74,0,0,1,.9.82Z"/>
			<path class="cls-4" d="M596.75,870.32a6.57,6.57,0,0,0-.51-2.05,8.23,8.23,0,0,0-.78-1.43,7.54,7.54,0,0,0-2.27-2.16,8.59,8.59,0,0,0-1.59-.69,9.52,9.52,0,0,0-1.5-.42,7.88,7.88,0,0,0-1.54-.15,6.59,6.59,0,0,0-5.66,2.93,7.12,7.12,0,0,0-1,4.73,3.51,3.51,0,0,0,.48,1.45c.1.42.23.83.36,1.23s.33.92.51,1.37a7.28,7.28,0,0,0,2.41,3.15,8.09,8.09,0,0,0,3.06,1.42,5,5,0,0,0,4-1,9.93,9.93,0,0,0,2.56-2.61,9.35,9.35,0,0,0,1.49-5.82Zm-5.62,2.38a7.71,7.71,0,0,1-.49.89,10.37,10.37,0,0,1-1,1l-.18.13-.57-.15a4.84,4.84,0,0,1-.71-.38c-.16-.14-.31-.29-.46-.45a5.78,5.78,0,0,1-.42-.73l-.2-.47a3.11,3.11,0,0,0,.5-1.7c0-.43,0-.87,0-1.3,0-.11,0-.22.07-.33l.13-.23,0,0,.08-.05.38-.13.51,0a7.5,7.5,0,0,1,1.24.31,4.48,4.48,0,0,1,.58.29l.27.25c.14.2.26.4.39.6s.1.33.14.5,0,.48,0,.72A9.5,9.5,0,0,1,591.13,872.7Z"/>
			<path class="cls-4" d="M635.92,845.22a8.24,8.24,0,0,0-1.16-1.64,11.78,11.78,0,0,0-6-3.63,9.28,9.28,0,0,0-2.1-.19h-.11c-.42.06-.83.13-1.25.21a9.3,9.3,0,0,0-1.51.68,7.88,7.88,0,0,0-1.71,1.45,12.76,12.76,0,0,0-1.81,2.52,24.19,24.19,0,0,0-.93,2.76,2.73,2.73,0,0,0,0,1.36,12.54,12.54,0,0,0-.9,2.44,5.77,5.77,0,0,0-.07,1.81,6.92,6.92,0,0,0,.75,2.33,10.52,10.52,0,0,0,.72.93,5.67,5.67,0,0,0,.74.64c.48.38,1,.7,1.5,1a13.41,13.41,0,0,0,1.35.72,8.64,8.64,0,0,0,1.72.63,7.11,7.11,0,0,0,2.87,0,15.51,15.51,0,0,0,2.43-.54l1.28-.59a7.42,7.42,0,0,0,1.46-1.07,13.2,13.2,0,0,0,1.61-1.65,9,9,0,0,0,1.35-2.08,10,10,0,0,0,.79-4.22,10.42,10.42,0,0,0-.45-2.59Q636.24,845.88,635.92,845.22Zm-6.12,5.34c-.12.23-.25.45-.39.68a10.74,10.74,0,0,1-1,1.12l-.25.15a13.2,13.2,0,0,1-1.4.4l-.54,0a12.29,12.29,0,0,1-1.35-.39c-.35-.15-.7-.31-1-.49a2.68,2.68,0,0,1,.07-.27c.2-.48.43-.94.67-1.41a3.12,3.12,0,0,0,.64-.79c.49-.86,1-1.7,1.61-2.53a6.71,6.71,0,0,1,.48-.58l.35.09a8.29,8.29,0,0,1,.88.49,11.51,11.51,0,0,1,.88.83,6.36,6.36,0,0,1,.37.59l.09.29a10,10,0,0,1,0,1.23C629.88,850.19,629.84,850.37,629.8,850.56Z"/>
			<path class="cls-4" d="M632.35,886.77a18.52,18.52,0,0,0-2.33-2.52,41.86,41.86,0,0,0-4.3-3.18,11.92,11.92,0,0,0-2.65-1.32,9,9,0,0,0-3.29-.56h-.46a16.49,16.49,0,0,0-2.09.32c-.53.1-1.05.25-1.56.39a22,22,0,0,0-2.93,1.11c-1.07.47-2.14,1-3.19,1.47a20.8,20.8,0,0,0-2,1.07c-.61.39-1.16.85-1.73,1.28-.88.69-1.76,1.41-2.61,2.13a17.23,17.23,0,0,0-2,2,27,27,0,0,0-3,4.41,25,25,0,0,0-1.62,4c-.25.72-.42,1.47-.6,2.22a29.4,29.4,0,0,0-.71,6.05,11.34,11.34,0,0,0,.52,3.32,10.14,10.14,0,0,0,2.06,3.59,12.8,12.8,0,0,0,2.57,2.18c.23.33.48.66.73,1a14.93,14.93,0,0,0,13.58,5.1,20,20,0,0,0,7.05-2.85,20.73,20.73,0,0,0,3.07-2,21.83,21.83,0,0,0,6.13-8.46c.36-.94.73-1.87,1.1-2.81a34.18,34.18,0,0,0,2-7.14,30.23,30.23,0,0,0,.29-3.8c0-.53,0-1.06,0-1.59a9.68,9.68,0,0,0-.47-2.43A9.24,9.24,0,0,0,632.35,886.77Zm-5.08,9.15a43.21,43.21,0,0,1-2.52,9c-.26.64-.52,1.27-.82,1.89a15.38,15.38,0,0,1-1.37,2.27,20.07,20.07,0,0,1-2.32,2.55,36.8,36.8,0,0,1-5,3.08,13,13,0,0,1-1.86.58,14.29,14.29,0,0,1-2.85.11,15.75,15.75,0,0,1-2.14-.48,2.66,2.66,0,0,0,.21-.33,4.39,4.39,0,0,0,.33-3.35c-.15-.34-.31-.68-.46-1a4.38,4.38,0,0,0-1.61-1.53l-.26-.18a18.4,18.4,0,0,1-1.93-1.6l-.15-.24q-.12-.37-.21-.75a24.44,24.44,0,0,1,0-3.63,23.46,23.46,0,0,1,1-4.38,19.51,19.51,0,0,1,1.61-2.94,26.09,26.09,0,0,1,2-2.36c.77-.8,1.63-1.53,2.48-2.26a28.49,28.49,0,0,1,5-2.88,19,19,0,0,1,3.15-1,8.83,8.83,0,0,1,.89,0,4.07,4.07,0,0,1,.5.13,18,18,0,0,1,2.77,1.72,21.37,21.37,0,0,1,3,2.66,9.8,9.8,0,0,1,.55.87c.08.24.16.47.22.71A23.11,23.11,0,0,1,627.27,895.92Z"/>
			<path class="cls-4" d="M1692.94,749.31c-.64-66.46-8.35-136.58-40.49-196-28.42-52.55-73.69-89.5-127.82-113.59-59.08-26.29-137-8.48-180.23,40.12-39.77,44.75-70.8,118.45-33.06,174.09,19.38,28.55,52.55,44.37,87.17,35.76,32.43-8.06,64.57-29.92,79.09-61.15,20.28,4,32.42,23.91,42.15,40.76,8.66,15,16.86,30.55,23,46.73,14.49,38.22,20.17,79.42,21,120.16.8,42.32-8.91,83.35-21.42,123.55-12.59,40.45-31.52,81.12-56.78,115.27-16.19,21.88-33.07,43.53-53.56,61.58-12.72,11.22-25.93,25.58-42.22,31.52l.06,0-.27.1h0c-32.35,11.6-61.56-5.49-75.34-35.69-8-17.45-9.48-38.76-11.51-57.67-2.38-22.15-6.45-48.3-3.58-70.34h0c4.15-31.7,17.41-60.75,19.88-93.16a248.62,248.62,0,0,0-13-100.84c-12.33-35.11-30.34-62.73-57.51-88.14-16.63-15.54-43.15-41-67.25-42.26,8.1-21.7,12.54-44.13,12.31-67.33a118.49,118.49,0,0,0-4.88-31.56c-2.9-10-8.53-29-17.21-35.6-10.92-22.5-30.38-42.21-45-62.49-17.66-24.5-34-51-45.72-78.84-5.64-13.39-10.64-27.07-16.15-40.45-3.63-8.84-6.15-5.3-7.11,2.63-3.38,28-14.12,55-17,82.92-61.37,13.12-124.65,26.55-183.59,48.46a4.05,4.05,0,0,0-4.09,1.52l-3.32,1.24c-9.8-12.38-30.07-23.84-44.13-30.76-8.22-4-17.24-8.15-26.21-10.16-2.06-.46-7.57-2.24-9.82-.88s-5.8,4.67-1.22,6.56c22.15,62.58,18.49,128.75,14.18,193.9-2,30.69,1.43,59.94,17.69,86.62,16.89,27.72,43.16,40.88,74.14,48.12-12.26,14.55-16.21,31.62-24.78,47.9-12.34,23.44-27.87,35.07-51.78,46-42.65,19.51-90.08,9.62-132.77-3.77,1.72-25.4-9.21-63.55-40.81-63.23-1.5-4.06-6.63-14.62-12.86-13.44-8.64,1.64-2.27,12.12-.12,16.67-7.93,3.66-14.3,10.59-15,19.5-5.58-2.16-13.23-3.66-18.84-1-9.28-15.3-22.48-4.8-7.26,5.33-8,8.92-7.77,25.67-3,36a20.91,20.91,0,0,0-13.48,4.09c-2.66-3.19-11.61-10.53-15.69-4.86-3.78,5.27,6.18,12,9.32,14.44-4.15,12.34,1.19,24.93,9,34.46L556,932c16.49,20.11,45.73,17.52,63.13,35.92h0c.78.74,83.46,32.2,125.92,29.48,38.11-2.45,75.48-8.49,110.44-24.35,18.25,49,19,98.16,19.91,150,.75,45.38-5.38,98.49,14.8,140.64-8.49,22.51-13.81,46-22,68.64-8,22.12-18,43.42-27.55,64.91-18.47,41.66-37.3,90.16-70,122.94-27.64-4.37-59.23,15.16-64,43.87-5.31,32.23,29.22,55.71,57.55,59.29,28.93,3.65,66.94-3.85,91.48-19.85,13.49-8.8,22.75-22,32.41-34.64,6.08-7.94,19.29-21.57,21-31.86,19.61-33.61,35.47-68.5,61.6-97.84,22-24.72,46.46-44.91,76-60,32.69-16.76,64.94-26.36,102-22.61,17.2,1.73,32.5,11,44.56,23.1a113.8,113.8,0,0,1,14.42,17.67c2,3,4,9.47,7.52,10.92,12.35,22.69,21.75,47.2,28.84,72,7.2,25.19,11.72,52,20.93,76.51-35.77,24.35-2.55,63.6,29.19,69.8,34.67,6.77,80.75-14.52,87.2-51.59,7.19-41.39-13-87.26-21.23-127.37-4.3-21-8-42-11.93-63-3.48-18.64-6.17-35.79.52-54.25,10.72-29.57,33.47-52,55.46-73.45,27.87-27.21,59.29-50.5,90-74.37,61.3-47.7,113.12-111,149.36-179.59,10.31-19.5,16.26-41.33,23.37-62.15s13.43-41.86,17-63.76C1690.72,835.07,1693.36,791.67,1692.94,749.31ZM1003.7,470.84a1.11,1.11,0,0,1-.67.3Zm-64.57,33.54,0-.08h0Zm714.14,447.38c-6.74,16.75-11.5,33.91-20.48,49.63-18.29,32-40,60.43-63.36,88.88-22.23,27.08-46.5,51-73,73.91-12.19,10.54-25.23,19.61-37.91,29.39-11.5,8.86-23.36,26.15-37.23,30.9-17.89,15.65-30,27.7-37.22,35.84a3.15,3.15,0,0,0-2.16,1.11l.21-.18c-23.85,20.23-45.55,52.17-47.48,83.9-1.07,17.65,3.07,35.65,6.31,52.89,4.24,22.59,7.79,45.33,13.37,67.64,5.54,22.13,11.79,44.57,15.44,67.09,2.91,18,7.42,41.62-4.52,57.47-21,27.86-67.6,38.5-94.76,13.76-17.21-15.67-13.13-33.59,7.6-43.09,4.87-2.23,22.61-4.12,25.42-8.58,8.2-13.06-20.24-3.94-23.67-2.68-3.15-8-3.13-18-5.08-26.41-2.29-9.92-4.78-19.84-7.66-29.62a492.47,492.47,0,0,0-25.37-66.22c-7-15.25-14.77-30.12-25-43.52-7.75-10.2-19.6-26.93-31.8-31.3a2.69,2.69,0,0,0-1.76-.64c-27.32-16.91-63.73-13.54-93.33-4.68-14.77,4.42-30.7,10.44-44.14,18.07-5.7,3.23-11.35,6.63-17,10-4.19,2.49-18.26,8.72-20.39,13.75-24.84,18.64-48.71,44.33-65.89,70-11.58,17.3-21.1,35.42-30.87,53.76-4.53,8.5-9.4,16.8-14.35,25.06-2.26,3.79-15.13,18.91-14.57,22-14.06,18.88-27.11,35.49-49.55,44.44-19.36,7.73-48.23,12.49-68.89,9.9a15.59,15.59,0,0,0-3.41-1.16l.42.13c-9.81-3.23-19.18-7.06-26.64-14.44-4.43-4.39-7.81-9.89-12.3-14.2-6.64-24.51,13.51-40.47,35.14-45.89,2.83,2.61,6.1.49,8.52-1.35a80.69,80.69,0,0,1,15.68,1h0c13.88,3.16,23.56,11,36.3,16.35,3.13,5,8.7.73,8.3-3.62,4.72-13.15-35.81-26.93-43.93-28.85,30.39-32.92,48.56-79.24,66.38-119.72,9.38-21.29,19.17-42.48,27.15-64.35,7.63-20.9,12.66-42.58,19.9-63.6,4.29,8,23.11,44.06,32.52,41.19,8.22-2.5-9.35-22.27-12.14-26.53a248.1,248.1,0,0,1-15.9-27.38,4.5,4.5,0,0,0-2-4.17,95.35,95.35,0,0,1-4.24-10.61c.14.42.27.84.41,1.26-6.81-22.41-8.31-45.7-8.44-69-.15-25.91-1.21-51.78-1.44-77.68a504,504,0,0,0-5.66-72.91c-1.2-7.65-12.33-62-20.81-60.65-1.84-7.18-16.17,1.86-19.58,3.19a177.14,177.14,0,0,1-24.1,7.56c-19,4.48-38.78,6.82-58.24,8.37-37.93,3-72.34-.14-107.83-14.49l.86.36c-11.55-4.85-56.31-29-68.19-34.52-12.36-5.8-33.77-24.13-23.49-40,6-9.22,20.25,1.45,24.38-6,2.34-4.23-5.3-10.62-6.73-14.16-2.41-6-2.79-17.1,1.18-22.77,8.88-12.69,26.78,9.49,30.31-4.13,1.37-5.27-2.45-7.6,1.41-13.22,3-4.42,10.14-7.22,15.2-7.55,15.58-1,27.89,16.23,30.73,30,1.19,5.78.92,12.36,1,18.25,0,3.82-1.81,11.65.21,15.06,0,3.68-4.21,12.72-1.1,15.81,8,7.91,10.87-11.62,10.92-15.41,45.6,14.19,94.74,22.1,139.66.9C828.26,884.16,843,872.55,856,849.87c10.38-18.09,14.2-38.16,29.24-53.81,4.06.48,19.28,4,21.74-.46,3.15-5.64-5-5.07-8.13-5.56-10.84-1.73-21.33-3.55-31.82-6.9-13-4.17-26.61-8.71-37.8-16.72-13.29-9.52-22-24.68-28.27-39.48l.06.12c-17.79-42.12-6.61-88.8-8-133.1-1.38-43.54-3.93-87.14-18.71-128.41,13.63,2.47,27.41,9.44,38.78,17.2,10,6.81,21.32,20.1,32.45,24.22a4.45,4.45,0,0,0,.72,1.15c-2.68,4.38-12.54,33.78,2.4,27.21,4.35-1.91,4.94-9.93,6.68-13.67,3.24-6.95,6.28-9.69,12.92-12.84l-.05,0,.61-.28c-1.83,5.84-3.46,23.13,7.42,21.59,8.44-1.2,9.29-15.93,13.5-21.59l-.69.94a30.63,30.63,0,0,1,11.34-9.44c-2.69,7.41-3.78,32.71,10.24,21.59,8.9-7.06,7.16-20.51,18.26-27.25-2.91,7.88-1.72,26.67,11.34,17.84,10.5-7.11,7.15-22.91,20.6-29.2-2.39,5.15-6.57,13.87-3.18,19.3,3.63,5.83,10.13,4.54,13.9-.09,7-8.63,7.42-18,18.19-24.76-2.12,6.91-1.44,23,9.68,20.1,7.72-2,13-18.64,19.13-23.86-4,11.24,5.48,20.26,14.68,11.49,5.73-5.46,14.36-22.72,13.84-30.73,6.37-3.78,6.86-26.34,8.21-32.62,3.09-14.42,6.87-29.85,7.33-44.58a419.75,419.75,0,0,0,52.72,106.1c10.47,15.3,21.64,31.13,33.74,45.18,9.7,11.26,19.07,22.74,24.66,36.6,15.86,39.28,15.57,84.14-4.18,122.37-8.65,16.75-20.45,32.19-35.38,43.83-6.58,5.13-14.46,8.67-22.26,11.59-4.08,1.52-22.12,3.29-10.71,9.25,10.49,5.49,34.15-10.88,41.71-17.4,14.67-12.64,25.93-28.63,34.52-45.88,29.16,5.27,54.84,31,75.55,51.09,23.62,22.89,37.14,52,47.11,82.81-.14-.41-.27-.83-.4-1.24,25.21,82.14,6.28,183-58.32,242.82-7.63,7.06-17.74,14.16-27.3,18.33-10,4.35-16.75,2.78-24.84,10.48-13.81,13.15-38.23,21.11-52.56,4-9.67-11.55-11.72-35.73-1.6-48,6.7-8.1,18.84-10.45,28-14.41a65.21,65.21,0,0,0,24-17.18,4.11,4.11,0,0,0,4.39-5.07c22.9-27.78,32.18-69.06,30.3-104.45-2-38.56-20.76-73.6-37.59-107.46-1.48-3-3.47-11.23-8.39-9.39-4.21,1.58.22,7.89.87,9.48,4.59,11.39,11.18,22.11,16.29,33.3,7.78,17,14.11,35,17.65,53.38,7.34,38-.49,85.18-24.5,116.3-8-12.83-14.48-27.15-20.83-40.85-2.68-5.77-11-34.34-18.12-34-9.19-12-37,.76-45.93,6.8-11.25,7.64-28.34,28.37-12.19,40.5a68,68,0,0,0,9.41,12.33c-1.54.55-3.08,1-4.66,1.46-6.3-10.22-15-27.21-21.33-5.67-4.65,5.63-.32,17.71,6.25,20.35q5,7.56,10,15l-.24-.36c12.24,18.39,29.71,35,31,57.83,1.25,21.56,14.81,39.26,37.64,39,8.53,12,17.55,23.7,25.79,35.89l0-.07c8,12,14.13,20.13,29.8,17.71,13.41-2.06,24.54-8.13,31.51-19.71,14.08-23.41-.35-46.09-9.35-68.38,24.45-16.87,41.9-43.75,55.25-69.81.66,34.33,3.06,68.61,8.4,102.56,3.46,22,12.45,47.18,31.44,60.39l-.62-.44c33.78,23.5,68.53,8.68,95.43-17.39,36.36-35.25,71-71.69,94.46-117.26,44.76-86.9,66.56-184.38,46-281.21a294.06,294.06,0,0,0-27.56-75.84c-12.53-23.92-28.33-56.93-57.35-62.9,3-17.72,2.12-39-11.58-52.25-11.83-11.46-30.45-18.14-46.2-11.84-12.51,5-28.55,23.4-14.41,35.16,12.87,10.7,32.5-3.54,18.35-16,10.53-2.59,24.79,1.92,33.39,8,11.5,8.11,12.4,14.89,11.56,28.63l0-.52c-2.3,24.27-24.92,45.63-44.79,58-20.31,12.68-52.89,13.85-75.71,7-21.91-6.57-37.5-32.18-41.12-53.65a180.42,180.42,0,0,1,2.6-69.87c6.25-25.24,24.23-49.92,41.76-68.66S1397,453,1420.72,444.25c50.44-18.68,99.6.13,142.6,27.29,39.22,24.77,68.59,59.81,88,101.69,10.58,9.06,13.29,28.79,16.26,41.53,3.68,15.8,7.09,31.58,10,47.54,5,27.69,9.36,55.24,9,83.51C1685.91,796.69,1682.43,879.33,1653.27,951.76Zm-425.15,137.29c5.37,14.17,16.15,30.68,12,46.44-3.19,12.2-11.26,19.57-23.09,23-13.88,4-17.62.71-25.78-10.45s-17-21.71-25.66-32.43c16.29-1.34,22.35-9.34,33.78-19.25,10.37-2.06,18.59-4.08,27.81-9.82C1227.51,1087.39,1227.81,1088.22,1228.12,1089.05Zm-103.22-42.51a36,36,0,0,0-3.66,9.18c-10.67-19.2-23.79-37.27-36-55.55,29.32-6.32,58.48-22.14,64.31-54.3,9.55,21.65,16.74,45.74,30.06,65.46C1164.78,1028,1136.67,1027.31,1124.9,1046.54Zm-44.16-53.48a3.26,3.26,0,0,0-.7-.07,10.83,10.83,0,0,1,1-5.32c1,1.06,1.91,2.2,3,3.21a1.16,1.16,0,0,0-.21,1.51C1082.81,992.62,1081.78,992.85,1080.74,993.06Zm60-58.43c5.88,10.67-5.73,27.84-12,35.66,0-.06,0-.13-.08-.19.91-3.92-6.57-18.81-10.24-18.82-8.46,0-5.72,19.73-20.53,17.05-8.43-1.53-5-12.16-.19-17.78,9.43-11.13,27.92-18.68,42.39-16.68A2.14,2.14,0,0,1,1140.79,934.63Zm-36.58,51.6c0-3.12-2.53-6-4.25-8.28,7.81-1.73,16.38-4.57,20.64-11.87q2.1,4.09,4.19,8.18C1118.93,979.46,1111.42,983.23,1104.21,986.23Z"/>
		</g>
	</g>
	<g id="mustashe">
		<path class="cls-1" d="M1091.42,647.72A365.78,365.78,0,0,0,1125.71,629a333.59,333.59,0,0,0,31.74-22.21q7.47-5.92,14.52-12.35c2.57-2.34,5.12-4.7,7.56-7.19q4.6-4.69,9.22-9.4c.45-.46.85-1,1.27-1.44l2.73-3.08c1.17-1.34,2.4-2.63,3.52-4,2.65-3.21,5.28-6.42,7.88-9.67q1.86-2.32,3.63-4.74c.73-1,1.39-2,2-3.09a9.55,9.55,0,0,0,.75-1.7,7.59,7.59,0,0,0,.46-1.88c0-.38,0-.76,0-1.13a7.51,7.51,0,0,0-.39-1.5,4.37,4.37,0,0,0-2.09-2.29,4,4,0,0,0-2-.53,4.49,4.49,0,0,0-1.88.42,3.69,3.69,0,0,0-1.55,1.09,3.78,3.78,0,0,0-.88,2.79,3.73,3.73,0,0,0,.08.44c-.12.22-.24.44-.37.65-1.26,1.84-2.65,3.62-4,5.36-1.19,1.49-2.36,3-3.57,4.47l-4.61,5.62c-1.15,1.4-2.39,2.74-3.59,4.1-1.32,1.52-2.65,3-4,4.54-1.16,1.32-2.48,2.54-3.7,3.8l-5.9,6c-2.19,2.25-4.49,4.38-6.81,6.5a289.5,289.5,0,0,1-30.69,24.16A354.56,354.56,0,0,1,1101,633.55c-7.82,4.09-15.78,7.89-23.79,11.59-4,1.84-8,3.7-12,5.45s-8,3.33-12,5a4.27,4.27,0,0,0-2.47,5.4,4.22,4.22,0,0,0,5.4,2.47c2.83-1.18,5.67-2.33,8.5-3.51,3.09-1.27,6.13-2.64,9.17-4C1079.66,653.25,1085.56,650.53,1091.42,647.72Z"/>
		<path class="cls-1" d="M1230.19,594.33a3.38,3.38,0,0,0-1.42-.32,3.48,3.48,0,0,0-2,.62h0l-.09.08-.27.22c-3.22,2.68-6.53,5.25-9.88,7.78-3,2.27-6,4.54-9.09,6.73l-6.56,4.64c-1.18.84-2.43,1.58-3.66,2.36-3.28,2.08-6.52,4.24-9.91,6.14l-7.82,4.38c-1.45.81-2.89,1.66-4.36,2.44l.44-.24-15.41,8.12h0l.25-.14-.26.14-.17.08-12.14,5.48-5.48,2.47c-1,.44-2,.76-3,1.13L1124,652.13c-2.93,1.09-5.92,2-8.89,3-6,2-12.06,4-18.14,5.82-9.15,2.77-18.29,5.54-27.45,8.23a4.26,4.26,0,0,0-2.41,2.21,4.33,4.33,0,0,0,2.06,5.78,4.62,4.62,0,0,0,3.37.15c10.5-3.08,21-6.25,31.45-9.42,3.35-1,6.65-2.15,10-3.23l8.19-2.67c1.16-.37,2.33-.71,3.47-1.13l13.22-4.88,6-2.21c.92-.34,1.81-.78,2.7-1.19L1162.1,646c.34-.15.67-.31,1-.48l.16,0a4.68,4.68,0,0,0,1-.53l1.08-.57,7-3.7c3.18-1.68,6.39-3.32,9.53-5.09q6.16-3.48,12.34-7c.41-.23.81-.52,1.21-.77l3.45-2.22,6.22-4c1.46-.93,2.82-2,4.21-3s3.05-2.17,4.53-3.32c3.15-2.45,6.27-4.91,9.37-7.42,1.42-1.15,2.81-2.35,4.14-3.59.67-.61,1.34-1.2,2-1.86a9.06,9.06,0,0,0,2.74-4.43A3.41,3.41,0,0,0,1230.19,594.33Z"/>
		<path class="cls-1" d="M1224.8,645.16a2.56,2.56,0,0,0-2,.9c-.25.31-.51.6-.78.88a44.06,44.06,0,0,1-7.64,4.85q-4.64,2.3-9.37,4.39c-1.44.63-2.87,1.28-4.32,1.87l-6.7,2.69c-3.45,1.39-7,2.57-10.48,3.84-3.32,1.2-6.68,2.31-10,3.46-3,1-6,2-9.09,3-3.32,1-6.62,2.18-10,3.14-10.13,2.88-20.23,5.84-30.45,8.38-1.11.28-2.22.54-3.33.8a191.26,191.26,0,0,1-19.47,3.2c-3.4.39-6.8.71-10.2,1-3.7.31-7.4.37-11.11.5a4,4,0,0,0-2.2,7,4.17,4.17,0,0,0,3,.92c2.64-.09,5.26-.11,7.89-.24,2.78-.15,5.56-.44,8.32-.71,5.31-.5,10.61-1.16,15.87-2s10.65-2.09,15.91-3.42c3.63-.91,7.27-1.83,10.87-2.85l13.17-3.73c2.65-.75,5.3-1.5,7.93-2.34l11.81-3.72c1.61-.51,3.2-1.11,4.8-1.66l6.65-2.31c3.46-1.2,6.88-2.57,10.31-3.86s6.48-2.72,9.71-4.11c1.93-.84,3.81-1.85,5.7-2.79,1-.48,1.92-1,2.87-1.52s1.84-1,2.73-1.5a61.55,61.55,0,0,0,5.53-3.59c.85-.64,1.67-1.3,2.48-2a17.1,17.1,0,0,0,3.93-4.78,2.56,2.56,0,0,0-2.34-3.68Z"/>
		<path class="cls-1" d="M763.63,698.21c2.18.64,4.38,1.23,6.59,1.8,2.57.66,5.13,1.43,7.73,2l9.16,2c2.71.59,5.46,1,8.19,1.47,2.22.38,4.44.85,6.68,1.14l9.69,1.24c3,.39,6,.79,9,1L836.15,710c3.23.23,6.47.27,9.71.35,5.7.12,11.39.07,17.09-.21s11.69-.82,17.51-1.5c2.84-.32,5.66-.71,8.49-1.12,3.09-.45,6.13-1.16,9.19-1.78a5.44,5.44,0,0,0-2.21-10.65c-2.14.43-4.27.91-6.41,1.31-2.48.47-5,.76-7.49,1.09q-6.66.85-13.35,1.38c-7.08.49-14.16.61-21.26.45-3.94-.09-7.88-.21-11.81-.52l-17-1.35c-.54,0-1.08-.15-1.61-.22l-4.75-.64-9.3-1.25c-1.75-.23-3.48-.58-5.22-.88l-7.4-1.3c-3-.61-6-1.17-9-1.89l-10.08-2.44c-3.48-.83-7-1.68-10.43-2.5-1.82-.42-3.65-.87-5.5-1.16a24.56,24.56,0,0,0-3.79-.41,6.76,6.76,0,0,0-3.17.68,4.09,4.09,0,0,0-2.28,3.44v.1a4,4,0,0,0,2.58,4,51.4,51.4,0,0,0,7.26,3C758.51,696.75,761.08,697.46,763.63,698.21Z"/>
		<path class="cls-1" d="M785.51,741.94l8.16.77c1.1.1,2.21.22,3.31.27l14.07.67c1,.05,2,0,3,0l8.08-.17,6.07-.13c1.65,0,3.3-.2,4.94-.32,3-.22,5.94-.48,8.9-.8,5.62-.6,11.22-1.43,16.79-2.41,3.75-.65,7.54-1.31,11.25-2.17l13.68-3.16,6.41-1.48c2.54-.59,5-1.36,7.51-2.09a3.26,3.26,0,0,0,1.94-1.3,3.14,3.14,0,0,0,.46-2.35,3.22,3.22,0,0,0-3-2.49,2.59,2.59,0,0,0-.68.09c-2.2.64-4.39,1.37-6.63,1.88l-4.2,1L873,730.54l-4.08.93c-2.43.56-4.9,1-7.35,1.42a253.28,253.28,0,0,1-26.16,3.41c-2.76.2-5.51.38-8.27.4l-7.76.06-6.75,0c-1,0-2-.08-3.05-.15l-12.95-.8c-.5,0-1-.12-1.51-.18l-3.89-.43-7.29-.81c-2.46-.27-4.92-.68-7.37-1-2.63-.38-5.25-.8-7.87-1.23-2.38-.38-4.75-.81-7.13-1.21-1.15-.2-2.3-.4-3.46-.58A19.62,19.62,0,0,0,754,730a3.3,3.3,0,0,0-2.9,1.46,3.46,3.46,0,0,0-.22,3.34c.63,1.56,2.39,2.33,3.91,2.79a26.49,26.49,0,0,0,3.44.68l5.24.8c3.62.53,7.25,1.09,10.88,1.53S781.78,741.58,785.51,741.94Z"/>
		<path class="cls-1" d="M899.72,739.6a5.78,5.78,0,0,0-2.73.65c-15.53,8-31.16,15.94-47.67,21.77-5.45,1.86-11,3.51-16.57,4.84a115.74,115.74,0,0,1-17.35,2.72q-9.21.61-18.43.43l-8.59-.16c-3-.05-5.89-.11-8.83-.21a85.35,85.35,0,0,1-8.75-.92A4.75,4.75,0,0,0,766,772c-.78,2.32.48,5.39,3,6,2.8.72,5.61,1.35,8.45,1.94,3.17.65,6.35,1.05,9.56,1.42,2.7.31,5.41.44,8.12.64a143.81,143.81,0,0,0,17.37.18c4.1-.2,8.2-.51,12.27-1A109.3,109.3,0,0,0,836.26,779a194.85,194.85,0,0,0,23.44-7.39c14.78-5.54,28.89-12.81,42.89-20.05a6.3,6.3,0,0,0-2.87-11.94Z"/>
	</g>
	<g id="Paper">
		<g id="text">
			<path class="cls-1" d="M332,581a3.85,3.85,0,0,0,2.94,1.74,3.31,3.31,0,0,0,1.35-.26,8.13,8.13,0,0,0,1.78,0c.88-.1,1.75-.26,2.64-.32,1.9-.15,3.81-.14,5.72-.19s3.8,0,5.69.1h0l1.53,0c.82,0,1.64,0,2.46,0l2,.1c6.74.44,13.5.18,20.25,0q3.21.12,6.42.28c4.05.2,8.09.22,12.14.32,4.37.11,8.74.27,13.11.27,4.22,0,8.43-.28,12.64-.49,8.09-.4,16.18-.5,24.27-.9,8.46-.41,16.92-1,25.38-1.5,3.53-.2,7-.55,10.57-.85l5.72,0c5.3,0,10.59.08,15.89,0,4.21-.07,8.42-.21,12.62-.24s8.4-.06,12.6-.07c3.37,0,6.75,0,10.12.1,3.07.08,6.14.23,9.21.29,1.67,0,3.34.07,5,.08s3.5.1,5.25,0a109.09,109.09,0,0,0,12.63-.88l-.83.13c1.33-.18,2.78-.14,4-1.13a7,7,0,0,0,2.15-2.7,11.41,11.41,0,0,0,.74-3.8,8.74,8.74,0,0,0-.65-3.51,5.6,5.6,0,0,0-3-3.18,12.86,12.86,0,0,0-4.75-.72c-1,0-2,0-2.93.06-2,0-3.93,0-5.9.06-3.9.07-7.8.12-11.7.39-5.11.34-10.22.25-15.33.15-2.6,0-5.19-.09-7.79-.08-8.38,0-16.76.2-25.13.61q-6,.3-12,.77c-2.22,0-4.44,0-6.66,0-4.36,0-8.71.12-13.07.24-8.38.24-16.76.32-25.15.5s-16.72.45-25.08.75c-4.1.15-8.19.44-12.29.6s-8,0-12,.21c-3.86.19-7.72.31-11.57.44s-7.76.29-11.63.3c-3.23,0-6.45.09-9.68,0-1.51,0-3-.16-4.54-.23s-3.3-.07-5-.12c-3.24-.08-6.48-.1-9.72,0-1.53,0-3,.28-4.57.45a10,10,0,0,0-3.16.65,7.24,7.24,0,0,0-1.51.88,6.76,6.76,0,0,0-1.87,2.49,8.77,8.77,0,0,0-.72,3.25,10.47,10.47,0,0,0,.23,2.18A6.49,6.49,0,0,0,332,581Z"/>
			<path class="cls-1" d="M535.3,617.41c2,0,4-.07,5.93-.11s3.69.06,5.54.06,3.87,0,5.81-.1c1,0,2,0,3.06,0s1.81,0,2.71,0c3.59-.08,7.17-.75,10.77-.61.94,0,1.88,0,2.82.12a9.89,9.89,0,0,0,3-.21,3.46,3.46,0,0,0,2-2.06,6.1,6.1,0,0,0,.37-3.42c-.29-1.76-1.43-3.31-2.76-3.59-.59-.12-1.14-.18-1.73-.25-.78-.2-1.56-.43-2.35-.57s-1.84-.37-2.77-.48c-1.79-.23-3.58-.48-5.38-.63-3.82-.33-7.63-.87-11.46-1.12s-7.6-.53-11.4-.53c-1.93,0-3.87,0-5.8-.06s-3.63-.19-5.46-.25c-3.86-.12-7.72,0-11.58-.14q-6.21-.2-12.41-.36c-4-.1-7.93-.11-11.89-.33s-8-.63-12.06-.68c-2.41,0-4.82,0-7.23,0-1.75,0-3.49,0-5.23,0h-5.65c-1.94,0-3.88-.1-5.81-.13-3.14-.06-6.28-.11-9.42-.11l-2.77,0c-4.16,0-8.32.3-12.48.43-3.8.12-7.58.42-11.37.69s-7.36.27-11,.26-7.41-.18-11.12,0c-3.87.14-7.75.19-11.63.36s-7.73.62-11.59,1.07a67.6,67.6,0,0,1-12,.79c-3.66-.23-7.35-.24-11-.24a91.49,91.49,0,0,0-12,.91c-1.9.26-3.79.5-5.68.78a3.16,3.16,0,0,0-2.35,1.28,5.32,5.32,0,0,0-1,3.08,5.41,5.41,0,0,0,.93,3.2,2.79,2.79,0,0,0,2.25,1.34c2.33-.35,4.67-.68,7-.95,2.14-.23,4.28-.53,6.43-.64a89.62,89.62,0,0,1,11.47.18c1.93.14,3.83.4,5.75.67a32.68,32.68,0,0,0,5.68.13c4-.15,8-.23,12-.3s7.8,0,11.7.12c1.86,0,3.72,0,5.58.09s3.59.25,5.38.34c3.72.2,7.45.49,11.17.49s7.5-.27,11.24-.39c2-.06,4-.06,6.06-.11s4.11-.15,6.17-.18q6-.06,12,.06c4,.08,7.94.26,11.91.28s8.11,0,12.16,0c2,0,4.08,0,6.12,0s3.78.21,5.67.34q6.39.43,12.79.59c7.84.21,15.69.56,23.53.6,2,0,4,.06,5.95.13C531.7,617.26,533.5,617.42,535.3,617.41Z"/>
			<path class="cls-1" d="M334.3,654.45c3-.34,5.92-.65,8.88-1a66.53,66.53,0,0,1,7.19-.43q3.6.27,7.19.76c1.18.17,2.36.39,3.54.58.67.1,1.34.15,2,.2a10.4,10.4,0,0,0,1.94.08,5.26,5.26,0,0,0,3.11-1.64c2-2,2.4-5.63,1.08-8.47a5.69,5.69,0,0,0-3.56-3.29,8.87,8.87,0,0,0-1.35-.16c-2.09-.19-4.15-.64-6.23-.88a77.56,77.56,0,0,0-8.3-.76h-.61c-2.29,0-4.57.21-6.86.43-3,.3-5.92.61-8.87,1-2.72.31-4.79,3.68-4.56,7.37S331.59,654.75,334.3,654.45Z"/>
			<path class="cls-1" d="M417.18,643.11c-1.44,0-2.88,0-4.32-.07s-2.63-.08-3.95-.08l-1.43,0c-3.8.09-7.59.34-11.38.66-2.61.22-4.6,3.6-4.38,7.1s2.58,6.2,5.2,6a134.1,134.1,0,0,1,14.86-.53,56.44,56.44,0,0,0,6.23.26c2.68-.11,4.69-3.76,4.47-7.24a7.7,7.7,0,0,0-1.77-4.61A4.3,4.3,0,0,0,417.18,643.11Z"/>
			<path class="cls-1" d="M462.78,646.24a4,4,0,0,0-2.08-1.93,8.48,8.48,0,0,1-1.07-.65,10,10,0,0,0-2.36-1.14,11.6,11.6,0,0,0-3.91-.55h-.17c-1,0-2.06.15-3.09.25-1.3.13-2.61.3-3.91.46-2.71.34-4.78,3.66-4.55,7.38s2.69,6.54,5.4,6.21c2.3-.28,4.6-.5,6.9-.79a34.48,34.48,0,0,0,5.65-1.21l.48-.08c1.65-.29,3-1.86,3.33-4.17A6.66,6.66,0,0,0,462.78,646.24Z"/>
			<path class="cls-1" d="M501,655.19l2.93,0a9.1,9.1,0,0,0,3.87-1c1.49-.67,2.6-2.57,2.86-4.65s-.29-4.46-1.55-5.69a7,7,0,0,0-3-1.93,6.85,6.85,0,0,0-1.34-.24c-1.18-.09-2.36-.14-3.54-.14h-5.86c-5.06,0-10.11.1-15.16.2a4.63,4.63,0,0,0-3.44,2.46,8.65,8.65,0,0,0-1.12,4.91,7.88,7.88,0,0,0,1.81,4.69,4.35,4.35,0,0,0,3.59,1.52c4.86-.08,9.72-.17,14.58-.19Q498.33,655.17,501,655.19Z"/>
			<path class="cls-1" d="M578.14,644.73a5.94,5.94,0,0,0-2-2.31,12,12,0,0,0-1.49-.62,6.7,6.7,0,0,0-1.09-.18,8.39,8.39,0,0,1-1.38-.33l.23.09a4.62,4.62,0,0,0-1.22-.18,3.91,3.91,0,0,0-.83.09l-.93,0-2.22.09-5.07.12c-2.59.06-5.17.1-7.76.14-6.9.11-13.82.14-20.72.72-2.41.2-4.23,3.31-4,6.52s2.38,5.7,4.78,5.51c6.75-.55,13.52-.53,20.28-.55,5.12,0,10.24,0,15.35.15.39.17.77.31,1.16.46a8.27,8.27,0,0,0,1.66.44l.25.1a3.29,3.29,0,0,0,1.59,0c1.66-.09,3.23-1.81,3.89-3.81a8.92,8.92,0,0,0,.42-3.27A8.08,8.08,0,0,0,578.14,644.73Z"/>
			<path class="cls-1" d="M331,695.18c5-.32,10-.69,15-.77,4.28-.06,8.56-.06,12.84-.14s8.58-.07,12.88,0a115.91,115.91,0,0,0,11.93-.31c2.05-.21,4.09-.46,6.15-.48a19.76,19.76,0,0,0,2.86-.27,16.58,16.58,0,0,0,4.18-1c1.59-.69,2.77-2.75,3.05-5a8.57,8.57,0,0,0-.21-3.27,5.88,5.88,0,0,0-2.48-3.68,9,9,0,0,0-2.32-.87,5.51,5.51,0,0,0-1-.08,8.25,8.25,0,0,0-1.22.1c-.81.12-1.61.26-2.42.32-1.61.14-3.23.14-4.84.27-1.84.15-3.67.42-5.51.55s-3.91.08-5.86.07q-12.49-.09-25,.12c-6.29.09-12.58.41-18.86.83-2.72.17-4.78,3.77-4.56,7.37C325.79,692.77,328.24,695.36,331,695.18Z"/>
			<path class="cls-1" d="M438.89,694.8a26.42,26.42,0,0,0,2.66-.19,5.21,5.21,0,0,0,2.17-.69,7.68,7.68,0,0,0,1.38-1,5.51,5.51,0,0,1,.41-.43,6.22,6.22,0,0,0,1.77-3.81,8,8,0,0,0-.19-3,6.4,6.4,0,0,0-1.32-2.57,10.79,10.79,0,0,0-1.67-1.4,5.39,5.39,0,0,0-2.66-.71,3.85,3.85,0,0,0-.48,0c-.88.06-1.76.13-2.64.17-1.86.1-3.72.08-5.58.1-4.55.05-9.1.09-13.65.22a4.69,4.69,0,0,0-3.44,2.46,8.69,8.69,0,0,0-1.12,4.91,7.82,7.82,0,0,0,1.81,4.69,4.34,4.34,0,0,0,3.59,1.53c4.43-.13,8.86-.17,13.29-.21C435.11,694.87,437,694.9,438.89,694.8Z"/>
			<path class="cls-1" d="M468.06,694.7c3.41-.29,6.82-.56,10.23-.86,1.48-.13,3-.24,4.43-.45a18.79,18.79,0,0,0,3.7-1.2l.13,0c1.67-.34,3.06-1.84,3.36-4.21.35-2.74-1-5.28-3-5.86-.37-.34-.74-.66-1.13-1a6,6,0,0,0-2.68-.93,13.36,13.36,0,0,0-2-.14c-1.14,0-2.28.11-3.41.19-3.5.26-7,.56-10.52.86-2.72.23-4.78,3.74-4.55,7.37S465.35,694.93,468.06,694.7Zm19.31-12.36a1.3,1.3,0,0,1-.25-.1h0Zm-.51-.28h0l-.06-.06Z"/>
			<path class="cls-1" d="M509.45,694.15c3.58-.06,7.15-.06,10.73,0,2.92,0,5.84,0,8.75.13,1.55.12,3.1.25,4.64.45.7.09,1.4.13,2.1.18a20.88,20.88,0,0,0,2.37.1,6.47,6.47,0,0,0,3.24-1.62,5.89,5.89,0,0,0,1.44-2.36,7.83,7.83,0,0,0,.37-2.94,6.28,6.28,0,0,0-2.5-4.85l-.15-.11a5.86,5.86,0,0,0-.82-.59,5.19,5.19,0,0,0-2-.68,18.89,18.89,0,0,0-2.38-.15c-3.43-.26-6.86-.4-10.3-.4l-2,0c-4.75.08-9.51.09-14.26.19a4.37,4.37,0,0,0-3.21,2.3,8.07,8.07,0,0,0-1,4.58,7.36,7.36,0,0,0,1.68,4.38A4.06,4.06,0,0,0,509.45,694.15Z"/>
			<path class="cls-1" d="M576.21,682.38a5.9,5.9,0,0,1-.59-.43,5.44,5.44,0,0,0-1.69-.76,5.12,5.12,0,0,0-1.74-.24l-.81,0a24.84,24.84,0,0,0-3.8.54c-2.55.43-5.11.89-7.66,1.34a4.7,4.7,0,0,0-3.29,2.36,8.21,8.21,0,0,0-1.07,4.7c.21,3.43,2.59,6.4,5.17,6s4.95-.86,7.42-1.26c1.23-.2,2.47-.4,3.7-.56a9.07,9.07,0,0,0,4-1.27,4.36,4.36,0,0,0,1.79-1.71,6.61,6.61,0,0,0,.87-2.61A6.36,6.36,0,0,0,576.21,682.38Z"/>
			<path class="cls-1" d="M327.49,729.34c3.59,0,7.18-.1,10.77-.19,1.51,0,3-.07,4.54-.14a11.09,11.09,0,0,0,2.29-.26,11.83,11.83,0,0,0,3-1.23,5.66,5.66,0,0,0,2.52-5.36c-.15-2.37-1.47-4.25-3.16-4.7a10.19,10.19,0,0,0-2.57-.29c-.84,0-1.67.06-2.49.11l-4.46.27c-3.7.19-7.4.33-11.1.36a3.88,3.88,0,0,0-2.89,2.07,7.25,7.25,0,0,0-.95,4.13,6.68,6.68,0,0,0,1.52,3.95A3.75,3.75,0,0,0,327.49,729.34Z"/>
			<path class="cls-1" d="M400.37,731.59a17.55,17.55,0,0,0,3-.34,4,4,0,0,0,2.28-1.13,6.34,6.34,0,0,0,1.55-2.55,8.59,8.59,0,0,0,.4-3.17,7,7,0,0,0-1.68-4.35,6.68,6.68,0,0,0-3-1.87,7.12,7.12,0,0,0-1.54-.15c-.32,0-.64,0-.95,0-1,.08-1.94.28-2.91.42a39.16,39.16,0,0,1-6.11.44c-4.31,0-8.61-.16-12.91-.4l-2.13-.15-1.24-.07a4.14,4.14,0,0,0-2.39,1.18,7.3,7.3,0,0,0-2,4.3,8.62,8.62,0,0,0,.82,5c.66,1.29,1.93,2.63,3.14,2.72,5.46.4,10.91.69,16.37.76a46.35,46.35,0,0,0,6.45-.2C398.43,731.9,399.39,731.68,400.37,731.59Z"/>
			<path class="cls-1" d="M441.24,730.77a14.19,14.19,0,0,0,3.75-1.31,5.41,5.41,0,0,0,2.62-4.27,7.37,7.37,0,0,0-.18-2.81,5,5,0,0,0-2.13-3.17,14.64,14.64,0,0,0-3.65-1.43,19.13,19.13,0,0,0-2.83-.19c-.44,0-.89,0-1.33,0-2.39.08-4.79.37-7.18.6-2.71.25-4.78,3.71-4.55,7.37s2.68,6.47,5.4,6.21c2.31-.21,4.63-.4,6.94-.64C439.15,731.06,440.2,731,441.24,730.77Z"/>
			<path class="cls-1" d="M492.65,731.52a5.42,5.42,0,0,0,2.64-4.29,6.32,6.32,0,0,0-2.32-6,8.77,8.77,0,0,0-5-1.22c-.53,0-1.05,0-1.55,0l-5.09.19c-4.14.14-8.29.26-12.43.43-2.38.1-4.16,3.33-4,6.42a6.92,6.92,0,0,0,1.57,4.09,3.79,3.79,0,0,0,3.13,1.32q6.2-.24,12.37-.38c1.66,0,3.32-.06,5-.05C488.86,732.05,490.8,732.37,492.65,731.52Z"/>
			<path class="cls-1" d="M533.12,735.09a6.33,6.33,0,0,0,2-.66,8.44,8.44,0,0,1,1.34-.68c1.77-.64,2.86-3.43,2.72-5.79a7.07,7.07,0,0,0-.74-2.77,4.44,4.44,0,0,0-2.39-2.2l-.39-.24A7.75,7.75,0,0,0,534,722a7.67,7.67,0,0,0-1.77-.33,43.13,43.13,0,0,0-5-.31c-3.38-.1-6.76-.11-10.14-.13h0c-1.28,0-2.64,1.16-3.42,2.46a8.61,8.61,0,0,0-1.12,4.91,7.87,7.87,0,0,0,1.8,4.69,4.44,4.44,0,0,0,3.6,1.53c4.07,0,8.13,0,12.19.2A10.92,10.92,0,0,0,533.12,735.09Z"/>
			<path class="cls-1" d="M572.42,725.91l.31.14a16.88,16.88,0,0,1-1.72-1,14.09,14.09,0,0,0-2.81-1.44,17,17,0,0,0-4.5-.84c-4-.41-8-.46-12-.61h-.07c-1.19,0-2.49,1.16-3.21,2.35a8.34,8.34,0,0,0-1.07,4.68,7.58,7.58,0,0,0,1.72,4.48l1,.89a3.61,3.61,0,0,0,2.38.56c3.59.14,7.19.35,10.78.37a35.85,35.85,0,0,0,4.39-.15,19.17,19.17,0,0,0,4.41-1.12h0a2.65,2.65,0,0,0,1.5-.75,4.62,4.62,0,0,0,1.26-2.71,5.47,5.47,0,0,0-.52-3.12A3.41,3.41,0,0,0,572.42,725.91Z"/>
			<path class="cls-1" d="M374.11,755.89a7.54,7.54,0,0,0-3.25-1c-1.17-.08-2.33-.14-3.5-.2-1.63-.09-3.25-.17-4.87-.27a3.74,3.74,0,0,0-1.2-.07l-1.63-.1c-4.39-.3-8.76-.64-13.14-1.2-5.42-.69-10.83-1.63-16.22-2.69a4,4,0,0,0-.76-.08c-2.41,0-4.59,2.24-5,5.63-.45,3.58,1.38,7.35,4.07,7.88,5.4,1.06,10.8,2,16.23,2.7,4.86.62,9.72,1,14.6,1.28l-1.28-.07,2.35.14h.08a3.69,3.69,0,0,0,1.1.07l.42,0h0l6.69.36a20.39,20.39,0,0,0,3.74.14c2.16-.23,4-2.53,4.33-5.42S376.1,757,374.11,755.89Z"/>
			<path class="cls-1" d="M413.38,759.2a14.77,14.77,0,0,0-3.86-.45c-1.31,0-2.62.11-3.91.19-2.71.16-5.43.34-8.14.52s-4.78,3.77-4.56,7.37c.24,3.81,2.69,6.4,5.4,6.22l7.78-.52a47.24,47.24,0,0,0,6.89-.89,3.83,3.83,0,0,0,2.26-1.12,6.84,6.84,0,0,0,1.89-4.06C417.56,763,415.84,759.85,413.38,759.2Z"/>
			<path class="cls-1" d="M472,758.09a9.26,9.26,0,0,0-1.82-.71,13.34,13.34,0,0,0-2.58-.21c-.47,0-.93,0-1.39,0h-2.34c-1.33,0-2.68.22-4,.33s-2.45.17-3.67.24c-6.25.38-12.49.74-18.74,1.14-2.72.17-4.78,3.78-4.56,7.37a7.94,7.94,0,0,0,1.81,4.69,4.29,4.29,0,0,0,3.6,1.53c6.15-.4,12.31-.74,18.47-1.12,2.46-.15,4.93-.39,7.4-.56,2.8-.2,5.6-.12,8.29-1.38,3-1.39,3.86-7.26,1.26-9.91A6.62,6.62,0,0,0,472,758.09Z"/>
			<path class="cls-1" d="M508.49,760.34a17.76,17.76,0,0,0-4-1.48,8.83,8.83,0,0,0-1.36-.14,19.93,19.93,0,0,0-2-.12h-.29c-2.57.06-5.14.22-7.7.36-2.73.16-4.78,3.79-4.56,7.38a7.84,7.84,0,0,0,1.81,4.69,4.3,4.3,0,0,0,3.59,1.53c2.35-.14,4.69-.27,7-.45,1-.07,1.95-.2,2.92-.35s2.14-.54,3.21-.75c1.84-.36,3.37-2,3.69-4.62C511.13,764,510.2,761.22,508.49,760.34Z"/>
			<path class="cls-1" d="M568.26,761.71a4.89,4.89,0,0,0-1.52-1.81,18.9,18.9,0,0,0-1.51-1.2,8.23,8.23,0,0,0-1.85-.82,6.33,6.33,0,0,0-1-.3,14.59,14.59,0,0,0-3.29-.34c-.65,0-1.29,0-1.92.08-2.87.21-5.74.61-8.6,1-7.44.93-14.87,1.88-22.31,2.67-2.71.29-4.78,3.69-4.56,7.37s2.69,6.51,5.41,6.22q9.23-1,18.45-2.19,3.72-.5,7.45-.91a51.79,51.79,0,0,1,6.68-.59c1.09.1,2.17.26,3.27.31a10.07,10.07,0,0,0,3.29-.75,4.52,4.52,0,0,0,1.83-1.76A7,7,0,0,0,569,766a7.94,7.94,0,0,0-.18-2.92C568.61,762.62,568.44,762.16,568.26,761.71Z"/>
			<path class="cls-1" d="M580.85,527.59a11.39,11.39,0,0,0-.92-2.49,6.49,6.49,0,0,0-4.29-3.43l-.52,0a9,9,0,0,0-1.87,0,6.24,6.24,0,0,0-.85.13c-1.88.36-3.73.94-5.61,1.28a59,59,0,0,1-5.88.83c-4.4.35-8.79.58-13.19.83-4,.22-7.91.41-11.86.31-4.36-.11-8.73-.33-13.09-.58-3.91-.23-7.82-.36-11.73-.31s-7.92.24-11.88.31c-4.63.08-9.25.05-13.88,0l-.41,0c-4.82-.58-9.63-1.36-14.47-1.69-5.17-.34-10.36-.61-15.54-.88-2.2-.13-4.41-.26-6.61-.37-4.14-.28-8.28-.58-12.42-.8-7.9-.54-15.79-1.28-23.7-1.76h-.25a4.61,4.61,0,0,0-1.61-.13h-.39a4,4,0,0,0-1.1-.06h-.1l-.13,0a3.62,3.62,0,0,0-1.18-.06h0l-.79-.05.77.05h0c-8.25-.47-16.5-.31-24.75-.67-7.33-.31-14.67-.67-22-.67l-2.82,0c-2.85,0-5.68.13-8.53.28a25.13,25.13,0,0,0-6.77,1.44c-.65.22-1.3.48-2,.73s-1.34.54-2,.86-1.09.75-1.62,1.15-.89,1.11-1.32,1.68a8.16,8.16,0,0,0-1.12,4.91,7.46,7.46,0,0,0,2.2,5,9.15,9.15,0,0,0-.13,2.22,7.85,7.85,0,0,0,1.8,4.69,4.38,4.38,0,0,0,3.6,1.53q4.74-.1,9.48-.16c2,0,3.94-.1,5.91-.06,4.28.08,8.55.23,12.82.38q6.68.22,13.34.25c3.85,0,7.7.08,11.55,0,3.39-.07,6.79-.23,10.18-.16s6.9.2,10.35.39l-.76,0c3.91.24,7.81.44,11.72.57,3.49.12,7,.14,10.48.15h2.55c2.41,0,4.82,0,7.23,0,3.63.11,7.25.23,10.88.33,4,.27,8,.62,12,.84s8.28.39,12.43.58L507.19,546l2.32.1h0c10.07.61,20.15,1.16,30.23,1.43,8.29.57,16.59.89,24.89,1.31,1.87.14,3.74.25,5.61.25l1.15,0a7.91,7.91,0,0,0,2.78-.46c2.7-.82,4.78-3.82,5.71-7.27a38.46,38.46,0,0,0,1.16-7.71q.06-1,.09-2A13.16,13.16,0,0,0,580.85,527.59Z"/>
		</g>
		<g id="text-2" data-name="text">
			<path class="cls-3" d="M356.8,438.66a6.51,6.51,0,0,0-5.21-6,6,6,0,0,0-1.25-.13A6.62,6.62,0,0,0,344,437.8a13.81,13.81,0,0,0-.25,1.71,3.42,3.42,0,0,0-.17.82c-.68,8.19-1.33,16.38-1.82,24.58q-.27,4.35-.48,8.71c-.06,1.24-.11,2.49-.17,3.73,0,.62,0,1.25,0,1.87,0,.17,0,.34-.05.51-.14,1.79-.43,3.64-.43,5.42a6.1,6.1,0,0,0,2.75,4.85,6.32,6.32,0,0,0,1.67,1.21,6.76,6.76,0,0,0,5,.36,6.28,6.28,0,0,0,2.91-1.84,7.91,7.91,0,0,0,1.7-3.63c.17-.68.35-1.36.55-2,.47-1.6,1-3.17,1.54-4.75a5.85,5.85,0,0,0-2-5.64q.3-4.37.58-8.75c.13-1.91.25-3.83.37-5.74.22-2.93.42-5.86.62-8.78q.19-3,.38-5.9C356.68,442.57,356.83,440.6,356.8,438.66Z"/>
			<path class="cls-3" d="M389.73,433.14a6.32,6.32,0,0,0-1.43-.11l-.76-.26a6.84,6.84,0,0,0-1.19-.11,6.23,6.23,0,0,0-1.9.3,6.77,6.77,0,0,0-3,1.9,7.32,7.32,0,0,0-1.68,3.55c-.11.72-.17,1.44-.25,2.17-.18,1.48-.26,3-.41,4.45-.39,3.61-.63,7.24-.85,10.86q-.39,6.58-.79,13.16c0,.37-.06.75-.1,1.12-.26,2.81-.44,5.62-.63,8.44-.19,2.22-.53,4.48-.57,6.71a6.29,6.29,0,0,0,2.11,4.37l1.43,1a6.38,6.38,0,0,0,3.29.68h0a6.5,6.5,0,0,0,3.11-1,6.86,6.86,0,0,0,2.81-4.15,23.21,23.21,0,0,0,.47-3.65c.15-1.47.26-2.94.37-4.41.25-3.33.4-6.68.61-10,.2-3.14.39-6.29.57-9.43.13-.93.26-1.85.4-2.78.78-5.23,2-10.41,3.17-15.57A6.14,6.14,0,0,0,389.73,433.14Z"/>
			<path class="cls-3" d="M424.63,434.07a6.56,6.56,0,0,0-4.81.93,6.34,6.34,0,0,0-2.83,4.18c-.2,1.59-.4,3.19-.59,4.78a8.74,8.74,0,0,0-.72,2,13.56,13.56,0,0,0-.29,1.67c-.13,1.37-.23,2.74-.32,4.12-.21,3.2-.45,6.41-.67,9.62-.09,1.3-.19,2.61-.29,3.92-.3,3.05-.6,6.12-.86,9.18-.18,2.25-.49,4.56-.45,6.82.05,2.85,1.2,5.78,3.9,7.12a6.58,6.58,0,0,0,8.73-2.9,8.17,8.17,0,0,0,.76-4.05,6.08,6.08,0,0,0-.17-1.21c.15-2.24.25-4.49.37-6.74.13-1.65.27-3.29.39-4.94l.48-4.82c.71-7.34,1.57-14.68,2.48-22a6.81,6.81,0,0,0-.92-4.81A6.56,6.56,0,0,0,424.63,434.07Z"/>
			<path class="cls-3" d="M466.61,439.45a6.28,6.28,0,0,0-1.77-2.71,6.55,6.55,0,0,0-4.53-1.62h-.12a6.18,6.18,0,0,0-4.3,2.08,8.63,8.63,0,0,0-1.83,4.3c-.19,1-.31,2-.42,3-.28,2.27-.56,4.55-.79,6.83-.44,4.44-.62,8.9-.86,13.34l-.18,1.08c-.51,3-1.06,6.09-1.55,9.14-.22,1.38-.35,2.77-.45,4.17-.19,2.59-.45,5.11,1,7.46a6.48,6.48,0,0,0,4.17,2.83l1.68.11a6.44,6.44,0,0,0,3.12-1,5.69,5.69,0,0,0,2.52-3,16.52,16.52,0,0,0,1-3.68c.17-1.15.33-2.3.49-3.45.32-2.39.5-4.81.68-7.22.11-1.61.22-3.23.32-4.84,1.05-6.35,1.89-12.73,2.67-19.13a7.11,7.11,0,0,0-.51-4A6.89,6.89,0,0,0,466.61,439.45Z"/>
			<path class="cls-3" d="M503.7,441.37l0-.18a6.55,6.55,0,0,0-5.07-7.59,5.92,5.92,0,0,0-1.19-.11,6.47,6.47,0,0,0-6.39,5.18c-1.87,11.36-3.48,22.76-5.31,34.12-.18,1.11-.45,2.2-.62,3.3a23.34,23.34,0,0,0-.25,3c0,.34,0,.66,0,1a8.66,8.66,0,0,0,1.22,3.73,6.31,6.31,0,0,0,2.67,2.32,6.62,6.62,0,0,0,5,.36,7,7,0,0,0,4.27-4.05,45.57,45.57,0,0,0,1.86-7.38c1.08-5.21,2.08-10.44,3-15.67.45-2.41.77-4.83,1.09-7.25a42.77,42.77,0,0,0,.49-5,24.71,24.71,0,0,0-.36-3.84A5.75,5.75,0,0,0,503.7,441.37Z"/>
			<path class="cls-3" d="M537.32,440.05l0,0c0-.07,0-.14,0-.22a6.34,6.34,0,0,0-9.79-4.91,6.1,6.1,0,0,0-2.77,4.07c-.76,8.48-1.25,17-1.75,25.48a52,52,0,0,1-1,7.86c-.31,1.39-.61,2.77-.9,4.16-.14.66-.29,1.33-.45,2a13.24,13.24,0,0,0-.37,3.08,7.55,7.55,0,0,0,1.08,3.48,6.46,6.46,0,0,0,11.21-.62c1.67-3.91,2.23-8.28,3-12.43.59-3,1.12-6.05,1.65-9.07s1.1-6,1.57-9c.23-1.45.43-2.9.61-4.36a26.61,26.61,0,0,0,.19-3.57,18.46,18.46,0,0,0-.67-3.42A5.88,5.88,0,0,0,537.32,440.05Z"/>
			<path class="cls-3" d="M574.67,436.86a6.18,6.18,0,0,0-.95-2.65,6.28,6.28,0,0,0-4-2.72,6.42,6.42,0,0,0-1.16-.11,6.26,6.26,0,0,0-6.16,5c-.63,3.7-.94,7.45-1.46,11.17-.48,3.46-1,6.91-1.3,10.39-.45,4.53-1,9.09-1,13.65,0,1.91-.09,3.83,0,5.74a24.6,24.6,0,0,0,.15,2.57,12.33,12.33,0,0,0,.56,2.79,6.49,6.49,0,0,0,1.82,2.78,6.75,6.75,0,0,0,3.17,1.58,6.2,6.2,0,0,0,4.81-.92l1.28-1.1A6.51,6.51,0,0,0,572,482a5.66,5.66,0,0,0,.18-1.3c.05-.8.1-1.6.16-2.4s.07-1.42.11-2.13c.07-1.17.1-2.34.15-3.51.36-4.58.93-9.15,1.34-13.73.52-5.89,1-11.79,1.41-17.68,0-.57.08-1.12.11-1.69A6.29,6.29,0,0,0,574.67,436.86Z"/>
		</g>
	</g>
</svg>
