<svg xmlns="http://www.w3.org/2000/svg"
	xmlns:xlink="http://www.w3.org/1999/xlink" style="" version="1.1" xml:space="preserve" width="32" height="32">
	<rect id="backgroundrect" width="100%" height="100%" x="0" y="0" fill="none" stroke="none"/>
	<g class="currentLayer" style="">
		<g id="Layer_1"/>
		<g id="icons" class="">
			<g id="mail">
				<path class="st0" d="M25.5918379180604,10.329447011299138 c0.11370262306404161,0.11341107399537836 0,0.3402332219861352 -0.11370262306404161,0.4536442959815135 l-9.209912468187367,5.103498329792025 c0,0 -0.11370262306404161,0 -0.11370262306404161,0 h0 c0,0 -0.11370262306404161,0 -0.11370262306404161,0 l-9.209912468187367,-5.103498329792025 c-0.11370262306404161,-0.11341107399537836 -0.22740524612808322,-0.3402332219861352 -0.11370262306404161,-0.4536442959815135 c0.11370262306404161,-0.22682214799075673 0.34110786919212494,-0.22682214799075673 0.4548104922561665,-0.11341107399537836 l8.527696729803118,4.76326510780589 c0.22740524612808322,0.11341107399537836 0.568513115320208,0.11341107399537836 0.9096209845123329,0 l8.527696729803118,-4.76326510780589 C25.250730048868277,10.102624863308382 25.47813529499636,10.21603593730376 25.5918379180604,10.329447011299138 z" id="svg_1"/>
				<path class="st0" d="M16.04081758068091,0.12245035171508789 C7.285715604749708,0.12245035171508789 0.12245035171508789,7.2673480134239234 0.12245035171508789,16.000000711068054 c0,8.73265269764413 7.16326525303462,15.877550359352966 15.91836722896582,15.877550359352966 c8.7551019759312,0 15.91836722896582,-7.144897661708836 15.91836722896582,-15.877550359352966 C31.95918480964673,7.2673480134239234 24.79591955661211,0.12245035171508789 16.04081758068091,0.12245035171508789 zM26.615161525636776,21.443732262846215 c0,0.9072885919630269 -0.6822157383842495,1.5877550359352968 -1.5918367228965822,1.5877550359352968 H6.944607735557582 c-0.9096209845123329,0 -1.5918367228965822,-0.6804664439722701 -1.5918367228965822,-1.5877550359352968 v-10.774052029560941 c0,-0.9072885919630269 0.6822157383842495,-1.5877550359352968 1.5918367228965822,-1.5877550359352968 H25.137027425804234 c0.9096209845123329,0 1.5918367228965822,0.6804664439722701 1.5918367228965822,1.5877550359352968 V21.443732262846215 z" id="svg_2"/>
			</g>
		</g>
	</g>
</svg>

