<?xml version="1.0" ?><svg style="enable-background:new 0 0 32 32;" version="1.1" viewBox="0 0 32 32" xml:space="preserve" xmlns="http://www.w3.org/2000/svg" xmlns:xlink="http://www.w3.org/1999/xlink"><style type="text/css">
	.st0{fill:#222A30;}
	.st1{fill:none;stroke:#222A30;stroke-width:1.8761;stroke-linejoin:round;stroke-miterlimit:10;}
	.st2{fill:#171715;}
	.st3{fill-rule:evenodd;clip-rule:evenodd;fill:#222A30;}
</style><g id="Layer_1"/><g id="icons"><g id="mail"><path class="st0" d="M24.4,11c0.1,0.1,0,0.3-0.1,0.4l-8.1,4.5c0,0-0.1,0-0.1,0h0c0,0-0.1,0-0.1,0l-8.1-4.5    c-0.1-0.1-0.2-0.3-0.1-0.4c0.1-0.2,0.3-0.2,0.4-0.1l7.5,4.2c0.2,0.1,0.5,0.1,0.8,0l7.5-4.2C24.1,10.8,24.3,10.9,24.4,11z"/><path class="st0" d="M16,2C8.3,2,2,8.3,2,16c0,7.7,6.3,14,14,14c7.7,0,14-6.3,14-14C30,8.3,23.7,2,16,2z M25.3,20.8    c0,0.8-0.6,1.4-1.4,1.4H8c-0.8,0-1.4-0.6-1.4-1.4v-9.5c0-0.8,0.6-1.4,1.4-1.4H24c0.8,0,1.4,0.6,1.4,1.4V20.8z"/></g></g></svg>