<svg xmlns="http://www.w3.org/2000/svg" width="22.58" height="22.023" viewBox="0 0 22.58 22.023">
	<path id="Path_4950" data-name="Path 4950" d="M147.609,107.44a11.291,11.291,0,0,0-3.568,22c.565.1.771-.245.771-.544,0-.268-.01-.978-.015-1.921-3.14.683-3.8-1.513-3.8-1.513a2.991,2.991,0,0,0-1.254-1.652c-1.025-.7.078-.686.078-.686a2.37,2.37,0,0,1,1.729,1.163,2.4,2.4,0,0,0,3.286.938,2.414,2.414,0,0,1,.717-1.51c-2.507-.285-5.143-1.253-5.143-5.58a4.365,4.365,0,0,1,1.162-3.029,4.056,4.056,0,0,1,.111-2.988s.947-.3,3.1,1.157a10.707,10.707,0,0,1,5.653,0c2.155-1.461,3.1-1.157,3.1-1.157a4.057,4.057,0,0,1,.113,2.988,4.357,4.357,0,0,1,1.16,3.029c0,4.337-2.64,5.292-5.155,5.571a2.7,2.7,0,0,1,.767,2.091c0,1.51-.014,2.727-.014,3.1,0,.3.2.653.776.543a11.292,11.292,0,0,0-3.576-22Z" transform="translate(-136.32 -107.44)" fill="currentColor" fill-rule="evenodd"/>
</svg>
