<svg xmlns="http://www.w3.org/2000/svg" width="300.958" height="67.012" viewBox="0 0 300.958 67.012">
	<defs>
		<style>
            .cls-1{fill:#fbbc04}.cls-2{fill:#0f9d58}.cls-3{fill:#ea4335}.cls-4{fill:#4285f4}.cls-5{fill:#fff}
		</style>
	</defs>
	<g id="White" transform="translate(3.578 3.441)">
		<rect id="Rectangle_489" width="60.75" height="19.66" class="cls-1" data-name="Rectangle 489" rx="9.83" transform="rotate(-29.3 121.775 -104.371)"/>
		<rect id="Rectangle_490" width="60.75" height="19.66" class="cls-2" data-name="Rectangle 490" rx="9.83" transform="rotate(29.3 44.692 144.203)"/>
		<path id="Path_32" d="M54.43 5A9.87 9.87 0 0 0 41 1.27L5 21.5a9.82 9.82 0 0 0-3 2.71c.36.28 13.25 7.73 18 11.54l30.67-17.28A9.87 9.87 0 0 0 54.43 5z" class="cls-3" data-name="Path 32"/>
		<rect id="Rectangle_491" width="61" height="19.74" class="cls-4" data-name="Rectangle 491" rx="9.87" transform="rotate(-150.7 33.109 25.292)"/>
		<path id="Path_33" d="M144.05 24V2.52h6.57a10.7 10.7 0 0 1 7.9 3 10.48 10.48 0 0 1 3 7.77 10.44 10.44 0 0 1-3 7.78 10.7 10.7 0 0 1-7.9 3zm2.76-18.84v16.2h3.81a8 8 0 0 0 5.91-2.15 8 8 0 0 0 2.16-6 8 8 0 0 0-2.16-5.94 8 8 0 0 0-5.91-2.16z" class="cls-5" data-name="Path 33"/>
		<path id="Path_34" d="M170.45 24.48a7 7 0 0 1-5.34-2.22 7.85 7.85 0 0 1-2.11-5.61 8 8 0 0 1 2-5.59 6.79 6.79 0 0 1 5.23-2.24 6.67 6.67 0 0 1 5.2 2.12 8.45 8.45 0 0 1 1.94 5.92v.3h-11.54a4.75 4.75 0 0 0 1.44 3.48 4.65 4.65 0 0 0 7.44-1.32l2.46 1.2a7.41 7.41 0 0 1-2.75 2.91 7.6 7.6 0 0 1-3.97 1.05zm-4.45-9.6h8.42a3.64 3.64 0 0 0-1.24-2.53 4.36 4.36 0 0 0-3-1 4 4 0 0 0-2.69 1 4.58 4.58 0 0 0-1.49 2.53z" class="cls-5" data-name="Path 34"/>
		<path id="Path_35" d="M186.77 24H184l-5.93-14.7h3l4.32 11.4h.06l4.38-11.4h2.94z" class="cls-5" data-name="Path 35"/>
		<path id="Path_36" d="M197.8 14.79V24H195V2.52h12.54v2.64h-9.74v7.05h8.83v2.58z" class="cls-5" data-name="Path 36"/>
		<path id="Path_37" d="M215.92 24.48a7 7 0 0 1-5.34-2.22 7.84 7.84 0 0 1-2.1-5.61 8 8 0 0 1 2-5.59 6.78 6.78 0 0 1 5.23-2.24 6.68 6.68 0 0 1 5.2 2.12 8.44 8.44 0 0 1 1.93 5.92v.3H211.3a4.76 4.76 0 0 0 1.45 3.48 4.64 4.64 0 0 0 7.43-1.32l2.46 1.2a7.32 7.32 0 0 1-2.74 2.91 7.61 7.61 0 0 1-3.98 1.05zm-4.41-9.6h8.43a3.64 3.64 0 0 0-1.24-2.53 4.37 4.37 0 0 0-3-1 4 4 0 0 0-2.68 1 4.59 4.59 0 0 0-1.51 2.53z" class="cls-5" data-name="Path 37"/>
		<path id="Path_38" d="M236.8 19.92a4 4 0 0 1-1.68 3.24 6.64 6.64 0 0 1-4.23 1.32 6.79 6.79 0 0 1-3.9-1.15 6.38 6.38 0 0 1-2.4-3l2.46-1.05a4.64 4.64 0 0 0 1.58 2.06 3.81 3.81 0 0 0 2.26.73 4 4 0 0 0 2.21-.57 1.61 1.61 0 0 0 .9-1.4q0-1.41-2.16-2.07l-2.52-.63Q225 16.32 225 13.26a3.82 3.82 0 0 1 1.65-3.26 7.48 7.48 0 0 1 7.71-.29 5 5 0 0 1 2.2 2.49l-2.46 1a3.08 3.08 0 0 0-1.36-1.45 4.3 4.3 0 0 0-2.12-.53 3.53 3.53 0 0 0-1.93.54 1.56 1.56 0 0 0-.86 1.32q0 1.26 2.37 1.8l2.22.57q4.38 1.14 4.38 4.47z" class="cls-5" data-name="Path 38"/>
		<path id="Path_39" d="M244.87 24.24a4.18 4.18 0 0 1-3-1.11 4.12 4.12 0 0 1-1.2-3.13v-8.18h-2.58V9.3h2.58V4.8h2.76v4.5H247v2.52h-3.6v7.32a2.66 2.66 0 0 0 .57 2 1.82 1.82 0 0 0 1.29.53 2.36 2.36 0 0 0 .65-.08 2.63 2.63 0 0 0 .58-.19l.87 2.46a7.41 7.41 0 0 1-2.49.38z" class="cls-5" data-name="Path 39"/>
		<path id="Path_40" d="M157.31 51.26a5.62 5.62 0 0 1-2.07 4.54 8 8 0 0 1-5.1 1.68 7.54 7.54 0 0 1-4.71-1.56 8 8 0 0 1-2.82-4.26l2.64-1.08a6.829 6.829 0 0 0 .75 1.74 5.42 5.42 0 0 0 1.12 1.33 4.9 4.9 0 0 0 1.43.87 4.37 4.37 0 0 0 1.65.32 4.74 4.74 0 0 0 3.09-1 3.21 3.21 0 0 0 1.2-2.6 3.1 3.1 0 0 0-1-2.31 9.5 9.5 0 0 0-3.48-1.8 34 34 0 0 1-3.21-1.26 5.52 5.52 0 0 1-3.42-5.13 5.23 5.23 0 0 1 1.89-4.05A6.9 6.9 0 0 1 150 35a7.24 7.24 0 0 1 4.26 1.26 5.9 5.9 0 0 1 2.4 3.09l-2.58 1.08a3.81 3.81 0 0 0-1.43-2 4.59 4.59 0 0 0-5.32.1 2.59 2.59 0 0 0-1.11 2.18 2.53 2.53 0 0 0 .87 1.91 15 15 0 0 0 4.17 1.91 10.67 10.67 0 0 1 4.66 2.72 5.83 5.83 0 0 1 1.39 4.01z" class="cls-5" data-name="Path 40"/>
		<path id="Path_41" d="M163.73 37.23a1.95 1.95 0 1 1-.57-1.38 1.88 1.88 0 0 1 .57 1.38zm-.57 5.07V57h-2.76V42.3z" class="cls-5" data-name="Path 41"/>
		<path id="Path_42" d="M174.53 57.48a6.36 6.36 0 0 1-3-.69 5.25 5.25 0 0 1-2.02-1.79h-.12v2h-2.64V35.52h2.76v6.78l-.12 2h.12a5.25 5.25 0 0 1 2.06-1.83 6.53 6.53 0 0 1 7.88 1.59 8.51 8.51 0 0 1 0 11.1 6.34 6.34 0 0 1-4.92 2.32zm-.45-2.48a4.33 4.33 0 0 0 3.33-1.5 5.45 5.45 0 0 0 1.34-3.81 5.52 5.52 0 0 0-1.34-3.81 4.49 4.49 0 0 0-6.7 0 6.2 6.2 0 0 0 0 7.65 4.4 4.4 0 0 0 3.37 1.47z" class="cls-5" data-name="Path 42"/>
		<path id="Path_43" d="M190.63 57.48a7 7 0 0 1-5.34-2.22 7.84 7.84 0 0 1-2.1-5.61 8 8 0 0 1 2-5.59 6.76 6.76 0 0 1 5.23-2.24 6.68 6.68 0 0 1 5.2 2.12 8.44 8.44 0 0 1 1.93 5.92v.3H186a4.76 4.76 0 0 0 1.45 3.48 4.64 4.64 0 0 0 7.43-1.32l2.46 1.2a7.32 7.32 0 0 1-2.74 2.91 7.61 7.61 0 0 1-3.97 1.05zm-4.41-9.6h8.43a3.64 3.64 0 0 0-1.24-2.53 4.37 4.37 0 0 0-3-1 4 4 0 0 0-2.68 1 4.59 4.59 0 0 0-1.51 2.53z" class="cls-5" data-name="Path 43"/>
		<path id="Path_44" d="M202.87 57h-2.76V42.3h2.64v2.4h.12a4 4 0 0 1 1.73-2 4.78 4.78 0 0 1 2.56-.83 5.17 5.17 0 0 1 2 .36l-.84 2.67a4.57 4.57 0 0 0-1.62-.21A3.56 3.56 0 0 0 204 46a4.22 4.22 0 0 0-1.16 2.94z" class="cls-5" data-name="Path 44"/>
		<path id="Path_45" d="M214.57 37.23a1.95 1.95 0 1 1-.57-1.38 1.88 1.88 0 0 1 .57 1.38zM214 42.3V57h-2.76V42.3z" class="cls-5" data-name="Path 45"/>
		<path id="Path_46" d="M223 41.82a6.84 6.84 0 0 1 4.83 1.64 5.79 5.79 0 0 1 1.77 4.48V57H227v-2h-.12a5.27 5.27 0 0 1-4.56 2.52 5.91 5.91 0 0 1-4.07-1.52 4.6 4.6 0 0 1-1.64-3.6 4.37 4.37 0 0 1 1.73-3.63 7.25 7.25 0 0 1 4.6-1.35 8.15 8.15 0 0 1 4.05.9v-.63a3.13 3.13 0 0 0-1.14-2.44 3.91 3.91 0 0 0-2.67-1 4.23 4.23 0 0 0-3.66 1.95l-2.43-1.53a6.78 6.78 0 0 1 5.91-2.85zm-3.54 10.68a2.21 2.21 0 0 0 .92 1.8 3.35 3.35 0 0 0 2.14.72 4.41 4.41 0 0 0 3.11-1.29 4 4 0 0 0 1.36-3 5.67 5.67 0 0 0-3.6-1 4.66 4.66 0 0 0-2.8.81 2.41 2.41 0 0 0-1.13 1.96z" class="cls-5" data-name="Path 46"/>
		<path id="Path_47" d="M250.47 54.36V57h-13.08v-2.76l5.31-5.37a45.382 45.382 0 0 0 3.69-4.1 4.68 4.68 0 0 0 1-2.86 3 3 0 0 0-1-2.31 3.85 3.85 0 0 0-2.7-1 3.7 3.7 0 0 0-2.43.84 3.79 3.79 0 0 0-1.32 2l-2.52-1a6.35 6.35 0 0 1 2.31-3.19 6.44 6.44 0 0 1 4-1.31 6.61 6.61 0 0 1 4.65 1.71 5.48 5.48 0 0 1 1.86 4.2q0 3-3.27 6.42l-6 6z" class="cls-5" data-name="Path 47"/>
		<path id="Path_48" d="M253.11 46.74a12.36 12.36 0 0 1 2.31-7.74 7.32 7.32 0 0 1 11.88 0 12.31 12.31 0 0 1 2.31 7.68 12.52 12.52 0 0 1-2.31 7.71 7.34 7.34 0 0 1-11.88 0 12.52 12.52 0 0 1-2.31-7.65zm13.68 0a10.39 10.39 0 0 0-1.5-5.82 4.53 4.53 0 0 0-7.86 0 10.39 10.39 0 0 0-1.5 5.82 10.54 10.54 0 0 0 1.5 5.85 4.54 4.54 0 0 0 7.86 0 10.49 10.49 0 0 0 1.5-5.85z" class="cls-5" data-name="Path 48"/>
		<path id="Path_49" d="M279.63 36.48V57h-2.76V39.9l-4 1.74-1.05-2.34 6-2.82z" class="cls-5" data-name="Path 49"/>
		<path id="Path_50" d="M289.77 49.5a6.28 6.28 0 0 1-4.47-2 6.51 6.51 0 0 1-1.95-4.68 6.42 6.42 0 0 1 2.1-4.8 7 7 0 0 1 9.93 0 6.6 6.6 0 0 1 2 4.83 11 11 0 0 1-2 5.67l-6 8.94-2.16-1.46 5.07-7-.06-.06a4.4 4.4 0 0 1-2.46.56zm4.86-6.66a4 4 0 0 0-1.26-3 4.221 4.221 0 0 0-6 5.94 4.27 4.27 0 0 0 6 0 3.94 3.94 0 0 0 1.26-2.94z" class="cls-5" data-name="Path 50"/>
	</g>
</svg> 
