<svg id="Layer_1" data-name="Layer 1"
	xmlns="http://www.w3.org/2000/svg" viewBox="0 0 36 36">
	<path class="cls-1" d="M18,0A18,18,0,1,0,36,18,18,18,0,0,0,18,0Zm9.33,25.83a3.07,3.07,0,0,1-1.54.28,7.24,7.24,0,0,1-2.24-.39,3.43,3.43,0,0,1-2.1-4.43c.49-1.19,1.08-2.34,1.62-3.51.38-.83.77-1.65,1.14-2.49a1.47,1.47,0,0,0,.11-.47.51.51,0,0,0-.24-.57.65.65,0,0,0-.73.05,2.26,2.26,0,0,0-.54.65c-.49.91-1,1.83-1.43,2.75-.78,1.53-1.55,3.07-2.33,4.61a2.75,2.75,0,0,1-.36.53,1.76,1.76,0,0,1-2,.53A1.1,1.1,0,0,1,16,21.94c.22-.67.49-1.33.75-2,.47-1.21.95-2.4,1.4-3.61a1.79,1.79,0,0,0,.08-.73.81.81,0,0,0-.65-.77,1,1,0,0,0-1,.57c-.26.62-.51,1.25-.76,1.88-.85,2.11-1.69,4.23-2.53,6.34-.06.14-.13.28-.2.41a2.16,2.16,0,0,1-2,1.23A3,3,0,0,1,9,24.5a2.53,2.53,0,0,1-.72-2.68c.82-2.8,1.63-5.6,2.66-8.34a9.82,9.82,0,0,1,.54-1.25,3.42,3.42,0,0,1,3.27-1.88,1.88,1.88,0,0,1,.72.19c.55.23,1.09.49,1.62.76a.94.94,0,0,0,1-.09A9.4,9.4,0,0,0,19,10.5a2.18,2.18,0,0,1,1.8-.6,1.54,1.54,0,0,1,.88.34c.26.22.5.45.75.68a.54.54,0,0,0,.77.07,3.41,3.41,0,0,1,3-.16,2.17,2.17,0,0,1,1.34,1.82,3.28,3.28,0,0,1-.24,1.86c-.47,1.21-1,2.41-1.5,3.61a18.8,18.8,0,0,0-1.22,3.34,6.35,6.35,0,0,0-.11,1.06.94.94,0,0,0,.71,1c.4.12.82.16,1.23.26a5.2,5.2,0,0,1,.86.23.93.93,0,0,1,.57.92A.94.94,0,0,1,27.33,25.83Z"/>
</svg>
