<?xml version="1.0" ?>
<!DOCTYPE svg  PUBLIC '-//W3C//DTD SVG 1.1//EN'  'http://www.w3.org/Graphics/SVG/1.1/DTD/svg11.dtd'>
<svg xmlns="http://www.w3.org/2000/svg" xmlns:xlink="http://www.w3.org/1999/xlink" id="Layer_1" width="512px" height="512px" enable-background="new 0 0 512 512" version="1.1" viewBox="0 0 512 512" xml:space="preserve">
    <path fill="currentColor" d="M256,54.872c-83.352,0-151.162,67.811-151.162,151.162c0,134.032,136.018,239.518,141.809,243.945l9.354,7.148l9.348-7.148  c5.791-4.428,141.814-109.913,141.814-243.945C407.162,122.682,339.353,54.872,256,54.872z M255.989,417.763  c-29.792-25.637-120.352-111.815-120.352-211.729c0-66.37,53.987-120.363,120.363-120.363c66.364,0,120.363,53.994,120.363,120.363  C376.364,305.734,285.768,392.086,255.989,417.763z"/>
    <path fill="currentColor" d="M253.665,142.966c-32.376,0-58.635,26.247-58.635,58.635c0,32.376,26.259,58.629,58.635,58.629  c32.382,0,58.634-26.253,58.634-58.629C312.299,169.213,286.047,142.966,253.665,142.966z"/>
</svg>
