<svg xmlns="http://www.w3.org/2000/svg" width="353.578" height="371.868" viewBox="0 0 353.578 371.868">
	<defs>
		<style>
            .cls-1{fill:#fff}.cls-2{fill:#195cff}.cls-3{fill:#f0a}
		</style>
	</defs>
	<g id="scholarship-01" transform="translate(-509.423 -522.229)">
		<path id="Path_5034" d="M862.637 778.293c.131-23.372-7.936-53.671-19.073-74.182.059.125.122.247.184.369-7.11-13.664-15.562-24.8-25.17-36.758-8.073-10.04-11.037-21.631-15.2-33.541a378.337 378.337 0 0 0-16.384-39.172c-4.8-9.974-10.253-19.661-14.868-29.7-5.353-11.653-9.512-29.7-17.719-39.55-15.321-18.37-22.316 40.648-22.037 47.573-4.759-.416-9.931.707-14.53 1.723l.394-.081c-14.12 3.127-27.612 9.024-40.269 15.971-6.757 3.705-5.788 5.563-11.391-.059a85.967 85.967 0 0 0-15.834-12.754c-6.726-4.149-15.38-9.474-23.451-9.48-15.921 0-4.771 17.485-2.552 25.717 11.338 42.067 4.212 100.8 50.428 124.626-13.045 24.282-58.977 19.073-79.419 11.025-14.07-5.534-20.724-13.823-24.948-28.216-4.19-14.239-9.937-27.275-19.983-38.315-6.022-6.613-15.321-16.722-24.032-8.011-6.707 6.713-.275 12.194-2.314 18.8-.2.641-2.145 1.148-2.476 1.914-.96 2.229-2.145 6.679-3.464 8.245-2.855 3.383-6.635 2.029-8.277 7.338-1.357 4.377.572 9.53-.016 13.495-1.219 8.236-2.233 15.821 6.125 20.855 1.813 1.094 3.555.829 4.79 2 1.541 1.466 2.189 5.556 3.677 7.5 4.033 5.25 9.38 6.713 14.9 9.624s7.87 8.689 12.582 13.83c4.537 4.953 10.056 9.283 15.171 13.651 23.785 20.3 54.021 26.693 84.028 32.549 12.629 2.467 31.715-.741 40.085 10.256 9.068 11.882 14.636 26.634 22.6 39.294 6.644 10.559 13.579 21.668 23.932 28.882 8.755 6.107 18.939 14.174 29.41 8.4 6.275-3.464 3.127-2.126 9.421-.869a18.363 18.363 0 0 0 15.837-4.037c6.722-5.738 5.706-12.948 9.871-19.7 2.52-4.093 13.329-7.192 18.513-11.181 12.282-9.483 23.4-21.672 30.739-35.395 6.111-11.429 12.718-29.313 10.72-42.636z" class="cls-1" data-name="Path 5034"/>
		<path id="Path_5035" d="M579.262 1012.824c5.941 4.506 10.068-3.752 7.192-8.7-6.579-11.236-13.996 3.516-7.192 8.7z" class="cls-2" data-name="Path 5035" transform="translate(-46.146 -328.389)"/>
		<path id="Path_5036" d="M593.573 1083.406c-5.566-9.955-7.254-.938-10.275.294-1.46.6-3.883-3.292-5.859 2.132-.75 2.057-.188 9.014.938 11.341 6.894 14.127 21.152-3.073 15.196-13.767z" class="cls-2" data-name="Path 5036" transform="translate(-46.515 -382.531)"/>
		<path id="Path_5037" d="M1110.76 938.2c3.055 7.173 14.164 1.176 11-5.941-3.399-7.637-10.737 6.111-11 5.941z" class="cls-2" data-name="Path 5037" transform="translate(-413.315 -280.238)"/>
		<path id="Path_5038" d="M1196.991 1142.712c2.739 6.841 5.872 9.637 10.553 13.545 3.5 2.92 8.943 13.114 12.954 9.068 4.118-4.159 3.374-23.685 1.032-29.429-1.876-4.574-11.162-10.7-15.987-10.587 3.352-4.534-1.251-8.442-5.6-5.963-3.167 1.813-4.415 8.32.675 8.57-1.87 3.855-5.406 10.334-3.627 14.796z" class="cls-2" data-name="Path 5038" transform="translate(-472.249 -409.885)"/>
		<path id="Path_5039" d="M888 704.09c11.422 5.628 22.425 12.351 31.664 21.262 1.563 1.5 7.151 10.284 10.262 7.482 2.5-2.248.153-4.118-.891-6.153-3.421-6.672-14.164-12.132-20.593-16.068a105.672 105.672 0 0 0-10.631-5.669c-1.31-.61-6.988-4.221-8.483-3.837-1.102.278-3.941 1.693-1.328 2.983zm10.493 2.842l-.094-.028z" class="cls-2" data-name="Path 5039" transform="translate(-259.469 -122.928)"/>
		<path id="Path_5040" d="M727.968 1164.975c30.767 9.2 89.1-7.254 84.237-48.915-4.906 1.213-7.817-.6-10.9 4.3-2.314 3.677-1.717 7.5-3.464 11.106a38.142 38.142 0 0 1-9.568 11.569c-18.27 15.008-48.586 11.8-69.414 6.119-4.84-1.323-7.851-1.207-12.041-2.748-5.453-2.007-11.216-7.391-15.462-11.106a51.428 51.428 0 0 1-7.007-7.3c-.685-.891-.469-3.583-1.563-4.065-1.876-.838-2.948-2.123-4.23.647-2.948 6.366 14.07 19.354 17.51 22.075 9.234 7.284 20.568 14.932 31.902 18.318z" class="cls-2" data-name="Path 5040" transform="translate(-116.017 -408.156)"/>
		<path id="Path_5041" d="M1377.966 798.747c-3.383-20.324-9.918-42.127-20.136-60.14-6.791-11.969-14.714-23.507-22.094-35.154-1.079-1.7-8.523-15.821-11.694-14.927.066-.854.794-5.913-1.507-4.637 2.539-22.387-11.434-39.284-20.377-57.641-1.929-3.965-1.094-5.813-4.13-10.184-3.63-5.225-8.167-9.784-11.075-15.518-1.25-2.5-4.452-7.5-5.24-9.549-1.835-4.762.116-14.208-2.774-18.094-6.366-8.567-2.783 14.7-2.351 16.809 2.439 12 5.719 22.341 14.88 30.923 14.721 13.789 22.932 36.658 18.792 56.907a57.085 57.085 0 0 1-6.648 16.853c-2.748 4.762-9.424 12.422-5.559 18.266 7.191 10.859 18.979-7.539 21.159-13.845 17.722 26.63 40.548 55.794 48.69 87.183 7.079 27.3.272 63.786-20.358 84.394-4.743 4.74-11.275 7.97-17.613 9.937-5.941 1.842-10.005 1.213-13.054 7.191-2.67 5.231-1.676 11.113-5.416 16.043-1.516 2-8.5 5.54-5.922 8.68 1.807 2.2 9.068-3.439 10.906-5.209 5.237-5.059 5.672-10.684 8.908-16.759.416-.778 0-3.127.209-3.336 2.87-2.952 5.919-.835 7.926-1.435 5.24-1.563 9.965-4.981 14.208-8.736 13.132-11.638 19.5-29.523 24.492-45.816 1.876-6.106 3.73-7.951 5.037-13.157 1.034-4.116 1.382-15.232.741-19.049z" class="cls-2" data-name="Path 5041" transform="translate(-526.335 -33.533)"/>
		<path id="Path_5042" d="M1352.71 724.35l.041.025z" class="cls-2" data-name="Path 5042" transform="translate(-579.613 -138.923)"/>
		<path id="Path_5043" d="M1421 964.219v-.019z" class="cls-2" data-name="Path 5043" transform="translate(-626.551 -303.779)"/>
		<path id="Path_5044" d="M1319.372 1637.191c-3.561-2.62-3.8 1.132-5.475 2.667-1.329 1.213-10.891 8.633-10.9 8.211.028 1.66 9.627 1.4 10.781 1.013 3.483-1.157 10.422-8.314 5.594-11.891z" class="cls-2" data-name="Path 5044" transform="translate(-545.446 -765.721)"/>
		<path id="Path_5045" d="M1237.988 1600.068c-4.378 6.466 15.008-1.294 6.96-5.337.766.385-15.2 2.92-13.758.785-1.995 2.933 6.86 3.721 8.361 3.618a3.03 3.03 0 0 0-1.563.934zm6.378-2.054a.7.7 0 0 1 .116 0h-.125z" class="cls-2" data-name="Path 5045" transform="translate(-495.889 -737.158)"/>
		<path id="Path_5046" d="M916.955 1382.882a23.945 23.945 0 0 0-4.065-3.843c8.57-2.126-14.1-10.6-15.609-10.89-10.728-2.051-21.243-.682-32.03-.485-2.9.053-36.9-3.5-36.921-3.417-.7 2.611 26.756 5.941 28.234 6.047 19.736 1.282 40.116 2.789 56.678 15.418l-.238-.184c3.026 2.332 7.922 1.416 3.951-2.646z" class="cls-2" data-name="Path 5046" transform="translate(-219.185 -578.741)"/>
		<path id="Path_5047" d="M1192.966 1324.413c6.444-.672 13.264-15.715 15.555-20.971 2.52-5.787 5.378-9.38 6.791-15.777 1.9-8.583.222-15.346-1.629-23.679-.794-3.574-.285-10.087-1.857-13.445-3.574-7.611-12.21.6-17.744 3.33-19.667 9.693-39.347 17.406-58.98 27.4-6.566 3.349-13.873 6.078-20.193 9.862-8.211 4.918-1.326 12.71 2.058 20.377 6.7 15.19 15.671 29.21 22.3 44.487 2.067 4.753 4.349 16.766 10.665 17.51a5.948 5.948 0 0 0 6.466-4.043s8.952 5.809 8.364 5.725c3.411.488 9.874-3.921 7.135-8.292-2.264-3.611-5.315 1.942-7.5 2.314-1.91.313-7.26-3.189-8.189-1.482-1.088-5.728-6.757-4.793-8.6-9.44-1-2.52.585-10.112 3.4-11.228 2.051-.816 3.555 2.658 5.941 2.292 4.318-.663 8.273-14.186 11.941-16.916 3.877-2.886 7.5-2.614 11.744-3.224 3.766-.554 9.777-4.894 12.332-4.8z" class="cls-2" data-name="Path 5047" transform="translate(-413.506 -498.421)"/>
		<path id="Path_5048" d="M1234.711 1316.965a11.249 11.249 0 0 0-.156-1.122 6.25 6.25 0 0 0-.91-2.029c-.2-.313-.444-.625-.675-.916a3.931 3.931 0 0 0-.841-.7 3.587 3.587 0 0 0-.625-.341 5.579 5.579 0 0 0-.969-.369 3.453 3.453 0 0 0-.832-.1 5.152 5.152 0 0 0-3.236 1.363 6.165 6.165 0 0 0-.913 1.1l-.062.094a2.345 2.345 0 0 0-2.783.994 2 2 0 0 0-.153.313 5.444 5.444 0 0 0-.428-.56 1.618 1.618 0 0 0-.35-.35 3.607 3.607 0 0 0-1.173-.71 2.745 2.745 0 0 0-1.057-.209 2.936 2.936 0 0 0-2.9 3.571 6.459 6.459 0 0 0 .432 1.151v.166a3.927 3.927 0 0 0 .416 1.563c-.15-.125-.312-.244-.45-.35a3.236 3.236 0 0 0-1.332-.591l-.6-.1a4.126 4.126 0 0 0-.9.069 3.344 3.344 0 0 0-.469.088 8.61 8.61 0 0 0-.938.36 4.413 4.413 0 0 0-.829.469 8.824 8.824 0 0 0-.9.7 3.14 3.14 0 0 0-.231.228c-.594-1.4-1.21-2.814-1.788-4.212-.181-.5-.36-1.007-.563-1.5a3.292 3.292 0 0 0-1.251-1.476 2.3 2.3 0 0 0-1.2-.335 2.37 2.37 0 0 0-1.144.294 2.308 2.308 0 0 0-.854.829c-.081.178-.163.363-.241.541a2.339 2.339 0 0 0-.031 1.219 8.669 8.669 0 0 0 .494 1.688c.228.663.5 1.313.76 1.964.216.531.444 1.063.678 1.588h-.263a8.587 8.587 0 0 0-2.664.713 5.567 5.567 0 0 0-1.545.985 3.89 3.89 0 0 0-1.191 2.286 7.011 7.011 0 0 0-.109 1.069.316.316 0 0 1-.022-.047 7.8 7.8 0 0 0-.481-.625 2.472 2.472 0 0 0-.76-.544 3.645 3.645 0 0 0-1.588-.41h-.166a6.016 6.016 0 0 0-.854.109 4.357 4.357 0 0 0-1.06.419 5.727 5.727 0 0 0-.972.663 4.346 4.346 0 0 0-1.745 3.024 6.922 6.922 0 0 0 .563 2.861c.113.313.231.625.359.938a4.077 4.077 0 0 1-.238-.166l-.313-.263a4 4 0 0 0-1.376-1.176 3.734 3.734 0 0 0-1.654-.444h-.028a2.942 2.942 0 0 0-.813.122 8.835 8.835 0 0 0-1.148.172 4.306 4.306 0 0 0-1.032.425 6.507 6.507 0 0 0-.879.625 7.1 7.1 0 0 0-1.251 1.357 7.8 7.8 0 0 0-.938 1.654 72.373 72.373 0 0 0-2.085-3.833c-.382-.644-.826-1.251-1.251-1.876s-.8-1.3-1.176-1.976c-.188-.335-.344-.679-.535-1.01a5.348 5.348 0 0 0-.769-1.01 2.616 2.616 0 0 0-1.876-.782 2.419 2.419 0 0 0-1.185.313 2.923 2.923 0 0 0-1.313 1.81 6.311 6.311 0 0 0-.147 1.876c.028.625.081 1.251.159 1.839.113.86.238 1.707.385 2.561.069.4.153.788.231 1.182.059.313.128.607.2.91a11.092 11.092 0 0 0 .625 1.813 4.293 4.293 0 0 0-.894.053 4.064 4.064 0 0 0-1.857.882 3.569 3.569 0 0 0-.585.563l-.063.044a8.176 8.176 0 0 0-.891.713 5.629 5.629 0 0 0-1.251 1.8 3.774 3.774 0 0 0-.56-.394 3.323 3.323 0 0 0-3.108-.072c-.285-.747-.582-1.495-.875-2.239s-.6-1.516-.9-2.276c-.119-.313-.26-.6-.4-.9-.425-.891-.96-1.91-2.032-2.126a2.327 2.327 0 0 0-1.226-.028l-.585.228a2.356 2.356 0 0 0-.86.832 2.923 2.923 0 0 0-.428 1.788 12.985 12.985 0 0 0 .113 1.341 14.32 14.32 0 0 0 .281 1.623c.244 1.069.553 2.139.875 3.189.1.341.213.675.313 1.013a9.824 9.824 0 0 0-.46.075c-.247.091-.494.191-.738.294-.191.134-.375.278-.56.425a4.948 4.948 0 0 0-.744.885 5.229 5.229 0 0 0-.4.625c-.163.281-.313.575-.457.872a6.116 6.116 0 0 0-.788-.335 2.64 2.64 0 0 0-.35-.072 15.143 15.143 0 0 0-.788-.116 3.891 3.891 0 0 0-.6 0 7.609 7.609 0 0 0-1.451.209c-.181.05-.363.109-.541.175a3.763 3.763 0 0 1-.438-.281 4.758 4.758 0 0 1-.441-.428.052.052 0 0 0-.025-.044c-.022-.085-.044-.169-.059-.253v-.625c.113-.019.222-.044.338-.069a2.576 2.576 0 0 0 1.01-.522 3.779 3.779 0 0 0 1.185-3.039 4.25 4.25 0 0 0-1.326-3.1 3.684 3.684 0 0 0-2.454-.938 3.773 3.773 0 0 0-1.357.25 6.531 6.531 0 0 0-.919.4 6.067 6.067 0 0 0-.857.625 5.42 5.42 0 0 0-1.063 1.288 8.575 8.575 0 0 0-1.007 2.323 11.152 11.152 0 0 0-.275 1.5 8.668 8.668 0 0 0-.091 1.173c0 .344.028.688.059 1.032a15.741 15.741 0 0 0 .25 1.717 7.061 7.061 0 0 0 .294.979 7.988 7.988 0 0 0 .7 1.532 5.354 5.354 0 0 0 1.066 1.3 4.119 4.119 0 0 0 .8.557 5.092 5.092 0 0 0 .938.372 4.548 4.548 0 0 0 2.151.041 7.9 7.9 0 0 0 .481-.122v.209a.25.25 0 0 1-.031.119l-.025.022a4.641 4.641 0 0 0-.444.341 2.5 2.5 0 0 0-1.469.272 2.364 2.364 0 0 0-1.138 2.68 2.319 2.319 0 0 0 .456.916 6.692 6.692 0 0 0 .591.832 4.11 4.11 0 0 0 .772.625 4.631 4.631 0 0 0 .994.5 4.736 4.736 0 0 0 1.657.313 5.639 5.639 0 0 0 1.094-.106 4.633 4.633 0 0 0 .578-.141 8.089 8.089 0 0 0 2.88-1.563 6.268 6.268 0 0 0 .685-.666 7.547 7.547 0 0 0 .979-1.307 5.38 5.38 0 0 0 .313-.654 5.512 5.512 0 0 0 .525.21 6.218 6.218 0 0 0 1.223.209c.2.028.413.034.625.044a7.378 7.378 0 0 0 1.463-.119 5.9 5.9 0 0 0 1.251-.435 5.134 5.134 0 0 0 1.06-.716 4.162 4.162 0 0 0 1.119-1.316 2.3 2.3 0 0 0 .353.038 2.382 2.382 0 0 0 2.07-1.129 2.344 2.344 0 0 0 .366-1.288l.469.372a2.375 2.375 0 0 0 1.151.341 2.251 2.251 0 0 0 1.735-.657 2.629 2.629 0 0 0 .647-1.1l.263.2a2.64 2.64 0 0 0 1.788.516 3.343 3.343 0 0 0 1.407-.353 3.812 3.812 0 0 0 .888-.6 5.769 5.769 0 0 0 .672-.779 4.09 4.09 0 0 0 .409-.81 3.822 3.822 0 0 0 .247-1.1 5.07 5.07 0 0 0 .288-1.513 2.877 2.877 0 0 0 .735.957 2.574 2.574 0 0 0 1.857.75 2.058 2.058 0 0 0 1.041-.256 2.024 2.024 0 0 0 .341-.241l.047.019a2.168 2.168 0 0 0 1.148.028 1.917 1.917 0 0 0 1.151-.575l.094-.106a2.254 2.254 0 0 0 .582-.96 2.859 2.859 0 0 0 .191-.857 6.133 6.133 0 0 0 2.023.234 8.359 8.359 0 0 0 1.6-.222 4.619 4.619 0 0 0 1.563-.685c.284-.206.563-.413.835-.625a5.285 5.285 0 0 0 .866-1.035 5.416 5.416 0 0 0 .313-.5 6.4 6.4 0 0 0 .607-1.476c.034-.128.066-.256.094-.388h.049c.2.038.4.081.6.131a5.346 5.346 0 0 0 .863.144 2.71 2.71 0 0 0 .891-.134 2.861 2.861 0 0 0 1.813 1.773 2.348 2.348 0 0 0 2.946-2.814 6.41 6.41 0 0 0-.832-1.726 44.08 44.08 0 0 1-.732-2.523 5.268 5.268 0 0 0 1.138-.891c.025.088.05.175.081.26a7.518 7.518 0 0 0 .366.875 6.7 6.7 0 0 0 .669.938 3.937 3.937 0 0 0 1.773 1.154 4.281 4.281 0 0 0 .963.178 3.788 3.788 0 0 0 .594.019 6.483 6.483 0 0 0 1.063-.138 6.165 6.165 0 0 0 1.191-.466c.225-.106.444-.228.663-.344a5.666 5.666 0 0 0 .682-.431 4.6 4.6 0 0 0 1.454-1.538q.05-.09.091-.184a3.413 3.413 0 0 0 .381.544 2.136 2.136 0 0 0 .91.55 2.107 2.107 0 0 0 2.054-.5c.113-.141.222-.281.335-.419a2.137 2.137 0 0 0 .313-1.029 1.217 1.217 0 0 0 .025-.5 31.048 31.048 0 0 0-.094-.819 2.011 2.011 0 0 0-.069-.4c0-.084.019-.169.022-.253a3.9 3.9 0 0 0-.081-.938c-.034-.2-.056-.391-.091-.588s-.066-.35-.094-.528c-.034-.232-.069-.463-.1-.7a12.107 12.107 0 0 1-.031-1.814 5.29 5.29 0 0 1 .066-.278c.1.191.2.381.313.578.069.144.134.294.194.444.291.772.566 1.548.885 2.311a6.232 6.232 0 0 0 1.063 1.7 2.815 2.815 0 0 0 .76.578l.547.244c.241.044.485.081.729.109h.122a1.536 1.536 0 0 0 .744-.11 1.6 1.6 0 0 0 .688-.312 1.65 1.65 0 0 0 .572-.459 2.922 2.922 0 0 0 .679-1.138 4.148 4.148 0 0 0 .122-.732 3.164 3.164 0 0 0 .55.263 3 3 0 0 0 3.052-.588 2.933 2.933 0 0 0 .791-1.251 4.621 4.621 0 0 0 .125-.76l.206.475c.185.4.381.8.585 1.2l.259.5c.087.166.144.253.219.378a3.046 3.046 0 0 0 .988 1.029 2.3 2.3 0 0 0 1.773.272 2.453 2.453 0 0 0 1.448-1.063 2.486 2.486 0 0 0 .278-1.9 4.32 4.32 0 0 0-.413-.988c-.16-.363-.313-.722-.485-1.085l-.247-.563.313-.119a7.017 7.017 0 0 0 2.786-2.361 7.4 7.4 0 0 0 .463-.653 6.907 6.907 0 0 0 .491-1.057 3.813 3.813 0 0 0 .222-.829 9.626 9.626 0 0 0 .144-1.154 5.1 5.1 0 0 0-.078-.732zm-29.814 9.13l.16-.047-.019.044v.063l-.191-.031zm1.179 4.309l.022-.119c-.013.056-.016.081-.022.115z" class="cls-1" data-name="Path 5048" transform="translate(-436.306 -542.411)"/>
		<path id="Path_5049" d="M1224.82 1437.617a2.55 2.55 0 0 0-1.129-.247 4.546 4.546 0 0 0-.679.059c-.547.088-1.094.2-1.632.313a18.458 18.458 0 0 0-2.1.666c-1.51.547-3.017 1.11-4.5 1.723a217.571 217.571 0 0 0-4.628 1.932q-2.589 1.116-5.146 2.289c-.713.313-1.413.679-2.12 1.016-.779.375-1.563.738-2.326 1.132-1.464.753-2.949 1.476-4.378 2.282l-5 2.814c-.56.313-1.088.688-1.629 1.029l-3.167 2-1.917 1.213c-.938.6-1.851 1.251-2.77 1.876a2.38 2.38 0 0 0-.8 2.986l-.019.072a2.789 2.789 0 0 0 .369 2.189 3.042 3.042 0 0 0 2.054 1.326 5.393 5.393 0 0 0 .982.059 3.633 3.633 0 0 0 .963-.16 4.522 4.522 0 0 0 1.3-.625 18.908 18.908 0 0 0 1.77-1.473c2.332-1.982 4.812-3.771 7.329-5.512 1.335-.938 2.648-1.895 4.027-2.745.766-.469 1.529-.938 2.317-1.367s1.607-.857 2.42-1.272l.153-.078q2.189-1.032 4.412-2.017c.819-.366 1.657-.688 2.483-1.032s1.61-.7 2.414-1.051c1.526-.663 3.021-1.416 4.525-2.129 1.438-.682 2.917-1.288 4.349-1.985l.879-.425a9.929 9.929 0 0 0 1.495-.794 2.392 2.392 0 0 0 1.038-2.129 2.357 2.357 0 0 0-1.339-1.935z" class="cls-1" data-name="Path 5049" transform="translate(-461.357 -629)"/>
		<path id="Path_5050" d="M1200.291 1130.74a2.6 2.6 0 0 0 .5.253 3.375 3.375 0 0 0 1.31.253 2.307 2.307 0 0 0 2.4-2.411 2.064 2.064 0 0 0-1.645-1.835 2.172 2.172 0 0 0-.566-.028 6.779 6.779 0 0 1-.369-.35c.044-.244.094-.485.138-.725a2.111 2.111 0 0 0-1.673-2.442 1.894 1.894 0 0 0-.372-.034 2.123 2.123 0 0 0-2.07 1.707 12.082 12.082 0 0 0-.247 1.767 4.143 4.143 0 0 0 1.47 2.923 5.711 5.711 0 0 0 1.124.922z" class="cls-1" data-name="Path 5050" transform="translate(-473.066 -413.215)"/>
		<path id="Path_5051" d="M1197.416 1162.525a8.777 8.777 0 0 0 1.06 2.98 22.906 22.906 0 0 0 1.638 2.4q.732.938 1.469 1.876c.51.65 1.044 1.282 1.563 1.926 1.019 1.251 2.057 2.5 3.058 3.79a55.816 55.816 0 0 0 1.617 1.948c.506.591.994 1.2 1.507 1.782a34.191 34.191 0 0 0 3.518 3.411q1.965 1.66 4 3.245c.625.479 1.251.938 1.876 1.395a.8.8 0 0 0 1.116-1.041c-.419-.651-.875-1.388-1.329-2.073-.41-.625-.844-1.219-1.251-1.829a161.576 161.576 0 0 0-3.127-4.424c-.938-1.273-1.9-2.53-2.942-3.733s-2.061-2.5-3.1-3.752q-1.382-1.667-2.755-3.339c-.413-.5-.8-1.019-1.21-1.523s-.735-.922-1.088-1.395a10.672 10.672 0 0 1-.957-1.645 8.531 8.531 0 0 1-.291-1.11 19.695 19.695 0 0 1-.156-1.029 10.771 10.771 0 0 1 .163-1.9c.1-.7.222-1.4.331-2.1.238-1.5.491-3.008.713-4.512a2 2 0 0 0-.553-1.488 2.1 2.1 0 0 0-1.448-.66h-.072a2.092 2.092 0 0 0-1.417.557l-.35.431a2.057 2.057 0 0 0-.313 1.016l-.1.65q-.379 2.273-.81 4.534c-.175.91-.372 1.811-.5 2.727a5.562 5.562 0 0 0-.019 1.27 12.852 12.852 0 0 0 .159 1.615z" class="cls-1" data-name="Path 5051" transform="translate(-472.749 -431.298)"/>
		<path id="Path_5052" d="M1117.282 945.857a1.845 1.845 0 1 0 1.779 1.9 1.876 1.876 0 0 0-1.779-1.9z" class="cls-1" data-name="Path 5052" transform="translate(-416.486 -291.171)"/>
		<path id="Path_5053" d="M1105.808 960.738c-2.686-.966-2.739 6.235 2.317 6.3 7.532.094 6.919-13.082 6.194-17.382 1.763 4.421 8.314 14.871 13.354 7.5 1.094-1.595 1.466-3.242.313-4.959-2.5-3.727-3.783 2.5-2.683 2.232-1.46.35-1.019 1.707-3.255 1.079-2.933-.825-9.433-13.689-9.521-15.84-.156-3.777 4.246-7.132 3.53-11.347-1.326-7.817-10.149-4.478-14.336-.7-4.531 4.09-3.514 6.322 1.316 9.468 5.453 3.555 5 1.094 6.857 7.3 1.413 4.69 2.064 10.534 1.013 15.352l.094-.425c-1.976 8.207-2.823 2.279-5.193 1.422zm4.474-24.42c-2.686-.875-6.316-1.876-8.129-4.243 9.908-9.375 11.272-5.384 8.129 4.243zm-2.7 27.515a.1.1 0 0 1-.1-.053z" class="cls-3" data-name="Path 5053" transform="translate(-405.105 -275.853)"/>
		<path id="Path_5054" d="M991.511 918.385c1.613 7.764 21.575-.272 20.586-7.726-1.191-9.04-21.94.994-20.586 7.726zm9.177-6.544c9.605-6.2 11.15 1.8.691 5.356a4.249 4.249 0 0 0-2.273-4.318zm-2.786 3.474c1.151.488.494 1.5.435 2.107-.1 1.063-3.59-2.97-.432-2.107z" class="cls-3" data-name="Path 5054" transform="translate(-331.308 -264.504)"/>
		<path id="Path_5055" d="M1209.32 834.635c-1.582-7.726-22.825.066-24.354 6.207-3.024 12.113 26.752 5.522 24.354-6.207zm-19.673 7.32c-.4-.172 0-.122.472.1-.16-.028-.319-.055-.473-.1zm2.26-1.279c-1.038 2.264-1.829.938-2.567-.341.56-.365 2.86-.925 2.567.341zm14.464-4.065c-1.914 4.221-8.173 6.766-12.3 7.36 1.813-2.161 1.91-5.362-.785-6.816 1.748-.732 13.917-4.65 13.089-.541z" class="cls-3" data-name="Path 5055" transform="translate(-464.17 -212.507)"/>
		<path id="Path_5056" d="M1228.923 905.172c-2.292.938-19.479 9.205-17.478 12.272.744 1.141 18.854-10.281 22.172-11.447 1.973-.691 11.062-1.92 10.062-4.793-1.161-3.327-13.099 3.283-14.756 3.968z" class="cls-3" data-name="Path 5056" transform="translate(-482.407 -259.84)"/>
		<path id="Path_5057" d="M1246.69 933.984c3.752-3-9.4.356-9.859.51-2.6.866-16.65 4.731-17.335 7.532-.988 4.046 10.387-2.667 11.422-3.08 4.015-1.613 12.498-2.346 15.772-4.962z" class="cls-3" data-name="Path 5057" transform="translate(-488.01 -282.155)"/>
		<path id="Path_5058" d="M1245.922 963.388c2.014-.163 5.284-.35 2.223-2.292-2.583-1.635-12.307.976-14.743 1.3-.879.119-11.05 1.173-6.413 3.277 2.98 1.351 15.997-2.042 18.933-2.285z" class="cls-3" data-name="Path 5058" transform="translate(-492.374 -301.278)"/>
		<path id="Path_5059" d="M1020.749 997.238c1.132-.513 11.256-4.29 5.628-6.01-2.373-.725-12.254 5.356-14.446 6.388-3.045 1.432-9.862 3.277-12 5.81-5.025 5.941 7.417.1 8.3-.313l-.241.116c4.23-2.058 8.482-4.04 12.759-5.991z" class="cls-3" data-name="Path 5059" transform="translate(-336.321 -322.315)"/>
		<path id="Path_5060" d="M1034.456 1021c3.308-2.154 16.331-10.271 12.741-13.039-1-.772-9.893 7.045-10.981 8.255-.587.67-5.216 7.042-1.76 4.784z" class="cls-3" data-name="Path 5060" transform="translate(-359.996 -333.821)"/>
		<path id="Path_5061" d="M1063.453 1028.427c1.157-1.382 11.76-14.464 6.819-12.216-1.023.466-5.988 6.507-6.729 7.948-.196.387-2.835 7.569-.09 4.268z" class="cls-3" data-name="Path 5061" transform="translate(-379.947 -339.348)"/>
		<path id="Path_5062" d="M1192.579 1131.192c-4.6 11.41 1.31 16.781 9.727 24.489 1.714 1.563 10.631 11.256 13.9 10.034 3.671-1.37 3.467-18.226 3.527-21.847.113-7.06.094-13.523-5.866-18.022-2.3-1.736-7.37-2.13-9.114-3.868-1.016-1.013-.1-3.571-1.492-4.718-7.41-6.109-16.422 6.216-8.533 9.583a19.748 19.748 0 0 0-2.149 4.349zm1.807-8.649c-.419-2.767 4.259-7.01 6.516-3.84 2.543 3.578-5.074 8.427-6.516 3.841zm.459 10.209c3.5-9.03 13-9.408 19.9-2.483l-.122-.131c6.566 7.132 2.858 24.545.9 33.071-9.305-6.709-25.639-17.609-20.677-30.457z" class="cls-3" data-name="Path 5062" transform="translate(-468.447 -407.829)"/>
		<path id="Path_5063" d="M1274.578 650.552q.244-1.032.456-2.07c.166 6.973-.044 15.137 4.187 21.124 2.611 3.7 14.236 8.258 9.437 1.876.566.753-4.127-.313-4.812-.713-3.555-2.095-5.25-6.253-6.41-9.984-.378-1.232-1.876-13.276-2.367-13.276-.378-.009-.685 3.872-.491 3.043z" class="cls-3" data-name="Path 5063" transform="translate(-525.87 -86.109)"/>
		<path id="Path_5064" d="M952.406 761.974c-.575 1.007-2.189-.119-2.839.582-1.76 1.876.872 3.752 2.683 3.464 4.709-.769 2.351-6.666 1.341-9.068-1.251-3.03-10.944-16.834-14.58-16.359-.419.032 14.746 17.851 13.395 21.381z" class="cls-3" data-name="Path 5064" transform="translate(-295.261 -150.08)"/>
		<path id="Path_5065" d="M1159.433 1409.011c-3.127-5.853-9.856 1.938-8.939-6.954.754-7.313 3.058.891 2.658.766.406.128 1.851-10.127-3.94-3.358-1.229 1.438-1.667 5.559-.7 7.229 2.232 3.865 6.635.422 8.414 2.789 2.6 3.461-2.1 2.714-2.464 3.583.194-.469-5.269 2.5.313 2.892a4.861 4.861 0 0 0 4.658-6.947zm-4.768 4.28zm0 0a.036.036 0 0 1 .022 0z" class="cls-3" data-name="Path 5065" transform="translate(-438.9 -601.358)"/>
		<path id="Path_5066" d="M1193.51 1426.26c-1.829-.084-1.807 2-4.065.854-1.745-.888 2.552-2.9 1.785-3.274-1.7-.822-4.428-.313-3.752 3 1.451 7.13 7.974-.483 6.032-.58z" class="cls-3" data-name="Path 5066" transform="translate(-465.973 -619.463)"/>
		<path id="Path_5067" d="M1205.734 1400.729c6.225 5.516-1.592-12.357-3.7-4.065-5.91-17.76-4.424.538-.482 4.721 4.559 4.837 1.182-.516 2.5-4.337l.675 1.663c-.034-.091-.069-.181-.1-.272a5.492 5.492 0 0 0 1.107 2.29zm1.51-1.62a.109.109 0 0 1-.069-.1z" class="cls-3" data-name="Path 5067" transform="translate(-473.341 -595.787)"/>
		<path id="Path_5068" d="M1231.6 1402.675c1.469 3.833 5.869 4.746 6.4-.575.607-5.953-9.227-6.757-6.4.575zm2.783-3.171l.063.031-.066-.031a.224.224 0 0 1-.075-.031.193.193 0 0 0 .081.027zm-1.1.313c4.481-4.415-.619 10.812 0 .013z" class="cls-3" data-name="Path 5068" transform="translate(-496.021 -601.532)"/>
		<path id="Path_5069" d="M1250.542 1371.815c1.416 3.327 5.45 11.275 4.065 4.065-1.667-8.555-11.585-21.696-4.065-4.065z" class="cls-3" data-name="Path 5069" transform="translate(-507.478 -577.945)"/>
		<path id="Path_5070" d="M1272.1 1387.174c3.089 3.127 6.01-.494 7.348-2.292 2.417-3.252 3.008-.313-.725-2.667-3.076-1.948-11.675-.172-6.623 4.959zm2.92-1.757l.141-.053a.744.744 0 0 1-.137.053zm-.585-1.147a2.756 2.756 0 0 1 .685-1.379c2.203 1.541-.937 3.536-.68 1.379z" class="cls-3" data-name="Path 5070" transform="translate(-523.14 -590.562)"/>
		<path id="Path_5071" d="M1308.969 1368.047c4.64 8.13 2.814-14.558-.563-5.566-2.173-3.761-.178 4.281.563 5.566z" class="cls-3" data-name="Path 5071" transform="translate(-548.485 -576.052)"/>
		<path id="Path_5072" d="M1329.8 1354.469c1.476 2.057 3.249.553 5.159 1.076-.116.338-4.168 2.639-3.439 2.755.829.131 3.539.875 4.259-1.022 2.057-5.415-2.092-1.632-4.065-3.752-.2.625 5.115-4.871 1.923-3.946-1.783.505-5.016 2.478-3.837 4.889zm5.178 1.019l-.028-.022zm0 .034a.066.066 0 0 1-.038-.019zm-3.28-1.985l.056.078c-.059-.022-.078-.047-.069-.078z" class="cls-3" data-name="Path 5072" transform="translate(-563.694 -568.587)"/>
		<path id="Path_5073" d="M1344.648 1330.139c.253.625 1.923 7.192 3.23 6.8 1.792-.528.041-2.123.844-2.473.313-.144-.125-3.158.76-3.649 1.563-.875 1.4.688 2.123.41-1.25.478 7.536 3.865 1.876-1.413-2.373-2.208-5.578-2.63-6.5 1.545-3.352-8.296-8.293-15.807-2.333-1.22z" class="cls-3" data-name="Path 5073" transform="translate(-572.155 -549.616)"/>
		<path id="Path_5074" d="M1386.793 1336.038c2.1 8.7 3.258 1.76 2.961 1.532.635.488-4.054-6.034-2.961-1.532z" class="cls-3" data-name="Path 5074" transform="translate(-602.925 -558.258)"/>
		<path id="Path_5075" d="M1384.456 1326.6q2.051-.9.094-2-2.05.9-.094 2z" class="cls-3" data-name="Path 5075" transform="translate(-600.778 -551.491)"/>
		<path id="Path_5076" d="M1404.265 1325.285c.147.444 1.269 6.253 3.264 4.915 1.445-.973-.96-6.1-.963-7.192 0-1.9-1-4.043.991-4.956.769-.353 1.807.625 1.742 1.376-.072.854-2.555 4.528-2.3 4.906 1.61 2.454 6.488-4.377 3.483-7.379-2.673-2.664-4.506-.766-6.316 1.545-1.777 2.267-1.28 2.742.099 6.785z" class="cls-3" data-name="Path 5076" transform="translate(-614.193 -545.344)"/>
		<path id="Path_5077" d="M862.438 802.313c-.053-32.265-13.7-59.408-30.464-86.4-10.972-17.65-23.213-31.893-27.731-52.62-4.449-20.427-14.364-39.344-25.52-56.926v.019c-4.718-7.5-9.483-15.008-13.1-23.138-1.144-2.57-5.891-24.095-8.261-24.176-7.317-.26-9.449 41.442-9.3 47.142-15.243-1.613-33.312 6.5-47.43 11.747-6.726 2.5-12.957 5.709-19.414 8.755-5.781 2.736-3.771 2.786-8.789-2.2l.066.066a94.152 94.152 0 0 0-26.784-19.032c-2.239-1.035-6.447-3.883-9.152-3.439-8.311 1.329 2.745 10.984 5.315 15.559 7.4 13.157 7.895 27.153 8.539 41.851a6.92 6.92 0 0 1 .2-1.007c-.938 24.407 5.772 54.856 26 70.464a37.444 37.444 0 0 0 8.442 4.962c5.222 2.226 5.19-.553 4.865 6.21-.185 3.8-1.842 6.685-4.093 9.574-9.277 11.913-27.844 17.51-42.13 18.76-22.722 1.782-58.7-4.731-68.735-28.669-2.836-6.763-3.3-14.383-6.075-21.262-2.189-5.375-5.675-9.38-8.914-14.1-3.468-5.059-11.785-22.481-20.224-19.483-5.422 1.926-3.03 7.21-3.167 11.091-.15 4.159-1.923 5.716-3.252 9.508-.838 2.383-.963 4.177-2.01 5.437-3.158 3.8-8.589 3.943-8.811 10.7-.072 2.189 1.492 4.046 1.163 5.891-.507 2.858-3.649 4.362-3.324 8.17a11.467 11.467 0 0 0 3.108 6.369c1.876 1.9 6.372 1.81 7.354 2.883 1.451 1.582 1.876 7.348 3.346 9.577a25.013 25.013 0 0 0 7.445 7.248c2.63 1.679 5.713 2.214 8.408 3.552 4.421 2.189 2.092.472 5.96 4.334 4.621 4.615 8.7 9.805 13.5 14.314 10.387 9.743 21.443 18.407 34.369 24.514 16.418 7.757 33.906 10.187 51.829 11.781 9.533.847 18.942 1.895 28.141 4.69 1.8.55 9.021 4.152 10.152 2.32 1.388-2.248-3.53-3.658-4.853-4.327-17.56-8.889-39.187-6.253-58.02-9.63a113.006 113.006 0 0 1-42.67-16.792c-13.088-8.7-23.554-19.548-33.684-31.3-.8-.938-.735-1.642-2.236-2.767-2.189-1.642-6.2-1.939-8.7-3.615-5.2-3.493-11.741-11.682-9.327-18.47.707-1.995-.519-3.046 1.7-2.189s3.192 8.111 6.929 9.693c7.032 2.958 13.5-4.212 15.387-10.55 1.535-5.153-5.281-23.225-12.873-18.835-3.358 1.942-.838 8.9-7.16 2.7-4.021-3.943-5.294-12.194-2.4-16.906.55 6.666 5.084 6.547 9.821 8.273 1.313.478 1.973 3.921 3.812 3.311 1.729-.575-.919-2.917-.744-3.393.972-2.636 2.48-6.626 1.276-10.44-.8-2.545-6.719-10.406-10.459-7.979-1.144-5.172-.125-5.913 4.252-4.518 3.69 1.176 9.827 11.656 12.276 14.761 4.5 5.7 8.577 11.716 10.775 18.71a54.948 54.948 0 0 1 2.2 17.3c-.047 2.12-1.373 5.916-.885 7.87 1.8 7.192 3.965-4.065 4.015-7.542 20.521 39.278 85.4 42.574 115.233 13.951a7.293 7.293 0 0 1-1.126.428 36.849 36.849 0 0 0 6.954-10.318c.6-1.5.66-6.941 1.642-7.929 1.479-1.492 6.535-.541 8.971-1.9 9.405-5.259-3.577-1.839-7.648-1.951-9.934-.269-18.911-6.982-24.958-14.342-12.82-15.593-16.093-36.42-17.272-55.891-.507-8.383-.788-16.634-1.717-25.014-1.4-12.651-7.611-22.553-15.371-32.3a59.043 59.043 0 0 1 14.808 6.128l-.1-.062a79.2 79.2 0 0 1 12.557 8.911c3.483 3.055 8.47 11.547 13.342 11.663 3.4.081 9.837-5.562 12.6-6.9 7.192-3.48 15.083-5.547 22.7-7.882 9.268-2.839 20.9-7.251 30.642-6.7 1.391.078 2.767-.528 4.187-.331.747.106.222 2.3.735 2.2 2.014-.369 1.138.938 2.314-1.52 2.332-4.893.156-16.628.919-22.459 1.022-7.792 3.167-15.349 5.178-22.932 4.146 28.666 27.787 50.747 37.834 77.331 4.925 13.013 7.41 25.952 4.546 39.753-.669 3.211-7.973 20.4-.938 13.6 3.4-3.3 5.415-13.686 5.975-18.232 8.3 21.393 26.024 37.652 35.589 58.361 7.342 15.9 15.965 32.809 17.563 50.456 3.055 33.719-14.155 72.187-44.128 88.434-2.692 1.466-7.435 1.81-9.33 3.924-3.221 3.6-2.786 10.678-6.272 14.965-4.065 5-7.11 5.888-12.691 7.042-2.326.482-2.326-.028-4.377.913-.682.313-1.363 1.623-2.045 2.045-4.04 2.5-10.512 5.294-14.236.741-1.795-2.189.431-3.88-2.5-6.116-2.286-1.739-6.723 2.1-9.24-2.5-1.638-3 2.123-5.425.963-7.651-1.7-3.267-8.055.081-9.959-4.262-4.18-9.537 9.483-5.281 11.484-6.682 2.464-1.726 3.058-10.493 6.041-13.617 5.769-6.044 11.137-3.668 18.076-5.628a17.63 17.63 0 0 0 4.465-1.979 52.574 52.574 0 0 0 17.7-17.51 76.788 76.788 0 0 0 8.855-20.808 61.185 61.185 0 0 0 1.77-16.528l-.16.8a87.36 87.36 0 0 0-6.307-31.505c-3.962-9.721-10.181-10.712-4.6 1.7-31.708 11.728-61.728 28.059-91.835 43.3-3.155 1.595-9.49 2.927-9.815 6.691-.369 4.284 6.394 13.236 8.423 17.178 6.2 12.063 13.029 23.838 18.832 36.1 3.083 6.519 5.572 13.583 9.38 19.714 4.012 6.441 5.4 5.262 11.772 5.794 2.529.213 8.411-.122 11.147 2.326 1.82 1.629 1.7 4.834 4.743 6.675 5.384 3.264 11.9.813 16.791-2.073 4.562-2.692 3.815-1.914 8.952-3.418a26.154 26.154 0 0 0 13.759-10.098c2.845-3.974 3.274-9.8 6.444-12.688s10.631-4.734 14.383-7.191a67.75 67.75 0 0 0 10.865-8.555c7.351-7.367 13.179-17.41 17.069-26.974 4.647-11.459 10.468-24.697 10.468-37.079zm-291.671-19.489l-.047-.044zm-42.1-40.526c-3.958-.729-8.442-11.231-2.992-12.3.489.881 11.025 13.122 2.99 12.302zm5.963-7.632c-5.553.341-13.214-15.343-5.806-18.288 5.647-2.239 13.257 16.884 5.8 18.288zm6.719-6.879a6.226 6.226 0 0 0 7.429-3.852 23.075 23.075 0 0 1 2.642 1.829l-.109-.091c6.013 4.981 3.38 20.355-5.628 19.286-9.8-1.147-4.659-17.25-4.34-17.156zm2.814-17.569c-9.562-1.36-4.2-18.348 2.4-9.343l-.194-.272c2.148 3.011 3.5 10.446-2.207 9.63zM746.6 898.066c-8.968 2.814-16.728-24.126-20.011-30.977-5.691-11.9-12.138-23.391-18.135-35.123-.976-1.9-5.193-8.148-4.734-10.128s13.658-6.91 15.784-8c8.442-4.315 16.8-8.711 25.327-12.82 14.927-7.22 29.895-14.464 45.2-20.868 2.5-1.047 6.469-3.474 9.183-3.583q3.661-3.077 4.012 1.323a54.491 54.491 0 0 1 2.351 8.173c1.876 7.845 3.008 16.459 2.189 24.529-1.2 11.913-8.054 25.542-15.915 34.613-4.04 4.668-9.118 8.423-15.036 9.5-5.275.96-9.243.063-14.18 3.239a24.889 24.889 0 0 0-10.862 16.1c-10.668-5.647-18.973 14.739-3.924 17.272-.937 2.507 1.073 5.765-1.249 6.75z" class="cls-3" data-name="Path 5077" transform="translate(-7.493 -25.326)"/>
	</g>
</svg>
