<svg xmlns="http://www.w3.org/2000/svg" viewBox="0 0 36 36">
	<defs>
		<style>.cls-1{fill:currentColor;}</style>
	</defs>
	<g id="Layer_4" data-name="Layer 4">
		<path class="cls-1" d="M34.6,11A18,18,0,1,0,25,34.59,18,18,0,0,0,34.6,11ZM16.93,27.73a6.11,6.11,0,0,1-8.64-8.64l4.32-4.32a6.11,6.11,0,0,1,8.64,0A5.85,5.85,0,0,1,22.18,16l-2,2a.85.85,0,0,1-.25.17l-.07,0a3.08,3.08,0,0,0-.79-1.32,3,3,0,0,0-4.29,0l-4.32,4.32a3.05,3.05,0,0,0,4.32,4.32L16.31,24a7.32,7.32,0,0,0,2.74.51,9,9,0,0,0,1.16-.08Zm10.81-10.8-4.33,4.32A6.08,6.08,0,0,1,13.84,20l2-2a1,1,0,0,1,.27-.19h0l.06,0h0a2.89,2.89,0,0,0,.75,1.3,3.06,3.06,0,0,0,4.32,0l4.32-4.32a3.06,3.06,0,0,0-4.32-4.33L19.71,12a7.59,7.59,0,0,0-3.9-.42l3.28-3.28.06,0a6.11,6.11,0,0,1,8.59,8.7Z"/>
	</g>
</svg>
