<svg xmlns="http://www.w3.org/2000/svg" width="34.46" height="32.958" viewBox="0 0 34.46 32.958">
	<g id="Star_unfilled" data-name="Star unfilled" transform="translate(1 -9.99)">
		<path class="st0" id="Path_4340" data-name="Path 4340" d="M32.46,22.987q0-.722-1.093-.9l-9.792-1.424L17.186,11.79q-.37-.8-.956-.8t-.956.8l-4.389,8.876L1.092,22.089Q0,22.265,0,22.987a1.486,1.486,0,0,0,.488.936l7.1,6.906L5.911,40.582a3.168,3.168,0,0,0-.039.39,1.15,1.15,0,0,0,.2.693.708.708,0,0,0,.614.283,1.655,1.655,0,0,0,.78-.234l8.759-4.6,8.759,4.6a1.578,1.578,0,0,0,.78.234q.8,0,.8-.975a2.955,2.955,0,0,0-.02-.391l-1.677-9.753,7.081-6.906A1.413,1.413,0,0,0,32.46,22.987Z" transform="translate(0 0)" stroke="var(--colorBorder, #000)" fill="currentColor" stroke-linejoin="round" stroke-width="2"/>
	</g>
</svg>

