<svg xmlns="http://www.w3.org/2000/svg"
	xmlns:xlink="http://www.w3.org/1999/xlink" style="" version="1.1" xml:space="preserve" width="29.85440616162753" height="29.85440616162755">
	<rect id="backgroundrect" width="100%" height="100%" x="0" y="0" fill="none" stroke="none" class="" style=""/>
	<g class="currentLayer" style="">
		<g id="Layer_1"/>
		<g id="icons" class="">
			<g id="telegram">
				<path class="st0" d="M20.30812398776584,10.724021863642792 L11.901760715098908,18.160420143309693 c-0.1077738881111145,0.1077738881111145 -0.1077738881111145,0.215547776222229 -0.1077738881111145,0.32332166433334353 l-0.32332166433334353,2.9098949790000916 c0,0.1077738881111145 -0.1077738881111145,0.1077738881111145 -0.215547776222229,0 l-1.293286657333374,-4.31095552444458 c-0.1077738881111145,-0.215547776222229 0,-0.431095552444458 0.215547776222229,-0.5388694405555725 l9.807423818111419,-6.143111622333527 C20.30812398776584,10.292926311198334 20.523671763988066,10.616247975531678 20.30812398776584,10.724021863642792 z" id="svg_1"/>
				<path class="st0" d="M14.919429582210114,0.05440694064245699 c-4.0954077482223505,0 -7.867493832111358,1.6166083216667175 -10.561841034889222,4.31095552444458 c-2.6943472027778625,2.6943472027778625 -4.418729412555694,6.46643328666687 -4.418729412555694,10.561841034889222 c0,4.0954077482223505 1.6166083216667175,7.867493832111358 4.418729412555694,10.561841034889222 c2.6943472027778625,2.6943472027778625 6.46643328666687,4.31095552444458 10.561841034889222,4.31095552444458 c4.0954077482223505,0 7.867493832111358,-1.6166083216667175 10.561841034889222,-4.31095552444458 c2.6943472027778625,-2.6943472027778625 4.418729412555694,-6.46643328666687 4.418729412555694,-10.561841034889222 C29.792226141543914,6.736388003531557 23.110245078654817,0.05440694064245699 14.919429582210114,0.05440694064245699 zM23.7568884073215,8.568544101420501 l-3.017668867111206,14.657248783111571 c-0.1077738881111145,0.6466433286666871 -0.9699649930000306,0.9699649930000306 -1.508834433555603,0.5388694405555725 l-4.634277188777923,-3.448764419555664 l-2.371025538444519,2.371025538444519 c-0.431095552444458,0.431095552444458 -1.077738881111145,0.215547776222229 -1.293286657333374,-0.32332166433334353 l-1.724382209777832,-5.388694405555725 l-4.52650330066681,-1.4010605454444887 c-0.6466433286666871,-0.215547776222229 -0.6466433286666871,-0.9699649930000306 0,-1.1855127692222596 l17.99823931455612,-7.005302727222443 C23.21801896676593,7.27525744408713 23.97243618354373,7.814126884642702 23.7568884073215,8.568544101420501 z" id="svg_2"/>
			</g>
		</g>
	</g>
</svg> 
