<?xml version="1.0" ?>
<svg style="enable-background:new 0 0 32 32;" version="1.1" viewBox="0 0 32 32" xml:space="preserve"
	xmlns="http://www.w3.org/2000/svg"
	xmlns:xlink="http://www.w3.org/1999/xlink">
	<style type="text/css">
	.st0{fill:#222A30;}
	.st1{fill:none;stroke:#222A30;stroke-width:1.8761;stroke-linejoin:round;stroke-miterlimit:10;}
	.st2{fill:#171715;}
	.st3{fill-rule:evenodd;clip-rule:evenodd;fill:#222A30;}
	</style>
	<g id="Layer_1"/>
	<g id="icons">
		<path class="st0" d="M16.5,2C8.8,1.7,2.3,7.7,2,15.5C1.7,23.2,7.7,29.7,15.5,30c7.7,0.3,14.2-5.7,14.5-13.5   C30.3,8.8,24.3,2.3,16.5,2z M25.3,11.8c-0.5,0.6-1,1.2-1.6,1.7c-0.2,0.1-0.3,0.3-0.3,0.5l0,0.1c0,1.3-0.4,2.6-0.9,3.8   c-0.5,1.3-1.3,2.4-2.2,3.4c-1,1.1-2.2,1.9-3.5,2.4c-1.4,0.6-3,0.9-4.7,0.8c-1.9-0.1-3.8-0.6-5.4-1.7c-0.1-0.1-0.2-0.2-0.1-0.4   c0-0.1,0.2-0.2,0.3-0.2l0.5,0c1.5,0.1,2.9-0.3,4.1-1.1c-0.7-0.1-1.4-0.5-1.9-1c-0.5-0.5-0.9-1.1-1.1-1.8c0-0.1,0.1-0.3,0.2-0.3l0,0   c0.2,0.1,0.4,0.1,0.7,0.1l0.1,0c-1.4-0.7-2.2-2.1-2.2-3.7l0,0c0-0.1,0.1-0.2,0.2-0.2c0,0,0.1,0,0.1,0c0.3,0.2,0.6,0.3,0.9,0.4   c-0.7-0.8-1.1-1.8-1.1-2.8c0-0.7,0.2-1.4,0.6-2c0-0.1,0.1-0.1,0.2-0.1c0.1,0,0.1,0,0.2,0.1c1.7,2.3,4.2,3.7,6.9,4.1c0,0,0,0,0,0   c0,0,0.1,0,0.1,0c0,0,0-0.1,0-0.1c0-0.5,0-1,0.1-1.5C16,11,17,10,18.3,9.6c0.4-0.1,0.8-0.2,1.2-0.1c1,0,1.9,0.4,2.6,1.1   c0.1,0.1,0.2,0.1,0.3,0.1c0,0,0.1,0,0.1,0c0.7-0.1,1.3-0.4,2-0.7c0.1-0.1,0.3,0,0.3,0.2c0,0,0,0,0,0.1c-0.2,0.6-0.6,1.2-1.1,1.6   c0.4-0.1,0.9-0.2,1.3-0.4c0.2-0.1,0.3,0.1,0.3,0.2C25.3,11.7,25.3,11.7,25.3,11.8z" id="twitter"/>
	</g>
</svg>
