<svg xmlns="http://www.w3.org/2000/svg"
	xmlns:xlink="http://www.w3.org/1999/xlink" style="" version="1.1" xml:space="preserve" width="30.040816326530603" height="30">
	<rect id="backgroundrect" width="100%" height="100%" x="0" y="0" fill="none" stroke="none" class="" style=""/>
	<g class="currentLayer" style="">
		<g id="Layer_1"/>
		<g id="icons" class="">
			<path class="st0" d="M15.594726008451744,0.12317023900823187 C7.378796392954156,-0.19693091484232328 0.44327139285878703,6.205092162168786 0.12317023900823187,14.527722162283226 C-0.19693091484232328,22.743651777780816 6.205092162168786,29.679176777876183 14.527722162283226,29.999277931726738 c8.21592961549759,0.3201011538505555 15.151454615592955,-6.081921923160553 15.471555769443512,-14.404551923274994 C30.319379085577296,7.378796392954156 23.917356008566184,0.44327139285878703 15.594726008451744,0.12317023900823187 zM24.984359854734702,10.57980793145971 c-0.533501923084259,0.640202307701111 -1.067003846168518,1.2804046154022217 -1.707206153869629,1.813906538486481 c-0.21340076923370363,0.10670038461685181 -0.3201011538505555,0.3201011538505555 -0.3201011538505555,0.533501923084259 l0,0.10670038461685181 c0,1.3871050000190734 -0.42680153846740726,2.774210000038147 -0.9603034615516662,4.054614615440369 c-0.533501923084259,1.3871050000190734 -1.3871050000190734,2.5608092308044434 -2.34740846157074,3.6278130769729615 c-1.067003846168518,1.17370423078537 -2.34740846157074,2.0273073077201844 -3.7345134615898132,2.5608092308044434 c-1.4938053846359252,0.640202307701111 -3.201011538505554,0.9603034615516662 -5.014918076992035,0.8536030769348145 c-2.0273073077201844,-0.10670038461685181 -4.054614615440369,-0.640202307701111 -5.761820769309998,-1.813906538486481 c-0.10670038461685181,-0.10670038461685181 -0.21340076923370363,-0.21340076923370363 -0.10670038461685181,-0.42680153846740726 c0,-0.10670038461685181 0.21340076923370363,-0.21340076923370363 0.3201011538505555,-0.21340076923370363 l0.533501923084259,0 c1.600505769252777,0.10670038461685181 3.0943111538887025,-0.3201011538505555 4.3747157692909235,-1.17370423078537 c-0.7469026923179627,-0.10670038461685181 -1.4938053846359252,-0.533501923084259 -2.0273073077201844,-1.067003846168518 c-0.533501923084259,-0.533501923084259 -0.9603034615516662,-1.17370423078537 -1.17370423078537,-1.9206069231033325 c0,-0.10670038461685181 0.10670038461685181,-0.3201011538505555 0.21340076923370363,-0.3201011538505555 l0,0 c0.21340076923370363,0.10670038461685181 0.42680153846740726,0.10670038461685181 0.7469026923179627,0.10670038461685181 l0.10670038461685181,0 c-1.4938053846359252,-0.7469026923179627 -2.34740846157074,-2.240708076953888 -2.34740846157074,-3.947914230823517 l0,0 c0,-0.10670038461685181 0.10670038461685181,-0.21340076923370363 0.21340076923370363,-0.21340076923370363 c0,0 0.10670038461685181,0 0.10670038461685181,0 c0.3201011538505555,0.21340076923370363 0.640202307701111,0.3201011538505555 0.9603034615516662,0.42680153846740726 c-0.7469026923179627,-0.8536030769348145 -1.17370423078537,-1.9206069231033325 -1.17370423078537,-2.9876107692718503 c0,-0.7469026923179627 0.21340076923370363,-1.4938053846359252 0.640202307701111,-2.134007692337036 c0,-0.10670038461685181 0.10670038461685181,-0.10670038461685181 0.21340076923370363,-0.10670038461685181 c0.10670038461685181,0 0.10670038461685181,0 0.21340076923370363,0.10670038461685181 c1.813906538486481,2.4541088461875913 4.481416153907776,3.947914230823517 7.362326538562775,4.3747157692909235 c0,0 0,0 0,0 c0,0 0.10670038461685181,0 0.10670038461685181,0 c0,0 0,-0.10670038461685181 0,-0.10670038461685181 c0,-0.533501923084259 0,-1.067003846168518 0.10670038461685181,-1.600505769252777 C15.061224085367485,9.726204854524894 16.128227931536003,8.659201008356376 17.515332931555076,8.23239946988897 c0.42680153846740726,-0.10670038461685181 0.8536030769348145,-0.21340076923370363 1.2804046154022217,-0.10670038461685181 c1.067003846168518,0 2.0273073077201844,0.42680153846740726 2.774210000038147,1.17370423078537 c0.10670038461685181,0.10670038461685181 0.21340076923370363,0.10670038461685181 0.3201011538505555,0.10670038461685181 c0,0 0.10670038461685181,0 0.10670038461685181,0 c0.7469026923179627,-0.10670038461685181 1.3871050000190734,-0.42680153846740726 2.134007692337036,-0.7469026923179627 c0.10670038461685181,-0.10670038461685181 0.3201011538505555,0 0.3201011538505555,0.21340076923370363 c0,0 0,0 0,0.10670038461685181 c-0.21340076923370363,0.640202307701111 -0.640202307701111,1.2804046154022217 -1.17370423078537,1.707206153869629 c0.42680153846740726,-0.10670038461685181 0.9603034615516662,-0.21340076923370363 1.3871050000190734,-0.42680153846740726 c0.21340076923370363,-0.10670038461685181 0.3201011538505555,0.10670038461685181 0.3201011538505555,0.21340076923370363 C24.984359854734702,10.473107546842856 24.984359854734702,10.473107546842856 24.984359854734702,10.57980793145971 z" id="twitter"/>
		</g>
	</g>
</svg>

