<?xml version="1.0" ?><svg style="enable-background:new 0 0 32 32;" version="1.1" viewBox="0 0 32 32" xml:space="preserve" xmlns="http://www.w3.org/2000/svg" xmlns:xlink="http://www.w3.org/1999/xlink"><style type="text/css">
	.st0{fill:#222A30;}
	.st1{fill:none;stroke:#222A30;stroke-width:1.8761;stroke-linejoin:round;stroke-miterlimit:10;}
	.st2{fill:#171715;}
	.st3{fill-rule:evenodd;clip-rule:evenodd;fill:#222A30;}
</style><g id="Layer_1"/><g id="icons"><path class="st0" d="M16,2L16,2c-3.9,0-7.4,1.6-9.9,4.1C3.6,8.6,2,12.1,2,16c0,7.7,6.3,14,14,14h0c3.9,0,7.4-1.6,9.9-4.1   c2.5-2.5,4.1-6,4.1-9.9C30,8.3,23.7,2,16,2z M24.7,21.4c-0.4,0.1-2.6,0-2.7,0c-0.6,0-1.1-0.2-1.5-0.6c-0.5-0.4-0.9-0.9-1.3-1.4   c-0.1-0.1-0.3-0.3-0.4-0.4c-0.4-0.3-0.7-0.2-0.9,0.2c-0.1,0.4-0.3,1.3-0.3,1.4c0,0.4-0.3,0.7-0.8,0.7c-1.4,0.1-2.7-0.1-3.9-0.7   c-1-0.6-1.9-1.3-2.6-2.3c-1.1-1.5-2-3.1-2.9-4.7c0-0.1-0.9-1.9-0.9-2c-0.1-0.3,0-0.5,0.2-0.6C7,11,9.7,11,9.8,11   c0.4,0,0.7,0.2,0.9,0.7c0.5,1.3,1.2,2.5,2.1,3.6c0.1,0.1,0.3,0.3,0.4,0.4c0.2,0.1,0.4,0.1,0.5-0.2c0.1-0.3,0.2-0.8,0.2-1.1   c0-0.7,0-1.2,0-2c0-0.5-0.2-0.9-0.9-1c-0.2,0-0.2-0.2-0.1-0.4c0.3-0.4,0.7-0.4,1.1-0.4c0.7,0,1.4,0,2.1,0c0.3,0,0.6,0,0.9,0.1   c0.4,0.1,0.6,0.3,0.6,0.7c0,0.2,0,0.4,0,0.6c0,0.8-0.1,1.6-0.1,2.4c0,0.3,0,0.6,0.1,1c0.1,0.4,0.4,0.5,0.7,0.2   c0.4-0.4,0.7-0.8,1-1.3c0.6-0.8,1-1.7,1.4-2.7c0.2-0.5,0.3-0.6,0.9-0.6c1,0,1.9,0,2.9,0c0.2,0,0.3,0,0.5,0.1   c0.3,0.1,0.4,0.3,0.3,0.6c-0.1,0.6-0.5,1.2-0.9,1.7c-0.6,0.8-1.2,1.7-1.8,2.5c-0.1,0.1-0.1,0.2-0.2,0.3c-0.2,0.4-0.2,0.6,0.1,1   c0.5,0.5,1.1,1.1,1.6,1.6c0.4,0.4,0.7,0.8,1,1.3C25.6,20.7,25.4,21.3,24.7,21.4z" id="vk"/></g></svg>