<?xml version="1.0" encoding="utf-8"?>
<!-- Generator: Adobe Illustrator 23.0.4, SVG Export Plug-In . SVG Version: 6.00 Build 0)  -->
<svg version="1.1" id="Layer_1"
	xmlns="http://www.w3.org/2000/svg"
	xmlns:xlink="http://www.w3.org/1999/xlink" x="0px" y="0px" viewBox="0 0 2000 1760" style="enable-background:new 0 0 2000 1760;" xml:space="preserve">
	<g id="back">
		<path class="st0" d="M1298.8,13.1c-65.1,0-132.1,27.1-181.1,69.4c-53.4,46.1-74.8,108.1-100.3,171.6
		c-18,44.9-69.9,142.4-130.8,91.7c-38.9-32.4-28.1-119.7-99.3-109.2c-42.7,6.3-83.3,39.9-115.5,66.3c-21.6,17.7-42.9,27.2-67.8,8.8
		c-16.8-12.3-25-31.6-34-49.6c-10.9-21.8-24.2-33.9-48.2-38.6c-29.7-5.7-60.1,4.4-86,18.4c-43.2,23.5-81.6,57.9-108.9,98.8
		c-41.4,62.2-37.3,128.6-30.7,200.2c4.8,52.8,11,104.7-9.3,155.1l0.4-0.6c-15.5,33.7-36.7,74-76.9,81.1
		c-50.1,8.9-101.7-13.5-147.5,18.2c-43,29.9-61.8,87.7-54.5,137.3s34.4,86.3,73.9,115.7c40.3,29.9,138.2,55.2,138.3,138.1
		c0,17.8-3.7,34.5-8.6,51.5c-8.6,29.8-11.5,66.7,7.3,93.6c31.3,44.7,85.8,10.8,122.8-18.6c14.5-11.5,35.5,2.2,30.7,20.1l-0.1,0.4
		c-4.6,16.7-18.6,27.2-30.5,38.9c-22.7,22.3-45.7,45.2-66.6,69.2c-46.4,53-58,122.2-33.6,188c25,67.4,97.4,122.2,171.2,114.1
		c85-9.4,121.3-96.2,135.4-169.9c3.1-16,3.4-32.9,7-48.7c2.7-11.8,8-23.6,11.9-35c14.1-41.4,33.1-80.9,56.6-117.8
		c22-35,51.9-70.2,91.2-86c36.9-14.8,79.3-11.3,116.3,1.7c49.6,17.3,92.6,52.3,137,79.3c53.3,32.4,150,51.8,181.7-20.7
		c13.4-30.5,11.2-72,36.3-96.4c28.8-27.9,75.1-28.9,112.6-27.8c70.2,2,126.6,27.9,184,65.2c34.8,22.6,70.5,42.4,113.1,42.5
		c41,0,81.3-10.3,117.2-30.1c35.3-19.7,65.6-52.9,75.4-92.8c9.8-39.9-1.6-84.5-18.2-121.1c-13.8-30.3-38.2-62-31.5-97
		c7.9-41,52.1-54.6,87.6-63.3c32.8-8,65.3-14,94.1-32.8c35.1-23,58.1-56.3,64.5-98c6-39.4-4.2-83.8-30-114.8
		c-25.6-30.8-63.1-40.8-101.8-40.8c-35.7,0-70.2,7.6-105.1,13.5c-37.8,6.4-80.5,9.5-110.5-18.7c-27.2-25.6-31.6-67.4-62.3-89.8
		c-34.3-25.1-69.5-6-104.5,5.4c-38.1,12.4-81.1-5.7-90.5-47.7c-8.1-36.3,10.8-74.9,29-105.2c29.3-48.7,72.5-93.1,92-146.9
		c30.1-82.9-6.7-169.9-84.9-208.8C1381.4,22.8,1338.4,13.1,1298.8,13.1z"/>
	</g>
	<g id="white_back">
		<g id="cats">
			<path class="st1" d="M1596,960c1.2,0.2,2.4,0.4,3.6,0.6C1598.4,960.4,1597.2,960.2,1596,960z"/>
			<path class="st1" d="M1708,1023.1c-9.8-38.9-59.4-54-93.7-59.9c0.4,0,0.7,0.1,1.1,0.2c-30.2-5.5-61.2-9.3-92-9
			c-6.4-185.4-141.3-379.6-304.6-464.2l0.3,0.2c-29.3-15.5-88.2-36.5-75.2,21.6c8,35.6,30,68.7,37.1,104
			c-24.4,20.5-48.1,41.6-72.1,62.6c-25.2,22-34.4,15.1-67.4,8.7c-21.8-4.2-51.1-14.1-73.4-13.7c-28.3,0.5-30.1,25.4-18.6,45.8
			c-21.1-0.8-32.2,39.9-38.4,54.8c0.5-1.1,0.9-2.2,1.4-3.3c-7.1,16.6-11.8,32.7-16.4,50.1c-30.2,1.5-61,5.6-91.2,6.2
			c-11.6-21.8-24.4-45.7-33.5-68.6c-4.1-10.4-10.7-50.3-31.2-33.5c9.6-40.5,23.7-80,35.9-119.7c6.2-20.5,20.9-91.5-22.1-71
			c-22.5,10.7-39.9,35.4-62.2,47.6c-23.8,13.1-63.4-11.7-86.7-22.2c-15.7-7-21.3-7.9-22.2-24.4c-1.1-19.1,9.9-39.9,13-58.8
			c2.4-14.4,7.8-40.5-8.8-49.6c-22.1-12.1-43.3,21.7-53.2,35.7c-58.9,83.7-138.1,151.7-195.6,237.6
			c-57.1,85.2-106.5,182.3-102.5,287.6c-49.1,6.2-55.5,50.8-21.3,81.7c28.6,25.9,59.4,33.5,95.8,41.7c85,19.4,170.4,26.2,256.9,33.2
			c95.7,7.7,190.1,7,286,9.7c100.9,2.9,200,6,301-1.1c111.5-7.7,222.6-16.5,333.7-27h-0.4c2.7-0.2,5.5-0.4,8.2-0.7l-0.8,0.1
			c5.8-0.4,11.7-1.1,17.5-1.6h-0.2l1.1-0.1l-0.8,0.1C1559.3,1120.2,1727.2,1099,1708,1023.1z M1182.6,614.6c0.1-0.3,0.3-0.5,0.4-0.8
			C1182.9,614.1,1182.8,614.4,1182.6,614.6z"/>
		</g>
		<g id="Bulb">
			<path class="st1" d="M938.6,536.8c-1.4-55.2-71.9-66.1-106.2-34.1c-41.3,38.5-10.6,73.2,3.6,114.3c-4.3,5.5-3.9,17.6,2.9,21.3
			c-1.9,5.9-0.5,14.2,6.5,16.1c-1.1,5.9,1.5,11.8,6.6,15c-5.1,34.1,46.4,1.9,43.1-20.9c7.5-3.6,11.4-11.9,8.3-19.9
			c5.7-7.1,6.9-16.1,5.1-24.9c3.6-2.7,6.8-5.8,9.5-9.3l-1,1.2C930.4,579.8,939.2,557.7,938.6,536.8z"/>
			<path class="st1" d="M948.7,409.4c-10.1,4.8-57.1,75.5-25.9,74.8c15.6-0.4,35.6-44.2,36.9-55.5
			C960.6,421.1,961.7,403.1,948.7,409.4z"/>
			<path class="st1" d="M897.4,431.7c-9.2,3.1-18.3,38.4-7.6,40C903.1,473.7,913.2,426.4,897.4,431.7z"/>
			<path class="st1" d="M861.6,359c-17.9,6-7.8,53.1-8.1,67.2c-0.2,9.9-7.9,45.8,11.9,40.5C892.1,459.4,879.8,352.9,861.6,359z"/>
			<path class="st1" d="M864.8,368.4l-0.1,0.1l0,0L864.8,368.4z"/>
			<path class="st1" d="M841.8,461c-4.9-28.9-30.7-39.5-26.9-6.2C817.2,475.2,846.4,490.6,841.8,461z"/>
			<path class="st1" d="M783.3,415.8c-19.5,2.4,7.1,80.7,27,78C830.3,491,797.6,414,783.3,415.8z"/>
			<path class="st1" d="M769.1,484.4c-14.8,9,10.9,31.8,19.9,33.4C826.1,524.4,781.8,476.7,769.1,484.4z"/>
			<path class="st1" d="M970.9,464.8c-11.5,3.5-52.8,37.2-26.7,41.4C969.9,510.4,987.1,459.9,970.9,464.8z"/>
			<path class="st1" d="M689.8,512c-32.4,2.3,11.7,34.3,22.9,37.4c17.9,5,68.4,16.2,84.9,6.3c8.6-5.2,14.6-15.2,8.3-25
			c-6.3-9.9-24.3-8.5-34.7-9.7C744.4,517.8,716.7,510.1,689.8,512z"/>
			<path class="st1" d="M1041,493.9c-25.5,1.3-58.6,7.2-83,14.5c-26.3,7.9-20.4,31.6,5.6,35.4c22.4,3.3,58.1-4.4,78.4-13.3
			C1071.1,517.9,1080.9,491.8,1041,493.9z"/>
		</g>
	</g>
	<g id="Cats_color">
		<path class="st0" d="M516.6,1030.7c1,5.1,3.3,9.8,6.6,13.7c3.5,3.8,8,6.6,13,7.9c5.3,1.5,11.1,1.1,16.5,0.5
		c5.2-0.5,10.2-1.9,14.8-4.1c8.6-4.3,15.9-11,19.8-19.7c2.4-5.1,3.9-10.6,4.4-16.3c0.1-5.1-0.3-10.2-1.2-15.3
		c-0.8-6.3-2.6-12.4-5.2-18.2c-3.1-6.1-6.9-11.7-11.4-16.8h-0.1c-13.5-16.1-32.6-25.4-50.9-34.9c-10.5-5.4-20.9-11.2-30.8-17.6
		c-9.3-6-18.2-12.9-24.6-22.1c-3.5-4.8-6.2-10.2-8-15.9c-1.8-6-2-12.2-2.3-18.3c-0.2-3.1-0.3-6.2-0.4-9.3c-0.1-2.5,0-4.9-1.9-6.7
		c-2.4-2.4-6.4-2.4-8.8,0c-0.7,0.7-1.2,1.6-1.5,2.5c-0.8,2.4-0.2,5.5-0.1,8c0.1,2.5,0.2,5.1,0.3,7.7c0.2,4.6,0.6,9.2,1.3,13.8
		c1.8,11.2,7,21.5,13.9,30.4c7.2,9.2,16.5,16.1,26.3,22.4c9,5.8,18.2,11.3,27.5,16.4c8,4.3,16,8.5,23.9,12.8
		c5.1,2.8,10.3,5.6,15.1,8.8c4.8,3.2,9.2,6.9,13.1,11.1c7.7,7.8,12.7,17.9,14.3,28.7c0.6,4.4,0.9,8.6-0.2,13
		c-1.3,4.7-3.3,9.2-5.9,13.3c-0.6,1.1-1.3,2.2-2.1,3.2c-1,1.1-2.2,2-3.5,2.7c-2.4,1.7-5,3.1-7.7,4.2c-5.3,2-11.1,2.8-16.7,2.2
		c-2.8-0.3-5.5-1.4-7.8-3.1c-2.1-1.7-3.3-4.4-4.2-6.8c-0.9-2.8-1.6-5.6-2-8.5c-0.4-2.4-0.3-4.8-0.5-7.3c-0.5-5.6-5.3-7.1-10.2-6.2
		c-4.5,0.9-9,1.5-13.5,1.8c-5.8,0.5-11.6,0.5-17.4,0c-4-0.4-7.9-1.1-11.8-1.8c-11.6-2.3-22.7-6.5-32.9-12.4
		c-9.6-5.8-18.7-12.4-27.2-19.7c-2.2-1.7-4.3-3.6-6.3-5.6c-1.9-2-3.6-4.3-5.3-6.5c0.1,0.2,0.2,0.3,0.3,0.5
		c-4.1-5.6-7.7-11.6-10.7-17.9c-1.5-3.2-3.4-6.5-4.6-9.8c-1.2-3.3-1.8-7-2.9-10.4c-1.8-5.9-3.8-13.5-9.2-17.3
		c-2.4-1.6-5.8-2-7.7,0.5c-1.6,2.1-2.6,4.6-2.9,7.3c-1.2,11.7,3,22.4,8.2,32.7c4.7,9.3,9.9,18.1,17.8,25.1c2,1.8,3.7,3.9,5.5,5.8
		c2.4,2.5,5,4.6,7.6,6.9l0,0c0.7,0,2,1.4,2.5,1.7c1.7,1.1,3.4,2.2,5.1,3.1c3.5,2,6.7,4.7,10.1,6.9c6.9,4.5,14.2,8.6,21.7,12.1
		c14.5,6.9,30.4,10.4,46.4,10c8.1-0.1,16.1-0.9,24-2.3c0,0,0,0.3,0,0.4c-0.3,2.1-0.4,4.2-0.4,6.3
		C515.9,1026.5,516.2,1028.6,516.6,1030.7z M376.5,914.7c0-0.2,0-0.5,0-0.8c0.2,0.3,0.4,0.6,0.6,0.9
		C377,914.8,376.7,914.8,376.5,914.7z"/>
		<path class="st0" d="M594.7,820c4.7,4.3,9.8,7.7,16.2,9.2c2.4,0.6,5.9,1.1,7.3-1.6c1-1.9,0.2-4.2-1.7-5.2c-0.3-0.1-0.6-0.3-0.9-0.3
		c-1.3-0.3-2.7-0.1-4-0.4c-1.6-0.5-3.2-1.1-4.7-2c-2.9-1.7-5.4-3.9-7.6-6.5c-4.7-5.4-6.6-12.6-5.2-19.6c1-5.6,11.4-12.3,11.8-12.4
		c5.5-1.7,10.8-3.8,16-6.3c4.2-2,9.3-5.7,7.9-11c-1.3-4.8-7-7.4-11-9.4c-9.2-4.6-19.2-9.1-29.5-10.2c-4.2-0.5-11.8-0.3-13.1,4.9
		c-1,4,1.1,8.9,2.4,12.6c1.5,4.1,2.6,8.6,5.5,11.9c4.1,4.6,7.2,12.5,4.4,17.8c-1.3,2.5-3.3,4.6-5.7,6c-2.8,1.5-5.8,2.6-8.9,3.2
		c-2.9,0.8-5.9,1.4-8.9,1.7c-5.8,0.6-11.6,0-17.1-1.7c-1.6-0.6-3.3-1-5-1.4c-2.8-0.4-5.4,1.5-4.9,4.5c0.5,3.2,4,3.6,6.6,3.8
		c1.9,0.2,17.5,1.2,23.8-0.3c6.8-1.6,13.9-3.5,19.1-8.3c0,0,0,0.1,0,0.1l0.1-0.1C586.3,806.9,588.6,814.6,594.7,820z M591.6,770.7
		c-1.6-3.2-5.8-14.9-6.6-17.5c0-0.2-0.1-0.4-0.1-0.6c5.4-1.2,34.5,10,35.7,10.7c0.6,0.4,2.7,1.6,2.7,2.4c0,0.6-0.9,1.2-1.4,1.4
		c-1.2,0.8-26.5,9.2-27.8,9.4C593.4,774.6,592.5,772.7,591.6,770.7z"/>
		<path class="st0" d="M490.8,720.2c0.1-0.8-0.4-1.6-1.2-1.8c-0.7-0.1-1.5,0.3-1.7,1c-0.3,1.2-0.4,2.5-0.4,3.8
		c-0.1,1.2-0.2,2.4-0.3,3.6c-0.3,4.4-0.5,8.8-0.5,13.3l0,0c0,0.9,0,1.8,0.1,2.7h0.1c0.1,3.9,0.5,7.8,1.1,11.7
		c0.5,3.3,1.4,6.4,2.8,9.4c1.3,2.8,2.8,5.5,4.4,8.1c2,3.1,4.2,6,6.6,8.9c1.2,1.6,2.4,4.6,4.8,4.3c1.2-0.2,2.1-1.3,2-2.6
		c0,0,0,0,0-0.1c-0.3-1.4-2-1.8-2.9-2.8c-5.4-5.1-9.2-11.9-12.1-18.6c-2.9-6.7-3.4-13.7-3.4-20.8h-0.1
		C489.7,733.6,490,726.9,490.8,720.2z"/>
		<path class="st0" d="M513,679.3c-1.1,1.8-0.3,4.4,0.5,6.2c1,2.2,2.4,4.2,4,6c3.2,3.5,7,6.3,11.3,8.2c7.9,3.6,16.3,7.5,25.2,6.2
		c3.9-0.6,9.3-0.9,10.4-5.4c1.2-4.8-1.5-9.4-4.3-13c-1.7-2.4-3.6-4.6-5.7-6.7c-3.6-3.1-7.7-5-12.1-6.8c-4.7-2-9.8-2.6-14.8-1.6
		c-2.8,0.6-5.6,1.4-8.3,2.4c-1.3,0.5-5,1.3-4.6,3.2C514,678.2,513.4,678.7,513,679.3z M546.1,698.4c4.8-2.1,8.1-7.1,7.1-12.4
		c1.4,1.4,2.7,2.9,4,4.4c1.3,1.1,2.3,2.5,3.1,4.1l0,0c0,0,0,0.1,0,0.1l0,0c0,0.1,0.1,0.1,0.1,0.2c0,0-0.1-0.1-0.1-0.2
		c0.7,1.4,1.6,3.7,0.9,5.2s-3.2,1.2-4.6,1.3c-3.9-0.1-7.8-0.9-11.4-2.4C545.5,698.7,545.8,698.6,546.1,698.4z M542.1,684.8
		c1.7,0.8,2.5,2.7,1.9,4.4c-0.5,1.7-2.1,2.7-3.8,2.6c-2.2-0.3-2-1.6-1.6-3.5c0.2-1,0.6-2,1.1-2.8c0.1-0.2,0.6-1.1,0.8-1.2
		C540.8,684.2,541.8,684.8,542.1,684.8z M521.6,676.8c3.4-1.1,6.8-2.2,10.4-2h-0.2c3.3,0.4,6.4,1.4,9.3,2.9
		c-7-1.7-10.7,9.4-9.5,14.6c-3.4-1.8-6.6-4-9.6-6.4c-1.2-0.9-2.3-2-3.2-3.2c-0.8-1.2-0.9-3-1.8-4C518.4,678,520,677.4,521.6,676.8
		L521.6,676.8z"/>
		<path class="st0" d="M636.1,725.4c3.1,3.3,7,5.7,11.3,7.2c2.9,1.2,6,2.1,9.2,2.5c3.7,0.5,7.5,0.5,11.3,0c3.6-0.6,8.5-1.5,8.6-6.1
		c0.2-7.8-8.2-12.5-14.3-15.5c-4.1-2.2-8.6-3.5-13.2-4c-3.5-0.2-7.1-0.3-10.6-0.1c-3.2,0.2-8.2,0.2-8.2,4.6
		C630.2,718.4,633.4,722.4,636.1,725.4z M672.4,729.9L672.4,729.9h0.1H672.4z M672.5,729.6L672.5,729.6L672.5,729.6
		c0,0.1-0.1,0.1-0.1,0.2C672.4,729.7,672.5,729.6,672.5,729.6C672.6,729.6,672.5,729.6,672.5,729.6L672.5,729.6z M672.7,729.3
		c0-0.1,0-0.1,0.1-0.1C672.8,729.1,672.7,729.2,672.7,729.3L672.7,729.3z M665.5,730.8c2.1-3,2.7-6.8,1.7-10.3l0.5,0.3
		c-0.1-0.1-0.1-0.1-0.2-0.1c1.1,0.9,2.2,1.8,3.2,2.8c0,0-0.1-0.1-0.1-0.1c0.9,1.5,3.5,5.1,1.4,6.6c0.1,0,0.2-0.1,0.3-0.1
		c-2,1.1-4.8,1.2-7,1.2C665.4,731,665.5,730.9,665.5,730.8L665.5,730.8z M657.1,722.9L657.1,722.9l-0.2,0.2
		C657,723,657,723,657.1,722.9L657.1,722.9z M656.6,724c0.4-0.9,0.5-1.1,1.5-1.1c0.6,0,1.2,0.1,1.8,0.3c0.9,0.6,0.5,2.1,0.2,2.9
		c-0.4,1.2-0.9,2.4-2.2,2.8c-1.3,0.5-2.7,0.3-3.8-0.5C655.7,727.5,656.1,725.5,656.6,724L656.6,724z M635.8,715.4
		c0-0.7,0.9-1.4,1-2.2c6.2-0.4,12.6-0.6,18.7,1.2c-2.8,0.4-5.1,2.2-6.3,4.7c-1.1,2.2-1.6,5.8-0.3,8c-3-1.3-5.9-3-8.3-5.2
		C638.9,720.5,636,717.8,635.8,715.4L635.8,715.4z"/>
		<path class="st0" d="M953.3,700.8c10.1,10.1,18.5,22.3,26,34.4c6.2,10.1,11.4,20.6,17.1,31c7.8,14.1,15.6,28.1,22.7,42.6
		c2.3,4.7,4.6,9.4,6.9,14.2c0.9,2,1.9,4,2.8,6c0.7,1.3,1.3,2.7,1.8,4.1l0,0l0,0l0,0c0.1,0.2,0.2,0.5,0.3,0.7
		c-0.1-0.2-0.2-0.4-0.3-0.6c4.9,12.3,8.6,25.2,12.5,37.9c4,12.6,8.1,25.2,11.4,38c0.9,4.2,1.3,8.6,1.3,12.9c0.2,8.3-0.4,16.5-1,24.7
		l9.7,0.1c1-4.6,1.7-9.2,2-13.9c0.4-4.6,0.4-9.2,0.2-13.8c-0.4-5.1-1.2-10.2-2.2-15.2c-0.6-4.1-1.4-8.1-2.5-12.1l-3.8-12.4
		l-7.6-24.8c-1.6-5.2-3.8-10.4-5.8-15.5c-2.3-5.8-4.8-11.4-7.4-17.1c-14.7-32.3-32.3-63.3-50.1-93.9c-2.9-5.1-5.9-10.1-8.9-15.1
		c-1.4-2.6-3-5.2-4.8-7.6c-1.6-1.8-2.9-3.7-3.9-5.9c-0.5-1.3-0.5-1.2,1-0.9c2.8,0.4,5.5,0.9,8.3,1.4c4.6,0.8,9.2,1.7,13.7,2.7
		c18.1,4.1,36.3,7.9,54.1,13c9,2.5,18,5.1,27,7.8c2.7,0.9,5.4,1.7,8.2,2.3c1.9,0.3,5.2,1.4,7,0.4c2.1-1.1,3.4-4.2,4.5-6.2
		c0.8-1.4,1.4-3.4,2.6-4.5c1-0.8,2-1.5,3.1-2.2c5-3.4,10-6.7,14.9-10.1c15.8-10.9,31.2-22.4,46.2-34.5
		c12.6-10.2,25.1-20.6,37.3-31.2l4.9-4.3c0.6-0.5,2-1.3,2.3-2c0.2-0.5-0.1-1.3-0.1-1.9l-0.9-6.6c-1.5-11-2.8-22-5.2-32.9
		c-1.7-7.7-3.9-15.1-6.1-22.7c-2.2-7.6-4.5-15.1-7.2-22.5c-3.7-10.6-7.3-21.3-11.6-31.6c-1.8-4.1-3.8-8.2-6.1-12.1
		c1.7-0.7,3.6-2.1,5.5-1.7c3.3,0.7,6.7,1.5,10,2.3c3,0.6,5.9,1.5,8.7,2.5c3.6,1.5,7.2,3.1,10.8,4.6c11,4.9,21.9,10.2,32.5,16.1
		c4.6,2.5,8.8,5.4,13.2,8.3c13.1,8.8,26.4,17.6,38.9,27.5c4.3,3.4,8.3,7.1,12.4,10.8c6.7,5.9,13.3,11.9,19.8,18
		c6.8,6.4,13.1,13.1,19.4,19.9c9.2,10,18.3,20,26.8,30.5c10,12.4,19.9,25.1,29,38.1c7.3,10.5,13.9,21.4,20.4,32.4
		c6.1,10.3,11.8,20.8,17,31.6c9.6,19.8,18.3,40.3,26,60.9c9.7,25.7,17.3,52.2,22.7,79.2c2.5,13,4,26.1,5.4,39.3
		c1.2,11.7,2.3,23.4,2.4,35.2c0,2.5,0.1,5.1-0.1,7.7c0,1.1-0.2,2.2-0.5,3.2c-0.6,1.2-1.5,2.2-1.5,3.6c4.7,0.4,9.4,0.8,14.1,1.4
		c0-1.1-0.1-2.1-0.4-3.1c-0.1-1.2-0.2-2.4-0.2-3.6l0.1,1.6c-0.4-6.5-0.5-13-0.9-19.6c-0.4-6.5-1.2-13-2-19.4
		c-1.6-13.1-3.1-26.2-5.3-39.2c-4.3-25.6-11.6-50.5-19.8-75.1c-4.1-12.3-8.7-24.4-13.7-36.4c-5-12-10-24-15.5-35.7
		c-10.9-23.1-23.6-45.3-37.8-66.5c-14.6-21.4-30.4-42-47.5-61.5c-16.8-19.4-34.3-38-53.6-55c-10.8-9.5-22.5-17.6-34.4-25.7
		c-9.8-6.7-19.7-13.5-29.8-19.8c-8.3-5.1-17.6-8.6-26.5-12.6c-11.5-5.1-22.8-9.9-35.3-11.8c-6.4-0.9-12.9-1.4-19.4-1.6
		c-2.2-0.3-4.4,0.7-5.7,2.6c-1.2,2.1-1,4.7,0.6,6.5c0.4,0.4,0.9,0.7,1.3,1.1c0.4,0.6,0.7,1.2,0.9,1.9c0.4,1,0.7,1.9,1.1,2.9
		c0.4,1.2,0.8,2.4,1.3,3.6c1.3,3.7,2.7,7.4,4,11.1c8.1,22,17.3,43.6,23.9,66.2c3.1,10.6,5.5,21.3,6,32.4c0.2,3.5,0.3,7.1,0.2,10.6
		c0,0.7,0,1-0.4,1.5c-0.8,0.8-1.6,1.5-2.5,2.1c-10.5,8.6-21,17.3-31.6,25.9c-8.3,6.7-16.6,13.5-24.8,20.2l-31.1,25.4
		c-3.3,2.7-6.6,5.4-9.9,8.1c-0.6,0.5-1.4,1.5-2.2,1.8c-0.5,0-1.1-0.1-1.6-0.3c-10-2.3-20-4.7-30-7.1l-34.2-8.1
		c-10.2-2.4-20.5-4.5-30.9-6.5c-6.6-1.2-13.3-2-20-2.7c-3.6-0.4-7.2-0.7-10.7-1c-1.4-0.1-3.1-0.6-4.4-0.2c-2.5,0.7-5,3.1-6.3,5.3
		C949.3,694.2,950.5,698,953.3,700.8z"/>
		<path class="st0" d="M1187,863.6c-2.3,5.7-6.7,10.5-11,14.8c-2.3,2.4-4.7,4.7-7.1,6.9c-1.1,1-2.4,2-3.6,2.8
		c-1.5,0.9-3.2,1.5-4.9,1.9c-1.4,0.2-2.5,1.1-3.2,2.3c-0.6,1.3-0.3,2.8,0.8,3.8c2.1,1.9,5.2,0.1,7.2-0.9c6-3.1,11.1-8.5,15.9-13.2
		c5.2-5.1,10.6-10.4,13.2-17.4c0,0.1,0.1,0.2,0.2,0.2l0.1-0.1c2.8,2.8,7,4.2,10.7,5.1c5.7,1.4,11.6,2.3,17.5,2.7
		c10.3,0.6,21-3.9,29.4-9.5c3.1-2.1,9.9-7.2,4.9-11.1c-2.4-1.8-4.6-0.5-6.9,0.6c-1.5,0.7-2.9,1.5-4.3,2.3c-4.6,2.5-9.3,4.6-14.2,6.4
		c-5.2,1.6-10.6,2.1-16,1.5c-2.8-0.3-5.6-0.6-8.3-1.1c-2.4-0.5-5.1-1-7.2-2.4c-1.1-0.8-1.6-2-2.5-3c-0.6-0.6-0.8-0.7-1-1.4
		c-0.4-1.8-0.6-3.6-0.7-5.4c-0.7-5-2-9.9-3.8-14.7c-0.2-0.8-0.9-1.5-1.1-2.2c-0.1-0.4,0-0.9,0.1-1.3c0.4-2.7,1-5.4,1.6-8.1
		c1.1-4.8,2-9.8,1.5-14.8c-0.5-4.7-2.4-10.3-7.5-11.9c-4.6-1.5-9.5,2.4-13.1,4.8c-4.5,3-8.9,6.3-11.7,10.9
		c-2.8,4.4-2.5,9.5,1.3,13.2c1.7,1.6,3.7,2.9,5.9,3.8c2.7,1.3,5.5,2.6,8.2,3.9c1.6,0.7,4.2,1.4,5.2,2.8c1.2,1.7,1.7,3.9,2.3,5.9
		c1.3,4.8,2.3,9.7,3.1,14.6C1188.1,859.1,1187.9,861.4,1187,863.6z M1186,812.3c-0.3,3.6-1,7.1-1.9,10.6c-0.6,1.9-1,3.9-1.3,5.9l0,0
		v0.1l-5.6-2.6c-3.1-1.4-7-2.5-9.5-4.8c-4.5-4.1,2.5-9.3,5.7-11.6c1.8-1.2,3.6-2.4,5.3-3.6c1.4-1,3.6-3,5.4-3c0,0,0-0.1,0-0.1
		c0-0.1,0.6,0.5,0.6,0.5c0.5,0.7,0.9,1.5,1,2.4C1186.2,808.2,1186.2,810.2,1186,812.3L1186,812.3z"/>
		<path class="st0" d="M1211.5,766c6.4,1.8,12.6-0.4,18.8-1.7c7.5-1.5,14.5-4.7,21.3-8.1c7-3.3,13.6-7.5,19.7-12.4
		c5.5-4.6,10.8-10,13.6-16.8c1.3-3.3,2.4-7.1,1.7-10.7c-0.8-3.6-3.1-6.6-6.3-8.3c-5.1-3-11.8-3.1-17.5-2.7c-15,1.2-29,8.5-39.7,18.9
		c-6.1,5.9-12.2,13-15.2,20.9c-1.7,4.1-2.4,8.6-1.9,13c0.2,1.2,0.4,3.1,1.3,4.1c0.3,0.4,0.9,0.4,1.2,0.8c0.3,0.3,0.4,0.8,0.6,1.1
		C1209.6,765,1210.4,765.6,1211.5,766z M1227,727.9c6.4-6,14-10.5,22.3-13.1c-0.3,0.1-0.5,0.1-0.8,0.2l4.1-1.1l-0.8,0.2
		c5.4-1.3,11.1-2.5,16.6-2.2c4.2,0.2,11.9,0.9,12.2,6.5c0.3,5.4-3.3,10.4-6.7,14.2c-3.8,4-8,7.4-12.7,10.3
		c-5.5,3.5-11.3,6.6-17.2,9.2c0-5.5-2.3-10.8-6.4-14.6c-3.6-3.4-8.9-6.6-14.1-6C1224.7,730.3,1225.8,729,1227,727.9z M1214.6,744.5
		c2-2.8,4.8-4.9,8-6.2h-0.1c2.1-1,5.1,0.9,6.8,2c2.8,1.7,5,4.1,6.4,7.1c0.6,1.2,0.9,2.4,1,3.7c-0.2,1.4-0.7,2.7-1.4,3.8
		c-0.5,1.1-0.8,1.1-2.1,1.4c-1.5,0.4-2.9,0.7-4.4,1h-0.1c0.1-3.5-1.4-6.9-3.9-9.4c-2.4-2.4-5.8-3.7-9.2-3.4v-0.1
		c-0.3,0-0.6,0.1-0.9,0.2c0-0.1,0.1-0.2,0.1-0.3L1214.6,744.5z M1213.1,753c0.6-2,2.7-3.1,4.6-2.4c0.2,0.1,0.5,0.2,0.7,0.3
		c2.4,1.2,3.9,3.8,3.6,6.5c0,0.3,0,1.5-0.2,1.8c-0.2,0.2-1.7,0.3-2.2,0.3c-1.4,0.1-2.9,0.1-4.3-0.2c-0.5-0.1-1-0.2-1.4-0.4
		c-0.5,0-0.7-0.2-0.6-0.7c0.1-0.5-0.2-0.7-0.2-1.1C1212.9,755.8,1212.9,754.4,1213.1,753z"/>
		<path class="st0" d="M1112.2,823c9-2.7,17.2-7.7,23.7-14.4c3.2-3.3,6.2-7.5,7.6-12c1.3-4.5,0.9-9.3-3.4-11.7c-3.7-2-7.8-3.1-12-3.3
		c-5.2-0.2-10.3,1.2-15.2,2.8c-9.3,2.9-18.2,7.6-25,14.8c-3.3,3.4-5.8,7.5-7.1,12c-0.8,2.8-3.2,13.4,2,13.4v0.1
		c0.7-0.1,1.4-0.4,2.1-0.8c1.4,3.3,7.7,3.1,10.7,3.1l0,0l-0.3-0.1C1100.8,826.7,1106.7,824.7,1112.2,823z M1101.3,795.7
		c4.7-2.6,9.7-4.6,14.9-6c5.3-1.5,10.9-2.5,16.4-1.2c1.7,0.4,5.5,0.9,5.8,2.9c0.2,2.6-0.5,5.2-2,7.3c-2.9,4.2-6.6,7.8-10.9,10.6
		c-4.8,3.4-10.1,6-15.7,7.8c1.5-4.1,2.3-8.6,0.9-13c-1.5-4.4-5.3-7.5-9.9-8.1L1101.3,795.7z M1091.3,818.6c-0.6,1.3-2,1.4-2.8,2.5
		c-0.8-0.8-2.1-0.9-3-0.3c-1.1-0.8-0.2-4.3,0-5.3c0.3-1.9,0.8-3.9,1.6-5.7C1090.5,811,1091.9,815.2,1091.3,818.6z M1102.3,814.3
		c-0.5,0.6-1.1,1.2-1.7,1.7c-0.8,0.7-1.2,1.6-1.8,2.3c-0.7,0.7-2.2,0.8-3.1,1.2l0,0h-0.1c0.7-4.6-1-10.9-5.5-13.1l0.2-0.1l-0.1-0.1
		c3.1-2.7,6.9-5.9,11.1-3.3S1104.1,810.4,1102.3,814.3z"/>
		<path class="st0" d="M843.5,936.7c1.8,2.8,3.6,5.7,5.5,8.5c0.6,0.8,1,1.9,1.9,2c0.6,0.1,1.3,0.1,1.9-0.1c0.7-0.4,1.6-2.4,1.9-3.1
		c1.5-2.4,2.7-5,3.4-7.7c0.2-0.9,0.8-2.4,0-2.9c-0.8-0.5-2.7-0.2-3.6-0.1c-4,0.2-8.5-0.1-12.4,1.2C842.5,935.2,843,936,843.5,936.7z
		"/>
		<path class="st0" d="M991.9,925.1c-1.4-6.5-2.7-12.8-4.6-19.1c-2.4-8.3-4.3-16.6-6.1-25c-2.1-9.6-4.3-19.1-6.4-28.7
		c-2.4-10.7-4.7-21.4-7.1-32.1c-2-9.1-4.9-18.1-7.4-27.1c-2.7-10-5.6-19.9-8.2-29.9l-0.1-0.5l0,0l2.4,19.6c0.4,3.1,0.9,6.1,1.1,9.2
		l1.5,29.1c0.8,16.9,1.7,33.8,2.5,50.7c0.8,16.3,1.6,32.5,2.4,48.8c0.3,5.5,0.5,11,0.8,16.4c0.2,2.4,0.4,4.8,0.3,7.2
		c-0.1,0.8-0.3,1.7-0.5,2.5c0.7,0,1.4,1,2.2,1.1c0.5,0,1,0,1.5,0c2.3,0,4.7,0,7,0c5.5,0,10.9,0,16.4,0c1.6-0.1,3.1-0.3,4.6-0.8
		c-0.5-1.3,0-3.2,0-4.6s-0.3-3.1-0.5-4.7C993.3,933.1,992.8,929,991.9,925.1z"/>
		<path class="st0" d="M871.4,1075.2c3.3,0,20.9-0.7,23-0.8c4.8-0.3,9.6-0.9,14.4-1.8c7.8-1.5,15.1-4.2,22.4-7.1
		c3.2-1.2,6.4-2.6,9.4-4.2c4.8-2.6,7.8-7.6,7.8-13.1c0-1.8-5.9-11.9-8.2-14.8l0.3,0.7c-3-4.8-7.9-8.3-12.4-11.6
		c-3.7-2.6-7.8-4.6-12.2-6c-2.1-0.7-4.3-1.1-6.3-1.8c-1-0.3-4.4-3.4-5.2-1.2h0.1c-0.8,1.8,2.2,3,3.4,3.8c1.5,1.1,9.3,8.9,10.5,12.5
		c2.7,7.3,0.6,15.2-3.7,21.5c-6.3,9.2-15.5,16.8-26.3,19.9c-3.9,1.1-8,1.7-12.1,1.6C874.6,1072.8,869.6,1075.2,871.4,1075.2z"/>
		<path class="st0" d="M854.4,1049c-2.1,2.3-4.1,4.8-5.9,7.3c2.2,1.7,5,2.2,7.7,2.6c1.8,0.3,4.7,1.2,6.4,0.4c2-1,3.1-4.3,3.6-6.3
		c0.8-2.8,1.4-5.6,1.9-8.5c0.4-2.3,0.6-4.6,0.6-6.9c-0.1-1.2-0.1-1.2-1.2-0.6c-0.6,0.4-1.2,0.8-1.8,1.2
		C861.5,1041.2,858.1,1045.2,854.4,1049z"/>
		<path class="st0" d="M823.5,1041.1c0.3,2.3,0.6,4.6,1,6.9c0.3,1.9,0.6,3.7,2.2,5.1c2.2,2,6.2-0.6,7.4-2.7c2-3.7,0.9-7.2-0.9-10.8
		c-0.9-1.9-2-3.7-3.2-5.4c-0.6-0.9-1.3-1.8-2-2.6c-0.1-0.1-1.4-1.1-1.4-1.1c-2.2-0.6-2.8,2.9-3.2,4.4
		C823,1036.9,823,1039,823.5,1041.1z"/>
		<path class="st0" d="M832.5,1063.9c-3.4,0-4.1,5-0.6,5.3S835.9,1063.9,832.5,1063.9z"/>
		<path class="st0" d="M1452.4,975.6c2.8-5.5,5.1-11.2,6.7-17.1c0.6-2.3,0.9-4.7,1.4-7c0.7-3,1.1-6.1,1-9.2
		c-0.1-2.9-0.4-10.3-5.4-8.6c-2.7,0.9-3.8,4.7-4.1,7.2c-0.3,2.2-0.6,4.4-0.9,6.6c0.1-0.2,0.2-0.5,0.2-0.7c0,0,0,0.1,0,0.2l0.1-0.2
		c-0.2,3.3-0.9,6.6-1.9,9.8c-0.8,2.3-1.9,4.6-2.8,6.9c-2,5.1-4.6,10-7.6,14.5c-2.6,3.8-4.9,7.9-7.9,11.4c-4.4,5-9.2,9.6-14.4,13.8
		c-8.3,7-16.9,13.6-26,19.5c-4,2.6-8.4,4.7-12.6,6.9c-5.7,3-11.4,5.8-17.7,7.2c-5.3,1.2-10.7,1.8-16,2.9c-3.8,0.9-7.6,1.6-11.4,2.1
		c-1.8,0.2-3.6,0.3-5.4,0.4c-1.2,0-2.4-0.2-3.6-0.2l0,0c-0.1,0-0.1,0-0.2,0c0.3-0.8,0.7-1.5,1.1-2.3c0.3-0.4,0.8-0.7,1.1-1.1
		c3.6-5.1,3.8-13.9-0.6-13.2c-2.5,0.4-3.8,2.2-5.1,4.1c-1,1.4-1.8,2.9-2.4,4.4c-0.5,1.6-1.2,3.2-2.1,4.7c-1.3,1.8-2.9,3.4-4.8,4.5
		c-1.8,1.1-3.3,2.7-5.2,3.8c-4.8,2.9-10,5.1-15.4,6.7c-2.7,0.9-5.4,1.5-8.2,2c-2.4,0.4-5.3,0.8-7.6,0c-2.3-0.9-4.5-2-6.6-3.2
		c-2.5-1.4-5.1-2.7-6.8-5c-1.7-2.4-3.3-4.9-4.7-7.4c-1.6-2.5-2.9-5.2-3.9-7.9c-1-2.9-1.1-6-0.4-9c0.6-2.9,1.6-5.8,3.1-8.4
		c1.8-2.6,4.1-4.8,6.6-6.7c2.6-2.1,5.4-3.9,8.5-5.2l-0.6,0.1c10.9-4.6,22.5-7.2,33.6-11.5c4-1.5,7.9-3.2,11.7-5
		c3.6-1.5,7.1-3.3,10.5-5.3c7.7-4.9,14.2-11.7,19.8-18.8c5-6.4,9.3-13.3,13-20.5c4.1-7.8,8.3-16.2,9.9-25c1.6-8.2,2.6-16.5,3-24.8
		c0.3-9.5-0.7-19-2.8-28.3c-1.2-5.2-2.9-10.2-4.9-15.1c-0.8-2-1.5-4-3.3-5.3c-3-2-7.1-1.1-9,1.9c-0.6,0.8-0.9,1.8-1,2.8
		c-0.4,2.5,1.2,5,2,7.3c1.7,4.7,3,9.6,3.9,14.5v-0.2c0,0,0.2,0.6,0.2,0.6c2,14.9,0,29.7-3.7,44.2c-2.2,8.6-6.3,16.7-10.2,24.7
		c-2,4.3-4.4,8.4-7,12.4c-3.5,5-7.3,9.8-11.4,14.4l0.1,0.1c-3.8,4.3-9,7.6-14,10.3c-5.8,3.2-11.7,6.1-17.8,8.6
		c-11.4,4.5-24.5,7.1-34.1,15.2c-4.3,3.6-9,7.1-11.9,12c-1.3,2.4-2.3,5-3,7.7c-1.2,3.5-1.7,7.1-1.4,10.8c0.4,3.5,1.4,7,3,10.2
		c1.4,3.3,3.1,6.6,4.9,9.7c1.5,2.7,3.5,5,5.8,7.1c2.7,2.1,5.7,4,8.9,5.4c3.1,1.5,6.5,3.1,10,3.4c3.4,0.2,6.8-0.1,10.2-0.9
		c6.3-1.5,12.5-3.7,18.3-6.6c3-1.4,6-3.1,8.8-5c0.8-0.7,1.7-1.2,2.7-1.6c1.5-0.2,3-0.3,4.5-0.2c5.8-0.1,11.6,1.2,17.4,0.5
		c6.1-0.7,12.2-2,18.3-2.7c3.9-0.3,7.8-0.8,11.7-1.5c5.9-1.5,11.7-3.7,17.1-6.5c3.9-1.9,8-3.7,11.8-5.7
		c12.4-7.2,23.7-16.2,33.5-26.8c3.7-4.1,7.2-8.4,10.5-12.9c3.3-4.4,5.9-9.6,9-14.3c1.3-1.9,2.4-3.8,3.4-5.8l0,0L1452.4,975.6z"/>
		<path class="st0" d="M1668.7,1045.1c-10.2,8.4-40.7,13.8-46.5,15.1c-23.3,5.4-46.7,10.6-70.4,14.2c-24,3.7-48.2,5.5-72.3,8.7
		c-11.9,1.6-23.8,2.2-35.7,3.4c-12.1,1.2-24.2,2.4-36.3,3.4c-24.3,2.2-48.6,4.2-72.8,6.6c-12.1,1.3-24.3,2.4-36.4,3.3
		c-12.2,0.9-24,2.1-36.1,3.1s-24.2,1.5-36.3,2.6c-12.1,1-24,2-36.1,2.8c-24.2,1.6-132.9,6.3-144.9,6s-168.9-4.1-181-3.9
		c-12.1,0.2-24.3,0.5-36.5,0.2c-24.1-0.5-48.2-0.7-72.3,0c-24.2,0.5-48.4-0.2-72.5-2.3c-24.4-2-48.8-4.5-73.2-5.8
		c-12.1-0.7-24.1-1.7-36.2-2.7c-12.1-0.9-23.9-1.6-35.8-2.9c-24-2.6-165.4-16-176.6-19.2c-5.7-1.6-28.3-7.9-34-9.1
		c-5.7-1.2-27.9-7-33.6-8.1c-2.7-0.5-5.5-0.8-8.2-1.4s-19.1-6-24.4-8c-2.5-1-11-6.3-13.2-7.1c-4.2-1.7-8.7-4.9-9.8-9.6
		c0,0-0.1,0-0.1,0c0.5,6.7,2.5,13.2,5.9,19c3.6,5.7,8,10.8,13.2,15.2c5,4.3,10.7,7.7,16.8,10c6.8,2.7,13.9,4.7,20.9,6.8
		c7,2.1,14,3.3,21,5.3c7.2,2.1,14.6,3.7,22,4.8c7.4,1.2,14.8,2.6,22.2,3.8c7.4,1.2,139.9,17.1,155.1,18.3c7.6,0.6,15.3,1,22.9,1.5
		c7.6,0.5,15.1,1.4,22.7,1.4c3.7,0,128.4,7.9,131.2,7.9c5.5,0.1,97.7,3,117.6,3.4c20,0.5,40,1.3,60,1.1c19.7-0.2,39.4-0.4,59.2-0.5
		c9.8-0.1,19.7-0.1,29.5-0.1c9.9,0,19.7,0.1,29.5,0.3c20,0.4,195.9-3.4,205.8-3.4c9.8,0,19.6-0.5,29.3-1.5c19.7-2,39.4-2.1,59.1-3.2
		c19.5-1.2,39.1-2.4,58.6-4.1c4.5-0.2,9-0.7,13.5-1.6c0,0,112.8-10.9,118-11.3c5.7-0.4,43.1-5.2,56.1-7h-0.7
		c12.8-0.7,25.5-3,38.2-5.1c6.2-1.1,12.3-2.3,18.3-3.7c6.1-1.4,50.2-11.6,56.9-13.9c11.7-4.1,25-10.1,32.3-20.6
		c1-1.5,1.9-3.1,2.4-4.8c0.6-1.8,0.7-3.6,1.2-5.4C1677.4,1043.3,1672.4,1042,1668.7,1045.1z"/>
		<path class="st0" d="M247.4,1014.8c2.1-1,10.8-1.6,13.7-5c2.9-3.4,0-9.6,0-10.6c0.4-16.9,1.1-33.7,3-50.5c1.6-15.1,4.3-30.2,8-44.9
		c3.8-14.3,8.7-28.3,13.6-42.2c6-17.3,12.2-34.5,19.4-51.5c10-23.6,22-46.4,34.9-68.6c11.6-20.1,25.1-39.1,39.1-57.7
		c9.9-13.2,19.5-26.7,29.7-39.7c8.9-11.3,18.4-22.2,27.9-33c7-8,13.8-16.2,21.1-23.9c7.8-8.3,16.1-16.4,24.2-24.4
		c11.2-11,21.7-22.5,32.8-33.6c8.8-8.8,17.4-17.7,26.1-26.6c3.8-3.9,7.6-7.9,11.4-12c2.8-3,5.6-6,8.5-9c1-1.3,1.8-2.8,2.3-4.5
		c0.5-1.1-16.9,83.1-16.9,84.7c0,3.1,0.7,6.1,3.5,7.7c1.7,0.8,3.4,1.4,5.2,1.8c2,0.6,13.8,4.1,17.7,5.2l-0.1,0.1h0.1
		c-2.3,1.7-3.2,26.8-1.3,30.8c1,2.4,2.9,4.3,5.3,5.3c2.6,0.9,5.4,0.5,7.7-0.9c4.7-3,3.8-28.2,3-31.5l0,0c0,0,0-0.1,0-0.1
		c7.6,2.7,15.3,5.2,22.7,8.6c-0.8,1.6-0.8,27.5-0.2,31c0.8,5.2,4.7,9.7,10.3,9.6c2.9-0.1,5.6-1.7,7.2-4.2c1.8-2.9,1.5-6.6,1.3-9.9
		c-0.5-6.7-0.5-13.4-0.5-20.2l0,0c0,0,0-0.1,0-0.1c6.4,2.8,13,5.2,19.3,8.1c-2.3,3.7-1.7,9.2-1.9,13.5c-0.2,3.8-0.3,7.7-0.2,11.5
		c-0.1,3.1,0.6,6.2,2,9c3.3,6.2,10.7,9.3,17.2,6c3-1.6,5.2-4.3,6.3-7.6c0.7-2.4,1-4.9,0.9-7.4c0.2-5.2,0.5-10.4,0.7-15.6l0,0
		c0,0,0-0.1,0-0.1c1.5,0.7,9.4,4,8.9,3.5c0.3,0.1,7.6,0,9-1.2c2.5-2.2,4.7-4.7,6.7-7.3c2.8-3.3,5.8-6.5,9.1-9.3
		c4.3-3.8,8.8-7.6,13-11.5c5.1-4.9,11.5-8.5,17.5-12.3c1.6-1,3-2.2,4.4-3.2c1.3-1,5.8-5.2,6.9-4.1l2.2-1.2l-1.6,3
		c0,0-8.9,18.3-13.4,27.6c-6.5,13.4-12,27.2-16.7,41.4c-2.7,8.7-4.9,17.6-6.4,26.6c-1.4,7.8-3,15.5-4.2,23.3
		c-1,6.6-1.9,13.1-2.9,19.7c-0.7,4.7-1.3,9.3-1.7,14c-0.4,4.9-4.1,42.2-5.4,47.2c-1.1,4.3-2,8.6-3.3,13c-1.6,5-14,24.6-17.1,28.1
		l0.1,0.1c-4.3,5-8.8,9.8-13.4,14.4l0.1,0.1c-3.4,3.5-7.7,6.2-12.4,7.6c-1.8,0.5-3.8,0.6-5.6,0.4c-2.2-0.3-4.5,0.4-6.2,1.8
		c-3.2,2.7-3.6,7.6-0.9,10.8c2.1,2.4,4.7,2.7,7.6,2.8c-1.8,14,2,27.6,9.2,39.6c4.1,6.8,9.2,12.8,15.2,18c3.9,3.4,7.8,6.7,11.6,10.2
		c19.9,17.8,42.8,31.8,67.6,41.3c7.7,2.9,14.9,6.8,21.6,11.6c3.3,2.4,6.4,5.2,9.2,8.1c2.6,2.7,5,5.4,6.2,9.1
		c1.1,3.8,1.8,7.6,1.9,11.6c0.4,4.1-0.4,8.3-2.2,12c-1.4,2.9-3.8,5.2-6.8,6.5c-3.6,1.4-7.1,3.2-10.9,4c-3.4,0.7-6.9,1-10.4,1
		c-4.3-0.2-8.4-1.4-12.2-3.3c-6.5-3.2-10.3-10.4-14-16.3c-0.9-1.4-1.8-2.9-2.8-4.3c-2.1-3-4.8-4-8.3-4.1c-7.9-0.2-15.8-2.6-23.3-4.9
		c-16.4-4.9-32-13-46.5-22c-3.5-2.2-13.3-9.6-14-10.1c-1.7-1.1-3.3-2.4-4.9-3.7c-3.2-2.7-6.3-5.7-9.1-8.8
		c-1.3-1.4-10.1-9.7-11.6-10.6c-1.2-0.8-2.7-1.2-4.2-1.2v0.1c-6,0-5.7,7.3-4,11.2c2,4.8,5.6,9,9.3,12.6c7.8,7.4,16.3,14,25.5,19.6
		c10,6.4,20.3,12.2,31.1,17.3c10.6,4.8,21.6,8.6,33,11.2c3.8,0.9,7.6,1.7,11.4,2.5c1.2,0.2,3.2,0.1,4.3,0.8c1.1,0.7,1.7,2.7,2.2,3.6
		c0.7,1.3,1.5,2.7,2.2,4c2.6,4.6,5.4,9.3,9.4,13c4.3,3.8,9.7,5.8,15.2,6.9c2.7,0.6,5.4,1,8.1,1.2c3,0,6-0.3,8.9-0.9
		c5.3-0.8,10.5-2.2,15.5-4.1c5.3-1.9,10.1-5,14-9.1c3.5-3.9,6.1-8.6,7.3-13.7c1.5-5.5,0.8-11.4,0.1-17c-0.5-5-2-9.8-4.3-14.2
		c-2.3-4.5-6.4-8.4-10.1-11.7c-3.4-3.1-6.9-5.8-10.5-8.5c-2.2-1.7-9.4-5.5-9.7-5.6c-1.6-0.8-3.2-1.6-5-2.3
		c-3.3-1.3-6.7-2.5-10.1-3.6c-3.4-1.2-6.3-2.4-9.5-3.6c0.3,0.2,0.6,0.3,0.9,0.4c-0.2-0.1-0.4-0.1-0.5-0.2l0.5,0.3
		c-2.7-1.1-16.8-12.3-17.7-15.2c-0.4-1.8-0.7-3.6-0.8-5.5c-0.4-3.3-0.7-6.6-0.9-10c-0.4-12.5,0-25.1,1.1-37.6
		c0.9-12.1,2.6-24.2,4.1-36.3c2.1-17.1,5.1-34,10.5-50.3c1.9-5.8,3.9-11.6,5.9-17.5c0.6-1.9,1.3-3.9,1.9-5.8
		c0.4-1.3,2.2-4.5,0.3-5.2c-0.6-0.2-5.7,6.5-6.4,8.1c-2.2,5.3-4.5,10.5-6.7,15.8c-3.5,8.2-6.7,16.5-10,24.8s-6.6,16.7-9.6,25.2
		c-4,11.6-7,23.6-8.9,35.7c-2.8,15.9-4.4,31.9-6.2,47.9c-2.6-1.3-5.1-2.6-7.6-4c-2.4-1.6-4.6-3.4-6.7-5.4c-2.7-2.2-5.4-4.4-8-6.7
		c-8.1-6.8-14.6-15.4-18.9-25.1c-2.1-4.8-3.5-10-4-15.2c-0.3-4.4,0.2-13.9,0.2-14.2c0.1-1,5.7-4,8-5.4c4.5-2.9,8.7-6.2,12.5-9.8
		c4.5-4.1,9.2-8.2,13.4-12.7c3.7-4.1,7.2-8.4,10.2-13l-0.2,0.2l0,0c1.8-2.1,8.3-13.4,9.6-16.8c1.7-4.6,2.5-9.4,3.6-14.1
		c0.9-3.6,1.7-7.3,2.2-11c0.7-5.1,0.4-10.2,0.1-15.3c-0.3-7.1,0.5-14.1,1.1-21.2c0.6-6.1,1.6-12.2,2.8-18.3
		c1.1-5.4,2.2-10.9,3.3-16.3c1.4-6.7,3.3-13.2,5-19.9c2.8-11,5.1-22.1,8.8-32.9c3.8-11.1,8.3-22,12.8-32.9
		c2.6-6.2,5.2-12.3,7.8-18.5c1.9-4.8,3.8-9.6,5.6-14.4c2.5-6.6,8.2-18.1,0.2-22.9c-2.7-1.7-6.4-1.2-9.2-0.2
		c-3.2,1.1-6.2,2.5-9.2,4.1c-6.3,3.4-12.4,7.9-18.2,12.2c-12,8.8-23.3,18.5-33.9,29c-2.2,2.2-4.4,4.5-6.6,6.8
		c-2.4-1.1-10.3-3.4-11.7-3.9c-1.9-0.6-3.9-1.3-5.8-2c-8.3-3.2-16.7-6-24.8-9.5c-9.3-3.9-18.8-7.1-28.4-10.4
		c-7.6-2.6-14.6-5.8-22.3-7.9c-9.1-2.4-18.1-5-27.2-7.6c1.8-5.3,3.1-10.7,4.4-16.2c1.7-6.7,3.7-13.4,5.3-20.1
		c2.1-8.3,4-16.7,5.6-25.1c2.3-11.5,5-22.9,5.6-34.7c0.4-6.5-0.9-15.5-8.9-16.5c-7.5-0.9-12.1,5.7-16.2,10.9
		c-14.9,18.5-30.8,36.2-47.3,53.3c-8.7,9-17.9,17.6-26.5,26.7c-10.8,11.4-22.1,22.2-33.1,33.3c-9.1,9.2-17.7,19-26.3,28.8
		c-7.1,8.1-14.4,16.1-21.4,24.3c-15.8,18.3-30.4,37.6-45.1,56.7c-9.6,12.4-18.5,25.3-27,38.5c-6.9,10.8-13.1,22-19.3,33.2
		c-6,10.8-11.9,21.7-17.3,32.9c-4.5,9.4-8.5,19.1-12.4,28.7c-6.2,15.4-11.6,31.2-16.7,47c-4.4,13.6-9,27.2-12.1,41.2
		c-6.7,29.7-8,60.1-8.6,90.5c-0.1,3.2-0.2,6.3-0.2,9.5C246.8,1007.1,247.4,1014.8,247.4,1014.8z"/>
		<path class="st2" d="M916.6,929.9c7.4,0,12.6-7.5,15.1-12.1c1.3-2.2,2.2-4.5,2.9-7c0.5-2.5,0.8-5,0.8-7.6
		c0.5-10.8-2.6-22.7-13.1-27.5c-9.6-4.4-21.4,2.6-26.2,11.1c-2.9,5.2-3.7,11.2-3.4,17C893,910.2,895.4,929.9,916.6,929.9z
		 M917.2,911.7c-0.2,1.3-0.7,2.6-1.3,3.8c-0.4,0.7-1,2.2-2,2.4c-1.3-2.4-3.2-4.3-3.8-7.1c-0.5-2.4,0.3-5,2.1-6.7
		c0.7-0.9,1.6-1.5,2.7-1.9c1-0.2,1.2,0.5,1.6,1.4C917.3,906.3,917.6,909,917.2,911.7L917.2,911.7z M899.1,897.9
		c0.6-4.7,2.9-9.1,6.3-12.4c3.2-3,8.3-5.7,12.8-4.9c11.1,2.1,11.1,17,9.3,25.5c-2.2-6.5-5.7-12.8-13.5-12.6c-3.5,0-6.8,1.3-9.3,3.7
		c-2.5,2.4-4.4,5.5-5.6,8.8C898.8,903.3,898.8,900.6,899.1,897.9L899.1,897.9z"/>
		<path class="st2" d="M789.3,936.7c6-0.1,10.4-4,13.4-9.2c2.2-4,4.7-8.3,5.3-12.9c0.7-5.9,0.5-11.8-0.6-17.6
		c-1.7-10.8-10.6-23.2-22.9-19c-10.2,3.5-18.1,14.6-19.2,25.2c-0.3,4.9,0.1,9.9,1.4,14.7C768.1,923.5,771.2,937,789.3,936.7z
		 M792.2,920.3c-0.3,1.9-2.6,4.3-4.6,4.6c-2,0.2-5-1.8-5.8-3.4c-0.9-1.8-1.9-4.8-1.1-6.8c0.3-0.8,0.8-1.4,1.5-1.9
		c1.8-1.3,4.2-1.6,6.2-0.6c1.2,0.5,2.5,0.8,3.4,1.8C792.9,915.3,792.4,918.7,792.2,920.3L792.2,920.3z M772.1,911.7
		c-0.2-1.2-0.3-2.5-0.6-3.8v0.1c0-0.1,0-0.2,0-0.3c0,0.1,0,0.1,0,0.2c-0.3-2.7,0.5-24.6,17.8-24.1c14.5,0.5,12.7,23.6,12,27.1
		c-2.4-5.9-7.4-11.6-14.4-10.6c-3.1,0.5-6.8,1.6-9.1,3.8c-2.5,2.2-4.4,5-5.6,8.1C772.2,912,772.2,911.8,772.1,911.7L772.1,911.7z"/>
		<path class="st2" d="M871.2,1035.5c-2.3-5.8-13.5,4.9-15.4,6.8c-2.8,2.5-5.3,5.1-7.7,8c-1.1,1.5-2.2,3-3.3,4.5
		c-0.7,0.7-1.2,1.6-1.5,2.5c-0.1,0.3-0.1,0.7,0,1c0.1,0.6,0.1,1.1,0.1,1.7c0.3,4.2,6.3,3.8,9.4,4c3.1,0.4,6.1,0.5,9.2,0.4
		c3.7-0.3,5.5-3.4,6.6-6.7c1-3.3,1.8-6.6,2.3-10c0.4-2.1,0.6-4.2,0.7-6.3C871.8,1039.4,871.7,1037.4,871.2,1035.5z M868.7,1038.6
		c0,3.2-0.5,6.4-1.2,9.5c-0.7,3.3-1.4,7-3.4,9.9c-1.6,2.3-3.9,1.5-6.3,1.2c-3-0.4-6.9-0.8-9.2-2.9c2.7-3.6,5.6-7.1,8.8-10.4
		c2.4-2.7,5.1-5.2,8.1-7.4c0.6-0.4,1.2-0.8,1.8-1.2c0.4-0.2,1.1-0.9,1.4-0.6C869,1037,868.7,1038.2,868.7,1038.6L868.7,1038.6z"/>
		<path class="st2" d="M1009.6,1053.9c-2.6,1.3-3.9,4.4-2.9,7.1c1.1,3.1,4.8,3.2,7.6,3.3c2.8,0.1,5.8-0.2,8.6-0.2
		c3.4,0,6.8,0.1,10.2,0.3c12,0.7,24.1,1.2,35.9,3.2c4.3,0.8,8.7,1.4,13.1,1.9c3.2,0.4,6.4,0.6,9.6,0.9c1.3,0.1,2.7,0.3,3.5-1
		c0.7-1.2,0.3-2.7-0.9-3.4c0,0-0.1,0-0.1-0.1c-2.4-1.3-6-1.3-8.7-1.7c-3.8-0.6-7.6-1-11.4-1.5c-4.1-0.6-8.2-1.3-12.3-2
		c-5.3-0.8-10.6-1.3-15.9-1.8c-7-0.7-13.9-2.2-20.9-2.6h0.1h-0.2c2.1-1.6,3.1-4.1,2.7-6.7c-0.4-2.5-2.4-4.4-4.4-5.8
		c-4-3-8.6-2.6-13.3-3.2c-5-0.7-10.1-0.3-15.1,0c-4.7,0.3-9.4,0.7-14.1,1.1c-3.4,0.3-6.9,0.6-10.3,0.8c-5.3,0.3-12,0.5-16.7-2.2
		c-4.2-2.3-6.5-6.2-9.6-9.7c-4-4.3-8.5-8.1-13.3-11.4c-4.8-3.3-10.1-5.8-15.7-7.4c-5.9-1.9-12.1-2.9-18.3-2.9
		c-0.4-3.5-0.6-7.2-0.7-10.9l0,0c0,0,0-0.1,0-0.1c3.6,1.7,7.3,3.1,11.1,4.3c2.9,0.9,6.6,2,9.6,0.8c2.7-1.1,3.4-4.2,3.9-6.7
		c0.9-4.3,1.5-8.7,2-13.1c0.3-2.6,0.6-6.6-1.8-8.5c-2.4-1.8-5.9-0.5-8.4,0.6c-2.9,1.3-5.6,2.7-8.3,4.4c-1.6,1.2-3.3,2.3-5.1,3.2
		c-1.1,0.5-2.5,1.5-3.6,1.5c0-2.1-0.1-4.2-0.4-6.3c-0.5-2-2.5-3.2-4.6-2.8c-1.9,0.6-3.2,2.5-2.9,4.5h-0.1v0.1
		c-3.4-1.5-7.1-2.3-10.6-3.6s-8.9-4.1-11.4,0.4c-1.4,2.5-1.6,5.9-1.8,8.6c-0.1,1.4-0.3,2.8-0.4,4.2c-0.4,4.3-1.1,13.1,5.2,13.4
		c3.4,0.1,7-1.4,10.1-2.6c3.1-1.2,6.3-2.4,9.3-3.8v0.1h0.1c0,4.1-0.3,8.1-0.4,12.2l0,0v0.1c-3.6,0.1-7.1,0.3-10.7,0.3
		c-4,0-7.7,1.3-11.3,2.8c-3.7,1.3-7.4,3-10.8,5c-4.4,2.7-8.2,6.4-11,10.7c-2.8,4.5-4.7,9.7-6.6,14.6c0,0,0-0.1,0-0.1l-0.1,0.1
		c-1.6-3.8-3.6-7.4-6.1-10.8c-1.9-2.5-5.4-5.4-8.1-2.3c-3.6,4-3,10.5-2.6,15.4c0.2,1.8,0.3,3.5,0.6,5.3c0.4,2.5,0.7,7.2,3.1,6.3
		c-8.8,3.5-8,13.4-8.3,13.8c-1.4,1.9,0.2,4.7,1.5,6.3c3.4,4,7.9,6.9,13,8.3c5.4,1.5,11.5,1,17,0.3c3-0.4,6-1.1,8.8-2.2
		c0.8-0.3,7.1-3.5,7.1-3.5c0.5,0.1,1,0.3,1.4,0.5l0,0c2,0,4.1,0.5,6.1,0.7c2.3,0.2,4.6,0.3,6.9,0.5l-0.4-0.1
		c6,0.5,12.1,0.7,18.1,0.8c5.1,0.1,9.9-1.2,14.9-2.2c11-2.2,21.7-5.7,31.9-10.4c3.7-1.5,7-3.7,9.7-6.5c1.1-1.1,1.9-2.4,2.5-3.8
		c0.2-0.9,0.6-1.7,1-2.5c0-0.3,1.9-0.9,2.1-1c1.1-0.5,2.2-0.9,3.2-1.4c2.1-0.8,4.1-1.6,6.2-2.2c4.2-1.2,8.4-2,12.7-2.6
		c4.4-0.6,8.8-1,13.2-1c3.9,0,7.8,0.5,11.7,0.7l-0.3-0.1c4.4,0.1,8.7,1,12.7,2.6l0,0l0.1,0.1
		C1014.5,1052,1011.9,1052.7,1009.6,1053.9z M914.5,996.7L914.5,996.7z M903.6,989.8c4.3-3.4,8.8-6.4,13.6-8.9
		c-0.1,2.5-0.3,4.9-0.8,7.4c-0.4,2.6-0.5,5.8-1.8,8.1c-4.1-1.1-8-3.8-11.5-6.2L903.6,989.8z M878.2,992.7c-2.4,0.9-4.8,1.7-7.3,2.4
		c0.1-3.7,0.5-7.3,1.3-10.9c4,2.2,8.3,3.7,12.3,6C882.4,991.1,880.3,991.9,878.2,992.7L878.2,992.7z M823.8,1044
		c-0.4-2.4-0.7-4.7-0.8-7.1c0-1.6,0.7-5.3,2.2-6.2c1.3-0.8,2.6,1,3.3,1.9c1.8,2.2,3.3,4.7,4.6,7.3c1.1,2.3,2.4,5.2,1.8,7.8
		s-1.8,4.7-4.3,5.5c-2,0.7-3.4,1.1-4.9-0.7C824.2,1050.3,824.2,1046.5,823.8,1044L823.8,1044z M940.6,1061.4
		c-3.5,1.7-7,3.3-10.7,4.7c-4.9,2-9.8,3.8-14.9,5.3c-9.3,2.3-18.8,3.4-28.3,3.1h0.1c-5.5-0.2-11.1-0.5-16.3-2.2
		c-1.2-0.3-2.5-0.6-3.8-0.7c-1-0.2-2-0.2-2.9-0.4c-1.1-0.2-3.1,1.1-4.1,1.6c-1.4,0.7-2.7,1.5-4.1,2.2c-3.5,1.9-7.2,3.4-11.1,4.3
		c-3,0.5-6.1,0.6-9.2,0.3c-3.1-0.4-6.1-1.4-8.8-3c-4-2.1-7.7-5.8-4.5-10.2c1.5-1.9,3.2-3.6,5-5.2c1.3-1.3,2.9-2.4,4.7-3
		c0.9-0.5,1.9-0.9,2.9-1.1c1.3,0,2.2,0.5,3.4-0.3c1.8-1.3,2.4-4.5,3.2-6.5c1.8-4.7,3.8-9.2,6.1-13.7c1.4-2.9,3.3-5.7,5.4-8.1
		c1.5-1.7,3.1-3.3,4.8-4.8c-0.2,0.1-0.3,0.2-0.5,0.3c0.1-0.1,0.2-0.2,0.3-0.3l-0.4,0.2c2.7-2.3,5.5-4.3,8.5-6.1
		c2.6-1.6,5.3-3.6,8.2-4.5c3.1-0.9,6.4-1.4,9.7-1.3c1.5,0,3.1,0,4.6,0.2c0,3.8-0.7,11,5.1,10.4c4.8-0.5,4.6-6.5,4.3-10l0,0v-0.1
		c2.4,0.1,4.8,0.4,7.1,1c0.9-2.2,3.6,0.7,4.6,1.1c2,0.8,4.2,1.1,6.3,1.8c4.3,1.4,8.4,3.3,12.2,5.8c4.7,3.3,9.3,6.9,12.8,11.6
		l-0.1-0.3c3.3,4.2,5.9,8.8,7.9,13.8c1.3,3.3,1.4,6.8-1,9.6C945.2,1058.7,943,1060.3,940.6,1061.4z"/>
		<path class="st2" d="M1178.3,806.7c-3.2,2.3-7,4.3-9.7,7.5c-1.3,1.6-3,3.5-2.2,5.7c0.8,2.2,3.5,3.1,5.3,4c3.7,1.7,7.4,3.4,11.1,5.1
		c0.7-3.4,1.6-6.8,2.2-10.2c0.6-2.8,1-5.7,1.1-8.5c0.1-1.8-0.1-3.7-0.7-5.4c-0.1-0.3-1-1.8-1.2-1.5
		C1182,803.7,1180.1,805.4,1178.3,806.7z"/>
		<path class="st2" d="M584,754.1c0.8,4.2,2.2,8.3,4,12.2c1.8,3.4,3.4,6.9,5,10.4c1.1-0.2,2.1-0.2,3.1-0.3c1.2-0.3,2.4-0.6,3.5-1.1
		c1.1-0.4,2.2-0.7,3.4-1.1c4.1-1.3,8.2-2.6,12.2-4.3c2.1-0.8,5-1.7,6.6-3.5c0.6-0.8,0.3-1.1-0.4-1.8c-1-0.9-2.2-1.7-3.5-2.3
		c-4.9-2.7-9.9-4.9-15.2-6.8c-3.1-1.1-6.3-1.9-9.5-2.6c-3-0.6-6.4-1.2-9.4-0.4C583.7,753,583.8,753.5,584,754.1z"/>
		<path class="st2" d="M619.5,961.2c-1-0.7-2.2-2-3.3-2.4c-1.1-0.4-3,0.1-4.1,0.1c-2.9,0.1-15.5,1.3-18.9,1.5
		c-4.1,0.2-8.1,0.3-12.2,0.6c-2.2,0.2-5.6-0.2-7,1.6c1.6,1.8,3,3.7,4.3,5.8c0.3-0.1,0.5-0.2,0.7-0.3c3.7-1.1,41.1-3.5,42.5-3.5
		c0.7,0.1,1.4,0,2.1-0.2C622.1,963.6,620.7,962.5,619.5,961.2z"/>
		<path class="st2" d="M580.8,1013.1c-1.2,0-2.4,1.9-3.2,2.8c-2.1,2.6-4.9,4.5-8.1,5.5c-5.2,1.3-11.1-0.4-15.5-2.9
		c-6.5-3.6-11.7-9-15.1-15.6c-2.3-4.3-4.1-8.9-5.3-13.7c-1.2-5.1-3.7-10.9-9.6-11.7c-6.5-0.9-11.6,5.2-17.3,7.3
		c-5.3,1.9-10.9,3.1-16.5,3.6c-1.9,0.1-3.9,0-5.8-0.1c-4,0-8-0.4-11.9-1.2c-4.3-1.2-8.3-3-12.1-5.4c-4.9-2.8-9.5-6.2-13.7-10
		c-5.1-4.5-9.5-9.7-13.2-15.5c-3-5-5.6-10.2-8.1-15.4c-3.3-6.7-6.6-13.5-9.3-20.5c-2-5.2-3.8-10.5-5.9-15.6
		c-3.4-8.3-7.7-17.1-15.9-21.6c-5.3-2.9-12.8-4.1-17.8,0c-5.6,4.5-6.6,12.3-6.5,19c0,2.6,0.2,5.1,0.6,7.7c5-2.6,9.4,2.1,11,6.4
		c1,2.6,1.1,5.3,1.7,8c0.6,2.5,1.5,4.9,2.6,7.2c2.3,5.2,4.9,10.3,7,15.6c2.1,5,5,9.5,8.7,13.5c7.6,8.1,15.8,15.5,24.6,22.2
		c8.8,7,18.4,13,28.7,17.6c6.1,2.6,12.3,4.6,18.8,6.1c2,0.5,4,0.8,6,1.2c1.3,0.3,2.7,0.5,4,0.7c1.3,0.4,2.6,0.5,3.9,0.4l0,0
		c4,0.4,8.1,0.5,12.2,0.3c4.1-0.1,8.2-0.3,12.3-0.7c5.2-0.6,14.5-4.4,17.2,2.4c0.5,1.5,0.7,3.1,0.6,4.7c0,1.9,0.2,3.8,0.5,5.7
		c0.7,3.9,1.5,8,3.5,11.5c4.3,7.3,14.1,7.2,21.5,5.8c4.6-1,9-2.9,12.8-5.6c4.1-2.6,7.4-6.4,9.5-10.8l-0.7,0.3c1.2-0.6,1.9-1.7,2.2-3
		C579.8,1017.2,580.3,1015.1,580.8,1013.1L580.8,1013.1z"/>
		<path class="st2" d="M769.5,1019.9c0.9-0.1,1.8,0.1,2.6,0.1c1-0.1,1.9-0.4,2.8-0.9c1.9-0.9,3.7-1.8,5.5-2.8
		c-0.5-0.8-1.7-0.7-2.6-0.5c-1.9,0.4-3.9,0.5-5.8,0.3c-4.1-0.4-7.7-3.1-10.9-5.6c-6.8-5.6-11.7-13.1-14.1-21.5c-0.6-2-0.9-4-1.1-6
		c-0.2-2.1-0.1-4.5-0.9-6.4c-1.7-3.8-5.5-2.7-8.6-2.2c-3.4,0.4-6.9,0.3-10.3-0.4c-14.9-2.6-29.2-7.5-42.5-14.6
		c-7.9-4.5-15.6-9.6-22.8-15.1c-7.2-5.3-14.1-10.9-21-16.5c-3.8-3.1-7.8-6.6-12.1-9.2c-4.3-2.5-11.4-6.1-15.9-3
		c-2.6,1.8-5.2,5.4-5,8.7c0.1,1.3,0.4,2.8,0.6,4.1c0.3,1.7,0.8,3.4,1.6,5c4.1,8.6,12.6,12.8,20.7,17c1.9,1.2,3.7,2.5,5.3,4
		c1.9,1.4,3.7,2.9,5.6,4.3c3.6,2.6,7.4,5.1,11.3,7.4c8,4.9,16.3,9.4,24.8,13.5c8.9,4.2,18.1,7.6,27.6,10.1c4,1.1,8.1,2,12.2,2.7
		c3.8,0.6,8-0.1,11.2,2.4c1.8,1.5,3,3.6,4.2,5.6c1.7,2.6,3.3,5.3,5.1,7.8c1.3,1.9,2.7,3.7,4.2,5.5c1.6,1.8,3.6,3.2,5.8,4.1
		c3.9,1.9,8.3,3,12.7,3c1.9,0,3.8-0.2,5.7-0.4C766.6,1020.3,768.3,1019.6,769.5,1019.9z"/>
		<path class="st2" d="M693.8,620.4c3.2-0.7,6.3-2.2,8.8-4.3c4.7-3.7,8.2-8.6,11.9-13.2c5.6-6.8,11.6-13.2,17.8-19.5
		c2.7-2.9,5.6-5.6,8.6-8.2c1.4-1.1,2.8-2.3,4.1-3.4c1.2-1,4.7-2.8,2.9-4.6l-0.2,0.1c-0.8-1.1-5.1,2.8-6.2,3.6
		c-1.1,0.8-2.4,2-3.7,2.8c-2.4,1.6-4.9,3.1-7.3,4.7c-3.4,2.3-7.4,4.4-10.4,7.3c-7.4,7.2-16,13.3-22.7,21.2c-1.9,2.3-3.7,4.5-5.8,6.6
		c-1.7,1.7-3.3,2.2-5.8,2.5c-1.8,0.2-3.6,0.2-5.5,0C680.6,616.2,689.6,621.2,693.8,620.4z"/>
		<path class="st2" d="M1324,966.1c0.8,0.4,3.4-3.1,4-3.7c1.4-1.6,2.8-3.3,4.1-5l-0.5-0.2c0,0.1-10.4-1-12.6-1.1
		c-4.7-0.1-34.6-3.1-44.8-4c-17.8-1.5-35.6-3-53.5-3.4c-11.3-0.3-22.6-0.6-33.9-1.1c-13.2-0.5-98.3-1.1-100.8-1.1
		c0.6-5.7,0.1-11.6-0.5-17.3c-0.4-4.5-0.9-9-1.2-13.5c-0.7-8.4-1.5-16.7-2.7-25c-2.6-16.7-5-33.6-10.5-49.6
		c-2.7-7.9-15.9-35.3-19.1-41.2c-6.4-11.7-39.8-55.3-43.5-59.4c-8.9-9.9-33.2-37.7-36.2-39.9c-1.1-1-2.3-2-3.6-2.7
		c-1-0.4-2.3,0.1-2.1,1.4c0.2,1.3,2.6,2.5,3.6,3.2c1.5,1,2.9,2.2,4.1,3.6c2,2.4,14,25,19.7,36.1c3.2,6.2,9.5,15.8,12.8,21.9
		c2.7,5,47.3,104,49.4,110.9c2.8,9.1,6.6,18.3,8.2,27.8c1.3,6.9,2,13.9,2.2,20.9c0,5.4-2,10.8-2.3,16.2c-0.1,2.3-0.3,4.6-0.5,6.9
		c-1.2-0.2-2.5-0.2-3.8-0.1l-9.6-0.1c-9.4-0.1-18.7,0.1-28.1,0.6c-4.4,0.3-8.9,0.5-13.3,0.4c1-1.4-41.6-184.6-44.5-192.4
		c-2.3-6-5.4-16.9-13.4-16.9c-7.6,0-9.9,8.7-12.3,14.3c-3.1,7.2-27.4,68.3-29.5,73.5c-0.2,0.6-0.5,1.8-1,2.1
		c-0.5,0.3-74.2,3.2-102.4,9.1c-3.9,0.8-7.7,1.7-11.6,2.7c-0.3-1.9-7-14.3-8-16.3c-4.4-9.3-20.7-48.1-25.3-57.7
		c-2.3-5-4.9-9.8-7.9-14.4c-2.5-3.7-6.5-9.2-11.3-5c-1.9,1.7-3.1,4.3-4.2,6.6c-0.8,1.7-1.5,3.4-2.3,5.1c-0.9,2-1.8,4-2.7,6
		c-4.3,10-9,19.9-13.1,29.9c-8.9,21.6-17.1,43.4-20.9,66.5c-2,12-3.2,24.2-4.5,36.3c-0.6,5.4-1.2,10.8-1.7,16.2
		c-0.1,1.2-0.3,2.4-0.3,3.6c0,2,1.6,3.7,3.6,3.8c0.1,0,0.3,0,0.4,0c0.9-0.1,1.8-0.6,2.4-1.3c0,0,1-1.7,0.7-1.7
		c0.3-6.2,1.2-12.5,1.9-18.6c0.8-7.4,1.8-14.8,2.9-22.2c1.9-12.2,15.1-57.3,19.1-67.7c2.9-7.6,5.9-15.1,9-22.5
		c2.7-6.3,5.3-12.7,8-19c1.6-3.6,3-7.4,4.8-10.9c0.2,0.6,0.4,1.1,0.8,1.6c0.4,0.3,0.8,0.1,1.4,0.4c1.6,0.8,0,1.9,0.3,3l0.1-0.1
		c8.4,16.6,25.7,61.4,27.8,66.4c1.9,4.3,8.4,20.8,10,22c2.9,2.2,4.2,1.7,7.3,0.9c4.1-1,8.2-1.8,12.3-2.7h0.1c0.2,2.2,1.2,18,5.9,21
		c3.9,2.4,8.9,1.7,11.9-1.8c3.1-3.6,0.7-19.2,0.5-22.3c3.5-0.4,7-0.6,10.5-0.8h0.1c-1.2,9.8-0.9,19.8,1.1,29.5
		c0.9,4.1,2.6,8.7,6.8,10.5s8.6-0.8,10-5.1l-0.1,0.2c1.3-5.4-0.2-33.3-0.2-36.5c1.9-0.1,3.7-0.2,5.5-0.1h0.2
		c0.3,6.4,1.2,12.8,2.6,19.1c1.1,4.5,4.6,8.3,9.7,7.3c5.8-1.2,6.5-21.7,6.1-26.5l0,0v-0.1c7.3,0.1,37.8,0.5,39.3,0.2
		c2.4-0.5,4.3-2.2,5.2-4.5c1.4-3,25-60.8,26.5-65c1-2.9,4.3-11.8,4.5-11.8c0.3,0,17.8,67.2,19.4,74.5c1.9,8.7,3.8,17.3,5.9,26
		c2.6,11,4.7,22.1,7.4,33.1c2.1,8.4,9.8,51.8,9.9,52.5c-4.5,0.1-9,0.1-13.5-0.2c-5.2-0.2-26.8-0.4-29.3-0.4
		c-5.5,0-62.2-0.4-71.8-0.1c-5.6,0.2-11.2,0.1-16.8,0.2l0,0h-0.1c1.5-3.3,2.3-6.9,2.5-10.5c0-2.1-0.2-4.6-1.5-6.2
		c-1.6-1.9-4.3-2.9-6.6-3.7c-7.6-2.4-25.9-4.1-26.1,7.8c-0.1,5,3.3,9.8,5.9,13.9h-0.1c0,0,0,0.1,0.1,0.1c-6.6,0-60.8,2.5-62.5,2.7
		c-1.6,0.1-3.1,0.4-4.5,1.1c1.8,1.4,3.2,3,5.3,4.1c1,0.5,4.4,3,4.9,3c0,0-0.1-0.1-0.1-0.1c9.8-1.3,19.7-1.9,29.6-1.8
		c9.9,0.2,58.4-0.9,65-0.9c18.6,0,216.1-0.6,224.6-0.6c9.5,0,94.4,2.7,116.8,3c15,0.2,30,1.2,44.9,2.3c6.9,0.5,13.7,1,20.5,1.5
		C1291.7,963,1322.1,965.2,1324,966.1z M858.5,934.8c-0.7,3.8-5.2,12.1-5.7,12.3c-0.4,0.2-1.8,0.1-2.3,0.1
		c-2.8-4.2-5.9-8.3-8.3-12.8c3.1-1.1,13.8-1.3,14.7-1.2C858.2,933.3,858.5,933.3,858.5,934.8L858.5,934.8z"/>
		<path class="st2" d="M1234.9,745.9c-2.4-3.6-6.3-6.8-10.5-7.7c-1.7-0.4-3.5,0.9-4.9,1.8c-1.9,1.2-3.6,2.7-4.9,4.5
		c0.3,0,0.6,0.1,0.9,0.2c3.4-0.3,6.8,1,9.2,3.4c2.5,2.4,4,5.8,3.9,9.4c1.5-0.2,3.1-0.5,4.5-1l1.1-0.4c0.4,0,0.7-0.3,0.8-0.6
		c0,0,0-0.1,0-0.1c0.3-0.5,0.6-1.1,0.9-1.7C1237.2,751,1236.2,748.4,1234.9,745.9z"/>
		<path class="st2" d="M1095.5,819.4c0.9-0.1,1.8-0.4,2.6-0.8c0.7-0.4,0.9-1,1.4-1.7c0.5-0.5,0.9-0.9,1.5-1.3
		c2.1-1.8,3.3-5.5,3.1-8.3c-0.2-3.2-3.2-5.3-6.3-5.4c-3.1-0.1-5.5,2.3-7.7,4.3C1094,809.4,1096.6,814.1,1095.5,819.4z"/>
		<path class="st2" d="M535,693.7c0.6,0.8,1.4,1.5,2.3,2c0.4,0.2,0.8,0.3,1.3,0.4c0.2,0,0.4,0.1,0.6,0.1c0.3-0.1,0.6,0,0.6,0.3
		c0.9,0.6,1.3,0.9,2.5,0.6c1.1-0.3,2.2-0.8,3.2-1.5c3.5-2.3,5.2-7.3,3.2-11.1c-1-1.9-2.9-3.2-5.1-3.2c-2-0.1-4.5,0.1-6.2,1.3
		c-0.7,0.6-1.3,1.3-1.9,2c-0.8,0.7-1.4,1.7-1.7,2.7C533.4,689.3,533.8,691.7,535,693.7z M543.3,690.6c0,0-0.1,0.1-0.1,0.1
		C543.3,690.5,543.3,690.5,543.3,690.6z M539,688.3c0.1-0.6,0.4-1.1,0.7-1.5c0,0,0,0-0.1,0.1l0.2-0.2c0,0.1-0.1,0.1-0.1,0.2
		c0.6-0.7,1.7-1.6,2.7-1.2c1,0.4,1.1,1.5,1.2,2.3l0,0c0.3,1.8-0.3,3.2-2.2,3.7c-0.3-0.8-1.3-0.9-1.8-1.6
		C539.3,689.5,539.1,688.9,539,688.3L539,688.3z"/>
		<path class="st2" d="M652.1,729.8c2.4,4,7.9,3.6,10.6,0.4s4.3-7.8,1.3-11.4c-2.5-2.8-7-2.6-10.1-0.8
		C649.6,720.5,649.7,726,652.1,729.8z M656,724.8c1.3-1.6,3.7-2.2,4.3,0.2c0.2,0.9,0.2,1.2-0.6,1.7c-0.4,0.2-3.3,1.1-3.5,0.6
		c0,0,0,0.1,0,0.1c-0.3-0.8-0.4-1.6-0.3-2.4c0,0.1-0.1,0.2-0.1,0.4C655.8,725.2,655.9,725,656,724.8z"/>
		<path class="st2" d="M489.5,740.3c-1-0.1-1.9-0.3-2.9-0.3v0.1c-4.7-0.3-9.3-0.9-14-1.1c-7.6-0.4-15.1-0.6-22.7-0.6
		c-1-0.1-1.9,0-2.9,0.1c-2.6,0.4-2,3.7,0.5,2.8c0.5-0.2,1.1-0.3,1.6-0.3h1.6h3.4c5.5,0.1,11,0.2,16.5,0.5c5.5,0.3,10.9,0.6,16.2,1.4
		l0,0c1.1,0.1,2.1,0.2,3.1,0.4V743c13.7,1.9,27.3,4.2,40.8,7.4c3.3,0.8,6.7,1.4,10,2.4l0,0c1.1,0,2.5-0.7,1.6-2
		c-0.9-1.3-4-1.5-5.4-1.8l-7.9-1.8c-3.9-0.9-7.9-1.6-11.9-2.4c-5.8-1.1-11.5-2.2-17.4-3.1c-3.3-0.5-6.7-0.9-10-1.6l0,0L489.5,740.3z
		"/>
		<path class="st2" d="M539.1,764.8c1.3-0.9,0.1-2.2-1-2.3c-0.7-0.1-1.5-0.1-2.2-0.2c-3.1-0.2-6.2-0.3-9.3-0.4l-7.9-0.3
		c-5.6-0.2-11.2-0.3-16.8-0.3c-2.7,0-6.1,0.4-8.7-0.2c-1.2,0-2.4,0-3.6,0.1c0,0.2-12,0.8-12.9,0.9c-5.4,0.5-10.8,1-16.2,1.8
		c-1.9,0.3-3.7,0.6-5.6,0.9l-3.1,0.5c-1.2,0-2.4,0.3-3.5,0.7c-0.6,0.3-0.8,1.1-0.5,1.7c0.1,0.2,0.2,0.3,0.4,0.4
		c0.6,0.3,1.3,0.3,1.9,0c1.7-0.3,3.4-0.6,5.1-0.9c6.6-1.2,13.3-1.9,19.9-2.5c6.4-0.6,12.8-0.9,19.3-0.9v-0.1
		c10.6,0,21.1,0.2,31.6,0.6c2,0.1,4.1,0.1,6.1,0.2l4.1,0.2C537.1,765,538.4,765.3,539.1,764.8z"/>
		<path class="st2" d="M498,783c-1.6,0.2-3.1,0.6-4.7,1c-2,0.5-4,0.9-6,1.5c-3.4,0.9-6.9,2-10.2,3.1c-5.3,1.7-10.4,3.8-15.4,6.2
		c-0.9,0.4-2.9,0.9-2.6,2.3c0.4,1.9,2.7,0.5,3.6,0.1c3.8-1.8,7.7-3.4,11.7-4.8c6.5-2.4,13.2-4.4,20-5.9c10.1-2.2,20.3-3.4,30.6-4.6
		c3.2-0.4,6.6-0.6,9.8-1.1c1.7-0.3,2-2.4,0.1-2.5c-1.3,0-2.6,0.2-3.9,0.4l-3.6,0.4c-8.3,0.9-16.8,1.8-25,3.2v0.1L498,783z"/>
		<path class="st2" d="M645.9,778.7c15,6.1,29.4,13.6,43.2,22.2c1.7,1.1,3.3,2.1,5,3.2c1.4,0.8,2.7,1.9,3.8,3.2
		c0.4,0.6,0.5,1.2,1.3,1.3c0.7,0.1,1.5-0.3,1.6-1.1c0.4-1.4-1.2-2.6-2.1-3.4c0,0.1-0.1,0.1-0.1,0.2c-2.4-2-5-3.9-7.8-5.4
		c-0.3-0.2-4-2.5-4-2.5c-10.1-6.6-21.5-11.7-32.4-16.8c-1.7-0.8-3.5-1.6-5.3-2.3c-0.8-0.5-1.7-0.8-2.6-1c-0.7,0-1.3,0.5-1.3,1.2
		C645.2,778,645.5,778.5,645.9,778.7z"/>
		<path class="st2" d="M641.2,791.3c7.4,2.9,14.5,6.5,21.6,10c3.5,1.8,6.9,3.7,10.2,5.8c3.6,2.3,7.1,4.7,10.5,7.2
		c1.9,1.4,3.9,2.8,5.8,4.3c0.6,0.5,2.3,1.3,2.6,2.2c0.2,0.6-0.3,1.3,0.4,1.9c1.3,1,4,0,3.4-1.8c-0.3-1-1.5-1.7-2.2-2.3
		c-0.9-0.8-1.8-1.6-2.8-2.3c-1-0.7-11.4-8.9-11.9-8.3c-4.8-3.1-9.6-6.2-14.7-8.8c-4.8-2.4-9.5-4.8-14.4-7c-2-0.9-4.1-1.8-6.1-2.6
		c-0.6-0.3-1.3-0.5-2-0.6C640.5,788.9,639.9,790.8,641.2,791.3z"/>
		<path class="st2" d="M641.7,807.5c5.4,4,10.9,7.8,16.1,12c3.3,2.7,6.6,5.4,9.9,8c3.6,2.9,7,5.8,10.5,8.8c1.6,1.3,3.1,2.7,4.7,4.1
		c0.9,0.8,3.4,3.7,4.4,1.4c0.4-0.9-0.3-1.5-0.9-2c-0.9-0.8-1.8-1.6-2.7-2.4c-1.8-1.7-3.7-3.3-5.7-4.9c-4-3.4-8.1-6.8-12.2-10
		l-0.1,0.1c-8.6-6.8-17.4-13.4-26.2-19.8c-1.7-1.2-3.4-2.5-5.2-3.7c-0.9-0.6-2.9-1-2.6,0.9c0.2,0.9,1.4,1.4,2,1.9l2.6,1.9
		C638.3,804.9,640,806.2,641.7,807.5z"/>
		<path class="st2" d="M1096.3,880.5c1.5-3.2,4.2-5.6,7.4-6.9c3.6-1.3,7.4-1.6,11.1-2.6c1.4-0.3,2.7-1,3.8-2c1.7-1.6,1.7-4.2,1.9-6.4
		c0.2-3.4,0.2-7,1.7-10.1c0,0,0,0.1,0,0.1c0.7-1.3,3.8-1.7,5.1-1.8c1.5-0.1,3-0.1,4.5,0.1c2.2,0.2,4.3,0.5,6.5,0.8
		c0.9,0.1,2.6,0.7,3.2-0.2c1.3-1.7-1.2-2.1-2.2-2.2c-2.5-0.3-5.1-0.6-7.7-0.9c-3.9-0.4-9.7-0.5-12.2,3.2c-2.3,4.3-0.9,10-2.3,14.7
		c-0.7,2.8-7.3,3.1-9.6,3.6c-4.5,0.9-8.8,2.5-11.7,6.2c-1.4,1.7-2.5,3.6-3.2,5.7c-0.4,1.4-0.6,4.8,0.8,5.8c0.6,0.4,1.4,0.3,1.8-0.3
		c0.6-0.7,0.1-1.1,0-1.7C1095.1,883.8,1095.4,882,1096.3,880.5z"/>
		<path class="st2" d="M1102,917.2c1.5,0,1.8-2.5,2.2-3.6c0.6-2.1,1.3-4.1,2.1-6.2c1.6-4.4,3.7-8.9,8-11.2c1.6-0.8,3.2-1.4,4.9-1.7
		c1.7-0.5,4.6-0.7,5.4-2.7c0.6-1.5-0.6-3.8-0.9-5.3c-0.6-2.1-1.4-4.7-0.8-6.9s3.1-4.2,4.8-5.6c2.1-1.6,4.5-2.9,7-3.9
		c4.3-1.8,8.9-3.1,13.6-2.8c1.1,0.1,3.9,0.9,4.4-0.5c1-2.4-4.2-2-5.3-2.1c-5.3,0.1-10.6,1.3-15.4,3.7c-2.5,1.1-4.8,2.6-6.9,4.3
		c-1.9,1.7-4.3,3.8-4.8,6.5c-0.6,2.8,0.3,5.8,1,8.5c0.2,0.9,1.5,3.5-0.1,3.5l0,0c-2.9,0.8-5.8,1.4-8.5,2.8c-2.9,1.7-5.3,4.3-6.8,7.3
		c-1.3,2.7-2.5,5.5-3.4,8.4C1101.8,911.5,1099.3,916.5,1102,917.2z"/>
		<path class="st2" d="M1134.2,892.5c2.9-2.9,6.5-5,10-7.2c2.9-1.8,5.9-3.5,9-4.9c0.7-0.3,1.9-0.7,2.4-1.3c1-1.5-0.9-2.1-2-1.7
		c-1.6,0.6-3.1,1.4-4.5,2.3c-3,1.6-5.9,3.2-8.8,5.1c-3.2,2.1-7.1,4.3-9.2,7.6c-1.5,1.8,0.2,5.4,1.1,7.2c1.1,2.3,3.2,4.7,1.4,7.1
		c-1.4,1.9-3.7,3-5.7,4.3c-2.1,1.2-4,2.9-5.3,5c-1.6,2.7-3.5,6.2-3.7,9.3c0,0.9-0.1,2.2,0.8,2.6c0.6,0.4,1.3,0.2,1.7-0.4
		c0.4-0.6,0.1-1.1,0.1-1.6c0-1.1,0.3-2.2,0.8-3.2c0.8-2.3,2-4.6,3.4-6.6c1.6-2.2,4.5-3.3,6.7-4.9c1.5-1.1,3.3-2.4,4.1-4.2
		c0.8-1.9,0.2-3.8-0.6-5.6C1134.5,898.6,1132,895.2,1134.2,892.5z"/>
		<path class="st2" d="M1312.3,793c-5.2,0.7-10.4,1.5-15.6,1.9c-4.5,0.2-9,0.2-13.5-0.2c-2.8-0.3-5.7-0.1-8.4,0.6
		c-3.2,1-5.9,3.3-8.4,5.5c-4.3,3.8-11,9.8-17.2,6.6c-2.7-1.4-5.3-4.3-8.5-4.2c-2.7,0.1-5.4,2.5-7.3,4.2c-2.5,2.4-4.9,5.1-7,7.9
		c-0.6,0.8-1.3,1.6-1.9,2.5c-0.6,0.8-1.8,1.8-1.7,2.8c0.1,0.7,0.8,1.2,1.5,1.1c0.1,0,0.1,0,0.2-0.1c0.6-0.2,1-0.9,1.3-1.3
		c2.8-3.7,5.6-7.6,9-10.7c1.4-1.3,3.2-3.1,5.1-3.7c1.8-0.6,3.6,1,4.9,1.9c3,2,5.6,3.5,9.4,3.1c4.5-0.5,8.6-3.6,12-6.4
		c2.7-2.3,5.4-4.9,8.8-6.2c4.1-1.6,9.1-0.5,13.5-0.3c5.5,0.2,11-0.1,16.4-0.8c2.2-0.3,4.5-0.6,6.7-0.9c1.1-0.2,2.4-0.2,2.5-1.6
		C1314.2,793.5,1313.3,793,1312.3,793z"/>
		<path class="st2" d="M1314.1,808.6c-10.5,2.8-21.6-0.9-31.9,2.5c-4.9,1.6-9.4,4.3-14,6.6c-3.5,1.9-7.3,3-11.3,3.2
		c-3.9,0.1-7.1-1.7-10.8-2.6c-3.1-0.7-5.1,0.8-7.4,2.5c-2.4,1.7-4.5,3.8-6.3,6.1c-1,1.4-1.8,2.9-2.5,4.5c-0.3,0.7-0.9,1.8-0.5,2.6
		c0.3,0.7,1.2,0.9,1.8,0.6c0.1,0,0.2-0.1,0.3-0.2c0.6-0.5,0.7-1.5,1-2.2c0.3-0.9,0.7-1.7,1.2-2.5c0.9-1.5,2.1-2.8,3.4-4
		c1.7-1.7,3.6-3.2,5.6-4.4c1.9-1.1,4,0.2,5.8,0.8c3.5,1.3,7.2,1.8,11,1.4c4.3-0.7,8.4-2.1,12.2-4.2c4.3-2.2,8.5-4.5,13.1-5.7
		c4.7-1.2,9.7-0.7,14.5-0.6c3,0.2,5.9,0.1,8.9-0.1c2.2-0.1,4.3-0.5,6.4-1.2C1316.4,811.1,1316.4,808.6,1314.1,808.6z"/>
		<path class="st2" d="M1306.2,832.9c-2.8,0-5.7-0.4-8.4-1.1c-3.2-0.8-6-2-9.4-1.8c-5,0.3-9.5,2.6-13.9,4.7
		c-5.1,2.4-10.3,4.5-15.8,2.3c-3.3-1.3-6-2.1-9.6-1.1c-2.6,0.6-5,2-6.8,4c-0.7,0.9-2,2.9-0.5,3.7c1.3,0.7,1.7-0.8,2.3-1.7
		c1.4-2.3,5-3.7,7.6-4c3.1-0.3,5.6,1.5,8.5,2.2c2.8,0.6,5.7,0.5,8.5-0.4c6.7-2,13.3-7.1,20.5-6.9c2.9,0.1,5.6,1.4,8.4,2.2
		c3.4,0.9,7,1.3,10.6,1.2c4.2-0.3,8.3-1,12.3-2.2c1.4-0.4,9-1.9,6.5-4.4c-1.2-1.1-3.5,0.1-4.7,0.4c-2.2,0.6-4.3,1.1-6.5,1.6
		C1312.6,832.5,1309.4,832.9,1306.2,832.9z"/>
		<path class="st2" d="M1681,1029.2c-0.3-2.6-2.2-4.3-3.3-6.4c-0.6-1.1-1.6-1.5-2.5-2.2c-1.2-0.9-2.3-1.9-3.5-2.8l0.1,0.7
		c-2.5-2.7-6.1-4.3-9.4-5.9c-3.3-1.6-6.8-3.1-10.2-4.5c-5.6-2.3-11.3-4.5-17.1-6.3c-11-3.2-22-6.3-33-9.1c-10.8-2.8-21.6-5.8-32.6-8
		c-12.7-2.6-25.3-5.2-38-7.6c-14.9-2.8-29.9-4.9-45-6.2c0.1-1.1,0.5-2.1,1.1-3c0.5-0.7,0.8-1.6,0.8-2.5c0.2-2.7,0.3-5.3,0.2-8
		c0-3.5,0-6.9-0.2-10.4c-0.4-11.4-1.9-22.8-3.1-34.1c-2.5-22.8-6.9-45.3-13.1-67.3c-6.3-21.9-13.8-43.4-22.7-64.5
		c-6.8-16.3-13.8-32.4-21.9-48.1c-4.5-8.9-9.5-17.5-14.6-26.1c-5.7-9.5-11.4-19-17.8-28.1c-6.6-9.5-13.7-18.7-20.8-27.9
		c-13.5-17.2-27.8-33.8-43-49.6c-14.2-15-29.4-29-45.5-41.9c-8.9-7.1-18.1-13.6-27.5-20c-7.1-4.8-14.3-9.7-21.8-13.9
		c-9.7-5.5-19.8-10.4-29.9-15.1c-9.3-4.3-18.8-8.6-28.9-10.6c-1.8-0.3-3.6-0.5-5.3-0.9c-0.9-0.3-1.8-0.5-2.7-0.6v0.1
		c-0.8-0.1-1.5,0.5-1.6,1.3c0,0.3,0,0.5,0.1,0.7c0.4,0.8,1.2,0.9,2,1.1c1.6,0.4,3.2,0.9,4.8,1.3c2.1,0.6,4.2,1.2,6.2,2
		c5.7,2.2,11.4,4.5,16.9,7.1c8.2,3.8,16,8.6,23.7,13.2c7.4,4.4,14.5,9.3,21.6,14.4c10.5,7.7,20.4,16.1,29.7,25.2
		c11.1,10.7,21.9,21.7,32.1,33.3c12.8,14.5,25.2,29.2,36.8,44.7c5.7,7.6,11.3,15.4,16.7,23.2c3.4,4.9,7,9.8,10.3,14.8
		c1.2,1.9,2.2,3.9,3.1,6c2.7,5.4,5.7,10.6,8.6,15.9c5.6,10.2,11,20.5,16.1,30.9c2.8,5.6,5.5,11.3,8.2,16.9c1.5,3.1,3.2,6.1,4.4,9.3
		c1.6,4,2.9,8.2,4.3,12.3c3.8,11.4,6.9,23.1,9.2,35c0.8,4.4,1.7,8.8,2.2,13.3c0.5,5.2,0.9,10.4,1.2,15.7c0.8,13.9,0.4,27.9,0.1,41.8
		c-0.1,5.1-0.4,10.2-1.1,15.3c0.1-0.1,0.2-0.3,0.2-0.5v0.3l0.2-0.3c-1.4,10.1-3.3,20.2-5.8,30.1c-3.8,14.4-9.5,28.3-16.9,41.3
		c-4.2,7.5-8.9,14.7-13.9,21.6c-3.5,5-7.3,9.8-11.3,14.5c-3.7,4.1-8.6,7.1-13,10.4c-6.1,4.5-12.5,8.6-19.2,12
		c-2.9,1.5-5.8,3-8.9,4.2c-2,0.8-7.9,2.2-8.2,2.3c-0.1,4.6-5.4,10.8-4.6,13.2c4.5,0.9,12.2-0.5,16.5-1.4c4.8-1,9.6-0.5,14.5-1.2
		c6.5-1,12.5-4.5,18.4-7.4c4.3-2.2,8.7-4.4,13-6.8c9.4-5.1,18-11.9,26.2-18.7c5.2-4.2,10.1-8.7,14.8-13.4c2.4-2.3,4.6-4.8,6.5-7.5
		c1.1-1.6,2.1-3.2,3.1-4.8c1.7-2.7,3.6-5.2,5.2-8c1.5-2.7,2.8-5.4,3.9-8.3c0.9-2.3,1.9-4.6,2.8-6.9c1.3-3.5,2-7.2,2.3-11l-0.3,0.9
		c0.5-2.2,0.5-4.7,1.9-6.6c1.8-2.3,4.9-3.3,7.8-2.6c0,2.1,0.2,4.1,0.3,6.1c-0.4,3.9-1.2,7.8-2.4,11.5c-0.5,1.6-0.9,3.2-1.5,4.8
		c-0.3,0.8-0.5,1.7-0.6,2.6c0.1,0.7,0,1.3-0.2,2c-0.8,1.8-1.6,3.5-2.6,5.2c-0.9,1.7-1.8,3.5-2.7,5.2c0.3,0.3,0.6,0.5,0.9,0.7l0,0
		l0,0c0,0,0-0.1,0-0.1c1.9,1.4,5.1,1,7.3,1.1c2.7,0.2,5.5,0.4,8.2,0.6c4.4,0.3,8.9,0.7,13.3,1.2c3.7,0.4,7.5,0.7,11.2,1.1
		c6.6,0.7,13,2.3,19.5,3.4c7.6,1.3,15.1,3,22.7,4.4c9.7,1.8,19.3,4,29,5.7c11.6,2,23,4.7,34.5,7.6c10.3,2.5,20.4,5.4,30.6,8.1
		c7.6,2,15,4.4,22.2,7.4c4.3,1.9,8.5,4.1,12.4,6.7c2,1.1,3.7,2.7,4.9,4.6c0.4,0.6,0.6,1.2,0.8,1.9c0,0.9-1.6,2.1-2.3,2.7
		c-5.9,5.6-14,7.6-21.6,9.9c-9.9,3-19.8,5.6-29.8,7.7c-10.4,2.2-20.8,4.6-31.2,6.8c-13.6,2.8-27,6.1-40.7,8.5
		c-15.8,2.7-31.8,5-47.7,7.6c-8.8,1.4-17.5,3.1-26.4,4c-13.5,1.4-27,3-40.5,4.3c-14.5,1.5-29.1,3-43.7,4.2
		c-10.9,0.9-21.7,1.6-32.6,2.8c-4.9,0.5-9.8,1.1-14.7,1.5c-12.4,1.1-24.7,2.4-37.2,3.2c-9.1,0.6-18.2,1.1-27.2,1.8
		c-12,1-23.9,1.2-35.9,1.9c-13.3,0.8-26.6,1.7-39.9,2.6c-5.4,0.4-10.8,0.6-16.2,1c-10.8,0.7-21.6,2-32.4,2.7
		c-16,1.1-31.9,1.8-47.9,2c-11.5,0.2-23,1-34.5,1.1c-7.6,0-15.1-0.1-22.7-0.2c-10.9-0.1-21.8,0-32.7-0.1c-6.3,0-12.5-0.3-18.8-0.3
		c-4.6,0-9.3,0.1-13.9,0.5c-3.7,0.3-7.4,0.6-11.1,0.5c-9.8-0.1-19.6,0.2-29.4,0.1c-13.4-0.1-26.9-0.7-40.3-1.2
		c-9.2-0.3-18.5-0.6-27.7-0.6c-7.2,0.1-14.4,0.1-21.6,0.1c-14.1,0-28.2-1.2-42.3-1.1c-9,0-18-0.4-27-0.5c-8.1,0-16.3-0.1-24.4,0
		c-10.5,0.1-21,0.2-31.5-0.5c-6.3-0.4-12.6-0.9-18.9-1.3c-14.8-0.8-29.5-2.7-44.2-3.9c-11.3-0.9-22.7-1.7-34-2.7
		c-15.8-1.3-31.6-2-47.5-3.2c-9.1-0.7-18.2-0.9-27.3-1.7c-10.7-0.9-21.3-2.3-32.1-3.1c-7.9-0.6-15.8-1.1-23.7-1.5
		c-8.8-0.5-17.4-1.7-26.1-2.8c-7.6-0.9-15.2-2.3-22.8-3c-5.9-0.5-11.7-1.1-17.6-1.7c-5.4-0.6-10.9-0.9-16.3-1.7
		c-3.8-0.6-7.5-0.8-11.3-1.1c-5.2-0.4-10.4-1.4-15.5-2.2c-7.6-1.1-15.2-2.2-22.7-3.9c-6.4-1.6-31.5-7.4-34.9-8
		c-4.3-0.8-8.5-1.7-12.8-2.8c-4.1-1.1-7.9-2.7-11.9-4c-4.3-1.4-8.8-2.5-13.3-3.2c-7-1.1-13.9-4.1-20.5-6.7
		c-7.2-2.8-13.2-7.5-19.4-11.9c-1.5-1.1-4.1-2.5-4.7-4.3c-0.3-1.1,1.2-2.5,1.9-3.4c3-3.4,6.5-6.2,10.5-8.3c-0.2,0.1,1.8-1,1.6-0.9
		c7.3-4,13.1-6.9,21.2-9c3.7-0.9,7.5-1.7,11.2-2.6c8.2-1.9,16.5-4.1,24.8-5.5c16.2-2.9,32.5-5.8,48.9-7.7l14.2-1.6
		c3.8-0.5,25.9-2.7,26.5-3.3l0,0l0,0c0.4,0,0.4,0.1,0.8-0.2c-2.2-1.7-4.3-3.5-6.2-5.5c-0.7-0.9-1.3-1.4-2.5-1.3v0.1h-0.4
		c0.2,0,0.4,0,0.6,0c-0.1,0-0.2,0-0.2,0c0.1,0,0.2,0,0.2,0.1c-4.6,0.2-9.3,0.9-13.9,1.5c-4.9,0.7-9.8,1.2-14.7,1.8
		c-13.1,1.7-26,3.7-38.9,6.2c-3.9,0.8-7.8,1.5-11.7,2.1h-0.1c0.2-2.1-3.5-14.3-4.1-18.3c-1.5-10-1.2-20.3-1-30.4
		c0.3-13.8,1.3-27.5,3.2-41.2c1.3-9.4,2.6-18.8,4.7-28.1c1.6-7.2,3.6-14.3,5.6-21.4c2.4-8.5,5-16.8,7.9-25.1
		c2.4-7.1,5.2-14.1,8.1-21c2.9-6.9,6-13.4,9.2-20c3.9-8,7.8-15.9,11.9-23.7c3.9-7.4,7.8-14.8,11.9-22.1c4.6-8.3,9.5-16.5,14.6-24.6
		c5.3-8.5,10.6-16.9,16.1-25.2c6.4-9.8,13.1-19.4,19.8-29c4.6-6.5,9.1-13.1,13.8-19.5c4.7-6.4,9.8-13,14.9-19.3
		c4.3-5.4,8.7-10.8,13.2-16.2c4.7-5.7,9.5-11.3,14.3-16.9c7.3-8.6,14.7-17.1,22-25.7c5.4-6.3,10.8-12.6,15.9-19.1
		c5.4-6.9,10.8-13.7,16.1-20.8c4.3-5.8,8.6-11.5,12.7-17.5c2.6-3.8,5.1-7.6,7.4-11.6c1.3-2.2,2.5-4.5,3.7-6.8c0.6-1.3,1.2-2.6,2-3.9
		l0,0c0.6-2.3,5.2-9.3,2.6-10.2c-1.9-0.7-2.4,2.1-2.9,3.4c-0.5,1.2-1,2.5-1.6,3.7c-0.5,0.9-1.2,1.6-2,2.3c-1.3,1.4-2.6,2.7-3.9,4.1
		c-2.6,2.7-5.1,5.5-7.7,8.2c-2.6,2.7-5,5.2-7.6,7.8c-8.4,8.6-16.7,17.3-25.3,25.8c-9.9,9.8-19.3,20.1-29.1,29.9
		c-7.1,7.1-14.2,14.2-21.4,21.3c-8.7,8.7-16.7,18-24.8,27.3c-6.5,7.4-13,14.8-19.3,22.3c-9.1,10.8-17.7,22-26.1,33.4
		c-12.6,16.9-25.5,33.5-37.2,51c-13.7,20.7-26.1,42.1-37.4,64.2c-9.6,18.6-17.9,37.8-25,57.5c-6.5,17.8-12.9,35.6-18.6,53.6
		c-8.5,27.2-13,55.7-14.3,84.2c-0.4,7.7-0.5,15.3-0.9,23c-0.6,11.4-0.9,12.1-1.3,12.3c-1,0.6-2.7,1.3-4,1.9c-2,1.1-4.1,2.1-6.1,3
		c-4,1.9-8,4.1-11,7.6c-2,2.2-3.2,5.1-3.2,8.1c0,1.6,0.7,5.7,2.1,6.7c0.6,2.4,2.8,3.1,4.5,4.8c2.3,2.2,4.8,4.2,7.4,6
		c4.8,3.6,10.3,6.3,16.2,7.7l8.3,3c2.1,0.7,19.6,5.8,24.5,6.9c10.4,2.3,78,17.1,83.5,18.1c8,1.4,16,2.1,24.1,2.2
		c3.8,0.1,7.7,0,11.5,0c3.5,0.2,6.9,0.5,10.3,1.1c6.9,0.8,13.9,1.3,20.7,2.2c13.6,1.8,27.1,4.3,40.8,5.4c13.3,1,26.6,1.4,39.8,2.8
		c7.5,0.8,14.9,1.7,22.4,2.4c8.1,0.7,16.2,1,24.3,1.6c11.6,0.9,23.2,2,34.8,2.6c17.6,1,35.2,2.7,52.8,4.1
		c14.1,1.2,28.2,2.6,42.4,3.2c8.5,0.4,17,1.1,25.5,1c18.3,0,186.1,3.2,195.3,3.4c5.3,0.1,103-0.5,111.7-0.3
		c15.8,0.4,31.5,0.4,47.3-0.2c17.6-0.7,35.2-0.7,52.9-1.7c15.7-0.9,31.3-2.6,46.9-3.7c7.3-0.5,14.5-1.1,21.8-1.6
		c15.1-1.1,30.1-2.5,45.2-3.4c17.3-1.1,34.5-3.1,51.8-4.3c11.2-0.8,22.3-2.2,33.4-3.1c14.9-1.4,29.9-2.8,44.8-4.2
		c19.9-1.8,39.8-3.6,59.8-5.5c20.7-1.9,41.4-3.9,62-6.6c12.8-1.7,25.6-2.7,38.4-4.3c13.9-1.8,27.5-4.6,41.3-7.3
		c12.4-2.5,24.7-5.1,37.1-8c5.2-1.2,10.3-2.7,15.5-4.2c1-0.3,2-0.6,3-1c1.9-0.8,3.9-1.5,6-2c1.3-0.2,2.7-0.1,4-0.3
		c2.2-0.4,4.4-1.1,6.5-1.9c4.2-1.6,8.2-3.6,12-5.9C1673.8,1041.8,1681.6,1036.6,1681,1029.2z M1451.9,976.6c0.3-0.7,0.7-1.5,1.1-2.2
		c0.8-1.6,1.5-3.3,2.2-5c0.9-2.1,1.7-4.2,2.4-6.3C1456.1,967.8,1454.2,972.3,1451.9,976.6z M1459.5,957.3c-0.5,1.9-1,3.8-1.7,5.6
		c1.2-3.4,2.1-7,2.6-10.6C1460.2,954,1459.8,955.7,1459.5,957.3L1459.5,957.3z M1461.3,947.2c-0.2,1.7-0.6,3.4-0.9,5.1
		c0.7-4,1.4-7.7,1-11.9c0-1.5-0.2-3.1-0.7-4.6c0.3,0.7,0.5,1.4,0.6,2.2C1461.7,941.1,1461.7,944.2,1461.3,947.2L1461.3,947.2z"/>
		<path class="st2" d="M1083.1,726.7c2,4.8,10.3-0.7,13-2.2c0,0,0,0,0,0.1h0.1c-0.7,3.7,3.7,6.7,5.9,9c2.3,2.3,4.6,4.6,6.7,7
		c1.6,1.7,2.9,3.5,5.5,3.5c4,0,5.9-4.1,4.5-7.5c-0.3-0.9-0.9-1.8-1.6-2.4c-0.9-0.8-1.9-1-2.7-1.8c-1.3-1.4-2.6-2.8-4-4.1l-3.2-3.2
		c-1.4-1.4-3.1-3.7-5-4.3l0.1-0.1l-0.1-0.1c2.4-1.6,4.9-3,7.5-4.3c0.8,1.4,1.7,2.7,2.8,4l3.2,4.4c1.2,1.7,2.4,3.4,3.7,5.1
		c1.9,2.6,4.3,7,8.2,5c2.8-1.4,2.5-4.6,0.9-6.8c-0.8-1.1-1.6-2.2-2.4-3.4c-1.4-1.9-2.7-3.8-4.1-5.7c-1.7-2.3-3.3-4.7-5-7l0,0v-0.1
		c2-1.3,4-2.6,5.9-4.1l0,0l0.1-0.1c2.6,4.5,5,9.2,7.9,13.6c1.2,1.8,2.4,3.7,4.7,4.2c2.1,0.6,4.3-0.6,5.1-2.7c0.7-1.9,0-3.7-0.8-5.4
		c-1.2-2.4-2.5-4.7-3.8-7.1c-1.7-3.1-3.4-6.1-5.1-9.2l0,0l-0.1-0.1l1.1-0.8l0,0c0,0,0.1,0,0.1-0.1c2.8,3.4,5.7,6.8,8.5,10.1
		c2.4,2.9,7,9.5,11.6,6.8c5.2-3.2-0.9-10.3-3.2-13.2c-2.9-3.6-5.9-7.2-8.8-10.9l0,0l-0.1-0.1c1.7-1.5,3.5-2.9,5.1-4.3l0,0l0.1-0.1
		c1.4,2.2,2.8,4.3,4.1,6.5c1.7,2.8,3.4,5.8,5.7,8.1c1.7,1.8,4.3,2.6,6.8,2.1c2.4-0.7,3.8-3.3,3.1-5.7c-0.1-0.3-0.2-0.5-0.3-0.8
		c-0.7-1.2-1.5-2.3-2.3-3.4c-0.9-1.3-1.7-2.8-2.6-4.1c-0.6-1-1.2-1.9-1.8-2.9c-1.5-2.3-2.9-4.6-4.3-6.9l0,0v-0.1l0,0
		c1.7-1.4,3.5-2.8,5.2-4.3l0,0l0.1-0.1c1.7,2.9,3.5,5.8,5.2,8.6c0.7,1.2,1.5,2.4,2.2,3.7c1.9,3,3.8,7.1,6.8,9.2s7.7,1.1,8.6-2.8
		c0.5-2-0.3-3.7-1.4-5.3c-1.2-1.8-2.4-3.7-3.5-5.6l-5.3-8.6l-2.3-3.8c-0.3-0.5-1.7-2.2-1.6-2.7c0.1-0.5,2.1-1.7,2.5-2.2
		c0.1,0.1,0.1,0.2,0.1,0.3h0.1c1.9,2.8,3.8,5.6,5.7,8.3c1.5,2.4,3.3,4.6,5.3,6.6c3.5,3.2,10.3,5.2,13-0.3c2.1-4.3-1.9-8.8-4.1-12.2
		c-1.7-2.6-3.5-5.2-5.2-7.9c-1-1.5-2-3.4-3.6-4.5l0,0l-0.1-0.1c0.7-0.6,1.5-1.2,2.2-1.8l0,0l0.1-0.1c2.6,4.5,5.4,8.8,8.4,13
		c2.7,3.7,6.6,7.8,11.6,5.8c5.2-2.2,3.9-8,1.7-11.9c-1.1-1.9-2.3-3.8-3.4-5.8c-2.3-4-4.6-8-6.9-12l0.2-0.2l0.2,0.2
		c0,0-0.2-0.3-0.2-0.3c4.2,4,8.3,8,12.6,12c2.7,2.5,5.6,6.7,9.6,5.8c3.2-0.8,5.1-4,4.5-7.2c-0.5-2.5-2.5-4.3-4.3-6
		c-2-1.9-3.9-3.8-5.9-5.7c-2.5-2.5-5.4-4.9-7.7-7.6c1.5-1.5,2.9-3.2,2.7-5.6c-0.1-1.6-1.5-2.9-3.2-2.8c-2,0-4.1,2.2-5.6,3.2
		c-2.2,1.7-4.3,3.5-6.5,5.2c-2.2,1.8-4.1,4-6.6,5c-2.3,1-3.4,3.2-5.2,4.7c-4.5,3.7-9,7.4-13.3,11.2c-8.6,7.5-17.1,14.9-26.3,21.7
		c-9.2,6.8-18.3,13-27.2,19.8c-5,3.9-10,7.8-15.3,11.3c-2.6,1.7-5.2,3.4-7.8,5.1c-1.9,1.3-5.2,3.1-3.9,6
		C1084.3,722.5,1082.1,724.2,1083.1,726.7L1083.1,726.7z"/>
		<path class="st2" d="M1483.7,573.1c1.8,0,1.6-2.9-0.2-2.8C1481.8,570.4,1481.9,573.1,1483.7,573.1z"/>
	</g>
	<g id="bulb_color">
		<path class="st2" d="M873.5,532.3c-0.6,0.1-1.2,0.2-1.7,0.4c-1.1,0.2-2.3,0.2-3.5,0c-1.4-0.3-4.9-1.1-5.3-2.7c0-0.5,0.1-1,0.3-1.5
		c0.2-0.9,0.3-1.7,0.3-2.6c0-1.3-0.9-6.3-3.3-4c-1,1.1-1.4,2.5-1.3,4c0,1,0.2,2,0.4,2.9c0.2,0.6,0.4,1.1,0.6,1.7
		c0,0.7-0.2,1.4-0.5,2c-0.5,1.7-1.3,3.3-2.2,4.8c-1.2,2-3,3.6-5.2,4.5c0.1,0,0.2-0.1,0.3-0.1l-0.4,0.1c0,0,0,0,0-0.1h-0.1
		c0.8-2,0.8-4.1,0.1-6.1c-0.9-2.3-4.6-4.6-7-3c-2.2,1.3-2.2,4.7-1.8,6.9c0.5,2.8,2.1,4,4.5,5.2l0.1,0.1c-1,2-2.6,3.7-4.5,4.9
		c-1,0.5-1.3,0.2-2.3,0c-0.7-0.2-1.4,0.2-1.6,0.9c-0.1,0.5,0.1,1.1,0.5,1.4c3.9,3.2,9.6-3.9,10.7-7c6-1.1,9.7-6.4,11.5-11.9l0.2,0.1
		l0.1-0.1c2.6,1.9,5.9,2.7,9.1,2.3c0.9,0,1.7-0.3,2.5-0.8c0.6-0.4,0.7-1.2,0.3-1.8C874.3,532.5,873.9,532.3,873.5,532.3z
		 M849.3,542.4c-0.9,0-1.7-0.3-2.4-0.8c-1-0.8-2.8-4.8-0.9-6.8c0.7-0.8,2.9-0.8,4.1,1.6C851.2,538.8,849.3,542.4,849.3,542.4z"/>
		<path class="st2" d="M908,547.8c-0.4-0.9-1.3-1-2.2-1.4c-1-0.6-1.8-1.5-2.3-2.5c-0.4-0.7-0.7-1.4-0.8-2.2c-0.1-0.4-0.1-0.9,0-1.3
		c0.2-0.7,0.8-0.9,1.5-1.3c1.6-0.9,4.3-2.7,4.3-4.7c0.1-2.5-2.9-2.3-4.4-1.3c-0.9,0.6-1.7,1.4-2.4,2.3c-0.5,0.7-0.8,1.6-1.3,2.2
		c-1.4,1.2-3.2,1.8-5.1,1.8c-1.1-0.1-3.6-1.1-3.5-2.5c0.1-0.9,1.4-1.4,2.2-2.2c1.3-1.2,2.5-3.2,2.1-5c-0.4-1.8-2.1-2.9-3.8-2.5
		c-0.3,0.1-0.6,0.2-0.9,0.3c-1.8,1.2-2.6,4.2-2.9,6.2c-0.2,0.9-0.4,1.3-1.5,1c-0.2-0.1-0.5-0.3-0.7-0.4c-0.7-0.4-1.4-0.9-2.1-1.5
		c-0.8-0.6-1.9-0.9-2.5,0.2c-0.6,1.1,0.8,2.2,1.7,2.8c1.5,1.2,3.3,1.9,5.2,1.8c0.2,0.7,0.6,1.4,1,1.9c0.8,1,1.8,1.7,3,2.2
		c2.4,1.1,4.5,0.7,6.9-0.1l0,0h0.1c0.1,3.4,2.4,7.6,5.8,8.2c0,0,0,0.1-0.1,0.1c0.6,0.2,1.4,0.1,1.9-0.3
		C908,549.3,908.5,547.6,908,547.8z M890.5,534.9c0,0,0.8-5.9,2.8-5.1c0.7,0.2,1,1,0.8,1.7c0,0.1-0.1,0.2-0.2,0.3
		c-0.6,0.7-1.3,1.3-2.1,1.8C891.4,534,890.9,534.4,890.5,534.9z"/>
		<path class="st2" d="M894.6,609.7L894.6,609.7c-0.4,1-9.3,6.9-9.6,7.3c-0.4,0.6,0.6,2.3,1.3,2.9l0.3,0.5h-0.1
		c0.7,5.4,0.2,10.9-1.6,16.1c-3.4,10.1-11,21.7-10.9,21.6c0.4-0.4,6.9-1.1,11.9-11.2c4.2-8.5,8.1-28.7,8.6-29.5
		c1.4-2,1.7-4.6,0.9-6.9C895.2,610.2,894.9,610,894.6,609.7z"/>
		<path class="st2" d="M854.2,619.9c-0.1-1,0.2-1.9,0.8-2.7c3.2-5,8.7-8.1,14.2-10.6c2.1-1,4.2-1.8,6.4-2.5c3-0.8,6.1-1.1,9.2-0.8
		c1.7,0.2,3.6,0.6,4.6,2c0.8,1.1,1,2.5,0.6,3.8c-0.4,1.3-1,2.5-1.9,3.5c-4.2,5.4-10.7,8.6-17.3,10.7c-3.8,1.2-7.8,2.2-11.7,1.5
		c-2-0.4-4.2-1.5-4.6-3.5L854.2,619.9z"/>
		<path class="st2" d="M872.8,399.6c-0.4-7.2,1.7-42.5-14.4-31.8c-9.5,6.3,0.2,46.9,0.2,57c0,7.1-8,42.1,8.6,34.9
		C877.5,455.4,873.3,408,872.8,399.6z"/>
		<path class="st2" d="M950.2,417.4c-6.5,5.2-9.3,17-13.5,24c-2.1,3.4-27.1,34.2-14,33.6c8.9-0.4,22.1-25.6,26.6-33.5
		C951.2,438.1,961.2,408.5,950.2,417.4z"/>
		<path class="st2" d="M1052.7,504.8c-8.4,3-33.1,8.6-55.7,11.2c-20,2.3-38.4,1.3-42.2,4.3c-18.8,15,18.3,14.5,25.4,14
		c17-1.1,33.9-4.2,50.1-9.5c3.7-1.2,25.9-8.4,26.5-13.5C1057.2,508.5,1058,502.9,1052.7,504.8z"/>
		<path class="st2" d="M785.5,424.1c-15.4,0.5,11,73,25.2,62.6C816.4,482.5,791.7,426.2,785.5,424.1z"/>
		<path class="st2" d="M690.9,523.2c-5.3,15,47.5,22.1,58.8,23.7c6.2,0.9,60.3,10.8,46-10.9c-6.1-9.4-52-6.9-62.4-8.9
		C724.5,525.4,695.1,511.1,690.9,523.2z"/>
		<path class="st2" d="M770.3,489.7c-11.2,8.2,26.6,29.1,27.5,19.2C798.1,504.8,775.5,485.9,770.3,489.7z"/>
		<path class="st2" d="M822.2,440.9c-10.9,2.2,6.7,42.1,14.9,27.9C840.4,463,829.9,439.4,822.2,440.9z"/>
		<path class="st2" d="M894.8,440.2c-7,10.8-7.6,36.5,4.3,17.7C901.7,453.7,900.9,430.9,894.8,440.2z"/>
		<path class="st2" d="M964.3,472.4c-6.9,7.1-34,36.4-7.7,22.1c2.3-1.3,14.2-12.2,13.9-15.8C970.3,476.6,969.1,467.5,964.3,472.4z"/>
		<path class="st0" d="M931.9,535.3c-0.4-6.8-1.4-13.4-4.9-19.4c-1.6-2.9-3.4-5.6-5.4-8.2c-2.1-2.4-4.6-4.6-7.3-6.3
		c-2.8-1.8-5.8-3.3-8.9-4.4c-3.1-1.3-6.3-2.4-9.5-3.3c-6-1.5-12.3-1.3-18.4-1.1c-7,0.3-13.6,2.2-20.2,4.3c-6.4,2-11.7,5.4-17,9.4
		c-10.6,8.1-20,18.3-22.2,31.9c-0.6,3.6-0.7,7.3-0.5,10.9c0.3,3.9,1.2,7.6,2.6,11.2c2.7,7.3,7.4,13.8,11.7,20.2
		c-0.1-0.2-0.3-0.4-0.4-0.6c0.7,1.2,1.4,2.3,2.2,3.4c0.3,0.6,0.7,1.1,1.1,1.6l0,0c0.8,1,1.5,2.1,2.2,3.2c0.7,1,1.4,2,2.1,3
		c1.5,2,2.7,4.2,3.6,6.6c1.7,4.9,1.8,10.3,2.3,15.4c0.1,1.4,0.2,2.8,0.4,4.2c0.1,0.6,0.2,1.3,0.2,1.9c-0.1,0.9-0.1,0.8-0.8,1.4
		c-1.8,1.6-3.2,3.2-3.8,5.6c-0.6,2.3-0.2,4.7,1.1,6.7c1.3,1.8,3.3,2.7,5.2,3.7c-1.8,2.2-2.8,6.6-1.5,9.1c1.5,2.9,5.5,3.5,8.4,4
		c-2.1,2.4-3.4,5.3-1.4,8.1c1.6,2.3,5.3,3.4,7.9,3.8c-1.3,2.6-3,6.5-1,9.2c2,2.6,6.3,2.6,9.3,2.2c3.3-0.5,5.9-2.6,7.9-5.2
		c1.6-2.2,3.4-6.2,2.1-8.8c3.6-2,6.7-4.6,9.3-7.8c2.3-2.8,4.1-7.3,1-10.2c2-1.8,3.5-4.1,4.3-6.7c0.7-2.1,2.6-5.6,0.7-7.5
		c3.7-3.4,6.4-7.8,7.7-12.7c0.7-2.4,0.6-4.9-0.4-7.2c-0.9-2.1-2.8-4-5.3-3.2c0.6-2.6,1.8-5,3.5-7c-0.2,0.2-0.3,0.3-0.5,0.5
		c1.6-1.7,3-3.5,4.5-5.3c-0.1,0.1-0.2,0.2-0.2,0.2c0.1-0.1,0.2-0.2,0.2-0.3l0,0c3.2-4.1,7.7-7.1,11.1-11c3.7-4,6.9-8.3,9.7-13
		c2.7-4.8,4.8-9.9,6.3-15.2C932.5,547.2,932.3,541.1,931.9,535.3z M872.2,661.7c-0.4,1.8-1.4,3.5-2.7,4.7c-1.5,1.1-3.3,1.5-5,1.2
		c0.5-1.7,1.1-3.8,2.4-5c0.5-0.5,1.2-0.4,2-0.5c1.1-0.2,2.3-0.4,3.4-0.7L872.2,661.7z M879.4,652.3c-2.4,1.6-5.1,2.8-7.9,3.5
		c-2.7,0.9-5.5,1.2-8.3,1.1c-1.9,0-3.7-0.4-5.5-0.9c-0.2-1.2,0.1-2.4,0.8-3.3c8.6,1.1,17.4-0.5,25.1-4.5
		C882.5,649.7,881,651.2,879.4,652.3L879.4,652.3z M888.9,632.5c-0.3,1.8-1,3.6-2.2,5c-1,1.1-2.2,2.1-3.4,3c-2.1,1.6-4.4,3-6.8,4
		c-2,0.4-4,0.8-6,0.9c-0.9,0-1.8-0.1-2.7-0.2c-2.1-0.1-4.1-0.1-6.1-0.1c-1.9,0-3.9-0.2-5.8-0.4c-1-0.1-2-0.3-3-0.6
		c-0.7-0.2-1.7-0.9-2.4-0.9c0-1.2,0.9-3.8,2.1-4.3c1.2-0.5,3.6,0.4,4.8,0.6c4,0.7,8.1,0.6,12.1-0.2c3.5-0.8,7-1.9,10.3-3.2
		c3.3-1.4,6.7-2.8,9.3-5.4C889.1,631.3,889.1,631.9,888.9,632.5L888.9,632.5z M894.5,616.3c-0.5,1.2-1.2,2.3-2.2,3.1l0,0
		c-2.4,2.7-5,5.1-7.9,7.3l0.3-0.2c-1.4,0.9-2.8,1.9-4.1,2.8v-0.1c-2.5,1.4-5.2,2.5-8,3.2c-2.8,1-5.8,1.6-8.8,1.7
		c-5.7,0.1-11.4-1-16.6-3.4c-1.6-0.9-2.2-2.9-1.4-4.5c0.2-0.3,0.4-0.6,0.7-0.9c0.3-0.3,0.6-0.6,0.9-0.9c0.2-0.5,0.5-0.6,0.9-0.2
		c0.5,0.1,1,0.4,1.3,0.7c1.1,0.8,2.2,1.4,3.5,1.9c4.9,1.7,10.5,1.2,15.5,0.4c2.7-0.4,5.4-1.2,7.9-2.3c2.4-1,4.7-2.5,7.1-3.5
		c2.3-1.1,4.3-2.7,6-4.5c1.9-1.7,3.6-3.7,5-5.9c0.1,0.4,0.2,0.9,0.2,1.3C895,613.8,894.8,615.1,894.5,616.3L894.5,616.3z
		 M924.5,542.3c0,3.8-0.7,7.6-2,11.1c-1.3,3.5-2.9,7-4.6,10.3c-1.5,2.8-3.2,5.5-5.1,8.1c-1.8,2.8-3.8,5.4-5.9,7.9l0.1-0.1l-0.4,0.4
		l0.5-0.3c-4.1,4.3-7.6,9.2-11.5,13.7c-1.4,1.6-2.7,3.5-3.7,5.4c-0.5,1-1.1,2-1.5,3.1c-0.1,0.2-0.2,0.4-0.2,0.6
		c0.2,0.1,0.3,0.2,0.4,0.3l-0.7,2.7c-0.6,0.2-1.1,0.8-1.2,1.5c-0.2,2.1-0.9,4.1-2,5.8c-3.9,3.7-8.6,6.3-13.7,7.7
		c-3.8,1.1-9.4,2.6-13.9,1.8c-0.8-0.3-1.6-0.9-2-1.7c-0.4-1.4-0.7-2.8-0.9-4.2l-1.4-5.6c-0.1-1.4-0.2-2.8-0.3-4.1s-0.2-2.9-0.3-4.3
		c-0.4-3.4-1.2-6.8-2.5-10c-0.7-1.9-1.5-3.7-2.6-5.4c-0.6-1.2-1.3-2.4-2.2-3.5l0.2,0.5c-3.8-5.9-8.6-10.9-13.1-16.3
		c-3.9-4.8-7.7-10.3-8.8-16.5c-1.2-6.5,0.4-13.6,2.7-19.7c2.6-6.2,6.7-11.8,11.9-16.1c4.4-4,9.3-7.4,14.5-10.2c3.6-1.6,7.3-3,11.1-4
		c6.6-1.9,13.4-2.6,20.2-2c3.2,0.1,6.4,0.6,9.4,1.5c2.9,0.9,5.8,2,8.6,3.2c3.6,1.4,7,3.4,9.9,6c2.7,2.7,4.9,5.9,6.6,9.2
		C924.1,526.1,924.7,534.4,924.5,542.3z"/>
		<path class="st0" d="M908.1,548.6c-8.3,9.3-15.5,18.6-20.5,30.2c-2.2,4.9-3.9,9.9-5.5,15c-0.9,2.8-3.5,8.1-3.2,11.5
		c-0.1,0.4,0,0.8,0.2,1.1c0.5,0.9,1.7,1.2,2.5,0.6c0.2-0.1,0.5-0.3,0.6-0.6l0.1-0.1c0.3-0.5,0.3-1.1,0-1.7
		c-0.3-3.1,3.2-10.1,4.1-12.6c1.7-5.2,3.7-10.3,6-15.2c4.6-9.6,11.2-17.7,18.2-25.6C912.2,549.4,909.7,546.9,908.1,548.6z"/>
		<path class="st0" d="M881.6,539.9c2-4.5-4.7-8.4-6.6-3.9c-10.4,23.7-4.7,49.1-7.1,73.9c-0.5,4.9,7.2,4.9,7.7,0
		C877.8,586.7,871.9,562.1,881.6,539.9z"/>
		<path class="st0" d="M844.1,555.5c-1.2-2-4.3-0.2-3.1,1.8c5.1,8.2,10.8,16.3,14.7,25.1c4.4,10,5.6,20.8,6.7,31.6
		c0.2,2.3,3.8,2.3,3.6,0c-1.1-10.7-2.2-21.5-6.3-31.4C855.6,573,849.5,564.3,844.1,555.5z"/>
	</g>
</svg>
