<?xml version="1.0" encoding="UTF-8"?>
<svg width="479px" height="228px" viewBox="0 0 479 228" version="1.1" xmlns="http://www.w3.org/2000/svg" xmlns:xlink="http://www.w3.org/1999/xlink">
    <!-- Generator: Sketch 52.4 (67378) - http://www.bohemiancoding.com/sketch -->
    <title>Color</title>
    <desc>Created with Sketch.</desc>
    <g id="Page-1" stroke="none" stroke-width="1" fill="none" fill-rule="evenodd">
        <g id="GDG" transform="translate(-311.000000, -253.000000)">
            <g id="Color" transform="translate(298.000000, 238.000000)">
                <path d="M308.098276,129.482291 L464.353126,129.621145 C484.957227,129.639454 501.655588,146.337799 501.673918,166.9419 L501.673942,166.96913 C501.692242,187.540939 485.030332,204.232521 464.458523,204.250821 C464.436444,204.250841 464.414365,204.250841 464.392287,204.250821 L308.137436,204.111968 C287.533335,204.093658 270.834974,187.395314 270.816645,166.791213 L270.816621,166.763982 C270.79832,146.192174 287.460231,129.500592 308.03204,129.482291 C308.054119,129.482272 308.076197,129.482272 308.098276,129.482291 Z" id="Rectangle" fill="#FBBC04" transform="translate(386.245281, 166.866556) rotate(-29.360000) translate(-386.245281, -166.866556) "></path>
                <path d="M308.146087,53.9008518 L464.400937,53.7619983 C484.972746,53.7437175 501.664312,70.4056441 501.682593,90.9774529 C501.682612,90.9995318 501.682612,91.0216106 501.682592,91.0436895 L501.682568,91.0709197 C501.664239,111.675021 484.965878,128.373365 464.361777,128.391675 L308.106927,128.530529 C287.535118,128.548809 270.843552,111.886883 270.825271,91.3150739 C270.825252,91.2929951 270.825252,91.2709162 270.825272,91.2488374 L270.825296,91.2216072 C270.843625,70.6175062 287.541986,53.9191614 308.146087,53.9008518 Z" id="Rectangle" fill="#0F9D58" transform="translate(386.253932, 91.146263) rotate(29.360000) translate(-386.253932, -91.146263) "></path>
                <path d="M220.060929,34.6402941 C209.944304,16.7006555 187.175842,10.3326237 169.189899,20.4123529 L33.0015354,96.9017647 C28.5167658,99.45747 24.6285728,102.936636 21.5954747,107.107941 C22.9261818,108.170294 71.7441212,136.322647 89.6136162,150.740294 L205.841374,85.4435294 C214.47839,80.5887165 220.828876,72.5086127 223.495606,62.9809925 C226.162336,53.4533722 224.926833,43.2588076 220.060929,34.6402941 Z" id="Path" fill="#EA4335"></path>
                <path d="M41.3157025,129.608701 L197.570553,129.469848 C218.142362,129.451567 234.833927,146.113493 234.852208,166.685302 C234.852228,166.707381 234.852228,166.72946 234.852208,166.751539 L234.852184,166.778769 C234.833855,187.38287 218.135494,204.081215 197.531393,204.099524 L41.2765425,204.238378 C20.7047336,204.256659 4.01316791,187.594732 3.99488708,167.022923 C3.99486746,167.000844 3.99486747,166.978765 3.99488712,166.956687 L3.99491134,166.929456 C4.01324066,146.325355 20.7116015,129.627011 41.3157025,129.608701 Z" id="Rectangle" fill="#4285F4" transform="translate(119.423548, 166.854113) rotate(-150.640000) translate(-119.423548, -166.854113) "></path>
            </g>
        </g>
    </g>
</svg>